<?xml version="1.0" encoding="utf-8"?>
<svg width="340px" height="340px" viewBox="0 0 340 340" version="1.1" xmlns:xlink="http://www.w3.org/1999/xlink" xmlns="http://www.w3.org/2000/svg">
  <g id="Logo-mark-color">
    <path d="M37.7779 0L37.7779 37.7778L56.6667 37.7778L56.6667 0L340 0L340 340L0 340L0 56.6667L37.7771 56.6667L37.7771 37.7778L0 37.7778L0 0L37.7779 0L37.7779 0ZM37.7769 37.7827L37.7769 302.227L302.221 302.227L302.221 37.7827L37.7769 37.7827L37.7769 37.7827ZM56.6685 56.6628L56.6685 100.737L100.743 100.737L100.743 56.6628L56.6685 56.6628L56.6685 56.6628ZM119.628 56.6628L119.628 100.737L163.702 100.737L163.702 56.6628L119.628 56.6628L119.628 56.6628ZM182.594 56.6628L182.594 100.737L226.668 100.737L226.668 56.6628L182.594 56.6628L182.594 56.6628ZM56.6685 119.634L56.6685 163.708L100.743 163.708L100.743 119.634L56.6685 119.634L56.6685 119.634ZM119.628 119.634L119.628 163.708L163.702 163.708L163.702 119.634L119.628 119.634L119.628 119.634ZM56.6685 182.594L56.6685 226.668L100.743 226.668L100.743 182.594L56.6685 182.594L56.6685 182.594Z" id="Vector" fill="#0583D6" fill-rule="evenodd" stroke="none" />
  </g>
</svg>