
      <svg xmlns="http://www.w3.org/2000/svg" version="1.1" style="display: block;" width="2000" height="1600"><polygon stroke-linejoin="round" stroke-miterlimit="1" stroke-width="1" points="1309,1578 1218,1567 1001,1578" style="fill:#2d0c0c;stroke:#2d0c0c;"></polygon><polygon stroke-linejoin="round" stroke-miterlimit="1" stroke-width="1" points="1979,19 1379,19 1575,77" style="fill:#d51d8c;stroke:#d51d8c;"></polygon><polygon stroke-linejoin="round" stroke-miterlimit="1" stroke-width="1" points="1998,475 1824,417 1791,692" style="fill:#7b135b;stroke:#7b135b;"></polygon><polygon stroke-linejoin="round" stroke-miterlimit="1" stroke-width="1" points="1998,348 1824,417 1998,475" style="fill:#9e186c;stroke:#9e186c;"></polygon><polygon stroke-linejoin="round" stroke-miterlimit="1" stroke-width="1" points="1998,348 1950,285 1824,417" style="fill:#9e1378;stroke:#9e1378;"></polygon><polygon stroke-linejoin="round" stroke-miterlimit="1" stroke-width="1" points="1998,122 1979,19 1732,190" style="fill:#dd10b8;stroke:#dd10b8;"></polygon><polygon stroke-linejoin="round" stroke-miterlimit="1" stroke-width="1" points="1998,122 1732,190 1950,285" style="fill:#d410ae;stroke:#d410ae;"></polygon><polygon stroke-linejoin="round" stroke-miterlimit="1" stroke-width="1" points="1998,122 1950,285 1998,348" style="fill:#a31079;stroke:#a31079;"></polygon><polygon stroke-linejoin="round" stroke-miterlimit="1" stroke-width="1" points="1998,1053 1929,1018 1944,1033" style="fill:#6c1255;stroke:#6c1255;"></polygon><polygon stroke-linejoin="round" stroke-miterlimit="1" stroke-width="1" points="1998,1053 1913,918 1929,1018" style="fill:#651b3c;stroke:#651b3c;"></polygon><polygon stroke-linejoin="round" stroke-miterlimit="1" stroke-width="1" points="1998,1053 1944,1033 1963,1136" style="fill:#67212d;stroke:#67212d;"></polygon><polygon stroke-linejoin="round" stroke-miterlimit="1" stroke-width="1" points="1998,1432 1891,1325 1961,1427" style="fill:#ea477b;stroke:#ea477b;"></polygon><polygon stroke-linejoin="round" stroke-miterlimit="1" stroke-width="1" points="1998,1432 1919,1256 1891,1325" style="fill:#bd3e5b;stroke:#bd3e5b;"></polygon><polygon stroke-linejoin="round" stroke-miterlimit="1" stroke-width="1" points="1998,1432 1963,1136 1919,1256" style="fill:#9a304c;stroke:#9a304c;"></polygon><polygon stroke-linejoin="round" stroke-miterlimit="1" stroke-width="1" points="1998,1432 1998,1053 1963,1136" style="fill:#722432;stroke:#722432;"></polygon><polygon stroke-linejoin="round" stroke-miterlimit="1" stroke-width="1" points="1998,662 1998,475 1791,692" style="fill:#741455;stroke:#741455;"></polygon><polygon stroke-linejoin="round" stroke-miterlimit="1" stroke-width="1" points="1998,662 1791,692 1920,728" style="fill:#701a3e;stroke:#701a3e;"></polygon><polygon stroke-linejoin="round" stroke-miterlimit="1" stroke-width="1" points="1998,1491 1998,1432 1961,1427" style="fill:#c83f5f;stroke:#c83f5f;"></polygon><polygon stroke-linejoin="round" stroke-miterlimit="1" stroke-width="1" points="1998,1491 1961,1427 1867,1492" style="fill:#f24c77;stroke:#f24c77;"></polygon><polygon stroke-linejoin="round" stroke-miterlimit="1" stroke-width="1" points="1998,1578 1998,1491 1867,1492" style="fill:#d74568;stroke:#d74568;"></polygon><polygon stroke-linejoin="round" stroke-miterlimit="1" stroke-width="1" points="1998,1578 1867,1492 1690,1578" style="fill:#d14368;stroke:#d14368;"></polygon><polygon stroke-linejoin="round" stroke-miterlimit="1" stroke-width="1" points="1998,799 1920,728 1851,815" style="fill:#64134f;stroke:#64134f;"></polygon><polygon stroke-linejoin="round" stroke-miterlimit="1" stroke-width="1" points="1998,799 1851,815 1913,918" style="fill:#611546;stroke:#611546;"></polygon><polygon stroke-linejoin="round" stroke-miterlimit="1" stroke-width="1" points="1998,799 1913,918 1998,1053" style="fill:#631647;stroke:#631647;"></polygon><polygon stroke-linejoin="round" stroke-miterlimit="1" stroke-width="1" points="1998,799 1998,662 1920,728" style="fill:#5e133f;stroke:#5e133f;"></polygon><polygon stroke-linejoin="round" stroke-miterlimit="1" stroke-width="1" points="1998,19 1979,19 1998,122" style="fill:#870668;stroke:#870668;"></polygon><polygon stroke-linejoin="round" stroke-miterlimit="1" stroke-width="1" points="1963,1136 1944,1033 1882,1055" style="fill:#751b53;stroke:#751b53;"></polygon><polygon stroke-linejoin="round" stroke-miterlimit="1" stroke-width="1" points="1979,19 1575,77 1711,162" style="fill:#c0119b;stroke:#c0119b;"></polygon><polygon stroke-linejoin="round" stroke-miterlimit="1" stroke-width="1" points="1979,19 1711,162 1732,190" style="fill:#e715b0;stroke:#e715b0;"></polygon><polygon stroke-linejoin="round" stroke-miterlimit="1" stroke-width="1" points="1963,1136 1811,1154 1919,1256" style="fill:#952d4a;stroke:#952d4a;"></polygon><polygon stroke-linejoin="round" stroke-miterlimit="1" stroke-width="1" points="1963,1136 1882,1055 1811,1154" style="fill:#8b264e;stroke:#8b264e;"></polygon><polygon stroke-linejoin="round" stroke-miterlimit="1" stroke-width="1" points="1961,1427 1891,1325 1823,1465" style="fill:#d74960;stroke:#d74960;"></polygon><polygon stroke-linejoin="round" stroke-miterlimit="1" stroke-width="1" points="1961,1427 1823,1465 1867,1492" style="fill:#ff509b;stroke:#ff509b;"></polygon><polygon stroke-linejoin="round" stroke-miterlimit="1" stroke-width="1" points="1950,285 1732,190 1824,417" style="fill:#b41487;stroke:#b41487;"></polygon><polygon stroke-linejoin="round" stroke-miterlimit="1" stroke-width="1" points="1944,1033 1929,1018 1882,1055" style="fill:#7b1a5d;stroke:#7b1a5d;"></polygon><polygon stroke-linejoin="round" stroke-miterlimit="1" stroke-width="1" points="1929,1018 1913,918 1882,1055" style="fill:#73203f;stroke:#73203f;"></polygon><polygon stroke-linejoin="round" stroke-miterlimit="1" stroke-width="1" points="1913,918 1759,1040 1882,1055" style="fill:#6e1e40;stroke:#6e1e40;"></polygon><polygon stroke-linejoin="round" stroke-miterlimit="1" stroke-width="1" points="1919,1256 1807,1301 1891,1325" style="fill:#a53a42;stroke:#a53a42;"></polygon><polygon stroke-linejoin="round" stroke-miterlimit="1" stroke-width="1" points="1919,1256 1811,1154 1807,1301" style="fill:#a73154;stroke:#a73154;"></polygon><polygon stroke-linejoin="round" stroke-miterlimit="1" stroke-width="1" points="1920,728 1791,692 1851,815" style="fill:#6e174c;stroke:#6e174c;"></polygon><polygon stroke-linejoin="round" stroke-miterlimit="1" stroke-width="1" points="1867,1492 1724,1503 1690,1578" style="fill:#863230;stroke:#863230;"></polygon><polygon stroke-linejoin="round" stroke-miterlimit="1" stroke-width="1" points="1891,1325 1750,1397 1823,1465" style="fill:#c7425a;stroke:#c7425a;"></polygon><polygon stroke-linejoin="round" stroke-miterlimit="1" stroke-width="1" points="1913,918 1851,815 1759,1040" style="fill:#651a3e;stroke:#651a3e;"></polygon><polygon stroke-linejoin="round" stroke-miterlimit="1" stroke-width="1" points="1851,815 1699,834 1759,1040" style="fill:#6b1a45;stroke:#6b1a45;"></polygon><polygon stroke-linejoin="round" stroke-miterlimit="1" stroke-width="1" points="1891,1325 1807,1301 1750,1397" style="fill:#b93d53;stroke:#b93d53;"></polygon><polygon stroke-linejoin="round" stroke-miterlimit="1" stroke-width="1" points="1867,1492 1823,1465 1724,1503" style="fill:#ff49ae;stroke:#ff49ae;"></polygon><polygon stroke-linejoin="round" stroke-miterlimit="1" stroke-width="1" points="1882,1055 1759,1040 1811,1154" style="fill:#752045;stroke:#752045;"></polygon><polygon stroke-linejoin="round" stroke-miterlimit="1" stroke-width="1" points="1824,417 1562,686 1791,692" style="fill:#721453;stroke:#721453;"></polygon><polygon stroke-linejoin="round" stroke-miterlimit="1" stroke-width="1" points="1811,1154 1728,1169 1807,1301" style="fill:#982955;stroke:#982955;"></polygon><polygon stroke-linejoin="round" stroke-miterlimit="1" stroke-width="1" points="1824,417 1732,190 1572,320" style="fill:#951178;stroke:#951178;"></polygon><polygon stroke-linejoin="round" stroke-miterlimit="1" stroke-width="1" points="1851,815 1791,692 1699,834" style="fill:#67154c;stroke:#67154c;"></polygon><polygon stroke-linejoin="round" stroke-miterlimit="1" stroke-width="1" points="1807,1301 1729,1298 1750,1397" style="fill:#b13360;stroke:#b13360;"></polygon><polygon stroke-linejoin="round" stroke-miterlimit="1" stroke-width="1" points="1807,1301 1728,1169 1729,1298" style="fill:#942c4e;stroke:#942c4e;"></polygon><polygon stroke-linejoin="round" stroke-miterlimit="1" stroke-width="1" points="1811,1154 1759,1040 1728,1169" style="fill:#832544;stroke:#832544;"></polygon><polygon stroke-linejoin="round" stroke-miterlimit="1" stroke-width="1" points="1823,1465 1750,1397 1724,1503" style="fill:#aa3a47;stroke:#aa3a47;"></polygon><polygon stroke-linejoin="round" stroke-miterlimit="1" stroke-width="1" points="1824,417 1572,320 1456,515" style="fill:#731062;stroke:#731062;"></polygon><polygon stroke-linejoin="round" stroke-miterlimit="1" stroke-width="1" points="1824,417 1456,515 1562,686" style="fill:#711357;stroke:#711357;"></polygon><polygon stroke-linejoin="round" stroke-miterlimit="1" stroke-width="1" points="1732,190 1688,182 1572,320" style="fill:#af167b;stroke:#af167b;"></polygon><polygon stroke-linejoin="round" stroke-miterlimit="1" stroke-width="1" points="1759,1040 1699,834 1579,1052" style="fill:#6e1e3d;stroke:#6e1e3d;"></polygon><polygon stroke-linejoin="round" stroke-miterlimit="1" stroke-width="1" points="1791,692 1562,686 1699,834" style="fill:#70174e;stroke:#70174e;"></polygon><polygon stroke-linejoin="round" stroke-miterlimit="1" stroke-width="1" points="1690,1578 1408,1519 1309,1578" style="fill:#762048;stroke:#762048;"></polygon><polygon stroke-linejoin="round" stroke-miterlimit="1" stroke-width="1" points="1699,834 1537,884 1579,1052" style="fill:#661a41;stroke:#661a41;"></polygon><polygon stroke-linejoin="round" stroke-miterlimit="1" stroke-width="1" points="1724,1503 1704,1510 1690,1578" style="fill:#ad3260;stroke:#ad3260;"></polygon><polygon stroke-linejoin="round" stroke-miterlimit="1" stroke-width="1" points="1750,1397 1672,1478 1724,1503" style="fill:#a33352;stroke:#a33352;"></polygon><polygon stroke-linejoin="round" stroke-miterlimit="1" stroke-width="1" points="1750,1397 1674,1404 1672,1478" style="fill:#9c3440;stroke:#9c3440;"></polygon><polygon stroke-linejoin="round" stroke-miterlimit="1" stroke-width="1" points="1750,1397 1729,1298 1674,1404" style="fill:#9d3148;stroke:#9d3148;"></polygon><polygon stroke-linejoin="round" stroke-miterlimit="1" stroke-width="1" points="1759,1040 1579,1052 1728,1169" style="fill:#7b2145;stroke:#7b2145;"></polygon><polygon stroke-linejoin="round" stroke-miterlimit="1" stroke-width="1" points="1728,1169 1579,1052 1564,1087" style="fill:#7d1b5c;stroke:#7d1b5c;"></polygon><polygon stroke-linejoin="round" stroke-miterlimit="1" stroke-width="1" points="1724,1503 1672,1478 1704,1510" style="fill:#9d314d;stroke:#9d314d;"></polygon><polygon stroke-linejoin="round" stroke-miterlimit="1" stroke-width="1" points="1729,1298 1728,1169 1519,1217" style="fill:#82244e;stroke:#82244e;"></polygon><polygon stroke-linejoin="round" stroke-miterlimit="1" stroke-width="1" points="1732,190 1711,162 1688,182" style="fill:#9a0888;stroke:#9a0888;"></polygon><polygon stroke-linejoin="round" stroke-miterlimit="1" stroke-width="1" points="1729,1298 1519,1217 1674,1404" style="fill:#892850;stroke:#892850;"></polygon><polygon stroke-linejoin="round" stroke-miterlimit="1" stroke-width="1" points="1711,162 1575,77 1688,182" style="fill:#d32089;stroke:#d32089;"></polygon><polygon stroke-linejoin="round" stroke-miterlimit="1" stroke-width="1" points="1728,1169 1564,1087 1519,1217" style="fill:#73203e;stroke:#73203e;"></polygon><polygon stroke-linejoin="round" stroke-miterlimit="1" stroke-width="1" points="1699,834 1562,686 1537,884" style="fill:#65154d;stroke:#65154d;"></polygon><polygon stroke-linejoin="round" stroke-miterlimit="1" stroke-width="1" points="1704,1510 1672,1478 1690,1578" style="fill:#c13d53;stroke:#c13d53;"></polygon><polygon stroke-linejoin="round" stroke-miterlimit="1" stroke-width="1" points="1690,1578 1672,1478 1482,1454" style="fill:#752435;stroke:#752435;"></polygon><polygon stroke-linejoin="round" stroke-miterlimit="1" stroke-width="1" points="1690,1578 1482,1454 1408,1519" style="fill:#71203e;stroke:#71203e;"></polygon><polygon stroke-linejoin="round" stroke-miterlimit="1" stroke-width="1" points="1674,1404 1519,1217 1482,1454" style="fill:#782242;stroke:#782242;"></polygon><polygon stroke-linejoin="round" stroke-miterlimit="1" stroke-width="1" points="1688,182 1575,77 1572,320" style="fill:#911174;stroke:#911174;"></polygon><polygon stroke-linejoin="round" stroke-miterlimit="1" stroke-width="1" points="1674,1404 1482,1454 1672,1478" style="fill:#8d2b4e;stroke:#8d2b4e;"></polygon><polygon stroke-linejoin="round" stroke-miterlimit="1" stroke-width="1" points="1519,1217 1447,1240 1482,1454" style="fill:#802444;stroke:#802444;"></polygon><polygon stroke-linejoin="round" stroke-miterlimit="1" stroke-width="1" points="1562,686 1372,636 1537,884" style="fill:#621547;stroke:#621547;"></polygon><polygon stroke-linejoin="round" stroke-miterlimit="1" stroke-width="1" points="1562,686 1456,515 1372,636" style="fill:#681547;stroke:#681547;"></polygon><polygon stroke-linejoin="round" stroke-miterlimit="1" stroke-width="1" points="1564,1087 1459,1203 1519,1217" style="fill:#701b54;stroke:#701b54;"></polygon><polygon stroke-linejoin="round" stroke-miterlimit="1" stroke-width="1" points="1572,320 1345,266 1456,515" style="fill:#6a1155;stroke:#6a1155;"></polygon><polygon stroke-linejoin="round" stroke-miterlimit="1" stroke-width="1" points="1572,320 1451,104 1345,266" style="fill:#680f5c;stroke:#680f5c;"></polygon><polygon stroke-linejoin="round" stroke-miterlimit="1" stroke-width="1" points="1575,77 1379,19 1451,104" style="fill:#550752;stroke:#550752;"></polygon><polygon stroke-linejoin="round" stroke-miterlimit="1" stroke-width="1" points="1575,77 1451,104 1572,320" style="fill:#7b1166;stroke:#7b1166;"></polygon><polygon stroke-linejoin="round" stroke-miterlimit="1" stroke-width="1" points="1579,1052 1443,962 1564,1087" style="fill:#701c2b;stroke:#701c2b;"></polygon><polygon stroke-linejoin="round" stroke-miterlimit="1" stroke-width="1" points="1579,1052 1453,948 1443,962" style="fill:#651a3c;stroke:#651a3c;"></polygon><polygon stroke-linejoin="round" stroke-miterlimit="1" stroke-width="1" points="1579,1052 1537,884 1453,948" style="fill:#65174a;stroke:#65174a;"></polygon><polygon stroke-linejoin="round" stroke-miterlimit="1" stroke-width="1" points="1564,1087 1443,962 1459,1203" style="fill:#691b48;stroke:#691b48;"></polygon><polygon stroke-linejoin="round" stroke-miterlimit="1" stroke-width="1" points="1537,884 1372,636 1453,948" style="fill:#5f1644;stroke:#5f1644;"></polygon><polygon stroke-linejoin="round" stroke-miterlimit="1" stroke-width="1" points="1451,104 1323,174 1345,266" style="fill:#771457;stroke:#771457;"></polygon><polygon stroke-linejoin="round" stroke-miterlimit="1" stroke-width="1" points="1482,1454 1447,1240 1401,1480" style="fill:#671b3b;stroke:#671b3b;"></polygon><polygon stroke-linejoin="round" stroke-miterlimit="1" stroke-width="1" points="1519,1217 1459,1203 1447,1240" style="fill:#71155d;stroke:#71155d;"></polygon><polygon stroke-linejoin="round" stroke-miterlimit="1" stroke-width="1" points="1443,962 1207,1003 1225,1153" style="fill:#591735;stroke:#591735;"></polygon><polygon stroke-linejoin="round" stroke-miterlimit="1" stroke-width="1" points="1447,1240 1256,1339 1401,1480" style="fill:#621c3b;stroke:#621c3b;"></polygon><polygon stroke-linejoin="round" stroke-miterlimit="1" stroke-width="1" points="1453,948 1344,633 1126,901" style="fill:#571344;stroke:#571344;"></polygon><polygon stroke-linejoin="round" stroke-miterlimit="1" stroke-width="1" points="1453,948 1126,901 1207,1003" style="fill:#571444;stroke:#571444;"></polygon><polygon stroke-linejoin="round" stroke-miterlimit="1" stroke-width="1" points="1453,948 1372,636 1344,633" style="fill:#64144c;stroke:#64144c;"></polygon><polygon stroke-linejoin="round" stroke-miterlimit="1" stroke-width="1" points="1456,515 1345,266 1215,412" style="fill:#5f124c;stroke:#5f124c;"></polygon><polygon stroke-linejoin="round" stroke-miterlimit="1" stroke-width="1" points="1459,1203 1443,962 1225,1153" style="fill:#5d173a;stroke:#5d173a;"></polygon><polygon stroke-linejoin="round" stroke-miterlimit="1" stroke-width="1" points="1482,1454 1401,1480 1408,1519" style="fill:#6d1a46;stroke:#6d1a46;"></polygon><polygon stroke-linejoin="round" stroke-miterlimit="1" stroke-width="1" points="1344,633 1175,655 1126,901" style="fill:#5d1542;stroke:#5d1542;"></polygon><polygon stroke-linejoin="round" stroke-miterlimit="1" stroke-width="1" points="1453,948 1207,1003 1443,962" style="fill:#5d144e;stroke:#5d144e;"></polygon><polygon stroke-linejoin="round" stroke-miterlimit="1" stroke-width="1" points="1456,515 1215,412 1269,567" style="fill:#63134d;stroke:#63134d;"></polygon><polygon stroke-linejoin="round" stroke-miterlimit="1" stroke-width="1" points="1456,515 1344,633 1372,636" style="fill:#490c53;stroke:#490c53;"></polygon><polygon stroke-linejoin="round" stroke-miterlimit="1" stroke-width="1" points="1459,1203 1225,1153 1447,1240" style="fill:#5c171c;stroke:#5c171c;"></polygon><polygon stroke-linejoin="round" stroke-miterlimit="1" stroke-width="1" points="1456,515 1269,567 1344,633" style="fill:#62134d;stroke:#62134d;"></polygon><polygon stroke-linejoin="round" stroke-miterlimit="1" stroke-width="1" points="1451,104 1379,19 1323,174" style="fill:#601054;stroke:#601054;"></polygon><polygon stroke-linejoin="round" stroke-miterlimit="1" stroke-width="1" points="1447,1240 1225,1153 1256,1339" style="fill:#5a1837;stroke:#5a1837;"></polygon><polygon stroke-linejoin="round" stroke-miterlimit="1" stroke-width="1" points="1379,19 1273,19 1323,174" style="fill:#510e4e;stroke:#510e4e;"></polygon><polygon stroke-linejoin="round" stroke-miterlimit="1" stroke-width="1" points="1408,1519 1401,1480 1309,1578" style="fill:#441a19;stroke:#441a19;"></polygon><polygon stroke-linejoin="round" stroke-miterlimit="1" stroke-width="1" points="1401,1480 1256,1339 1309,1578" style="fill:#541431;stroke:#541431;"></polygon><polygon stroke-linejoin="round" stroke-miterlimit="1" stroke-width="1" points="1001,1578 888,1551 625,1578" style="fill:#480f2f;stroke:#480f2f;"></polygon><polygon stroke-linejoin="round" stroke-miterlimit="1" stroke-width="1" points="1001,19 419,19 783,81" style="fill:#65185c;stroke:#65185c;"></polygon><polygon stroke-linejoin="round" stroke-miterlimit="1" stroke-width="1" points="1207,1003 1126,901 1181,989" style="fill:#6f1851;stroke:#6f1851;"></polygon><polygon stroke-linejoin="round" stroke-miterlimit="1" stroke-width="1" points="1309,1578 1256,1339 1218,1567" style="fill:#541632;stroke:#541632;"></polygon><polygon stroke-linejoin="round" stroke-miterlimit="1" stroke-width="1" points="1344,633 1270,608 1175,655" style="fill:#420b58;stroke:#420b58;"></polygon><polygon stroke-linejoin="round" stroke-miterlimit="1" stroke-width="1" points="1344,633 1269,567 1270,608" style="fill:#600c5a;stroke:#600c5a;"></polygon><polygon stroke-linejoin="round" stroke-miterlimit="1" stroke-width="1" points="1269,567 1215,412 1178,498" style="fill:#571249;stroke:#571249;"></polygon><polygon stroke-linejoin="round" stroke-miterlimit="1" stroke-width="1" points="1345,266 1323,174 1215,412" style="fill:#751553;stroke:#751553;"></polygon><polygon stroke-linejoin="round" stroke-miterlimit="1" stroke-width="1" points="1323,174 986,265 1067,376" style="fill:#470f4a;stroke:#470f4a;"></polygon><polygon stroke-linejoin="round" stroke-miterlimit="1" stroke-width="1" points="1323,174 1007,128 986,265" style="fill:#50104d;stroke:#50104d;"></polygon><polygon stroke-linejoin="round" stroke-miterlimit="1" stroke-width="1" points="1323,174 1067,376 1215,412" style="fill:#5a114c;stroke:#5a114c;"></polygon><polygon stroke-linejoin="round" stroke-miterlimit="1" stroke-width="1" points="1323,174 1273,19 1007,128" style="fill:#60124f;stroke:#60124f;"></polygon><polygon stroke-linejoin="round" stroke-miterlimit="1" stroke-width="1" points="1218,1567 1063,1547 1001,1578" style="fill:#76195e;stroke:#76195e;"></polygon><polygon stroke-linejoin="round" stroke-miterlimit="1" stroke-width="1" points="1175,655 1054,822 1126,901" style="fill:#4f1248;stroke:#4f1248;"></polygon><polygon stroke-linejoin="round" stroke-miterlimit="1" stroke-width="1" points="1256,1339 1063,1547 1218,1567" style="fill:#561538;stroke:#561538;"></polygon><polygon stroke-linejoin="round" stroke-miterlimit="1" stroke-width="1" points="1256,1339 1083,1273 1063,1547" style="fill:#521239;stroke:#521239;"></polygon><polygon stroke-linejoin="round" stroke-miterlimit="1" stroke-width="1" points="1256,1339 1225,1153 1083,1273" style="fill:#56163c;stroke:#56163c;"></polygon><polygon stroke-linejoin="round" stroke-miterlimit="1" stroke-width="1" points="1273,19 1001,19 1007,128" style="fill:#4d0f4b;stroke:#4d0f4b;"></polygon><polygon stroke-linejoin="round" stroke-miterlimit="1" stroke-width="1" points="1270,608 1269,567 1175,655" style="fill:#902646;stroke:#902646;"></polygon><polygon stroke-linejoin="round" stroke-miterlimit="1" stroke-width="1" points="1269,567 1178,498 1175,655" style="fill:#4c0f4e;stroke:#4c0f4e;"></polygon><polygon stroke-linejoin="round" stroke-miterlimit="1" stroke-width="1" points="1225,1153 1181,989 970,1165" style="fill:#541345;stroke:#541345;"></polygon><polygon stroke-linejoin="round" stroke-miterlimit="1" stroke-width="1" points="1225,1153 970,1165 1083,1273" style="fill:#531438;stroke:#531438;"></polygon><polygon stroke-linejoin="round" stroke-miterlimit="1" stroke-width="1" points="1225,1153 1207,1003 1181,989" style="fill:#4c103a;stroke:#4c103a;"></polygon><polygon stroke-linejoin="round" stroke-miterlimit="1" stroke-width="1" points="1067,376 986,265 1016,343" style="fill:#641054;stroke:#641054;"></polygon><polygon stroke-linejoin="round" stroke-miterlimit="1" stroke-width="1" points="1215,412 1067,376 1178,498" style="fill:#480e4e;stroke:#480e4e;"></polygon><polygon stroke-linejoin="round" stroke-miterlimit="1" stroke-width="1" points="1007,128 988,153 986,265" style="fill:#3f1048;stroke:#3f1048;"></polygon><polygon stroke-linejoin="round" stroke-miterlimit="1" stroke-width="1" points="1054,822 970,637 989,793" style="fill:#420e39;stroke:#420e39;"></polygon><polygon stroke-linejoin="round" stroke-miterlimit="1" stroke-width="1" points="1175,655 970,637 1054,822" style="fill:#5a1542;stroke:#5a1542;"></polygon><polygon stroke-linejoin="round" stroke-miterlimit="1" stroke-width="1" points="1178,498 1007,427 947,547" style="fill:#50114d;stroke:#50114d;"></polygon><polygon stroke-linejoin="round" stroke-miterlimit="1" stroke-width="1" points="1178,498 970,637 1175,655" style="fill:#581345;stroke:#581345;"></polygon><polygon stroke-linejoin="round" stroke-miterlimit="1" stroke-width="1" points="1178,498 947,547 970,637" style="fill:#461047;stroke:#461047;"></polygon><polygon stroke-linejoin="round" stroke-miterlimit="1" stroke-width="1" points="1178,498 1067,376 1007,427" style="fill:#561249;stroke:#561249;"></polygon><polygon stroke-linejoin="round" stroke-miterlimit="1" stroke-width="1" points="1181,989 1126,901 970,1165" style="fill:#551441;stroke:#551441;"></polygon><polygon stroke-linejoin="round" stroke-miterlimit="1" stroke-width="1" points="1083,1273 862,1447 1063,1547" style="fill:#56143f;stroke:#56143f;"></polygon><polygon stroke-linejoin="round" stroke-miterlimit="1" stroke-width="1" points="1083,1273 875,1285 862,1447" style="fill:#4c1234;stroke:#4c1234;"></polygon><polygon stroke-linejoin="round" stroke-miterlimit="1" stroke-width="1" points="1126,901 1054,822 788,952" style="fill:#4f1245;stroke:#4f1245;"></polygon><polygon stroke-linejoin="round" stroke-miterlimit="1" stroke-width="1" points="1126,901 788,952 970,1165" style="fill:#4a113d;stroke:#4a113d;"></polygon><polygon stroke-linejoin="round" stroke-miterlimit="1" stroke-width="1" points="989,793 860,818 788,952" style="fill:#400e41;stroke:#400e41;"></polygon><polygon stroke-linejoin="round" stroke-miterlimit="1" stroke-width="1" points="989,793 970,637 927,701" style="fill:#4b1146;stroke:#4b1146;"></polygon><polygon stroke-linejoin="round" stroke-miterlimit="1" stroke-width="1" points="1054,822 989,793 788,952" style="fill:#541435;stroke:#541435;"></polygon><polygon stroke-linejoin="round" stroke-miterlimit="1" stroke-width="1" points="1063,1547 862,1447 1001,1578" style="fill:#56153b;stroke:#56153b;"></polygon><polygon stroke-linejoin="round" stroke-miterlimit="1" stroke-width="1" points="1083,1273 970,1165 875,1285" style="fill:#4b1329;stroke:#4b1329;"></polygon><polygon stroke-linejoin="round" stroke-miterlimit="1" stroke-width="1" points="1001,1578 862,1447 888,1551" style="fill:#581341;stroke:#581341;"></polygon><polygon stroke-linejoin="round" stroke-miterlimit="1" stroke-width="1" points="1067,376 1016,343 1007,427" style="fill:#59134e;stroke:#59134e;"></polygon><polygon stroke-linejoin="round" stroke-miterlimit="1" stroke-width="1" points="875,1285 835,1348 862,1447" style="fill:#390820;stroke:#390820;"></polygon><polygon stroke-linejoin="round" stroke-miterlimit="1" stroke-width="1" points="1001,19 783,81 988,153" style="fill:#5b1452;stroke:#5b1452;"></polygon><polygon stroke-linejoin="round" stroke-miterlimit="1" stroke-width="1" points="1007,128 1001,19 988,153" style="fill:#55166e;stroke:#55166e;"></polygon><polygon stroke-linejoin="round" stroke-miterlimit="1" stroke-width="1" points="1016,343 965,371 1007,427" style="fill:#2d0d43;stroke:#2d0d43;"></polygon><polygon stroke-linejoin="round" stroke-miterlimit="1" stroke-width="1" points="1016,343 986,265 965,371" style="fill:#410f4e;stroke:#410f4e;"></polygon><polygon stroke-linejoin="round" stroke-miterlimit="1" stroke-width="1" points="970,637 947,547 922,609" style="fill:#360c3c;stroke:#360c3c;"></polygon><polygon stroke-linejoin="round" stroke-miterlimit="1" stroke-width="1" points="1007,427 965,371 838,455" style="fill:#59144b;stroke:#59144b;"></polygon><polygon stroke-linejoin="round" stroke-miterlimit="1" stroke-width="1" points="1007,427 838,455 947,547" style="fill:#5e154b;stroke:#5e154b;"></polygon><polygon stroke-linejoin="round" stroke-miterlimit="1" stroke-width="1" points="988,153 776,128 986,265" style="fill:#5d164f;stroke:#5d164f;"></polygon><polygon stroke-linejoin="round" stroke-miterlimit="1" stroke-width="1" points="988,153 783,81 776,128" style="fill:#801d57;stroke:#801d57;"></polygon><polygon stroke-linejoin="round" stroke-miterlimit="1" stroke-width="1" points="989,793 927,701 860,818" style="fill:#5b153e;stroke:#5b153e;"></polygon><polygon stroke-linejoin="round" stroke-miterlimit="1" stroke-width="1" points="986,265 693,269 965,371" style="fill:#3b0f4d;stroke:#3b0f4d;"></polygon><polygon stroke-linejoin="round" stroke-miterlimit="1" stroke-width="1" points="986,265 776,128 693,269" style="fill:#411151;stroke:#411151;"></polygon><polygon stroke-linejoin="round" stroke-miterlimit="1" stroke-width="1" points="947,547 838,455 834,470" style="fill:#660c66;stroke:#660c66;"></polygon><polygon stroke-linejoin="round" stroke-miterlimit="1" stroke-width="1" points="965,371 693,269 838,455" style="fill:#45124f;stroke:#45124f;"></polygon><polygon stroke-linejoin="round" stroke-miterlimit="1" stroke-width="1" points="970,637 922,609 927,701" style="fill:#5b1353;stroke:#5b1353;"></polygon><polygon stroke-linejoin="round" stroke-miterlimit="1" stroke-width="1" points="970,1165 635,1132 875,1285" style="fill:#4d1232;stroke:#4d1232;"></polygon><polygon stroke-linejoin="round" stroke-miterlimit="1" stroke-width="1" points="970,1165 788,952 635,1132" style="fill:#480f2f;stroke:#480f2f;"></polygon><polygon stroke-linejoin="round" stroke-miterlimit="1" stroke-width="1" points="947,547 834,470 922,609" style="fill:#551351;stroke:#551351;"></polygon><polygon stroke-linejoin="round" stroke-miterlimit="1" stroke-width="1" points="927,701 922,609 799,772" style="fill:#330d47;stroke:#330d47;"></polygon><polygon stroke-linejoin="round" stroke-miterlimit="1" stroke-width="1" points="927,701 799,772 860,818" style="fill:#300c41;stroke:#300c41;"></polygon><polygon stroke-linejoin="round" stroke-miterlimit="1" stroke-width="1" points="922,609 834,470 657,499" style="fill:#461156;stroke:#461156;"></polygon><polygon stroke-linejoin="round" stroke-miterlimit="1" stroke-width="1" points="922,609 657,499 799,772" style="fill:#4b1247;stroke:#4b1247;"></polygon><polygon stroke-linejoin="round" stroke-miterlimit="1" stroke-width="1" points="799,772 657,499 629,741" style="fill:#43114c;stroke:#43114c;"></polygon><polygon stroke-linejoin="round" stroke-miterlimit="1" stroke-width="1" points="875,1285 635,1132 798,1345" style="fill:#561345;stroke:#561345;"></polygon><polygon stroke-linejoin="round" stroke-miterlimit="1" stroke-width="1" points="888,1551 862,1447 683,1414" style="fill:#681856;stroke:#681856;"></polygon><polygon stroke-linejoin="round" stroke-miterlimit="1" stroke-width="1" points="888,1551 683,1414 625,1578" style="fill:#4f1035;stroke:#4f1035;"></polygon><polygon stroke-linejoin="round" stroke-miterlimit="1" stroke-width="1" points="788,952 688,964 635,1132" style="fill:#5c163f;stroke:#5c163f;"></polygon><polygon stroke-linejoin="round" stroke-miterlimit="1" stroke-width="1" points="798,1345 635,1132 609,1232" style="fill:#4b0f36;stroke:#4b0f36;"></polygon><polygon stroke-linejoin="round" stroke-miterlimit="1" stroke-width="1" points="862,1447 835,1348 798,1345" style="fill:#5e144f;stroke:#5e144f;"></polygon><polygon stroke-linejoin="round" stroke-miterlimit="1" stroke-width="1" points="875,1285 798,1345 835,1348" style="fill:#480b3f;stroke:#480b3f;"></polygon><polygon stroke-linejoin="round" stroke-miterlimit="1" stroke-width="1" points="776,128 679,227 693,269" style="fill:#811c60;stroke:#811c60;"></polygon><polygon stroke-linejoin="round" stroke-miterlimit="1" stroke-width="1" points="838,455 693,269 623,355" style="fill:#541552;stroke:#541552;"></polygon><polygon stroke-linejoin="round" stroke-miterlimit="1" stroke-width="1" points="860,818 799,772 788,952" style="fill:#56143c;stroke:#56143c;"></polygon><polygon stroke-linejoin="round" stroke-miterlimit="1" stroke-width="1" points="862,1447 798,1345 683,1414" style="fill:#58153e;stroke:#58153e;"></polygon><polygon stroke-linejoin="round" stroke-miterlimit="1" stroke-width="1" points="799,772 683,818 788,952" style="fill:#501448;stroke:#501448;"></polygon><polygon stroke-linejoin="round" stroke-miterlimit="1" stroke-width="1" points="838,455 657,499 834,470" style="fill:#a62133;stroke:#a62133;"></polygon><polygon stroke-linejoin="round" stroke-miterlimit="1" stroke-width="1" points="838,455 623,355 657,499" style="fill:#421251;stroke:#421251;"></polygon><polygon stroke-linejoin="round" stroke-miterlimit="1" stroke-width="1" points="683,1414 611,1487 625,1578" style="fill:#520a38;stroke:#520a38;"></polygon><polygon stroke-linejoin="round" stroke-miterlimit="1" stroke-width="1" points="783,81 419,19 584,167" style="fill:#4b1660;stroke:#4b1660;"></polygon><polygon stroke-linejoin="round" stroke-miterlimit="1" stroke-width="1" points="788,952 683,818 688,964" style="fill:#3e0b29;stroke:#3e0b29;"></polygon><polygon stroke-linejoin="round" stroke-miterlimit="1" stroke-width="1" points="798,1345 595,1254 683,1414" style="fill:#571342;stroke:#571342;"></polygon><polygon stroke-linejoin="round" stroke-miterlimit="1" stroke-width="1" points="798,1345 609,1232 595,1254" style="fill:#942096;stroke:#942096;"></polygon><polygon stroke-linejoin="round" stroke-miterlimit="1" stroke-width="1" points="799,772 629,741 683,818" style="fill:#5d1433;stroke:#5d1433;"></polygon><polygon stroke-linejoin="round" stroke-miterlimit="1" stroke-width="1" points="688,964 604,1070 635,1132" style="fill:#370b3e;stroke:#370b3e;"></polygon><polygon stroke-linejoin="round" stroke-miterlimit="1" stroke-width="1" points="783,81 584,167 776,128" style="fill:#62175e;stroke:#62175e;"></polygon><polygon stroke-linejoin="round" stroke-miterlimit="1" stroke-width="1" points="776,128 584,167 679,227" style="fill:#260f52;stroke:#260f52;"></polygon><polygon stroke-linejoin="round" stroke-miterlimit="1" stroke-width="1" points="657,499 623,355 587,397" style="fill:#2f1157;stroke:#2f1157;"></polygon><polygon stroke-linejoin="round" stroke-miterlimit="1" stroke-width="1" points="657,499 587,397 592,487" style="fill:#3e1146;stroke:#3e1146;"></polygon><polygon stroke-linejoin="round" stroke-miterlimit="1" stroke-width="1" points="657,499 524,574 629,741" style="fill:#300f4a;stroke:#300f4a;"></polygon><polygon stroke-linejoin="round" stroke-miterlimit="1" stroke-width="1" points="657,499 592,487 524,574" style="fill:#3f1358;stroke:#3f1358;"></polygon><polygon stroke-linejoin="round" stroke-miterlimit="1" stroke-width="1" points="688,964 683,818 589,936" style="fill:#581545;stroke:#581545;"></polygon><polygon stroke-linejoin="round" stroke-miterlimit="1" stroke-width="1" points="688,964 589,936 604,1070" style="fill:#400d33;stroke:#400d33;"></polygon><polygon stroke-linejoin="round" stroke-miterlimit="1" stroke-width="1" points="693,269 679,227 559,309" style="fill:#36125c;stroke:#36125c;"></polygon><polygon stroke-linejoin="round" stroke-miterlimit="1" stroke-width="1" points="693,269 559,309 623,355" style="fill:#55175d;stroke:#55175d;"></polygon><polygon stroke-linejoin="round" stroke-miterlimit="1" stroke-width="1" points="683,1414 595,1254 611,1487" style="fill:#490d2c;stroke:#490d2c;"></polygon><polygon stroke-linejoin="round" stroke-miterlimit="1" stroke-width="1" points="683,818 629,741 492,856" style="fill:#4e1349;stroke:#4e1349;"></polygon><polygon stroke-linejoin="round" stroke-miterlimit="1" stroke-width="1" points="683,818 492,856 589,936" style="fill:#4c1140;stroke:#4c1140;"></polygon><polygon stroke-linejoin="round" stroke-miterlimit="1" stroke-width="1" points="679,227 584,167 559,309" style="fill:#34135b;stroke:#34135b;"></polygon><polygon stroke-linejoin="round" stroke-miterlimit="1" stroke-width="1" points="611,1487 595,1254 432,1256" style="fill:#561039;stroke:#561039;"></polygon><polygon stroke-linejoin="round" stroke-miterlimit="1" stroke-width="1" points="623,355 559,309 587,365" style="fill:#4e1662;stroke:#4e1662;"></polygon><polygon stroke-linejoin="round" stroke-miterlimit="1" stroke-width="1" points="623,355 587,365 587,397" style="fill:#1c135d;stroke:#1c135d;"></polygon><polygon stroke-linejoin="round" stroke-miterlimit="1" stroke-width="1" points="625,1578 611,1487 535,1578" style="fill:#480b27;stroke:#480b27;"></polygon><polygon stroke-linejoin="round" stroke-miterlimit="1" stroke-width="1" points="629,741 524,574 449,748" style="fill:#42124c;stroke:#42124c;"></polygon><polygon stroke-linejoin="round" stroke-miterlimit="1" stroke-width="1" points="635,1132 474,1108 609,1232" style="fill:#4f113a;stroke:#4f113a;"></polygon><polygon stroke-linejoin="round" stroke-miterlimit="1" stroke-width="1" points="635,1132 604,1070 474,1108" style="fill:#4c1040;stroke:#4c1040;"></polygon><polygon stroke-linejoin="round" stroke-miterlimit="1" stroke-width="1" points="629,741 449,748 492,856" style="fill:#4e123c;stroke:#4e123c;"></polygon><polygon stroke-linejoin="round" stroke-miterlimit="1" stroke-width="1" points="611,1487 432,1256 460,1578" style="fill:#5a1235;stroke:#5a1235;"></polygon><polygon stroke-linejoin="round" stroke-miterlimit="1" stroke-width="1" points="595,1254 474,1108 432,1256" style="fill:#581238;stroke:#581238;"></polygon><polygon stroke-linejoin="round" stroke-miterlimit="1" stroke-width="1" points="604,1070 589,936 474,1108" style="fill:#58143e;stroke:#58143e;"></polygon><polygon stroke-linejoin="round" stroke-miterlimit="1" stroke-width="1" points="609,1232 474,1108 595,1254" style="fill:#460c2d;stroke:#460c2d;"></polygon><polygon stroke-linejoin="round" stroke-miterlimit="1" stroke-width="1" points="611,1487 460,1578 535,1578" style="fill:#5a0e37;stroke:#5a0e37;"></polygon><polygon stroke-linejoin="round" stroke-miterlimit="1" stroke-width="1" points="589,936 492,856 360,1022" style="fill:#380e46;stroke:#380e46;"></polygon><polygon stroke-linejoin="round" stroke-miterlimit="1" stroke-width="1" points="589,936 360,1022 474,1108" style="fill:#410e3e;stroke:#410e3e;"></polygon><polygon stroke-linejoin="round" stroke-miterlimit="1" stroke-width="1" points="592,487 587,397 456,514" style="fill:#5b1756;stroke:#5b1756;"></polygon><polygon stroke-linejoin="round" stroke-miterlimit="1" stroke-width="1" points="584,167 315,199 559,309" style="fill:#4f1a6f;stroke:#4f1a6f;"></polygon><polygon stroke-linejoin="round" stroke-miterlimit="1" stroke-width="1" points="592,487 456,514 524,574" style="fill:#60185c;stroke:#60185c;"></polygon><polygon stroke-linejoin="round" stroke-miterlimit="1" stroke-width="1" points="460,1578 432,1256 395,1578" style="fill:#621336;stroke:#621336;"></polygon><polygon stroke-linejoin="round" stroke-miterlimit="1" stroke-width="1" points="587,397 587,365 559,309" style="fill:#4e1660;stroke:#4e1660;"></polygon><polygon stroke-linejoin="round" stroke-miterlimit="1" stroke-width="1" points="587,397 559,309 456,514" style="fill:#32135e;stroke:#32135e;"></polygon><polygon stroke-linejoin="round" stroke-miterlimit="1" stroke-width="1" points="584,167 419,19 315,199" style="fill:#4e1b79;stroke:#4e1b79;"></polygon><polygon stroke-linejoin="round" stroke-miterlimit="1" stroke-width="1" points="456,514 315,199 223,307" style="fill:#421a77;stroke:#421a77;"></polygon><polygon stroke-linejoin="round" stroke-miterlimit="1" stroke-width="1" points="524,574 387,660 449,748" style="fill:#541553;stroke:#541553;"></polygon><polygon stroke-linejoin="round" stroke-miterlimit="1" stroke-width="1" points="559,309 315,199 456,514" style="fill:#43186c;stroke:#43186c;"></polygon><polygon stroke-linejoin="round" stroke-miterlimit="1" stroke-width="1" points="432,1256 264,1310 395,1578" style="fill:#560925;stroke:#560925;"></polygon><polygon stroke-linejoin="round" stroke-miterlimit="1" stroke-width="1" points="524,574 456,514 387,660" style="fill:#51144b;stroke:#51144b;"></polygon><polygon stroke-linejoin="round" stroke-miterlimit="1" stroke-width="1" points="395,1578 264,1310 219,1502" style="fill:#790e2e;stroke:#790e2e;"></polygon><polygon stroke-linejoin="round" stroke-miterlimit="1" stroke-width="1" points="492,856 449,748 357,831" style="fill:#421253;stroke:#421253;"></polygon><polygon stroke-linejoin="round" stroke-miterlimit="1" stroke-width="1" points="492,856 357,831 360,1022" style="fill:#400f41;stroke:#400f41;"></polygon><polygon stroke-linejoin="round" stroke-miterlimit="1" stroke-width="1" points="474,1108 288,1249 432,1256" style="fill:#5e1241;stroke:#5e1241;"></polygon><polygon stroke-linejoin="round" stroke-miterlimit="1" stroke-width="1" points="474,1108 360,1022 288,1249" style="fill:#470d37;stroke:#470d37;"></polygon><polygon stroke-linejoin="round" stroke-miterlimit="1" stroke-width="1" points="360,1022 232,1183 288,1249" style="fill:#370930;stroke:#370930;"></polygon><polygon stroke-linejoin="round" stroke-miterlimit="1" stroke-width="1" points="419,19 297,19 315,199" style="fill:#501e8b;stroke:#501e8b;"></polygon><polygon stroke-linejoin="round" stroke-miterlimit="1" stroke-width="1" points="456,514 223,307 168,341" style="fill:#481863;stroke:#481863;"></polygon><polygon stroke-linejoin="round" stroke-miterlimit="1" stroke-width="1" points="456,514 168,341 208,644" style="fill:#441662;stroke:#441662;"></polygon><polygon stroke-linejoin="round" stroke-miterlimit="1" stroke-width="1" points="456,514 208,644 270,669" style="fill:#3d145c;stroke:#3d145c;"></polygon><polygon stroke-linejoin="round" stroke-miterlimit="1" stroke-width="1" points="456,514 270,669 387,660" style="fill:#6a1953;stroke:#6a1953;"></polygon><polygon stroke-linejoin="round" stroke-miterlimit="1" stroke-width="1" points="432,1256 288,1249 264,1310" style="fill:#650f35;stroke:#650f35;"></polygon><polygon stroke-linejoin="round" stroke-miterlimit="1" stroke-width="1" points="449,748 387,660 357,831" style="fill:#38104a;stroke:#38104a;"></polygon><polygon stroke-linejoin="round" stroke-miterlimit="1" stroke-width="1" points="387,660 270,669 357,831" style="fill:#41103d;stroke:#41103d;"></polygon><polygon stroke-linejoin="round" stroke-miterlimit="1" stroke-width="1" points="360,1022 357,831 169,1043" style="fill:#481040;stroke:#481040;"></polygon><polygon stroke-linejoin="round" stroke-miterlimit="1" stroke-width="1" points="395,1578 219,1502 119,1578" style="fill:#6c0918;stroke:#6c0918;"></polygon><polygon stroke-linejoin="round" stroke-miterlimit="1" stroke-width="1" points="208,644 168,341 71,554" style="fill:#591c78;stroke:#591c78;"></polygon><polygon stroke-linejoin="round" stroke-miterlimit="1" stroke-width="1" points="315,199 297,19 242,19" style="fill:#311b89;stroke:#311b89;"></polygon><polygon stroke-linejoin="round" stroke-miterlimit="1" stroke-width="1" points="357,831 130,1025 169,1043" style="fill:#561243;stroke:#561243;"></polygon><polygon stroke-linejoin="round" stroke-miterlimit="1" stroke-width="1" points="360,1022 169,1043 232,1183" style="fill:#520f36;stroke:#520f36;"></polygon><polygon stroke-linejoin="round" stroke-miterlimit="1" stroke-width="1" points="357,831 270,669 10,832" style="fill:#481143;stroke:#481143;"></polygon><polygon stroke-linejoin="round" stroke-miterlimit="1" stroke-width="1" points="357,831 10,832 130,1025" style="fill:#4a1142;stroke:#4a1142;"></polygon><polygon stroke-linejoin="round" stroke-miterlimit="1" stroke-width="1" points="208,644 5,799 10,832" style="fill:#110e45;stroke:#110e45;"></polygon><polygon stroke-linejoin="round" stroke-miterlimit="1" stroke-width="1" points="242,19 227,19 179,199" style="fill:#1c1b87;stroke:#1c1b87;"></polygon><polygon stroke-linejoin="round" stroke-miterlimit="1" stroke-width="1" points="270,669 208,644 10,832" style="fill:#1e0e50;stroke:#1e0e50;"></polygon><polygon stroke-linejoin="round" stroke-miterlimit="1" stroke-width="1" points="315,199 242,19 179,199" style="fill:#341e98;stroke:#341e98;"></polygon><polygon stroke-linejoin="round" stroke-miterlimit="1" stroke-width="1" points="315,199 179,199 223,307" style="fill:#5323ab;stroke:#5323ab;"></polygon><polygon stroke-linejoin="round" stroke-miterlimit="1" stroke-width="1" points="232,1183 169,1043 204,1179" style="fill:#570f35;stroke:#570f35;"></polygon><polygon stroke-linejoin="round" stroke-miterlimit="1" stroke-width="1" points="264,1310 85,1352 219,1502" style="fill:#8d0a22;stroke:#8d0a22;"></polygon><polygon stroke-linejoin="round" stroke-miterlimit="1" stroke-width="1" points="264,1310 99,1324 85,1352" style="fill:#980d17;stroke:#980d17;"></polygon><polygon stroke-linejoin="round" stroke-miterlimit="1" stroke-width="1" points="288,1249 161,1217 264,1310" style="fill:#610b21;stroke:#610b21;"></polygon><polygon stroke-linejoin="round" stroke-miterlimit="1" stroke-width="1" points="288,1249 232,1183 161,1217" style="fill:#61050b;stroke:#61050b;"></polygon><polygon stroke-linejoin="round" stroke-miterlimit="1" stroke-width="1" points="208,644 5,727 5,799" style="fill:#56144d;stroke:#56144d;"></polygon><polygon stroke-linejoin="round" stroke-miterlimit="1" stroke-width="1" points="130,1025 10,832 5,935" style="fill:#501459;stroke:#501459;"></polygon><polygon stroke-linejoin="round" stroke-miterlimit="1" stroke-width="1" points="232,1183 204,1179 161,1217" style="fill:#6c144d;stroke:#6c144d;"></polygon><polygon stroke-linejoin="round" stroke-miterlimit="1" stroke-width="1" points="264,1310 161,1217 99,1324" style="fill:#760c27;stroke:#760c27;"></polygon><polygon stroke-linejoin="round" stroke-miterlimit="1" stroke-width="1" points="208,644 44,646 5,727" style="fill:#4f1554;stroke:#4f1554;"></polygon><polygon stroke-linejoin="round" stroke-miterlimit="1" stroke-width="1" points="227,19 5,81 179,199" style="fill:#5825a8;stroke:#5825a8;"></polygon><polygon stroke-linejoin="round" stroke-miterlimit="1" stroke-width="1" points="223,307 179,199 168,341" style="fill:#46209c;stroke:#46209c;"></polygon><polygon stroke-linejoin="round" stroke-miterlimit="1" stroke-width="1" points="227,19 5,19 5,81" style="fill:#381c87;stroke:#381c87;"></polygon><polygon stroke-linejoin="round" stroke-miterlimit="1" stroke-width="1" points="219,1502 85,1352 119,1578" style="fill:#d70c26;stroke:#d70c26;"></polygon><polygon stroke-linejoin="round" stroke-miterlimit="1" stroke-width="1" points="119,1578 85,1352 5,1519" style="fill:#c50a24;stroke:#c50a24;"></polygon><polygon stroke-linejoin="round" stroke-miterlimit="1" stroke-width="1" points="161,1217 110,1227 99,1324" style="fill:#b71d52;stroke:#b71d52;"></polygon><polygon stroke-linejoin="round" stroke-miterlimit="1" stroke-width="1" points="161,1217 68,1046 110,1227" style="fill:#3f0519;stroke:#3f0519;"></polygon><polygon stroke-linejoin="round" stroke-miterlimit="1" stroke-width="1" points="168,341 69,312 71,554" style="fill:#72228b;stroke:#72228b;"></polygon><polygon stroke-linejoin="round" stroke-miterlimit="1" stroke-width="1" points="169,1043 68,1046 161,1217" style="fill:#580e2c;stroke:#580e2c;"></polygon><polygon stroke-linejoin="round" stroke-miterlimit="1" stroke-width="1" points="179,199 69,312 168,341" style="fill:#381d8a;stroke:#381d8a;"></polygon><polygon stroke-linejoin="round" stroke-miterlimit="1" stroke-width="1" points="204,1179 169,1043 161,1217" style="fill:#88194f;stroke:#88194f;"></polygon><polygon stroke-linejoin="round" stroke-miterlimit="1" stroke-width="1" points="208,644 71,554 44,646" style="fill:#361566;stroke:#361566;"></polygon><polygon stroke-linejoin="round" stroke-miterlimit="1" stroke-width="1" points="110,1227 68,1046 5,1137" style="fill:#550e36;stroke:#550e36;"></polygon><polygon stroke-linejoin="round" stroke-miterlimit="1" stroke-width="1" points="169,1043 130,1025 68,1046" style="fill:#68102e;stroke:#68102e;"></polygon><polygon stroke-linejoin="round" stroke-miterlimit="1" stroke-width="1" points="179,199 5,81 69,312" style="fill:#381f97;stroke:#381f97;"></polygon><polygon stroke-linejoin="round" stroke-miterlimit="1" stroke-width="1" points="110,1227 5,1137 5,1153" style="fill:#6c0000;stroke:#6c0000;"></polygon><polygon stroke-linejoin="round" stroke-miterlimit="1" stroke-width="1" points="99,1324 58,1247 62,1309" style="fill:#8a113c;stroke:#8a113c;"></polygon><polygon stroke-linejoin="round" stroke-miterlimit="1" stroke-width="1" points="110,1227 58,1247 99,1324" style="fill:#5d0716;stroke:#5d0716;"></polygon><polygon stroke-linejoin="round" stroke-miterlimit="1" stroke-width="1" points="130,1025 5,935 68,1046" style="fill:#320822;stroke:#320822;"></polygon><polygon stroke-linejoin="round" stroke-miterlimit="1" stroke-width="1" points="110,1227 5,1153 58,1247" style="fill:#701035;stroke:#701035;"></polygon><polygon stroke-linejoin="round" stroke-miterlimit="1" stroke-width="1" points="119,1578 5,1519 5,1578" style="fill:#d31556;stroke:#d31556;"></polygon><polygon stroke-linejoin="round" stroke-miterlimit="1" stroke-width="1" points="68,1046 5,935 5,1039" style="fill:#5d134c;stroke:#5d134c;"></polygon><polygon stroke-linejoin="round" stroke-miterlimit="1" stroke-width="1" points="99,1324 62,1309 85,1352" style="fill:#94090a;stroke:#94090a;"></polygon><polygon stroke-linejoin="round" stroke-miterlimit="1" stroke-width="1" points="68,1046 5,1039 5,1137" style="fill:#1c0b3b;stroke:#1c0b3b;"></polygon><polygon stroke-linejoin="round" stroke-miterlimit="1" stroke-width="1" points="85,1352 62,1309 5,1519" style="fill:#c5112d;stroke:#c5112d;"></polygon><polygon stroke-linejoin="round" stroke-miterlimit="1" stroke-width="1" points="69,312 5,81 5,727" style="fill:#241462;stroke:#241462;"></polygon><polygon stroke-linejoin="round" stroke-miterlimit="1" stroke-width="1" points="71,554 69,312 5,727" style="fill:#882386;stroke:#882386;"></polygon><polygon stroke-linejoin="round" stroke-miterlimit="1" stroke-width="1" points="71,554 5,727 44,646" style="fill:#4c144f;stroke:#4c144f;"></polygon><polygon stroke-linejoin="round" stroke-miterlimit="1" stroke-width="1" points="62,1309 58,1247 5,1153" style="fill:#3a0516;stroke:#3a0516;"></polygon><polygon stroke-linejoin="round" stroke-miterlimit="1" stroke-width="1" points="62,1309 5,1153 5,1519" style="fill:#4e051a;stroke:#4e051a;"></polygon><polygon stroke-linejoin="round" stroke-miterlimit="1" stroke-width="1" points="10,832 5,799 5,935" style="fill:#010103;stroke:#010103;"></polygon></svg>