<?xml version="1.0" standalone="no"?>
<!DOCTYPE svg PUBLIC "-//W3C//DTD SVG 20010904//EN"
 "http://www.w3.org/TR/2001/REC-SVG-20010904/DTD/svg10.dtd">
<svg version="1.0" xmlns="http://www.w3.org/2000/svg"
 width="510.000000pt" height="510.000000pt" viewBox="0 0 510.000000 510.000000"
 preserveAspectRatio="xMidYMid meet">
<metadata>
Created by potrace 1.11, written by Peter Selinger 2001-2013
</metadata>
<g transform="translate(0.000000,510.000000) scale(0.100000,-0.100000)"
fill="#000000" stroke="none">
<path d="M2370 5089 c-57 -6 -130 -15 -195 -24 -101 -15 -346 -80 -455 -122
-129 -50 -147 -58 -278 -125 -461 -234 -836 -602 -1089 -1068 -118 -217 -226
-532 -263 -770 -18 -113 -19 -120 -26 -185 -9 -86 -12 -388 -3 -454 4 -31 10
-85 14 -120 3 -36 7 -67 9 -70 2 -3 7 -28 10 -56 4 -27 12 -68 18 -90 5 -22
12 -50 14 -61 2 -12 15 -61 29 -109 196 -674 678 -1252 1308 -1567 233 -117
539 -212 777 -243 25 -3 61 -8 80 -11 62 -10 453 -12 535 -3 131 14 270 39
368 64 34 9 69 18 77 20 101 24 324 113 470 188 183 94 474 297 555 386 l19
22 -54 50 c-30 28 -102 94 -160 147 -57 53 -129 120 -159 147 -30 28 -66 61
-81 75 -108 101 -233 216 -240 218 -5 2 -41 -22 -81 -53 -80 -62 -200 -135
-294 -179 -94 -44 -281 -103 -385 -122 -140 -26 -456 -25 -580 1 -14 3 -37 7
-51 10 -63 12 -203 57 -286 93 -350 152 -630 418 -803 760 -27 55 -50 104 -50
107 0 4 -6 21 -14 38 -25 57 -60 183 -81 292 -33 171 -25 426 19 641 26 126
112 334 192 464 194 316 491 557 835 678 83 29 196 61 242 67 12 2 47 7 77 11
100 16 376 10 489 -10 253 -44 539 -173 723 -327 26 -21 52 -39 58 -39 6 0 21
10 34 23 12 12 49 46 82 76 32 30 106 97 163 150 290 268 353 326 382 352 16
14 29 31 29 37 0 31 -280 246 -455 349 -233 138 -570 268 -775 299 -19 3 -51
9 -70 14 -19 5 -66 12 -105 16 -38 3 -74 9 -79 12 -14 8 -424 10 -496 1z"/>
<path d="M4595 3896 c-71 -48 -284 -186 -710 -461 -203 -131 -376 -244 -384
-251 -12 -11 -8 -23 25 -81 22 -37 46 -81 54 -96 7 -15 19 -26 24 -24 6 2 301
100 656 217 355 117 647 214 648 216 6 4 -68 183 -110 269 -62 125 -132 245
-143 245 -5 -1 -32 -16 -60 -34z"/>
<path d="M2470 3125 c-187 -46 -346 -182 -414 -355 -19 -46 -21 -54 -36 -130
-37 -188 49 -414 208 -546 113 -94 233 -134 389 -130 165 4 294 58 402 169
120 124 173 252 172 422 0 259 -167 480 -421 562 -63 20 -232 24 -300 8z"/>
<path d="M4905 2819 c-71 -9 -155 -20 -185 -23 -30 -4 -66 -9 -80 -11 -14 -2
-50 -7 -80 -10 -56 -7 -92 -11 -157 -20 -21 -3 -128 -16 -238 -30 -110 -14
-216 -27 -235 -30 -159 -20 -217 -28 -230 -30 -12 -1 -15 -23 -17 -117 l-2
-115 102 -13 c56 -7 109 -14 117 -15 8 -2 44 -6 80 -10 36 -4 73 -9 84 -11 10
-2 44 -6 75 -9 31 -4 67 -8 81 -10 14 -2 66 -9 115 -15 50 -6 101 -13 115 -15
14 -2 66 -9 115 -15 50 -6 101 -13 115 -15 14 -2 50 -7 80 -10 30 -3 66 -8 80
-10 14 -2 48 -6 75 -10 28 -3 67 -8 88 -11 26 -3 37 -1 38 8 0 7 3 29 5 48 12
93 5 506 -8 515 -2 1 -61 -6 -133 -16z"/>
<path d="M3569 2068 c-12 -23 -37 -67 -56 -97 -19 -29 -33 -54 -31 -56 10 -9
1144 -758 1153 -761 15 -6 51 49 122 183 66 124 145 315 135 324 -4 3 -63 25
-132 49 -69 24 -188 65 -265 92 -77 27 -147 51 -155 53 -8 2 -107 36 -220 75
-293 102 -492 171 -512 177 -12 4 -23 -7 -39 -39z"/>
</g>
</svg>
