<?xml version="1.0" encoding="utf-8"?>
<!-- Generator: Adobe Illustrator 24.2.0, SVG Export Plug-In . SVG Version: 6.00 Build 0)  -->
<svg version="1.1" id="Layer_1" xmlns="http://www.w3.org/2000/svg" xmlns:xlink="http://www.w3.org/1999/xlink" x="0px" y="0px"
	 viewBox="0 0 1000 910" style="enable-background:new 0 0 1000 910;" xml:space="preserve">
<style type="text/css">
	.st0{fill:#FFFFFF;}
	.st1{fill:none;}
	.st2{fill:#B4B4B4;}
	.st3{fill:#676767;}
	.st4{fill:#E6E6E5;}
	.st5{fill:#541431;}
	.st6{fill:#C92F3B;}
	.st7{fill:#891720;}
	.st8{fill:#DD8799;}
	.st9{fill:#010101;}
</style>
<g>
	<path class="st9" d="M209.6,763.2c65-12.1,150-33.1,216.4-67.3l-133.4,23.5l-12.9,2.3l-8.2-10.2l-2.8-3.4l-21.6-3.8
		c-34.9-6.1-66.7-23.5-85.1-46.3c-21.7-27.1-20.9-58.8,2.1-78.8l0.6-0.5l-41.5-51.7L3.7,548l176.9,220.3l10.5-1.8
		c1.9-0.3,3.9-0.7,5.9-1C201.1,764.8,205.3,764,209.6,763.2z"/>
	<path class="st9" d="M180.2,649.6c5.4,6,12,11.4,19.4,16.2c14.8,9.5,32.7,16.4,50.9,19.6l-73.7-91.8c-2.7,2.4-5,5-6.8,7.9
		c-1.8,2.8-3,5.9-3.8,9.1c-0.5,2.1-0.8,4.3-0.8,6.6c-0.1,9,3.6,18.9,11.6,28.8C178.1,647.2,179.1,648.4,180.2,649.6z"/>
	<path class="st9" d="M487.8,474.2l-195.2,34.4l-12.9,2.3l-8.2-10.2l-16.1-20l-76-94.6l-2.4-3l-50-62.3L3.7,342.5l101.7,126.7
		l42.8,53.3l23.1,28.7l23.1,28.7l2.5,3.1L280.3,687l8.5,10.6l222.7-39.3h0l340.3-60l144.5-25.5l-132.4-165L487.8,474.2z
		 M163.2,510.5l-42.8-53.3L39,355.8l80.2-14.1l34.9,43.5c-4,6.1-6.5,13-7.4,20.3c-2,15.7,3.3,31.9,15.4,47
		c17.9,22.4,49.2,39.6,82.9,45.9l11.5,14.3l8.2,10.2l7.1,8.9l11.2-2l12.9-2.3l76.5-13.5c-54.4,20.6-113.8,34.6-162.9,43.7
		c-2.5,0.5-4.9,0.9-7.4,1.3L163.2,510.5z"/>
	<path class="st9" d="M272.1,280.6c6.7,0,13.2-0.5,19.6-1.7c23-4.1,39.7-15.7,45.7-31.8c5.7-15.2,1.8-32.5-11.1-48.5
		c-25.6-31.9-79.2-50.9-122.1-43.4c-23,4.1-39.7,15.7-45.7,31.8c-5.7,15.2-1.8,32.5,11.1,48.5C191.4,262.8,233.6,280.6,272.1,280.6z
		 M176.4,193.8c3.6-9.7,15-16.9,31.1-19.7c5-0.9,10.3-1.3,15.7-1.3c32.6,0,70.2,15.5,88.1,37.8c8.5,10.6,11.4,21.1,8.2,29.7
		c-3.6,9.7-15,16.9-31.1,19.7c-35.4,6.2-82.9-10.5-103.8-36.5C176.1,213,173.2,202.4,176.4,193.8z"/>
	<path class="st9" d="M152,316.4l42.4,52.8l1.7,2.2l4.3,5.4L224,406l64.8,80.7l228.5-40.3l208.5-36.8L848,388.2l24.9-4.4L996.3,362
		L813.7,134.6L723.8,22.6L711.2,6.9L328.8,74.3L3.7,131.7l132.4,165L152,316.4z M804.4,153.7l156.5,195l-91.4,16.1l-24.9,4.4
		l-330.8,58.3l-32.6,5.7l-184.7,32.6L238.9,394l-9.5-11.8c52.8-10.4,100.6-23.1,142.3-37.8c59-20.9,105.5-45.9,138.2-74.4l1-0.9
		c0.8-0.7,1.7-1.4,2.5-2.2c0.9-0.8,1.8-1.7,2.7-2.5c4.1-3.9,8-7.8,11.7-11.7c1.7-1.9,3.5-3.9,5.1-5.8c1.4-1.7,3-3.4,4.9-5.6
		c36.2-39.5,91.5-66,164.2-79l0.7-0.1l0.3,0l0.4-0.1C735,156.5,768.9,153.7,804.4,153.7C804.4,153.7,804.4,153.7,804.4,153.7z
		 M332.1,93.3l371.2-65.5l5.5,6.9l80.3,100c-26.3,0.6-57.1,2.8-89,8.4c-0.2,0-0.4,0.1-0.7,0.1c-0.3,0-0.5,0.1-0.8,0.1
		c-62.6,11.1-129.4,35.2-175,84.9c-1.8,2-3.7,4-5.4,6.1c-1.5,1.8-3,3.5-4.6,5.2c-3.4,3.7-6.9,7.2-10.6,10.7
		c-0.8,0.8-1.7,1.6-2.5,2.3c-1,0.9-2.1,1.9-3.2,2.8c-8.5,7.4-17.9,14.5-27.9,21.1c-2.5,1.7-5.1,3.3-7.6,4.9
		c-7.8,4.8-15.9,9.4-24.3,13.8c-44.8,23.5-97.8,41.1-149.4,54.1c-6.4,1.6-12.9,3.2-19.2,4.7c-18.2,4.2-36,7.9-53,11.1v0l-0.5-0.6
		l-4.3-5.4l-1.7-2.2L167,304.3l-15.8-19.7L39,144.9L332.1,93.3z"/>
	<path class="st9" d="M478.5,686.7c-70.2,50.2-178.3,79.2-265.3,95.4c-4.3,0.8-8.6,1.6-12.8,2.3h0c-2,0.4-4,0.7-5.9,1l94.4,117.6
		l707.5-124.8L867.6,618.1L478.5,686.7z"/>
</g>
</svg>
