<?xml version="1.0" encoding="utf-8"?>
<!-- Generator: Adobe Illustrator 24.2.0, SVG Export Plug-In . SVG Version: 6.00 Build 0)  -->
<svg version="1.1" id="Layer_1" xmlns="http://www.w3.org/2000/svg" xmlns:xlink="http://www.w3.org/1999/xlink" x="0px" y="0px"
	 viewBox="0 0 1000 760" style="enable-background:new 0 0 1000 760;" xml:space="preserve">
<style type="text/css">
	.st0{fill:#FFFFFF;}
	.st1{fill:none;}
	.st2{fill:#B4B4B4;}
	.st3{fill:#676767;}
	.st4{fill:#E6E6E5;}
	.st5{fill:#541431;}
	.st6{fill:#C92F3B;}
	.st7{fill:#891720;}
	.st8{fill:#DD8799;}
	.st9{fill:#010101;}
</style>
<path d="M146.7,555.2c-7.1-7.3-15.7-13.1-25.7-17.3c-10-4.2-20.9-6.3-32.8-6.3s-22.8,2.1-32.8,6.3c-10,4.2-18.5,9.9-25.7,17.3
	c-7.1,7.3-12.7,16-16.7,26C9,591.2,7,602,7,613.6C7,625.2,9,636,13,646c4,10,9.6,18.6,16.7,26c7.1,7.3,15.7,13.1,25.7,17.3
	c10,4.2,20.9,6.3,32.8,6.3s22.8-2.1,32.8-6.3c10-4.2,18.5-9.9,25.7-17.3c7.1-7.3,12.7-16,16.7-26c4-10,6.1-20.8,6.1-32.4
	c0-11.6-2-22.4-6.1-32.4C159.4,571.2,153.8,562.6,146.7,555.2z M142.9,637.7c-2.8,7.6-6.8,14.1-11.9,19.7
	c-5.1,5.6-11.3,10-18.5,13.3c-7.2,3.3-15.3,5-24.2,5c-9,0-17-1.7-24.2-5c-7.2-3.3-13.4-7.7-18.5-13.3c-5.1-5.6-9.1-12.1-11.9-19.7
	c-2.8-7.6-4.2-15.6-4.2-24.1c0-8.5,1.4-16.6,4.2-24.1c2.8-7.6,6.8-14.1,11.9-19.7c5.1-5.6,11.3-10,18.5-13.3c7.2-3.3,15.3-5,24.2-5
	c9,0,17,1.7,24.2,5c7.2,3.3,13.4,7.7,18.5,13.3c5.1,5.6,9.1,12.2,11.9,19.7c2.8,7.6,4.2,15.6,4.2,24.1
	C147.1,622.1,145.7,630.2,142.9,637.7z"/>
<path d="M285.7,600.4c-4.6-5-10.2-8.9-16.7-11.7c-6.5-2.8-13.8-4.2-21.9-4.2c-7,0-13.9,1.5-20.6,4.6c-6.7,3.1-11.9,7.4-15.7,13h-0.4
	v-15h-19.8v166.5h19.8v-77.1h0.4c3.5,5.4,8.6,9.7,15.2,12.9c6.6,3.2,13.7,4.7,21.1,4.7c8.1,0,15.4-1.4,21.9-4.2
	c6.5-2.8,12.1-6.6,16.7-11.6c4.6-4.9,8.2-10.7,10.7-17.4c2.5-6.7,3.7-13.9,3.7-21.7c0-7.6-1.2-14.8-3.7-21.5
	C293.9,611.2,290.3,605.4,285.7,600.4z M276.5,654c-1.6,4.5-3.9,8.3-6.8,11.5c-2.9,3.2-6.5,5.7-10.8,7.5c-4.3,1.8-9,2.8-14.3,2.8
	s-10.1-0.9-14.3-2.8c-4.3-1.8-7.9-4.3-10.8-7.5c-2.9-3.2-5.2-7-6.8-11.5c-1.6-4.5-2.4-9.4-2.4-14.6c0-5.3,0.8-10.2,2.4-14.6
	c1.6-4.5,3.9-8.3,6.8-11.5c2.9-3.2,6.5-5.6,10.8-7.5c4.3-1.8,9-2.8,14.3-2.8s10.1,0.9,14.3,2.8c4.3,1.8,7.9,4.3,10.8,7.5
	c2.9,3.2,5.2,7,6.8,11.5c1.6,4.5,2.4,9.4,2.4,14.6C279,644.6,278.2,649.5,276.5,654z"/>
<path d="M412,602c-4.1-5.2-9.4-9.4-15.7-12.7c-6.4-3.2-14.2-4.8-23.5-4.8c-7.8,0-15,1.4-21.6,4.2c-6.6,2.8-12.3,6.6-17.1,11.6
	c-4.8,4.9-8.5,10.7-11.2,17.4c-2.7,6.7-4.1,13.9-4.1,21.7c0,7.8,1.2,15,3.7,21.7c2.5,6.7,6.1,12.5,10.7,17.4
	c4.6,4.9,10.3,8.8,17,11.6c6.7,2.8,14.1,4.2,22.4,4.2c19.8,0,35.2-7.1,46.2-21.4l-15-11.5c-3.8,4.7-8,8.5-12.6,11.3
	c-4.6,2.9-9.9,4.3-16.1,4.3c-4.6,0-9-0.7-13.2-2.2c-4.3-1.5-8-3.5-11.2-6.2c-3.2-2.6-5.8-5.8-7.8-9.6s-3-7.9-3-12.4h83.7v-7
	c0-6.8-0.9-13.4-2.8-19.9C419.1,613.1,416.1,607.2,412,602z M340,630.8c0-3.5,0.8-7.1,2.3-10.7c1.5-3.6,3.7-6.9,6.5-9.8
	c2.8-2.9,6.2-5.3,10.2-7.2c4-1.8,8.5-2.8,13.3-2.8c5,0,9.4,0.8,13.1,2.3c3.7,1.5,6.9,3.7,9.4,6.4c2.5,2.7,4.4,5.9,5.6,9.6
	c1.2,3.7,1.9,7.7,2.1,12.1H340z"/>
<path d="M524.2,594c-3.5-3.2-7.5-5.6-12.1-7.2s-9.4-2.3-14.4-2.3c-8.1,0-15.2,1.7-21.4,5.2c-6.2,3.5-10.5,8-13,13.5h-0.4v-16.1H443
	v104.4h19.8v-53.7c0-6,0.7-11.2,2.2-15.6c1.5-4.4,3.5-8,6.2-10.9c2.6-2.9,5.7-5,9.2-6.3s7.3-2,11.5-2c3.1,0,6.1,0.5,8.9,1.4
	c2.9,1,5.4,2.5,7.6,4.6c2.2,2.1,4,4.9,5.3,8.4c1.3,3.5,2,7.6,2,12.4v61.7h19.8v-67.2c0-6.9-1-12.9-3.1-17.9
	C530.4,601.4,527.6,597.2,524.2,594z"/>
<polygon points="606.4,628.1 674.1,628.1 674.1,596.4 606.4,596.4 606.4,567.3 678,567.3 678,535.6 572.1,535.6 572.1,691.6 
	682,691.6 682,659.8 606.4,659.8 "/>
<polygon points="846.7,535.6 805.1,535.6 773.2,590.3 739.9,535.6 696.7,535.6 748.3,610.1 693.7,691.6 734.4,691.6 771.4,628.8 
	809.5,691.6 852.7,691.6 796.3,609.4 "/>
<path d="M954,625.7c11-2.1,19.4-6.9,25.1-14.6s8.6-17.1,8.6-28.1c0-9.1-1.6-16.7-4.7-22.8c-3.2-6.1-7.4-10.9-12.8-14.5
	c-5.4-3.6-11.6-6.2-18.7-7.7c-7.1-1.5-14.6-2.3-22.6-2.3h-60.3v155.9h34.4v-62.3h17l32.6,62.3h41.2L954,625.7z M949.2,592.7
	c-1.8,2.4-4.1,4.1-6.9,5.2c-2.8,1.1-5.9,1.8-9.4,2c-3.5,0.2-6.7,0.3-9.8,0.3h-20.3v-35.5h22.5c3.1,0,6.2,0.2,9.5,0.7
	c3.2,0.4,6.1,1.3,8.6,2.5c2.5,1.2,4.5,3,6.2,5.4c1.6,2.4,2.4,5.5,2.4,9.5C952,587,951.1,590.3,949.2,592.7z"/>
<g>
	<path class="st9" d="M344.8,400c33.8-6.3,78-17.2,112.7-35l-69.4,12.2l-6.7,1.2l-4.3-5.3l-1.4-1.8l-11.2-2
		c-18.2-3.2-34.7-12.2-44.3-24.1c-11.3-14.1-10.9-30.6,1.1-41l0.3-0.3L299.9,277l-62.2,11l92.1,114.7l5.5-0.9c1-0.2,2-0.4,3-0.5
		C340.4,400.8,342.6,400.4,344.8,400z"/>
	<path class="st9" d="M329.6,340.8c2.8,3.1,6.3,5.9,10.1,8.4c7.7,5,17,8.6,26.5,10.2l-38.3-47.8c-1.4,1.2-2.6,2.6-3.5,4.1
		c-0.9,1.5-1.6,3.1-2,4.7c-0.3,1.1-0.4,2.3-0.4,3.4c0,4.7,1.9,9.8,6,15C328.4,339.6,329,340.2,329.6,340.8z"/>
	<path class="st9" d="M489.7,249.6l-101.6,17.9l-6.7,1.2l-4.3-5.3l-8.4-10.4l-39.5-49.3l-1.2-1.5l-26-32.4L237.7,181l52.9,65.9
		l22.3,27.7l12,15l12,15l1.3,1.6l43.4,54.1l4.4,5.5L502,345.4h0l177.1-31.2l75.2-13.3L685.4,215L489.7,249.6z M320.7,268.4
		l-22.3-27.7l-42.4-52.8l41.7-7.4l18.2,22.6c-2.1,3.2-3.4,6.8-3.9,10.6c-1.1,8.2,1.7,16.6,8,24.4c9.3,11.6,25.6,20.6,43.2,23.9
		l6,7.4l4.3,5.3l3.7,4.6l5.8-1l6.7-1.2l39.8-7c-28.3,10.7-59.3,18-84.8,22.7c-1.3,0.2-2.6,0.5-3.8,0.7L320.7,268.4z"/>
	<path class="st9" d="M377.4,148.8c3.5,0,6.9-0.3,10.2-0.9c12-2.1,20.6-8.2,23.8-16.6c3-7.9,0.9-16.9-5.8-25.3
		c-13.3-16.6-41.2-26.5-63.5-22.6c-12,2.1-20.6,8.2-23.8,16.6c-3,7.9-0.9,16.9,5.8,25.3C335.4,139.5,357.3,148.8,377.4,148.8z
		 M327.6,103.6c1.9-5,7.8-8.8,16.2-10.3c2.6-0.5,5.4-0.7,8.2-0.7c17,0,36.5,8.1,45.9,19.7c4.4,5.5,5.9,11,4.2,15.5
		c-1.9,5-7.8,8.8-16.2,10.3c-18.4,3.2-43.1-5.5-54-19C327.4,113.6,325.9,108.1,327.6,103.6z"/>
	<path class="st9" d="M314.9,167.4l22.1,27.5l0.9,1.1l2.2,2.8l12.3,15.3l33.7,42l118.9-21L613.5,216l63.6-11.2l13-2.3l64.2-11.3
		l-95-118.4l-46.8-58.3l-6.6-8.2l-199,35.1L237.7,71.3l68.9,85.9L314.9,167.4z M654.5,82.8l81.5,101.5l-47.6,8.4l-13,2.3
		l-172.2,30.4l-17,3l-96.1,17l-30-37.4l-4.9-6.1c27.5-5.4,52.4-12,74.1-19.7c30.7-10.9,54.9-23.9,71.9-38.7l0.5-0.4
		c0.4-0.4,0.9-0.8,1.3-1.1c0.5-0.4,1-0.9,1.4-1.3c2.1-2,4.2-4.1,6.1-6.1c0.9-1,1.8-2,2.7-3c0.7-0.9,1.6-1.8,2.6-2.9
		c18.9-20.5,47.6-34.4,85.5-41.1l0.4-0.1l0.1,0l0.2,0C618.3,84.2,636,82.8,654.5,82.8C654.4,82.8,654.4,82.8,654.5,82.8z
		 M408.6,51.3l193.2-34.1l2.9,3.6l41.8,52.1c-13.7,0.3-29.7,1.5-46.3,4.4c-0.1,0-0.2,0-0.3,0.1c-0.1,0-0.3,0-0.4,0.1
		c-32.6,5.8-67.3,18.3-91.1,44.2c-1,1-1.9,2.1-2.8,3.2c-0.8,0.9-1.6,1.8-2.4,2.7c-1.7,1.9-3.6,3.8-5.5,5.6c-0.4,0.4-0.9,0.8-1.3,1.2
		c-0.5,0.5-1.1,1-1.7,1.5c-4.4,3.9-9.3,7.5-14.5,11c-1.3,0.9-2.6,1.7-4,2.6c-4,2.5-8.3,4.9-12.6,7.2c-23.3,12.2-50.9,21.4-77.8,28.2
		c-3.4,0.8-6.7,1.7-10,2.4c-9.5,2.2-18.7,4.1-27.6,5.8v0l-0.3-0.3l-2.2-2.8l-0.9-1.1l-22.1-27.5l-8.2-10.3l-58.3-72.7L408.6,51.3z"
		/>
	<path class="st9" d="M484.8,360.2c-36.5,26.1-92.8,41.2-138.1,49.7c-2.3,0.4-4.5,0.8-6.7,1.2h0c-1,0.2-2.1,0.4-3.1,0.5l49.1,61.2
		l368.2-64.9l-67-83.4L484.8,360.2z"/>
</g>
</svg>
