<?xml version="1.0" encoding="utf-8"?>
<svg width="510.79016px" height="73.57483px" viewBox="0 0 510.79016 73.57483" version="1.1" xmlns:xlink="http://www.w3.org/1999/xlink" xmlns="http://www.w3.org/2000/svg">
  <defs>
    <linearGradient gradientUnits="userSpaceOnUse" x1="0" y1="0" x2="70.30301" y2="70.30301" id="gradient_1">
      <stop offset="0%" stop-color="#0583D6" />
      <stop offset="100%" stop-color="#7EBDE7" />
    </linearGradient>
  </defs>
  <g id="Group-2-Copy">
    <g id="Icon">
      <path d="M0 0L7.81146 0L7.81146 7.81145L11.7172 7.81145L11.7172 0L70.303 0L70.303 70.303L0 70.303L0 11.7172L7.8113 11.7172L7.8113 7.81145L0 7.81145L0 0L0 0ZM62.4916 7.8125L7.81152 7.8125L7.81152 62.4926L62.4916 62.4926L62.4916 7.8125L62.4916 7.8125Z" id="Outline" fill="url(#gradient_1)" fill-rule="evenodd" stroke="none" />
      <path d="M11.7173 37.7557L20.8306 37.7557L20.8306 46.869L11.7173 46.869L11.7173 37.7557Z" id="Pixel-6" fill="#7EBDE7" fill-rule="evenodd" stroke="none" />
      <path d="M24.7363 24.7372L33.8497 24.7372L33.8497 33.8505L24.7363 33.8505L24.7363 24.7372Z" id="Pixel-5" fill="#7EBDE7" fill-rule="evenodd" stroke="none" />
      <path d="M11.7173 24.7372L20.8306 24.7372L20.8306 33.8505L11.7173 33.8505L11.7173 24.7372Z" id="Pixel-4" fill="#7EBDE7" fill-rule="evenodd" stroke="none" />
      <path d="M37.7554 11.7164L46.8687 11.7164L46.8687 20.8297L37.7554 20.8297L37.7554 11.7164Z" id="Pixel-3" fill="#7EBDE7" fill-rule="evenodd" stroke="none" />
      <path d="M24.7363 11.7164L33.8497 11.7164L33.8497 20.8297L24.7363 20.8297L24.7363 11.7164Z" id="Pixel-2" fill="#7EBDE7" fill-rule="evenodd" stroke="none" />
      <path d="M11.7173 11.7164L20.8306 11.7164L20.8306 20.8297L11.7173 20.8297L11.7173 11.7164Z" id="Pixel-1" fill="#4EA6E0" fill-rule="evenodd" stroke="none" />
    </g>
    <g id="Group" transform="translate(93.75366 11.214355)">
      <path d="M38.2301 41.3213C42.0152 37.2207 43.9078 31.3537 43.9078 23.7203C43.9078 16.0659 42.031 10.1989 38.2774 6.11934C34.5238 2.03978 29.1036 0 22.017 0C14.9303 1.90735e-06 9.48918 2.02401 5.69351 6.07202C1.89784 10.12 0 15.9818 0 23.6572C0 31.3327 1.89258 37.2207 5.67773 41.3213C9.46289 45.4219 14.8883 47.4722 21.9539 47.4722C29.0195 47.4722 34.4449 45.4219 38.2301 41.3213L38.2301 41.3213ZM13.185 35.3597C11.2293 32.7522 10.2515 28.8724 10.2515 23.7203C10.2515 18.5683 11.2398 14.6833 13.2165 12.0652C15.1932 9.44715 18.1267 8.13812 22.017 8.13812C29.7766 8.13812 33.6563 13.3322 33.6563 23.7203C33.6563 34.0875 29.7555 39.271 21.9539 39.271C18.0636 39.271 15.1406 37.9673 13.185 35.3597L13.185 35.3597ZM60.3289 42.9615C62.6841 45.9686 65.933 47.4722 70.0756 47.4722C72.8304 47.4722 75.2277 46.7467 77.2674 45.2957C79.3072 43.8447 80.8791 41.7314 81.9831 38.9556C83.0871 36.1798 83.6391 32.9098 83.6391 29.1457C83.6391 23.4259 82.4615 18.9573 80.1063 15.74C77.7511 12.5226 74.4917 10.9139 70.328 10.9139C65.912 10.9139 62.5789 12.6593 60.3289 16.15L59.8873 16.15L58.5309 11.5763L50.7083 11.5763L50.7083 62.3605L60.3289 62.3605L60.3289 48.0715C60.3289 47.6089 60.1606 45.9055 59.8242 42.9615L60.3289 42.9615L60.3289 42.9615ZM92.2375 42.7723C95.4339 45.9055 99.8709 47.4722 105.549 47.4722C108.303 47.4722 110.638 47.2671 112.551 46.8571C114.465 46.447 116.263 45.8214 117.945 44.9803L117.945 37.5361C115.884 38.5035 113.908 39.2079 112.015 39.6495C110.122 40.0911 108.114 40.3119 105.99 40.3119C103.257 40.3119 101.133 39.5444 99.6186 38.0093C98.1045 36.4742 97.2949 34.3398 97.1898 31.6061L119.932 31.6061L119.932 26.9377C119.932 21.9329 118.544 18.011 115.769 15.1722C112.993 12.3333 109.113 10.9139 104.129 10.9139C98.9141 10.9139 94.8293 12.5278 91.8748 15.7557C88.9203 18.9836 87.443 23.5521 87.443 29.4611C87.443 35.202 89.0412 39.639 92.2375 42.7723L92.2375 42.7723ZM148.687 46.8413L158.307 46.8413L158.307 23.8465C158.307 19.6618 157.245 16.4602 155.121 14.2417C152.997 12.0231 149.885 10.9139 145.785 10.9139C143.387 10.9139 141.248 11.3502 139.366 12.2229C137.484 13.0956 136.006 14.3836 134.934 16.0869L134.398 16.0869L133.104 11.5763L125.755 11.5763L125.755 46.8413L135.375 46.8413L135.375 30.2497C135.375 26.086 135.975 23.1052 137.173 21.3073C138.372 19.5093 140.317 18.6104 143.009 18.6104C144.986 18.6104 146.426 19.2465 147.33 20.5187C148.234 21.7909 148.687 23.6993 148.687 26.2438L148.687 46.8413L148.687 46.8413ZM99.3979 19.6986C100.554 18.4054 102.153 17.7587 104.192 17.7587C106.232 17.7587 107.851 18.4054 109.05 19.6986C110.249 20.9919 110.869 22.8266 110.911 25.2029L97.4106 25.2029C97.5789 22.8266 98.2413 20.9919 99.3979 19.6986L99.3979 19.6986ZM62.0322 20.8026C63.1257 19.3411 64.8605 18.6104 67.2368 18.6104C69.5079 18.6104 71.1744 19.4778 72.2363 21.2126C73.2983 22.9475 73.8292 25.5498 73.8292 29.0195C73.8292 36.1272 71.6738 39.6811 67.3629 39.6811C64.9236 39.6811 63.1414 38.8609 62.0164 37.2207C60.8914 35.5805 60.3289 32.8678 60.3289 29.0826L60.3289 28.0417C60.3709 24.6771 60.9387 22.2641 62.0322 20.8026L62.0322 20.8026Z" id="Vector" fill="#333B42" fill-rule="evenodd" stroke="none" />
      <path d="M167.05 0.725464L167.05 46.8413L176.829 46.8413L176.829 0.725464L167.05 0.725464L167.05 0.725464ZM267.647 42.0468L269.508 46.8413L276.226 46.8413L276.226 23.3418C276.226 19.1361 274.965 16.0028 272.441 13.942C269.918 11.8812 266.29 10.8508 261.559 10.8508C256.617 10.8508 252.117 11.9127 248.059 14.0366L251.244 20.5345C255.051 18.8311 258.363 17.9795 261.18 17.9795C264.839 17.9795 266.669 19.7669 266.669 23.3418L266.669 24.8874L260.55 25.0766C255.271 25.2659 251.323 26.249 248.705 28.0259C246.087 29.8028 244.778 32.5628 244.778 36.3059C244.778 39.8808 245.751 42.6356 247.696 44.5702C249.641 46.5048 252.306 47.4722 255.692 47.4722C258.447 47.4722 260.681 47.0779 262.395 46.2893C264.109 45.5007 265.775 44.0865 267.394 42.0468L267.647 42.0468L267.647 42.0468ZM207.633 46.8413L217.254 46.8413L217.254 29.1457C217.254 25.4867 217.837 22.8161 219.004 21.1338C220.172 19.4515 221.933 18.6104 224.288 18.6104C226.117 18.6104 227.458 19.2465 228.31 20.5187C229.161 21.7909 229.587 23.6993 229.587 26.2438L229.587 46.8413L239.239 46.8413L239.239 23.8465C239.239 19.3253 238.214 16.0396 236.164 13.9893C234.114 11.939 231.091 10.9139 227.095 10.9139C224.782 10.9139 222.706 11.366 220.865 12.2702C219.025 13.1745 217.632 14.4467 216.686 16.0869L215.834 16.0869C213.963 12.6382 210.388 10.9139 205.11 10.9139C202.797 10.9139 200.746 11.3713 198.959 12.286C197.171 13.2007 195.805 14.4677 194.858 16.0869L194.322 16.0869L193.029 11.5763L185.679 11.5763L185.679 46.8413L195.3 46.8413L195.3 30.2497C195.3 26.1071 195.857 23.1315 196.972 21.3231C198.086 19.5146 199.874 18.6104 202.334 18.6104C204.163 18.6104 205.504 19.2465 206.356 20.5187C207.207 21.7909 207.633 23.6993 207.633 26.2438L207.633 46.8413L207.633 46.8413ZM314.822 16.4654L314.822 11.5763L302.52 11.5763C302.142 11.4922 301.275 11.3607 299.918 11.182C298.562 11.0033 297.389 10.9139 296.401 10.9139C291.754 10.9139 288.179 11.9653 285.677 14.0682C283.174 16.171 281.923 19.1466 281.923 22.9948C281.923 25.3921 282.464 27.4739 283.547 29.2403C284.63 31.0068 286.097 32.2895 287.948 33.0886C286.476 33.9508 285.351 34.8287 284.573 35.7224C283.794 36.6161 283.405 37.7359 283.405 39.0817C283.405 40.1542 283.773 41.1688 284.509 42.1256C285.245 43.0825 286.108 43.7711 287.096 44.1917C284.53 44.8015 282.585 45.8214 281.261 47.2514C279.936 48.6813 279.273 50.4582 279.273 52.5821C279.273 55.6734 280.572 58.0759 283.169 59.7897C285.766 61.5035 289.525 62.3605 294.445 62.3605C300.88 62.3605 305.817 61.2249 309.255 58.9538C312.693 56.6827 314.412 53.4864 314.412 49.3648C314.412 46.1474 313.398 43.7081 311.368 42.0468C309.339 40.3855 306.39 39.5549 302.52 39.5549L296.527 39.5549C293.467 39.5549 291.732 39.0341 291.323 37.9925C291.26 37.8318 291.228 37.6586 291.228 37.4731C291.228 36.5478 291.722 35.7066 292.711 34.9496L294.13 35.1073L295.865 35.202C300.554 35.202 304.219 34.1453 306.858 32.0319C309.497 29.9185 310.816 26.9692 310.816 23.1841C310.816 21.2284 310.312 19.462 309.302 17.8849L314.822 16.4654L314.822 16.4654ZM321.276 42.7723C324.472 45.9055 328.909 47.4722 334.587 47.4722C337.342 47.4722 339.676 47.2671 341.589 46.8571C343.503 46.447 345.301 45.8214 346.983 44.9803L346.983 37.5361C344.922 38.5035 342.946 39.2079 341.053 39.6495C339.161 40.0911 337.152 40.3119 335.028 40.3119C332.295 40.3119 330.171 39.5444 328.657 38.0093C327.143 36.4742 326.333 34.3398 326.228 31.6061L348.97 31.6061L348.97 26.9377C348.97 21.9329 347.583 18.011 344.807 15.1722C342.031 12.3333 338.151 10.9139 333.167 10.9139C327.952 10.9139 323.868 12.5278 320.913 15.7557C317.958 18.9836 316.481 23.5521 316.481 29.4611C316.481 35.202 318.079 39.639 321.276 42.7723L321.276 42.7723ZM292.411 27.6632C291.538 26.5487 291.102 25.0346 291.102 23.121C291.102 18.8732 292.868 16.7493 296.401 16.7493C299.892 16.7493 301.637 18.8732 301.637 23.121C301.637 25.0346 301.217 26.5487 300.376 27.6632C299.534 28.7777 298.21 29.335 296.401 29.335C294.614 29.335 293.284 28.7777 292.411 27.6632L292.411 27.6632ZM328.436 19.6986C329.593 18.4053 331.191 17.7587 333.231 17.7587C335.27 17.7587 336.89 18.4053 338.088 19.6986C339.287 20.9918 339.907 22.8266 339.949 25.2028L326.449 25.2028C326.617 22.8266 327.279 20.9918 328.436 19.6986L328.436 19.6986ZM262.947 30.6282L266.669 30.502L266.669 33.404C266.669 35.5279 266.001 37.2312 264.666 38.5139C263.331 39.7967 261.548 40.438 259.319 40.438C256.207 40.438 254.651 39.0817 254.651 36.369C254.651 34.4764 255.334 33.0675 256.701 32.1422C258.068 31.217 260.15 30.7123 262.947 30.6282L262.947 30.6282ZM289.509 54.9478C288.237 54.1908 287.601 53.1499 287.601 51.8251C287.601 50.4582 288.195 49.3595 289.383 48.5288C290.571 47.6982 292.048 47.2829 293.815 47.2829L298.798 47.2829C301.217 47.2829 303.004 47.5352 304.161 48.0399C305.317 48.5446 305.896 49.4594 305.896 50.7842C305.896 52.4244 304.918 53.7177 302.962 54.6639C301.006 55.6102 298.304 56.0834 294.856 56.0834C292.563 56.0834 290.781 55.7049 289.509 54.9478L289.509 54.9478Z" id="Vector" fill="#333B42" fill-rule="evenodd" stroke="none" />
      <path d="M411.359 41.3213C415.144 37.2207 417.036 31.3537 417.036 23.7203C417.036 16.0659 415.16 10.1989 411.406 6.11934C407.652 2.03978 402.232 0 395.146 0C388.059 1.90735e-06 382.618 2.02401 378.822 6.07202C375.026 10.12 373.129 15.9818 373.129 23.6572C373.129 31.3327 375.021 37.2207 378.806 41.3213C382.592 45.4219 388.017 47.4722 395.083 47.4722C402.148 47.4722 407.574 45.4219 411.359 41.3213L411.359 41.3213ZM355.793 0.725525L355.793 46.8413L365.571 46.8413L365.571 0.725525L355.793 0.725525L355.793 0.725525ZM386.314 35.3597C384.358 32.7522 383.38 28.8724 383.38 23.7203C383.38 18.5683 384.368 14.6833 386.345 12.0652C388.322 9.44715 391.255 8.13812 395.146 8.13812C402.905 8.13812 406.785 13.3322 406.785 23.7203C406.785 34.0875 402.884 39.271 395.083 39.271C391.192 39.271 388.269 37.9673 386.314 35.3597L386.314 35.3597Z" id="Vector" fill="#333B42" fill-rule="evenodd" stroke="none" />
    </g>
  </g>
</svg>