<svg xmlns="http://www.w3.org/2000/svg" xmlns:xlink="http://www.w3.org/1999/xlink" viewBox="0 0 598.34 404.85"><defs><style>.cls-1{fill:url(#New_Gradient_Swatch_12);}</style><linearGradient id="New_Gradient_Swatch_12" x1="45.9" y1="202.42" x2="552.45" y2="202.42" gradientUnits="userSpaceOnUse"><stop offset="0" stop-color="#e05f78"/><stop offset="0.07" stop-color="#d9687a"/><stop offset="0.19" stop-color="#c67f80"/><stop offset="0.34" stop-color="#a7a68a"/><stop offset="0.5" stop-color="#80d596"/><stop offset="0.5" stop-color="#80d596"/><stop offset="0.66" stop-color="#8bd7c3"/><stop offset="0.8" stop-color="#93d9e3"/><stop offset="0.92" stop-color="#97daf7"/><stop offset="1" stop-color="#99dafe"/></linearGradient></defs><g id="_5.2" data-name="5.2"><path class="cls-1" d="M542,48.34q-35.34,0-57.43,18.5Q471,77.88,452.76,108V55.52H377.65l-23.46,0c0,3.91,0,7.81,0,11.72-4.08,0-8.16,0-12.23,0,0-3.92,0-7.83,0-11.76H268q0,11.88,0,23.76H255.62c0-7.93,0-15.84,0-23.77-8.24,0-16.48,0-24.71,0,0,3.91,0,7.82,0,11.73-4.09,0-8.18,0-12.25,0,.21,7.93-.51,16,.38,23.89,8.07.32,16.17,0,24.26.13,0,8,0,16.08,0,24.12-4.14,0-8.26,0-12.4,0,0-4,0-8,0-12l-12.31,0c0-3.9.34-8-.34-11.82a89.27,89.27,0,0,0-11.91-.29c0-4,0-8,0-11.94-4.14,0-8.27,0-12.42,0,0-7.92,0-15.84,0-23.76q-6.15,0-12.31,0V67.28H169.18c0,4,0,8,0,12,8.25,0,16.5,0,24.75,0,0,4,0,8,0,12,4,0,8.08,0,12.13-.11.43,8,.37,16.16,0,24.19-4.06,0-8.11,0-12.16,0q0,6.08,0,12.15c4.12,0,8.25,0,12.36,0,0,4,.06,8,0,12h12.31V127.46c8.22.1,16.44,0,24.65.05,0-4,0-8,0-12.06,4.1,0,8.2,0,12.3,0,.19,7.9-.24,15.84.25,23.71,3.95.74,8.18.35,12.18.42,0,4,0,7.93.05,11.89-4.16,0-8.31,0-12.46,0,0-3.88.12-7.76-.07-11.63-8.14-.74-16.45-.15-24.63-.33q0,6.09,0,12.17c8.25,0,16.5,0,24.75,0,0,8,0,16,0,24,4.14,0,8.28,0,12.41,0q0,6,0,12.08-6.18,0-12.37,0,0-6.06,0-12.09c-4.13-.07-8.25-.06-12.36,0,0-4,0-8,0-12-4,.07-8.26-.41-12.16.45a95.33,95.33,0,0,0-.23,11.59c4.11,0,8.23,0,12.36,0q0,6,0,12.07c-8.21,0-16.43,0-24.65,0,0-8,0-16.06,0-24.09,4,0,8.17.25,12.14-.3.27-3.91.14-7.87.1-11.78-4.07,0-8.13,0-12.21,0q-.06,6,0,12.08H206.34a90.86,90.86,0,0,0-.29-11.79c-8.07-.72-16.28-.12-24.38-.33q-.07,12.12,0,24.22,6.14-.06,12.28,0c0-4,0-8,0-12.06,4.13,0,8.27,0,12.41,0,0,8,0,16.08,0,24.13-8.24-.08-16.48,0-24.7-.06,0,4,0,8,0,12.06q6.18,0,12.32,0,0,6.09,0,12.18c4.11,0,8.22,0,12.35,0,.05,4,.05,7.94.05,11.91,4,0,8.13.07,12.18-.12.2-3.94.12-7.91.09-11.87-4.07,0-8.15,0-12.23.07-.1-8.06,0-16.12,0-24.17,4.1,0,8.19,0,12.28,0,0,4,0,8,0,12l12.29,0q0,6.09,0,12.17h12.36q0-6.09,0-12.19,6.15,0,12.3,0,0,6.1,0,12.2c4.13,0,8.26,0,12.38,0q0,6,0,11.91c4.08,0,8.17,0,12.26,0q0,12.09,0,24.16c-8.22-.06-16.44,0-24.67,0,0,4,0,8,0,12h0v0c8.21,0,16.42,0,24.64,0,0,4,0,8,0,12.07q-12.33,0-24.63,0V260l-12.36,0q0-6,0-12l12.31.05c0-4.08,0-8.14,0-12.21H268c0-4,0-8,.05-11.93-8.25-.14-16.5,0-24.75-.08,0,8,0,16.11,0,24.16-4.12,0-8.24,0-12.35,0,0-8,0-16.1,0-24.14-3.9.05-8-.34-11.87.42-.72,3.76-.36,7.76-.39,11.59q-6.13-.06-12.25-.06c0,4.07,0,8.13,0,12.19-4.14,0-8.26,0-12.4,0q0-6.08,0-12.15-6.13,0-12.28,0,0,6.12,0,12.25c4.1,0,8.2,0,12.3,0,0,4,0,8,0,12,4.14,0,8.27,0,12.41-.07,0-4,0-8,0-12,8.19,0,16.38,0,24.57,0q0,6,0,12h12.38v12H230.91q0,6,0,12H218.64c0-4,0-8,0-12q-12.33.11-24.67,0c0,4,0,8.06,0,12.08,8.22-.05,16.46,0,24.68,0q0,6,0,11.93c-8.21-.08-16.41,0-24.63-.06-.07,8.1,0,16.21,0,24.31l12.4-.06c0,4.05,0,8.09-.23,12.13-4.06-.07-8.12-.06-12.18-.09q0,6,0,12H181.65c0,4.05,0,8.1,0,12.15h12.32q0-6.06,0-12.13c4.13,0,8.26,0,12.39,0,0-4,0-8,0-12q6.14,0,12.28,0c0,4,0,8,0,12h12.29v12.1h12.39q0-6.06,0-12.12,6.17,0,12.32,0,0,6.06,0,12.13H268c.14-8-.32-15.94.25-23.87,4-.3,8-.19,12-.21,0,4,0,8,0,12,4.12,0,8.22,0,12.33,0,0,4,0,8.09,0,12.13h24.68q0-6.06,0-12.1h12.46c0,4,0,8.06,0,12.09h36.94c0-4,0-8.07,0-12.09l11,0v12.27H456.9V212.64q0-36.18,9.12-53.57,16.29-30.93,63.78-30.93c2.39,0,5.53.1,9.39.28s8.29.55,13.26,1.1V48.89q-5.25-.27-6.77-.41C544.67,48.39,543.42,48.34,542,48.34ZM206.36,127.51q0-6.08,0-12.15c4.09.06,8.17,0,12.26,0q0,6,0,12.05C214.54,127.45,210.45,127.46,206.36,127.51ZM305,199.72c8.23,0,16.48,0,24.72,0q0,6.08,0,12.16c-8.22-.06-16.43,0-24.66,0C305,207.82,305,203.77,305,199.72Zm0,24.12q0,6,0,11.94l-12.38,0q0-5.94,0-11.9C296.71,223.82,300.83,223.82,305,223.84Zm24.68-108.47q-6.19,0-12.4,0c0-4,0-8,0-12,4.16,0,8.32,0,12.48,0C329.68,107.4,329.68,111.38,329.64,115.37ZM342,127.49c0,4,0,8,0,12q-6.15,0-12.28,0c0-4,0-8,0-12Q335.81,127.54,342,127.49Zm-24.73,0c0,4,.18,7.94-.1,11.88-4,.29-8.13.09-12.19.09q0-6,0-12C309,127.51,313.14,127.51,317.22,127.51ZM305,127.44c-4.13,0-8.26,0-12.39,0q0-12.06,0-24.12c4.14,0,8.27,0,12.41,0C304.93,111.38,305,119.41,305,127.44Zm-12.55,23.94c-4.05.18-8.1,0-12.15.23,0-4,0-8.07,0-12.1,4.1,0,8.2,0,12.3,0C292.51,143.46,292.75,147.46,292.41,151.38Zm.16,12.2,12.4,0c0,4,0,8,0,12l-12.4,0Q292.58,169.58,292.57,163.58Zm24.65,12c0-8,0-15.93,0-23.89l12.45,0c0,8,0,15.91,0,23.86C325.52,175.59,321.37,175.57,317.22,175.56Zm12.48,60.22h12.22q0,6.06,0,12.11c-4.09,0-8.17,0-12.25.06Q329.68,241.87,329.7,235.78Zm12.22-48.05q6.13,0,12.26,0c0,3.95.16,7.93-.12,11.88-4,.24-8.09.07-12.12.12Q342,193.71,341.92,187.73ZM354.19,248c-.05,4,.14,7.94-.12,11.88-4,.24-8.1.06-12.15.09q0-6,0-12Q348,248,354.19,248Zm0-24.19V211.91l12.47,0q-.06,6,0,11.92Zm12.46-36q0-6.07,0-12.14h12.25q0,6.06,0,12.11c-.42,0-.84,0-1.26,0C374,187.69,370.31,187.69,366.64,187.73Zm12.29,84.34c4.12,0,8.26,0,12.39,0,0,3.94.17,7.91-.14,11.82-4.06.31-8.19.09-12.27.1C378.93,280,378.93,276,378.93,272.07Zm12.43-60.19c0-4-.05-8.11-.06-12.16h12.33c0,4.05,0,8.1,0,12.15Zm12.25,108.31c0,4,0,8.07,0,12.09-4.09,0-8.17,0-12.28,0,0-4,0-8,0-12.06C395.42,320.2,399.51,320.22,403.61,320.19Zm0-252.92c4.07,0,8.14,0,12.21,0,0,4,0,8,0,12-4,0-8.08.18-12.1-.1C403.44,75.24,403.68,71.22,403.63,67.27Zm0,84.36c4.07.06,8.14.05,12.2,0,0,3.91.19,7.85-.1,11.75-4,.27-8.08.09-12.1.12C403.63,159.57,403.64,155.6,403.64,151.63Zm-12.33-48.26q-6.18,0-12.4,0c0-4,0-8.06,0-12.09h12.38C391.32,95.3,391.31,99.34,391.31,103.37ZM415.84,308.1c.41-3.48-.94-9.06.88-12,3.83-.27,7.71-.11,11.55-.1q0,6,0,12.1ZM378.91,115.41c0,4,0,8,0,12.06h-1.25c-3.66,0-7.33,0-11,0q0-6,0-12.07h12.26ZM366.65,67.29c-.06,3.94.15,7.94-.16,11.87-4.07.31-8.2.09-12.29.12q0-6,0-12C358.34,67.3,362.49,67.3,366.65,67.29Zm0,72.21q0,6,0,12-12.36-.08-24.71,0c0-4,0-7.95,0-11.93C350.16,139.51,358.39,139.55,366.61,139.5ZM342,79.32q0,12,0,24-6.13,0-12.28,0c0-8,0-16,0-24Zm-37,0c3.88,0,8,.35,11.8-.36.88-3.75.39-7.83.45-11.66q6.23,0,12.46,0,0,6,0,12c-4,0-8.18-.29-12.14.36-.59,3.72-.13,7.69-.4,11.46-4,.27-8.13.08-12.18.14C305,87.27,305,83.29,305,79.31Zm-36.95,0c4.08,0,8.17,0,12.25,0q0-6.06,0-12.11c4.09.06,8.19.06,12.28,0-.08,7.94.2,15.91-.11,23.85-8.13.25-16.3,0-24.44.09Q268,85.29,268,79.33Zm-24.75,0H230.91c0-4,0-8,0-12h12.37C243.26,71.29,243.27,75.28,243.26,79.29Zm0,12V79.32q6.15,0,12.31,0c0,3.67,0,7.34,0,11l0,1C251.49,91.23,247.38,91.19,243.28,91.25ZM268,127.46c0-3.89.21-7.92-.34-11.78-3.93-.57-8.06-.3-12-.28,0-4,0-8,0-12,4.13,0,8.27,0,12.4,0,0,4-.1,7.88.19,11.85,4,.24,8,.16,12.05.12q0,6,0,12.09Q274.14,127.44,268,127.46Zm0,36.09q0-6,0-11.88c4.08,0,8.17,0,12.25,0q0,6,0,11.91Q274.12,163.53,268,163.55Zm12.26,48.33H268q0-6.08,0-12.15l12.25,0C280.25,203.79,280.26,207.83,280.25,211.88Zm-37,132.3c-4.12,0-8.24,0-12.37,0q0-6,0-11.9l12.41,0C243.27,336.25,243.27,340.22,243.26,344.18Zm24.37-12.27a92.68,92.68,0,0,1-12,.35c0-4,0-8,0-12q6.19,0,12.39,0A84.63,84.63,0,0,1,267.63,331.91Zm.36-23.78-12.38,0c0,4,.08,8,0,12.06-4.09.09-8.19,0-12.28,0q0-6,0-12.06c-4.14,0-8.26,0-12.39,0q0,6,0,12.08c-8.17,0-16.36,0-24.54,0q0-6,0-12,6.15,0,12.3,0,0-6.06,0-12.14h12.26q0-6,0-12h12.36q0,6,0,12c8.1,0,16.24-.18,24.32.1C268.25,300,268,304.18,268,308.13ZM268,296q0-6,0-12c4.09,0,8.17,0,12.25,0,0,4,0,8,0,12Q274.12,296,268,296Zm12.27,12.13q0-6,0-12.08c4.09,0,8.18,0,12.26,0,.06,4,.05,8.08,0,12.11C288.44,308.11,284.35,308.1,280.25,308.13Zm12.19-108.55c-4.05.25-8.14.08-12.19.1,0-8,0-16.06,0-24.09q6.15,0,12.29,0C292.45,183.6,292.75,191.61,292.44,199.58ZM305,259.89c0-4,0-8,0-11.95,4.09,0,8.17,0,12.25,0,0,4,0,8,0,12h12.43q0,6,0,12.08c-4.14,0-8.28,0-12.41,0,0-4,0-8.06,0-12.1-4.06,0-8.16-.08-12.23.05-.08,8,0,16,0,24-4.13,0-8.25,0-12.38,0,0-8,0-16,0-24.05C296.67,259.91,300.83,260.08,305,259.89Zm-12.38,72.38c0-4,0-8,0-12,4.13,0,8.25,0,12.39,0,0,4,0,8,0,12Zm24.54-12.2c-4,.26-8.1.07-12.14.11,0-8.05-.05-16.1,0-24.16q6.12,0,12.23,0C317.15,304,317.43,312.07,317.11,320.07ZM341.91,296c-4.08,0-8.14-.05-12.22,0l0-11.95q6.15,0,12.28,0Q342,290,341.91,296Zm0,24.2V308.13q6.09,0,12.22,0c0,4,.16,8-.09,11.93C350.05,320.31,346,320.14,342,320.2Zm24.7,24H354.18V332.32q6.24,0,12.47-.05C366.62,336.24,366.61,340.22,366.65,344.2Zm0-96.25c0-4.06,0-8.11,0-12.17H378.9q0,6.09,0,12.16h-1.26C374,247.93,370.3,247.92,366.62,248ZM132.23,344.18q0,6.09,0,12.17H120V344.2Q126.11,344.23,132.23,344.18Zm36.82,0c-8.1.29-16.24,0-24.34.11,0-4,0-8,0-12h24.54C169.17,336.21,169.37,340.21,169.05,344.15Zm-86-11.82c0,3.91.17,7.84-.12,11.74-4.1.37-8.26.13-12.37.18,0-4,0-8,0-12C74.73,332.25,78.9,332.25,83.06,332.33Zm36.92-.05H107.56q0-6,0-12.12H120C120,324.21,120,328.24,120,332.28Zm49.22-12.06q0-6,0-12.09,6.23,0,12.47,0,0,6,0,12.11Q175.43,320.19,169.2,320.22Zm-24.86-12.14c-4,.22-8.07,0-12.1.07,0-3.91-.26-7.95.33-11.83a87,87,0,0,1,11.87-.35C144.68,299.91,145,304.16,144.34,308.08Zm-36.77.07c-4.11,0-8.21,0-12.32,0,0-4.07,0-8.14,0-12.22,4.08,0,8.17,0,12.26,0Q107.55,302.05,107.57,308.15ZM157,296c.05-3.83-.4-7.87.39-11.65a36.93,36.93,0,0,1,11.73,0,98.56,98.56,0,0,1,0,11.53C165.06,296.16,161,296,157,296Zm-37,0q0-6,0-12,6.13,0,12.27,0c-.06,3.77.28,7.7-.37,11.43C128.12,296.49,123.85,295.9,120,296Zm61.69-11.95c-4-.05-8.24.32-12.2-.42-.64-7.85-.09-15.84-.26-23.71h12.45C181.64,268,181.62,276,181.66,284.06Zm-37,0c0-4,0-8,0-12,4.07,0,8.15,0,12.23-.05,0,3.86.32,7.87-.32,11.69C152.75,284.41,148.62,284,144.68,284ZM95.27,259.9c0,4,.06,8.08-.08,12.12-4,.12-8.06,0-12.09.06a82.53,82.53,0,0,1,0-12.18C87.13,259.93,91.21,259.93,95.27,259.9Zm49.44,0c-4.18,0-8.35,0-12.52,0q.09-6,0-12c4.18,0,8.35,0,12.51,0C144.71,252,144.71,256,144.71,259.93Zm37-36.1H169.19q0,12.08,0,24.15H157q0-12.09,0-24.18,6.13,0,12.26,0,0-5.94,0-11.88c4.15,0,8.3,0,12.45,0Q181.64,217.84,181.67,223.83ZM107.56,248H95.26q0-6.1,0-12.23,6.15,0,12.28,0Q107.56,241.86,107.56,248ZM45.92,235.77q6.18,0,12.37,0,0,6.1,0,12.22-6.18,0-12.38,0Q45.93,241.87,45.92,235.77Zm86.31-12c0,4,.16,8-.11,11.94-4,.23-8.1.06-12.14.11q0-6,0-12Q126.11,223.79,132.23,223.76Zm12.46-24.09H157q0,6.1,0,12.23c-4.08,0-8.14,0-12.22,0C144.71,207.83,144.71,203.74,144.69,199.67Zm-37.1,12.22c0-4.07,0-8.14,0-12.21H120c0,4.07,0,8.15,0,12.22ZM95.12,199.6c-4.07.31-8.18.09-12.26.09,0-4,0-8,0-12,4.14,0,8.29,0,12.44,0C95.22,191.65,95.44,195.65,95.12,199.6Zm24.89-24c4.07,0,8.15,0,12.23,0,0,4.06,0,8.13,0,12.19q-6.14,0-12.25,0Q120,181.67,120,175.56Zm24.38-35.71c.72,7.85.15,15.83.3,23.71,4.06,0,8.11,0,12.16-.16.11,4,.28,8.09,0,12.1-4.11.29-8.27.08-12.4.06.21-4,.3-8,.24-12-4.15,0-8.31,0-12.45,0q0-12,0-24.09C136.24,139.55,140.43,139.19,144.39,139.85Zm24.77,11.6c0,4,.23,8-.09,12-3.43.27-6.91.13-10.36.26-.64-.46-1.26-.93-1.9-1.4.16-3.62.16-7.24.17-10.88C161.05,151.44,165.1,151.44,169.16,151.45Zm-98.57,0c4.07,0,8.12,0,12.19,0,0,4,.25,8.06-.06,12.06-4,.24-8.1.06-12.14.09C70.58,159.53,70.58,155.48,70.59,151.45Zm49.4-12q0,6,0,12a103.58,103.58,0,0,1-12.46,0v-12Q113.78,139.5,120,139.48Zm24.85-.39c-.28-3.86-.13-7.77-.12-11.65q6.1,0,12.23,0c0,4,.08,8,0,12C152.93,139.53,148.74,139.88,144.84,139.09Zm24.38-35.75c0,4,0,8,0,12q6.24,0,12.47,0,0,12.09,0,24.16c-4.16,0-8.32,0-12.48,0,0-8,0-16.09,0-24.13-4.09,0-8.16,0-12.24,0q0-6.06,0-12.11Q163.09,103.36,169.22,103.34Zm-61.66,24.17c-4.1,0-8.2,0-12.3,0q0-6.08,0-12.16h12.29Q107.55,121.43,107.56,127.51Zm24.69-12.07q0-6,0-12.08c4.16,0,8.32,0,12.48,0,0,4,0,8,0,12C140.56,115.4,136.4,115.4,132.25,115.44Zm49.41-12q-.06-6.09,0-12.18l12.29,0q0,6.08,0,12.16Q187.8,103.34,181.66,103.4Zm-74.1,0c0-4,0-8.1,0-12.15,8.23,0,16.44,0,24.66,0,0,4,0,8.1,0,12.14ZM157,91.3c-4.09,0-8.18,0-12.27,0q0-12,0-24c4.09,0,8.18,0,12.26,0C157,75.25,157,83.28,157,91.3Zm-86.48-.17c-4,.3-8.13.1-12.19.12q0-6,0-12,6.15,0,12.28,0C70.56,83.22,70.76,87.2,70.48,91.13ZM206.11,67a87.73,87.73,0,0,0,0-11.35c4.16-.14,8.33-.14,12.49-.13,0,3.92,0,7.85,0,11.77C214.44,67.33,210.28,67.36,206.11,67Zm-110.84.31c0-3.92,0-7.85,0-11.78h12.3q0,5.89,0,11.77Z"/></g></svg>