<?xml version="1.0" encoding="UTF-8" standalone="no"?>
<svg
   viewBox="0 0 572.63 418.49"
   version="1.1"
   id="svg98"
   sodipodi:docname="materialx-stacked-color.svg"
   inkscape:version="1.3.2 (091e20e, 2023-11-25)"
   xmlns:inkscape="http://www.inkscape.org/namespaces/inkscape"
   xmlns:sodipodi="http://sodipodi.sourceforge.net/DTD/sodipodi-0.dtd"
   xmlns="http://www.w3.org/2000/svg"
   xmlns:svg="http://www.w3.org/2000/svg"
   xmlns:rdf="http://www.w3.org/1999/02/22-rdf-syntax-ns#"
   xmlns:cc="http://creativecommons.org/ns#"
   xmlns:dc="http://purl.org/dc/elements/1.1/">
  <sodipodi:namedview
     id="namedview98"
     pagecolor="#ffffff"
     bordercolor="#666666"
     borderopacity="1.0"
     inkscape:showpageshadow="2"
     inkscape:pageopacity="0.0"
     inkscape:pagecheckerboard="0"
     inkscape:deskcolor="#d1d1d1"
     inkscape:zoom="1.2842676"
     inkscape:cx="285.76599"
     inkscape:cy="209.06858"
     inkscape:window-width="1368"
     inkscape:window-height="776"
     inkscape:window-x="0"
     inkscape:window-y="25"
     inkscape:window-maximized="0"
     inkscape:current-layer="svg98" />
  <defs
     id="defs12">
    <style
       id="style1">.cls-1{fill:#306384;}.cls-2{fill:#276d88;}.cls-3{fill:#0b7a90;}.cls-4{fill:#bd295b;}.cls-5{fill:#fcc;}.cls-6{fill:#d64274;}.cls-7{fill:none;}.cls-8{fill:url(#linear-gradient);}.cls-9{fill:#b3e0df;}.cls-10{fill:url(#linear-gradient-2);}.cls-11{fill:#1ba8c1;}</style>
    <linearGradient
       id="linear-gradient"
       x1="167.45"
       y1="369.24"
       x2="403.7"
       y2="-39.96"
       gradientUnits="userSpaceOnUse">
      <stop
         offset="0"
         stop-color="#025361"
         id="stop1" />
      <stop
         offset="0.38"
         stop-color="#0b7a90"
         id="stop2" />
      <stop
         offset="0.42"
         stop-color="#406185"
         id="stop3" />
      <stop
         offset="0.58"
         stop-color="#406185"
         id="stop4" />
      <stop
         offset="0.62"
         stop-color="#0b7a90"
         id="stop5" />
      <stop
         offset="1"
         stop-color="#025361"
         id="stop6" />
    </linearGradient>
    <linearGradient
       id="linear-gradient-2"
       x1="569.05"
       y1="55.5"
       x2="427.35"
       y2="300.93"
       gradientUnits="userSpaceOnUse">
      <stop
         offset="0"
         stop-color="#16a9c4"
         id="stop7" />
      <stop
         offset="0.05"
         stop-color="#8ad4ec"
         id="stop8" />
      <stop
         offset="0.08"
         stop-color="#8ad4e2"
         id="stop9" />
      <stop
         offset="0.2"
         stop-color="#1facc5"
         id="stop10" />
      <stop
         offset="0.5"
         stop-color="#0190a9"
         id="stop11" />
      <stop
         offset="1"
         stop-color="#025361"
         id="stop12" />
    </linearGradient>
  </defs>
  <title
     id="title12">mtlx.combined.wide</title>
  <g
     id="Layer_2"
     data-name="Layer 2">
    <g
       id="Glyph">
      <polygon
         class="cls-1"
         points="285.57 219.08 380.07 164.52 380.07 273.64 285.57 219.08"
         id="polygon12" />
      <polygon
         class="cls-2"
         points="474.57 219.08 380.07 273.64 380.07 164.52 474.57 219.08"
         id="polygon13" />
      <polygon
         class="cls-3"
         points="380.07 273.64 474.57 219.08 474.57 328.2 380.07 273.64"
         id="polygon14" />
      <polygon
         class="cls-3"
         points="569.08 273.64 474.57 328.2 474.57 219.08 569.08 273.64"
         id="polygon15" />
      <polygon
         class="cls-3"
         points="569.08 55.52 474.58 110.08 474.58 0.96 569.08 55.52"
         id="polygon16" />
      <polygon
         class="cls-4"
         points="285.57 110.08 191.07 164.64 191.07 55.52 285.57 110.08"
         id="polygon17" />
      <path
         class="cls-5"
         d="M194.51,166.07v-112l97,56ZM196.17,57V163.2l92-53.12Z"
         transform="translate(-4.27)"
         id="path17" />
      <polygon
         class="cls-4"
         points="96.58 110.08 191.07 55.52 191.07 164.64 96.58 110.08"
         id="polygon18" />
      <polygon
         class="cls-6"
         points="2.08 55.52 96.58 0.96 96.58 110.08 2.08 55.52"
         id="polygon19" />
      <polygon
         class="cls-4"
         points="191.07 55.52 96.58 110.08 96.58 0.96 191.07 55.52"
         id="polygon20" />
      <polygon
         class="cls-7"
         points="97.41 2.4 97.41 108.64 189.41 55.52 97.41 2.4"
         id="polygon21" />
      <polygon
         class="cls-7"
         points="98.23 110.08 190.25 163.2 190.25 56.96 144.24 83.52 98.23 110.08"
         id="polygon22" />
      <polygon
         class="cls-5"
         points="94.92 110.08 95.75 110.56 95.75 109.6 94.92 110.08"
         id="polygon23" />
      <polygon
         class="cls-5"
         points="97.41 108.64 143.41 82.08 96.58 109.12 97.41 109.6 97.41 108.64"
         id="polygon24" />
      <polygon
         class="cls-5"
         points="191.91 56 190.25 56.96 190.25 163.2 98.23 110.08 144.24 83.52 96.58 111.04 191.91 166.07 191.91 56"
         id="polygon25" />
      <polygon
         class="cls-5"
         points="144.24 83.52 190.25 56.96 190.25 56.95 144.24 83.52"
         id="polygon26" />
      <polygon
         class="cls-5"
         points="95.75 108.64 95.75 109.6 96.58 109.12 95.75 108.64"
         id="polygon27" />
      <polygon
         class="cls-5"
         points="95.75 111.52 96.58 111.04 95.75 110.56 95.75 111.52"
         id="polygon28" />
      <polygon
         class="cls-5"
         points="97.41 0.48 97.41 2.4 189.41 55.52 143.41 82.08 191.07 54.56 97.41 0.48"
         id="polygon29" />
      <polygon
         class="cls-5"
         points="192.74 55.52 191.91 55.04 191.91 56 192.74 55.52"
         id="polygon30" />
      <polygon
         class="cls-5"
         points="190.25 56.95 190.25 56.96 191.91 56 191.91 55.04 191.07 54.56 143.41 82.08 97.41 108.64 97.41 109.6 96.58 109.12 95.75 109.6 95.75 110.56 96.58 111.04 144.24 83.52 190.25 56.95"
         id="polygon31" />
      <polygon
         class="cls-5"
         points="2.08 54.56 49.74 82.08 3.73 55.52 95.75 2.4 95.75 0.48 2.08 54.56"
         id="polygon32" />
      <polygon
         class="cls-5"
         points="97.41 109.6 97.41 108.64 97.41 2.4 97.41 0.48 96.58 0 95.75 0.48 95.75 2.4 95.75 108.64 97.41 109.6"
         id="polygon33" />
      <polygon
         class="cls-8"
         points="474.57 110.08 96.58 328.32 96.58 219.2 474.57 0.96 474.57 110.08"
         id="polygon34" />
      <polygon
         class="cls-6"
         points="96.58 219.2 2.08 273.76 2.08 164.64 96.58 219.2"
         id="polygon35" />
      <polygon
         class="cls-6"
         points="2.08 164.64 96.58 110.08 96.58 219.2 2.08 164.64"
         id="polygon36" />
      <polygon
         class="cls-6"
         points="96.58 110.08 2.08 164.64 2.08 55.52 96.58 110.08"
         id="polygon37" />
      <polygon
         class="cls-7"
         points="94.92 110.08 48.91 83.52 2.9 56.96 2.9 163.2 94.92 110.08"
         id="polygon38" />
      <polygon
         class="cls-7"
         points="3.73 55.52 49.74 82.08 95.75 108.64 95.75 2.4 3.73 55.52"
         id="polygon39" />
      <polygon
         class="cls-5"
         points="98.23 110.08 97.41 109.6 97.41 110.56 98.23 110.08"
         id="polygon40" />
      <polygon
         class="cls-5"
         points="95.75 108.64 95.75 108.64 49.74 82.08 95.75 108.64"
         id="polygon41" />
      <polygon
         class="cls-5"
         points="94.92 110.08 2.9 163.2 2.9 56.96 1.25 56 1.25 166.07 96.58 111.04 48.91 83.52 94.92 110.08"
         id="polygon42" />
      <polygon
         class="cls-5"
         points="97.41 110.56 96.58 111.04 97.41 111.52 97.41 110.56"
         id="polygon43" />
      <polygon
         class="cls-5"
         points="2.9 56.95 2.9 56.96 48.91 83.52 2.9 56.95"
         id="polygon44" />
      <polygon
         class="cls-5"
         points="97.41 109.6 95.75 108.64 95.75 108.64 49.74 82.08 2.08 54.56 1.25 55.04 1.25 56 2.9 56.96 2.9 56.95 48.91 83.52 96.58 111.04 97.41 110.56 97.41 109.6"
         id="polygon45" />
      <polygon
         class="cls-6"
         points="2.08 273.76 96.58 219.2 96.58 328.32 2.08 273.76"
         id="polygon46" />
      <polygon
         class="cls-7"
         points="95.75 326.88 95.75 220.63 3.73 273.76 95.75 326.88"
         id="polygon47" />
      <polygon
         class="cls-9"
         points="285.57 220.16 283.92 219.2 97.41 326.88 97.41 328.8 285.57 220.16"
         id="polygon48" />
      <polygon
         class="cls-9"
         points="97.41 219.68 191.07 165.59 189.41 164.64 96.16 218.48 95.75 218.72 95.75 218.72 97.41 217.76 97.41 219.68"
         id="polygon49" />
      <polygon
         class="cls-7"
         points="2.9 166.07 2.9 272.32 48.01 246.28 94.92 219.2 2.9 166.07"
         id="polygon50" />
      <polygon
         class="cls-7"
         points="3.73 164.64 49.74 191.2 95.75 217.76 95.75 111.52 3.73 164.64"
         id="polygon51" />
      <polygon
         class="cls-5"
         points="2.9 166.07 48.91 192.64 2.9 166.07 2.9 166.07"
         id="polygon52" />
      <polygon
         class="cls-5"
         points="3.73 164.64 95.75 111.52 95.75 217.76 97.41 218.72 97.41 108.64 2.08 163.68 49.74 191.2 3.73 164.64"
         id="polygon53" />
      <polygon
         class="cls-5"
         points="97.41 219.68 96.58 220.16 97.41 220.63 97.41 219.68"
         id="polygon54" />
      <polygon
         class="cls-5"
         points="94.92 219.2 95.75 219.68 95.75 218.72 94.92 219.2"
         id="polygon55" />
      <polygon
         class="cls-5"
         points="1.25 273.28 2.9 272.32 2.9 166.07 1.25 165.12 1.25 273.28"
         id="polygon56" />
      <polygon
         class="cls-5"
         points="94.92 219.2 48.01 246.28 94.92 219.2 48.91 192.64 94.92 219.2"
         id="polygon57" />
      <polygon
         class="cls-5"
         points="95.75 220.63 49.74 247.2 96.58 220.16 95.75 219.68 95.75 220.63"
         id="polygon58" />
      <polygon
         class="cls-5"
         points="95.75 217.76 95.75 217.76 49.74 191.2 95.75 217.76"
         id="polygon59" />
      <polygon
         class="cls-5"
         points="1.25 163.2 1.25 164.16 2.08 163.68 1.25 163.2"
         id="polygon60" />
      <polygon
         class="cls-5"
         points="97.41 218.72 95.75 217.76 95.75 217.76 49.74 191.2 2.08 163.68 1.25 164.16 1.25 165.12 2.9 166.07 2.9 166.07 48.91 192.64 94.92 219.2 95.75 218.72 95.75 219.68 96.58 220.16 97.41 219.68 97.41 218.72"
         id="polygon61" />
      <polygon
         class="cls-5"
         points="49.74 247.2 2.08 274.71 95.75 328.8 95.75 326.88 3.73 273.76 49.74 247.2"
         id="polygon62" />
      <polygon
         class="cls-5"
         points="2.9 272.32 48.01 246.28 2.9 272.32 2.9 272.32"
         id="polygon63" />
      <polygon
         class="cls-5"
         points="95.75 220.63 95.75 218.72 48.01 246.28 2.9 272.32 2.9 272.32 1.25 273.28 1.25 274.24 2.08 274.71 49.74 247.2 95.75 220.63"
         id="polygon64" />
      <polygon
         class="cls-5"
         points="97.41 326.88 97.41 219.68 97.41 217.76 95.75 218.72 95.75 220.63 95.75 326.88 95.75 328.8 96.58 329.27 97.41 328.8 97.41 326.88"
         id="polygon65" />
      <polygon
         class="cls-10"
         points="569.08 273.64 474.57 328.2 474.57 0.96 569.08 55.52 569.08 273.64"
         id="polygon66" />
      <polygon
         class="cls-7"
         points="97.41 326.88 473.74 109.6 473.74 2.4 97.41 219.68 97.41 326.88"
         id="polygon67" />
      <polygon
         class="cls-7"
         points="475.4 110.56 475.4 326.76 568.25 273.16 568.25 56 475.4 2.4 475.4 110.56 475.4 110.56"
         id="polygon68" />
      <polygon
         class="cls-9"
         points="475.4 110.56 475.4 110.56 475.4 2.4 475.4 2.4 475.4 110.56"
         id="polygon69" />
      <polygon
         class="cls-7"
         points="97.41 109.6 473.74 326.88 473.74 219.67 97.41 2.4 97.41 109.6"
         id="polygon70" />
      <polygon
         class="cls-9"
         points="475.4 326.76 475.4 218.72 475.4 218.72 475.4 326.76 475.4 326.76"
         id="polygon71" />
      <polygon
         class="cls-7"
         points="97.41 2.4 97.41 109.6 191.07 163.68 283.92 110.08 97.41 2.4"
         id="polygon72" />
      <polygon
         class="cls-7"
         points="285.57 218.24 378.42 164.64 285.57 111.04 192.74 164.64 285.57 218.24"
         id="polygon73" />
      <polygon
         class="cls-7"
         points="97.41 219.68 97.41 326.88 283.92 219.2 191.07 165.59 97.41 219.68"
         id="polygon74" />
      <polygon
         class="cls-9"
         points="285.57 218.24 287.24 219.2 380.07 165.59 378.42 164.64 285.57 218.24"
         id="polygon75" />
      <polygon
         class="cls-9"
         points="191.07 163.68 192.74 164.64 285.57 111.04 283.92 110.08 191.07 163.68"
         id="polygon76" />
      <polygon
         class="cls-9"
         points="473.74 2.4 473.74 0.48 285.57 109.12 287.24 110.08 473.74 2.4"
         id="polygon77" />
      <polygon
         class="cls-9"
         points="473.74 111.52 473.74 109.6 380.08 163.68 381.74 164.64 473.74 111.52"
         id="polygon78" />
      <polygon
         class="cls-9"
         points="473.74 328.79 473.74 326.88 287.24 219.2 285.57 220.16 473.74 328.79"
         id="polygon79" />
      <polygon
         class="cls-9"
         points="473.74 219.67 473.74 217.76 381.74 164.64 380.07 165.59 473.74 219.67"
         id="polygon80" />
      <polygon
         class="cls-9"
         points="380.07 165.59 381.74 164.64 380.08 163.68 378.42 164.64 380.07 165.59"
         id="polygon81" />
      <polygon
         class="cls-9"
         points="192.74 164.64 191.07 163.68 189.41 164.64 191.07 165.59 192.74 164.64"
         id="polygon82" />
      <polygon
         class="cls-9"
         points="283.92 219.2 285.57 220.16 287.24 219.2 285.57 218.24 283.92 219.2"
         id="polygon83" />
      <polygon
         class="cls-9"
         points="285.57 111.04 287.24 110.08 285.57 109.12 283.92 110.08 285.57 111.04"
         id="polygon84" />
      <polygon
         class="cls-9"
         points="473.75 326.88 473.75 219.68 473.74 219.67 473.74 326.88 473.75 326.88"
         id="polygon85" />
      <polygon
         class="cls-9"
         points="475.4 0.48 475.4 2.4 568.25 56 568.25 273.16 475.4 326.76 475.4 328.68 569.49 274.36 569.9 274.12 569.9 55.04 475.4 0.48"
         id="polygon86" />
      <polygon
         class="cls-9"
         points="475.4 110.56 474.99 110.8 473.74 111.52 473.74 217.76 475.4 218.72 475.4 110.56"
         id="polygon87" />
      <polygon
         class="cls-9"
         points="475.4 326.76 475.4 218.72 473.74 217.76 473.74 219.67 473.75 219.68 473.75 326.88 473.74 326.88 473.74 328.79 474.47 329.21 475.4 328.68 475.4 326.76 475.4 326.76"
         id="polygon88" />
      <polygon
         class="cls-9"
         points="473.75 109.6 473.75 2.4 473.74 2.4 473.74 109.6 473.75 109.6"
         id="polygon89" />
      <polygon
         class="cls-9"
         points="475.4 110.56 475.4 2.4 475.4 2.4 475.4 0.48 474.57 0 473.74 0.48 473.74 2.4 473.75 2.4 473.75 109.6 473.74 109.6 473.74 111.52 474.99 110.8 475.4 110.56"
         id="polygon90" />
    </g>
    <g
       id="Wide_Tracking"
       data-name="Wide Tracking">
      <path
         class="cls-11"
         d="M48.11,418.49l-.32-33.89L37.6,418.49H26.38L16.27,384.6l-.4,33.89H4.27l1.58-50.16H21.72l10.59,35.31L43,368.33h15.8l1.66,50.16Z"
         transform="translate(-4.27)"
         id="path90" />
      <path
         class="cls-11"
         d="M122.89,418.49,120,409H102.27l-2.92,9.48H87l17-50.16h15.17l17,50.16ZM111.12,380.1l-6,19.2h12Z"
         transform="translate(-4.27)"
         id="path91" />
      <path
         class="cls-11"
         d="M179.69,378.12v40.37H167.21V378.12H153.62v-9.8h39.66v9.8Z"
         transform="translate(-4.27)"
         id="path92" />
      <path
         class="cls-11"
         d="M220.63,418.49V368.33h33.81V378H233.11v9.56h19.83v9.87H233.11v11h22.12v10Z"
         transform="translate(-4.27)"
         id="path93" />
      <path
         class="cls-11"
         d="M313.63,418.49l-10.35-18.41h-5.06v18.41H285.74V368.33h19.83c5.29,0,10,.87,13.35,3.32a14.47,14.47,0,0,1,5.92,12.09c0,6.56-3.16,11.61-9.48,14.22l12.48,20.54Zm-3.71-39.34a9.1,9.1,0,0,0-5.29-1.34h-6.4v13h6.4a9.09,9.09,0,0,0,5.29-1.34,6.83,6.83,0,0,0,0-10.35Z"
         transform="translate(-4.27)"
         id="path94" />
      <path
         class="cls-11"
         d="M355.31,418.49V368.33h12.56v50.16Z"
         transform="translate(-4.27)"
         id="path95" />
      <path
         class="cls-11"
         d="M430.54,418.49,427.61,409H409.92L407,418.49H394.67l17-50.16h15.17l17,50.16ZM418.77,380.1l-6,19.2h12Z"
         transform="translate(-4.27)"
         id="path96" />
      <path
         class="cls-11"
         d="M470.7,418.49V368.33h12.48v40.05h19.43v10.11Z"
         transform="translate(-4.27)"
         id="path97" />
      <path
         class="cls-4"
         d="M562.44,418.49l-10-18.09L542.3,418.49H527.84l16.91-25.75-15.4-24.41H543.4l8.93,16.59,9-16.59h14.14l-15.17,24.33,16.59,25.83Z"
         transform="translate(-4.27)"
         id="path98" />
    </g>
  </g>
  <metadata
     id="metadata98">
    <rdf:RDF>
      <cc:Work
         rdf:about="">
        <dc:title>mtlx.combined.wide</dc:title>
      </cc:Work>
    </rdf:RDF>
  </metadata>
</svg>
