<?xml version="1.0" encoding="UTF-8"?>
<svg id="AW" xmlns="http://www.w3.org/2000/svg" viewBox="0 0 65.7752226 44.3369174">
  <defs>
    <style>
      .cls-1, .cls-2 {
        fill: #80e3b7;
      }

      .cls-3, .cls-4 {
        fill-rule: evenodd;
      }

      .cls-3, .cls-4, .cls-2, .cls-5 {
        stroke: #101c41;
        stroke-linecap: round;
        stroke-linejoin: round;
        stroke-width: 1.5px;
      }

      .cls-3, .cls-5 {
        fill: none;
      }

      .cls-4 {
        fill: #fff;
      }
    </style>
  </defs>
  <rect class="cls-1" x="4.5545573" y="3.4791966" width="32.3332682" height="25.166616" rx="3" ry="3"/>
  <g>
    <polyline class="cls-2" points="41.3159561 36.5803673 48.379644 33.8378788 62.607684 19.6098387 58.4043355 15.4064902 44.1836611 29.6271646 41.3159561 36.5803673"/>
    <line class="cls-5" x1="45.0647367" y1="29.821625" x2="48.3884762" y2="33.1453645"/>
  </g>
  <g>
    <path class="cls-4" d="M15.8889069,11.0476637v9.5208923l11.9011115-4.7604465-11.9011115-4.7604458Z"/>
    <path class="cls-3" d="M26.5676185,28.995583H8.3459216c-2.4736001,0-4.4788492-2.0052491-4.4788492-4.4788492V7.1159784c0-2.4736001,2.0052491-4.4788492,4.4788492-4.4788492h24.6108786c2.4736001,0,4.4788492,2.0052491,4.4788492,4.4788492V24.5167339c0,2.4736001-2.0052491,4.4788492-4.4788492,4.4788492h-.9719409"/>
    <line class="cls-5" x1="3.7622891" y1="36.9018171" x2="37.4844433" y2="36.9018171"/>
    <line class="cls-5" x1="15.8509843" y1="33.1425448" x2="15.8509843" y2="40.1730618"/>
  </g>
</svg>