<?xml version="1.0" encoding="utf-8"?>
<svg width="340px" height="340px" viewBox="0 0 340 340" version="1.1" xmlns:xlink="http://www.w3.org/1999/xlink" xmlns="http://www.w3.org/2000/svg">
  <g id="Logo-mark-dark">
    <path d="M37.7779 0L37.7779 37.7778L56.6667 37.7778L56.6667 0L340 0L340 340L0 340L0 56.6667L37.7771 56.6667L37.7771 37.7778L0 37.7778L0 0L37.7779 0L37.7779 0ZM37.7773 37.7827L37.7773 302.227L302.222 302.227L302.222 37.7827L37.7773 37.7827L37.7773 37.7827ZM56.6689 56.6628L56.6689 100.737L100.743 100.737L100.743 56.6628L56.6689 56.6628L56.6689 56.6628ZM119.629 56.6628L119.629 100.737L163.703 100.737L163.703 56.6628L119.629 56.6628L119.629 56.6628ZM182.595 56.6628L182.595 100.737L226.669 100.737L226.669 56.6628L182.595 56.6628L182.595 56.6628ZM56.6689 119.634L56.6689 163.708L100.743 163.708L100.743 119.634L56.6689 119.634L56.6689 119.634ZM119.629 119.634L119.629 163.708L163.703 163.708L163.703 119.634L119.629 119.634L119.629 119.634ZM56.6689 182.594L56.6689 226.669L100.743 226.669L100.743 182.594L56.6689 182.594L56.6689 182.594Z" id="Vector" fill="#333B42" fill-rule="evenodd" stroke="none" />
  </g>
</svg>