<?xml version="1.0" encoding="UTF-8" standalone="no"?>
<svg
   id="Layer_1"
   data-name="Layer 1"
   viewBox="0 0 147.4111 148.06055"
   version="1.1"
   sodipodi:docname="openassetio-icon-white.svg"
   inkscape:version="1.2.2 (b0a84865, 2022-12-01)"
   width="147.4111"
   height="148.06055"
   inkscape:export-filename="openassetio-icon-black.png"
   inkscape:export-xdpi="1200"
   inkscape:export-ydpi="1200"
   xmlns:inkscape="http://www.inkscape.org/namespaces/inkscape"
   xmlns:sodipodi="http://sodipodi.sourceforge.net/DTD/sodipodi-0.dtd"
   xmlns="http://www.w3.org/2000/svg"
   xmlns:svg="http://www.w3.org/2000/svg">
  <sodipodi:namedview
     id="namedview414"
     pagecolor="#ffffff"
     bordercolor="#666666"
     borderopacity="1.0"
     inkscape:pageshadow="2"
     inkscape:pageopacity="0.0"
     inkscape:pagecheckerboard="0"
     showgrid="false"
     inkscape:zoom="1.438"
     inkscape:cx="280.59805"
     inkscape:cy="122.04451"
     inkscape:window-width="1296"
     inkscape:window-height="969"
     inkscape:window-x="1598"
     inkscape:window-y="83"
     inkscape:window-maximized="0"
     inkscape:current-layer="Layer_1"
     inkscape:showpageshadow="2"
     inkscape:deskcolor="#d1d1d1" />
  <defs
     id="defs383">
    <style
       id="style381">.cls-1{fill:#fff;}</style>
  </defs>
  <path
     id="logo"
     d="M 25.041015,2.0979599e-8 C 11.211772,-5.5997902e-4 5.1402075e-4,11.20983 2.075326e-8,25.03907 -5.5697925e-4,38.86907 11.211014,50.08064 25.041015,50.08008 c 4.016124,-0.0203 7.968436,-1.00641 11.523438,-2.875 l 13.515625,9.17383 C 47.655883,62.6241 46.362283,69.25082 46.259765,75.94922 46.063217,82.6643 47.339877,89.34093 50,95.50977 l -8.089844,6.89258 C 37.734111,99.52443 32.7826,97.98244 27.710937,97.98047 13.881694,97.97991 2.670436,109.1903 2.669922,123.01954 c -5.57e-4,13.83 11.211014,25.04157 25.041015,25.04101 13.829238,-5.2e-4 25.03962,-11.21177 25.039063,-25.04101 -0.0015,-0.7571 -0.03735,-1.51373 -0.107422,-2.26758 l 9.267578,-7.90235 c 9.537065,8.65851 21.929729,13.50002 34.81055,13.59961 27.972754,0.0777 50.690394,-22.57696 50.690394,-50.5498 0,-27.97285 -22.71764,-50.62751 -50.690394,-50.54981 h -0.0312 C 83.772365,25.20629 71.303817,30.08181 61.910156,38.94922 L 49.414062,30.4961 c 0.421619,-1.78905 0.64497,-3.61909 0.666016,-5.45703 C 50.079564,11.21059 38.869496,5.2002098e-4 25.041015,2.0979599e-8 Z M 96.839846,38.43946 c 5.271334,-0.0557 10.504884,0.89489 15.419924,2.80078 4.55779,1.73533 8.71546,4.37865 12.2207,7.76953 3.48977,3.39548 6.23132,7.48287 8.04883,12 1.96212,4.97584 2.95008,10.28228 2.91016,15.63086 0.0595,5.30087 -0.92951,10.56122 -2.91016,15.47852 -3.70859,9.17714 -11.04357,16.41458 -20.26953,20 -4.90977,1.93085 -10.14428,2.90217 -15.419924,2.86132 -5.25955,0.0453 -10.47828,-0.92628 -15.369143,-2.86132 -4.551359,-1.78704 -8.689432,-4.4855 -12.160156,-7.92969 -3.475265,-3.43989 -6.199302,-7.56319 -8,-12.10938 -1.965813,-4.92049 -2.934434,-10.18251 -2.84961,-15.48047 -0.05518,-5.33097 0.912144,-10.6231 2.84961,-15.58984 1.823264,-4.5022 4.545375,-8.58537 8,-12 3.504174,-3.36283 7.636129,-6.00288 12.160156,-7.76953 4.902813,-1.88654 10.116023,-2.83657 15.369143,-2.80078 z m -2.32813,9.11133 c -3.12373,0.24713 -6.18883,0.98605 -9.082029,2.18945 -3.29295,1.4733 -6.231973,3.63511 -8.61914,6.33984 -2.403136,2.72614 -4.263305,5.88631 -5.480469,9.31055 -1.336205,3.59964 -2.01367,7.41038 -2,11.25 -0.018,3.89531 0.659281,7.76257 2,11.41992 1.227148,3.43224 3.108967,6.59359 5.541016,9.3086 2.402205,2.66065 5.339374,4.78382 8.61914,6.23046 7.271752,3.04072 15.458726,3.04072 22.730476,0 3.32336,-1.43158 6.30309,-3.55567 8.74023,-6.23046 2.44373,-2.70606 4.32641,-5.86999 5.53906,-9.3086 1.31366,-3.66227 1.96381,-7.52942 1.91993,-11.41992 h 0.0195 c 0.0331,-3.83594 -0.62389,-7.64656 -1.93946,-11.25 -1.2381,-3.42722 -3.11799,-6.5871 -5.53906,-9.31055 -2.42221,-2.69324 -5.37889,-4.85239 -8.68164,-6.33984 -4.35112,-1.80955 -9.069774,-2.55995 -13.767584,-2.18945 z"
     inkscape:label="logo"
     sodipodi:nodetypes="cccccccccssccccsccccccccccccccccccccccccccccccccccccccc"
     style="fill:#ffffff" />
</svg>
