<?xml version="1.0" encoding="utf-8"?>
<!-- Generator: Adobe Illustrator 24.2.0, SVG Export Plug-In . SVG Version: 6.00 Build 0)  -->
<svg version="1.1" id="Layer_1" xmlns="http://www.w3.org/2000/svg" xmlns:xlink="http://www.w3.org/1999/xlink" x="0px" y="0px"
	 viewBox="0 0 1000 910" style="enable-background:new 0 0 1000 910;" xml:space="preserve">
<style type="text/css">
	.st0{fill:#FFFFFF;}
	.st1{fill:none;}
	.st2{fill:#B4B4B4;}
	.st3{fill:#676767;}
	.st4{fill:#E6E6E5;}
	.st5{fill:#541431;}
	.st6{fill:#C92F3B;}
	.st7{fill:#891720;}
	.st8{fill:#DD8799;}
	.st9{fill:#010101;}
</style>
<g>
	<path class="st0" d="M994.2,567.2l-18.9-23.5L856.3,395.5l-6.5,1.2l-23.2,4.1L519.1,455l-212.4,37.5l-10.4,1.8l-6.6-8.2l-13.1-16.3
		c-29.7-3.1-60.5-17.6-76.8-37.9c-4.4-5.4-7.3-10.9-9-16.1c0-0.1-0.1-0.2-0.1-0.3c-0.5-1.5-0.9-3-1.1-4.5c0-0.3-0.1-0.5-0.1-0.8
		c-0.1-0.4-0.1-0.7-0.1-1.1c0-0.4-0.1-0.8-0.1-1.1c0-0.3-0.1-0.6-0.1-0.9c0-0.7,0-1.3,0-1.9c0-0.2,0-0.4,0-0.6c0-0.6,0-1.1,0.1-1.6
		c0-0.1,0-0.3,0-0.4c0.1-1.2,0.3-2.5,0.6-3.6c0-0.2,0.1-0.4,0.2-0.6c0,0,0,0,0,0c0.2-0.8,0.5-1.7,0.8-2.5c0.7-2,1.7-4,2.9-5.8
		c2.1-3.2,4.9-6.2,8.4-8.7l0,0c0.7-0.5,1.5-1.1,2.3-1.6l-0.8-1l-1.6-2l-0.9-1.2l-18-22.5h0l-20.4-25.4l-14.7-18.3l-4.2-5.2
		L35.5,323.1l-29.7,5.2l18.9,23.5l94.6,117.8l20.9,26L35.5,514.1l-29.7,5.2l18.9,23.5L182.9,740l0,0l19,23.6l6.6,8.2l0,0L289.7,873
		l6.6,8.2l10.4-1.8l657.7-116l29.7-5.2l-18.9-23.5L859.8,590.9l104.6-18.4L994.2,567.2z M303.6,861.9l-87.8-109.4
		c1.8-0.3,3.7-0.6,5.5-1h0c3.9-0.7,7.9-1.4,11.9-2.2c80.9-15.1,181.5-42,246.7-88.7l361.8-63.8l119.6,149L303.6,861.9z M961.4,554.8
		L827,578.5l-316.4,55.8l-207,36.5l-7.9-9.8l-77.5-96.6l-2.3-2.9c1.8-0.3,3.7-0.6,5.5-1h0c3.9-0.7,7.9-1.4,11.9-2.2
		c39.7-7.4,84.1-17.6,126.7-31.6c11.4-3.7,22.6-7.7,33.6-12c5.5-2.1,10.9-4.4,16.3-6.7c15.6-6.7,30.6-14,44.6-22l395.8-69.7
		L961.4,554.8z M268,659.4c-8.4-1.5-16.8-3.8-24.8-6.9c-3.2-1.2-6.3-2.6-9.4-4c-3.1-1.5-6-3-8.9-4.7c-2.9-1.7-5.6-3.5-8.2-5.3
		c-6.6-4.7-12.3-9.9-16.9-15.7c-14.7-18.4-13.8-36.8-0.2-48.6L268,659.4z M188.4,560.2l-0.6,0.5c-21.4,18.7-22.1,48.1-1.9,73.3
		c17.1,21.3,46.6,37.4,79.1,43.1l20,3.5l2.6,3.2l7.6,9.5l12-2.1l124-21.9c-61.8,31.8-140.8,51.3-201.2,62.6c-4,0.7-7.9,1.4-11.7,2.1
		c-1.8,0.3-3.6,0.6-5.4,0.9l-9.8,1.7L38.6,531.7l111.2-19.6L188.4,560.2z"/>
	<path class="st0" d="M176.5,316.4l26.6,33.1l9.8-1.7c1.8-0.3,3.6-0.6,5.4-0.9c3.9-0.7,7.8-1.4,11.7-2.1
		c82.8-15.4,194.4-45,255.8-98.5c0.4-0.3,0.7-0.6,1.1-1c0.5-0.5,1.1-0.9,1.6-1.4c0.7-0.7,1.4-1.3,2.1-2c3.2-3,6.2-6,8.9-9
		c1.3-1.4,2.6-2.9,3.8-4.3c1.6-1.9,3.4-3.9,5.5-6.2c39.1-42.6,97.2-71,172.7-84.4l0.3-0.1l0.4-0.1l0.4-0.1l0.2,0
		c29.6-5.2,61.3-7.9,94.3-8.2l-69.2-86.2l-11.7-14.6L340.9,91.4L38.6,144.7L161.7,298L176.5,316.4z M182.5,196.2
		c5.7-15,21.2-25.8,42.5-29.6c39.9-7,89.7,10.7,113.5,40.3c12,15,15.7,31,10.4,45.1c-5.7,15-21.2,25.8-42.5,29.6
		c-5.9,1-12,1.5-18.2,1.5c-35.8,0-75-16.6-95.3-41.9C180.8,226.4,177.1,210.3,182.5,196.2z"/>
	<path class="st0" d="M786.2,147.4c-1.1,0-2.1,0-3.2,0c-27.2,0-61.3,1.8-96.8,8c-0.2,0-0.4,0.1-0.6,0.1c-0.2,0-0.5,0.1-0.7,0.1
		c-58.2,10.4-120.3,32.7-162.7,78.9c-1.7,1.9-3.4,3.8-5,5.7c-1.4,1.6-2.8,3.3-4.3,4.9c-3.1,3.4-6.4,6.7-9.9,10
		c-0.8,0.7-1.6,1.4-2.3,2.2c-1,0.9-2,1.7-3,2.6c-6,5.2-12.3,10.2-19.1,14.9c-4.5,3.2-9.2,6.3-14,9.3c-19.2,12-40.8,22.5-63.6,31.8
		c-54.1,22-115,36.8-167.6,46.6c-4,0.7-8,1.5-11.9,2.2h0c-1.9,0.3-3.7,0.6-5.5,1l1.6,2l4,5l21.9,27.3l60.3,75.1L516,437.4
		l307.5-54.2l23.2-4.1l114.7-20.2L791.6,147.4C789.9,147.4,788,147.4,786.2,147.4z"/>
	<path class="st0" d="M206.8,230.2c19.4,24.2,63.6,39.7,96.5,33.9c15-2.6,25.5-9.3,28.9-18.3c3-8,0.3-17.8-7.6-27.7
		C307.9,197.4,273,183,242.7,183c-5,0-9.9,0.4-14.6,1.2c-15,2.6-25.5,9.3-28.9,18.3C196.2,210.5,198.9,220.3,206.8,230.2z"/>
</g>
</svg>
