<?xml version="1.0" encoding="utf-8"?>
<!-- Generator: Adobe Illustrator 24.2.0, SVG Export Plug-In . SVG Version: 6.00 Build 0)  -->
<svg version="1.1" id="Layer_1" xmlns="http://www.w3.org/2000/svg" xmlns:xlink="http://www.w3.org/1999/xlink" x="0px" y="0px"
	 viewBox="0 0 1000 760" style="enable-background:new 0 0 1000 760;" xml:space="preserve">
<style type="text/css">
	.st0{fill:#FFFFFF;}
	.st1{fill:none;}
	.st2{fill:#B4B4B4;}
	.st3{fill:#676767;}
	.st4{fill:#E6E6E5;}
	.st5{fill:#541431;}
	.st6{fill:#C92F3B;}
	.st7{fill:#891720;}
	.st8{fill:#DD8799;}
	.st9{fill:#010101;}
</style>
<path class="st0" d="M146.7,555.2c-7.1-7.3-15.7-13.1-25.7-17.3c-10-4.2-20.9-6.3-32.8-6.3s-22.8,2.1-32.8,6.3
	c-10,4.2-18.5,9.9-25.7,17.3c-7.1,7.3-12.7,16-16.7,26C9,591.2,7,602,7,613.6C7,625.2,9,636,13,646c4,10,9.6,18.6,16.7,26
	c7.1,7.3,15.7,13.1,25.7,17.3c10,4.2,20.9,6.3,32.8,6.3s22.8-2.1,32.8-6.3c10-4.2,18.5-9.9,25.7-17.3c7.1-7.3,12.7-16,16.7-26
	c4-10,6.1-20.8,6.1-32.4c0-11.6-2-22.4-6.1-32.4C159.4,571.2,153.8,562.6,146.7,555.2z M142.9,637.7c-2.8,7.6-6.8,14.1-11.9,19.7
	c-5.1,5.6-11.3,10-18.5,13.3c-7.2,3.3-15.3,5-24.2,5c-9,0-17-1.7-24.2-5c-7.2-3.3-13.4-7.7-18.5-13.3c-5.1-5.6-9.1-12.1-11.9-19.7
	c-2.8-7.6-4.2-15.6-4.2-24.1c0-8.5,1.4-16.6,4.2-24.1c2.8-7.6,6.8-14.1,11.9-19.7c5.1-5.6,11.3-10,18.5-13.3c7.2-3.3,15.3-5,24.2-5
	c9,0,17,1.7,24.2,5c7.2,3.3,13.4,7.7,18.5,13.3c5.1,5.6,9.1,12.2,11.9,19.7c2.8,7.6,4.2,15.6,4.2,24.1
	C147.1,622.1,145.7,630.2,142.9,637.7z"/>
<path class="st0" d="M285.7,600.4c-4.6-5-10.2-8.9-16.7-11.7c-6.5-2.8-13.8-4.2-21.9-4.2c-7,0-13.9,1.5-20.6,4.6
	c-6.7,3.1-11.9,7.4-15.7,13h-0.4v-15h-19.8v166.5h19.8v-77.1h0.4c3.5,5.4,8.6,9.7,15.2,12.9c6.6,3.2,13.7,4.7,21.1,4.7
	c8.1,0,15.4-1.4,21.9-4.2c6.5-2.8,12.1-6.6,16.7-11.6c4.6-4.9,8.2-10.7,10.7-17.4c2.5-6.7,3.7-13.9,3.7-21.7
	c0-7.6-1.2-14.8-3.7-21.5C293.9,611.2,290.3,605.4,285.7,600.4z M276.5,654c-1.6,4.5-3.9,8.3-6.8,11.5c-2.9,3.2-6.5,5.7-10.8,7.5
	c-4.3,1.8-9,2.8-14.3,2.8s-10.1-0.9-14.3-2.8c-4.3-1.8-7.9-4.3-10.8-7.5c-2.9-3.2-5.2-7-6.8-11.5c-1.6-4.5-2.4-9.4-2.4-14.6
	c0-5.3,0.8-10.2,2.4-14.6c1.6-4.5,3.9-8.3,6.8-11.5c2.9-3.2,6.5-5.6,10.8-7.5c4.3-1.8,9-2.8,14.3-2.8s10.1,0.9,14.3,2.8
	c4.3,1.8,7.9,4.3,10.8,7.5c2.9,3.2,5.2,7,6.8,11.5c1.6,4.5,2.4,9.4,2.4,14.6C279,644.6,278.2,649.5,276.5,654z"/>
<path class="st0" d="M412,602c-4.1-5.2-9.4-9.4-15.7-12.7c-6.4-3.2-14.2-4.8-23.5-4.8c-7.8,0-15,1.4-21.6,4.2
	c-6.6,2.8-12.3,6.6-17.1,11.6c-4.8,4.9-8.5,10.7-11.2,17.4c-2.7,6.7-4.1,13.9-4.1,21.7c0,7.8,1.2,15,3.7,21.7
	c2.5,6.7,6.1,12.5,10.7,17.4c4.6,4.9,10.3,8.8,17,11.6c6.7,2.8,14.1,4.2,22.4,4.2c19.8,0,35.2-7.1,46.2-21.4l-15-11.5
	c-3.8,4.7-8,8.5-12.6,11.3c-4.6,2.9-9.9,4.3-16.1,4.3c-4.6,0-9-0.7-13.2-2.2c-4.3-1.5-8-3.5-11.2-6.2c-3.2-2.6-5.8-5.8-7.8-9.6
	s-3-7.9-3-12.4h83.7v-7c0-6.8-0.9-13.4-2.8-19.9C419.1,613.1,416.1,607.2,412,602z M340,630.8c0-3.5,0.8-7.1,2.3-10.7
	c1.5-3.6,3.7-6.9,6.5-9.8c2.8-2.9,6.2-5.3,10.2-7.2c4-1.8,8.5-2.8,13.3-2.8c5,0,9.4,0.8,13.1,2.3c3.7,1.5,6.9,3.7,9.4,6.4
	c2.5,2.7,4.4,5.9,5.6,9.6c1.2,3.7,1.9,7.7,2.1,12.1H340z"/>
<path class="st0" d="M524.2,594c-3.5-3.2-7.5-5.6-12.1-7.2s-9.4-2.3-14.4-2.3c-8.1,0-15.2,1.7-21.4,5.2c-6.2,3.5-10.5,8-13,13.5
	h-0.4v-16.1H443v104.4h19.8v-53.7c0-6,0.7-11.2,2.2-15.6c1.5-4.4,3.5-8,6.2-10.9c2.6-2.9,5.7-5,9.2-6.3s7.3-2,11.5-2
	c3.1,0,6.1,0.5,8.9,1.4c2.9,1,5.4,2.5,7.6,4.6c2.2,2.1,4,4.9,5.3,8.4c1.3,3.5,2,7.6,2,12.4v61.7h19.8v-67.2c0-6.9-1-12.9-3.1-17.9
	C530.4,601.4,527.6,597.2,524.2,594z"/>
<polygon class="st0" points="606.4,628.1 674.1,628.1 674.1,596.4 606.4,596.4 606.4,567.3 678,567.3 678,535.6 572.1,535.6 
	572.1,691.6 682,691.6 682,659.8 606.4,659.8 "/>
<polygon class="st0" points="846.7,535.6 805.1,535.6 773.2,590.3 739.9,535.6 696.7,535.6 748.3,610.1 693.7,691.6 734.4,691.6 
	771.4,628.8 809.5,691.6 852.7,691.6 796.3,609.4 "/>
<path class="st0" d="M954,625.7c11-2.1,19.4-6.9,25.1-14.6s8.6-17.1,8.6-28.1c0-9.1-1.6-16.7-4.7-22.8c-3.2-6.1-7.4-10.9-12.8-14.5
	c-5.4-3.6-11.6-6.2-18.7-7.7c-7.1-1.5-14.6-2.3-22.6-2.3h-60.3v155.9h34.4v-62.3h17l32.6,62.3h41.2L954,625.7z M949.2,592.7
	c-1.8,2.4-4.1,4.1-6.9,5.2c-2.8,1.1-5.9,1.8-9.4,2c-3.5,0.2-6.7,0.3-9.8,0.3h-20.3v-35.5h22.5c3.1,0,6.2,0.2,9.5,0.7
	c3.2,0.4,6.1,1.3,8.6,2.5c2.5,1.2,4.5,3,6.2,5.4c1.6,2.4,2.4,5.5,2.4,9.5C952,587,951.1,590.3,949.2,592.7z"/>
<g>
	<path class="st0" d="M772.7,307.8l-10.6-13.2l-66.6-83l-3.7,0.6l-13,2.3L506.7,245l-118.9,21l-5.8,1l-3.7-4.6l-7.3-9.1
		c-16.7-1.7-33.9-9.8-43-21.2c-2.4-3-4.1-6.1-5.1-9c0,0,0-0.1,0-0.1c-0.3-0.9-0.5-1.7-0.6-2.5c0-0.2-0.1-0.3-0.1-0.5
		c0-0.2-0.1-0.4-0.1-0.6c0-0.2,0-0.4-0.1-0.6c0-0.2,0-0.3,0-0.5c0-0.4,0-0.7,0-1.1c0-0.1,0-0.2,0-0.3c0-0.3,0-0.6,0.1-0.9
		c0-0.1,0-0.2,0-0.2c0.1-0.7,0.2-1.4,0.3-2c0-0.1,0.1-0.2,0.1-0.3c0,0,0,0,0,0c0.1-0.5,0.3-0.9,0.4-1.4c0.4-1.1,1-2.2,1.6-3.2
		c1.2-1.8,2.7-3.5,4.7-4.9l0,0c0.4-0.3,0.8-0.6,1.3-0.9l-0.4-0.5l-0.9-1.1l-0.5-0.7l-10.1-12.6h0l-11.4-14.2l-8.2-10.3l-2.3-2.9
		L236,171.2l-16.6,2.9l10.6,13.2l52.9,65.9l11.7,14.6L236,278.1l-16.6,2.9l10.6,13.2l88.6,110.4l0,0l10.6,13.2l3.7,4.6l0,0
		l45.5,56.6l3.7,4.6l5.8-1L756,417.7l16.6-2.9l-10.6-13.2l-64.6-80.5l58.6-10.3L772.7,307.8z M386.1,472.8l-49.1-61.2
		c1-0.2,2.1-0.4,3.1-0.5h0c2.2-0.4,4.4-0.8,6.7-1.2c45.3-8.4,101.6-23.5,138.1-49.7l202.6-35.7l67,83.4L386.1,472.8z M754.3,300.9
		l-75.2,13.3L502,345.4l-115.9,20.4l-4.4-5.5l-43.4-54.1l-1.3-1.6c1-0.2,2.1-0.4,3.1-0.5h0c2.2-0.4,4.4-0.8,6.7-1.2
		c22.2-4.1,47.1-9.9,70.9-17.7c6.4-2.1,12.7-4.3,18.8-6.7c3.1-1.2,6.1-2.4,9.1-3.7c8.8-3.7,17.1-7.8,24.9-12.3l221.6-39L754.3,300.9
		z M366.1,359.5c-4.7-0.8-9.4-2.1-13.9-3.9c-1.8-0.7-3.5-1.4-5.3-2.3c-1.7-0.8-3.4-1.7-5-2.6c-1.6-0.9-3.1-1.9-4.6-3
		c-3.7-2.6-6.9-5.6-9.5-8.8c-8.3-10.3-7.7-20.6-0.1-27.2L366.1,359.5z M321.5,303.9l-0.3,0.3c-12,10.4-12.4,26.9-1.1,41
		c9.6,11.9,26.1,20.9,44.3,24.1l11.2,2l1.4,1.8l4.3,5.3l6.7-1.2l69.4-12.2c-34.6,17.8-78.8,28.7-112.7,35c-2.2,0.4-4.4,0.8-6.6,1.2
		c-1,0.2-2,0.4-3,0.5l-5.5,0.9L237.7,288l62.2-11L321.5,303.9z"/>
	<path class="st0" d="M314.9,167.4l14.9,18.6l5.5-0.9c1-0.2,2-0.4,3-0.5c2.2-0.4,4.4-0.8,6.6-1.2c46.4-8.6,108.8-25.2,143.2-55.1
		c0.2-0.2,0.4-0.4,0.6-0.5c0.3-0.3,0.6-0.5,0.9-0.8c0.4-0.4,0.8-0.7,1.2-1.1c1.8-1.7,3.5-3.3,5-5c0.7-0.8,1.5-1.6,2.1-2.4
		c0.9-1.1,1.9-2.2,3.1-3.5c21.9-23.8,54.4-39.8,96.7-47.3l0.2,0l0.2,0l0.2,0l0.1,0c16.6-2.9,34.3-4.4,52.8-4.6l-38.7-48.3l-6.6-8.2
		l-199,35.1L237.7,71.3l68.9,85.9L314.9,167.4z M318.2,100.1c3.2-8.4,11.8-14.5,23.8-16.6c22.3-3.9,50.2,6,63.5,22.6
		c6.7,8.4,8.8,17.3,5.8,25.3c-3.2,8.4-11.8,14.5-23.8,16.6c-3.3,0.6-6.7,0.9-10.2,0.9c-20.1,0-42-9.3-53.4-23.4
		C317.3,117,315.2,108,318.2,100.1z"/>
	<path class="st0" d="M656.2,72.8c-0.6,0-1.2,0-1.8,0c-15.2,0-34.3,1-54.2,4.5c-0.1,0-0.2,0-0.3,0.1c-0.1,0-0.3,0-0.4,0.1
		c-32.6,5.8-67.3,18.3-91.1,44.2c-1,1-1.9,2.1-2.8,3.2c-0.8,0.9-1.6,1.8-2.4,2.7c-1.7,1.9-3.6,3.8-5.5,5.6c-0.4,0.4-0.9,0.8-1.3,1.2
		c-0.5,0.5-1.1,1-1.7,1.5c-3.3,2.9-6.9,5.7-10.7,8.4c-2.5,1.8-5.1,3.5-7.8,5.2c-10.8,6.7-22.8,12.6-35.6,17.8
		c-30.3,12.3-64.4,20.6-93.8,26.1c-2.3,0.4-4.5,0.8-6.7,1.2h0c-1,0.2-2.1,0.4-3.1,0.5l0.9,1.1l2.2,2.8l12.3,15.3l33.7,42l118.9-21
		l172.2-30.4l13-2.3l64.2-11.3l-95-118.4C658.3,72.8,657.3,72.8,656.2,72.8z"/>
	<path class="st0" d="M331.8,119.1c10.9,13.5,35.6,22.2,54,19c8.4-1.5,14.3-5.2,16.2-10.3c1.7-4.5,0.2-10-4.2-15.5
		c-9.3-11.6-28.9-19.7-45.9-19.7c-2.8,0-5.5,0.2-8.2,0.7c-8.4,1.5-14.3,5.2-16.2,10.3C325.9,108.1,327.4,113.6,331.8,119.1z"/>
</g>
</svg>
