<svg id="Layer_1" data-name="Layer 1" xmlns="http://www.w3.org/2000/svg" viewBox="0 0 384 396.83007"><defs><style>.cls-1{fill:#fff;}</style></defs><path class="cls-1" d="M19.48516,239.04088a2.80357,2.80357,0,0,1,2.68407-2.83369h36.39c28.78344,0,52.347,23.41441,52.347,52.04869a52.41426,52.41426,0,0,1-52.347,52.347h-36.39a2.80355,2.80355,0,0,1-2.68407-2.83368Zm37.58235,79.48966c16.852,0,29.08178-13.273,29.08178-30.27466,0-16.85251-12.22973-30.12549-29.08179-30.12549H42.75041v60.40015Z"/><path class="cls-1" d="M129.09985,239.04088a2.83184,2.83184,0,0,1,2.83-2.83369h35.94573c18.34368,0,33.40666,14.9138,33.40666,32.95918a33.54484,33.54484,0,0,1-33.25751,33.55585H152.3651v35.047a2.93275,2.93275,0,0,1-2.83324,2.83368H131.934a2.83183,2.83183,0,0,1-2.83414-2.82953V239.04088Zm37.43323,41.90726a11.71155,11.71155,0,0,0,11.78224-11.64041q.00043-.07068,0-.14139c0-6.26358-5.369-11.036-11.78224-11.036h-14.168v22.81775Z"/><path class="cls-1" d="M216.49527,239.04088a2.83184,2.83184,0,0,1,2.83-2.83369H281.072a2.83164,2.83164,0,0,1,2.83322,2.83006v16.25946a2.83192,2.83192,0,0,1-2.83017,2.83368H239.7605v18.49289h34.00333A2.93357,2.93357,0,0,1,276.598,279.457v16.25583a2.83214,2.83214,0,0,1-2.83056,2.83368H239.7605v20.13321H281.072a2.83192,2.83192,0,0,1,2.83322,2.83062v16.25888a2.83162,2.83162,0,0,1-2.82959,2.83368H219.32941a2.83182,2.83182,0,0,1-2.83414-2.82953V239.04088Z"/><path class="cls-1" d="M303.89069,239.04088a2.83182,2.83182,0,0,1,2.83-2.83369h17.75116a2.93278,2.93278,0,0,1,2.83322,2.83369v79.63883h35.495a2.83132,2.83132,0,0,1,2.83322,2.82946v16.26a2.831,2.831,0,0,1-2.82831,2.83368H306.72482a2.83183,2.83183,0,0,1-2.83413-2.82953V239.04088Z"/><path class="cls-1" d="M19.75145,358.1985a.33639.33639,0,0,1,.30827-.334h5.4504a8.998,8.998,0,1,1,.11447,17.99564q-.05723.00036-.11447,0h-5.4504a.33685.33685,0,0,1-.30828-.33451Zm5.553,16.556a7.89279,7.89279,0,1,0,.15167-15.78485q-.07584-.00072-.15167,0H20.95968V374.7545Z"/><path class="cls-1" d="M37.33983,359.68972a.87435.87435,0,1,1,1.74794-.05155q.00075.02577,0,.05155a.87437.87437,0,0,1-1.74794,0Zm.30873,6.2211a.34008.34008,0,0,1,.334-.334h.46294a.34007.34007,0,0,1,.334.334v9.61483a.29885.29885,0,0,1-.334.33451h-.51438a.29934.29934,0,0,1-.28427-.31369l.00176-.02082Z"/><path class="cls-1" d="M43.33038,372.235a4.47272,4.47272,0,0,1-.7969-2.57016,4.21222,4.21222,0,0,1,4.49891-4.34521h4.2164a.32392.32392,0,0,1,.334.31351c.00022.007.00021.014,0,.021v.2825a.30223.30223,0,0,1-.23143.30872l-1.851.12836a3.49825,3.49825,0,0,1,1.59426,3.2911,4.14544,4.14544,0,0,1-4.02018,4.267q-.12386.00366-.24776,0a3.89993,3.89993,0,0,1-2.802-.92572,2.11675,2.11675,0,0,0-1.3113,1.85147c0,1.20868,1.02834,1.49075,2.03091,1.49075h3.72778c2.21126,0,3.80462,1.00257,3.80462,3.29068,0,2.18595-2.10775,4.19111-5.24429,4.19111-3.49635,0-5.01285-2.05668-5.01285-3.80509a3.20077,3.20077,0,0,1,1.61957-2.69943,2.56813,2.56813,0,0,1-2.00514-2.33963A3.2565,3.2565,0,0,1,43.33038,372.235Zm3.67671,10.541c2.31341,0,4.08758-1.36328,4.08758-3.11078,0-1.18246-.72007-2.26279-2.6226-2.26279H45.23292a2.78963,2.78963,0,0,0-2.08244,2.49424c0,1.41387,1.36283,2.8793,3.85661,2.8793Zm3.0077-13.13739a3.05624,3.05624,0,0,0-3.1623-3.29068,3.15181,3.15181,0,0,0-3.26592,3.03342q-.00474.12862.001.25726a3.08019,3.08019,0,0,0,3.26491,3.29068,3.11276,3.11276,0,0,0,3.16694-3.05762Q50.02149,369.75511,50.01479,369.6386Z"/><path class="cls-1" d="M54.25831,359.68972a.87457.87457,0,0,1,1.74841-.05082q.00073.02541,0,.05082a.87461.87461,0,0,1-1.74841,0Zm.30918,6.2211a.3397.3397,0,0,1,.3336-.334H55.364a.34047.34047,0,0,1,.33449.334v9.61483a.299.299,0,0,1-.33449.33451H54.8505a.29967.29967,0,0,1-.28471-.31394l.00171-.02057Z"/><path class="cls-1" d="M60.045,366.57933H58.83634c-.25675,0-.30829-.12838-.30829-.334V365.834c0-.1799.12837-.2572.30829-.2572H60.045v-2.80206a.32382.32382,0,0,1,.3128-.33448q.01038-.00036.02078,0l.43756-.02575a.34088.34088,0,0,1,.33449.3345v2.82782h3.57273a.32391.32391,0,0,1,.33447.313c.00024.007.00024.014,0,.021v.33451a.31045.31045,0,0,1-.33449.334H61.15066v6.556c0,1.2078.12836,1.87677,1.33615,1.87677a5.49683,5.49683,0,0,0,2.33963-.6943c.23143-.12836.33449-.02622.41133.10306l.1799.30828a.29564.29564,0,0,1-.07684.43665,5.1193,5.1193,0,0,1-2.9824.95105c-2.13351,0-2.31341-1.25931-2.31341-2.90466Z"/><path class="cls-1" d="M71.56329,369.22725a8.451,8.451,0,0,1,2.59638.46286c0-2.26233-.23144-3.39374-2.26279-3.39374a7.55291,7.55291,0,0,0-3.08455.69431.26889.26889,0,0,1-.386-.20566l-.12837-.30826c-.07684-.23141.02621-.3345.15459-.38556a7.43542,7.43542,0,0,1,3.5221-.77157c3.13609,0,3.26446,1.87677,3.26446,4.4989v5.70715a.3401.3401,0,0,1-.33359.33451h-.3092c-.1799,0-.25674-.10306-.30828-.283l-.10305-.92572a5.36932,5.36932,0,0,1-3.57274,1.46545,3.23873,3.23873,0,0,1-3.37079-3.10107q-.00663-.15894.00237-.318C67.24382,370.718,68.86385,369.22725,71.56329,369.22725Zm-.82267,5.887a4.67907,4.67907,0,0,0,3.419-1.59382v-2.82782a6.67587,6.67587,0,0,0-2.59639-.5397c-1.95452,0-3.26535,1.00256-3.26535,2.51953a2.321,2.321,0,0,0,2.44274,2.44187Z"/><path class="cls-1" d="M79.046,358.1985a.34049.34049,0,0,1,.33449-.334h.46286a.3397.3397,0,0,1,.33359.334v17.32712a.29831.29831,0,0,1-.33359.33451h-.51439a.29967.29967,0,0,1-.28471-.31391l.00171-.0206Z"/><path class="cls-1" d="M90.43675,358.1985a.34048.34048,0,0,1,.33448-.334H96.2985a5.79712,5.79712,0,0,1,.03468,11.59418l-.00847,0H91.64543v6.06695c0,.1799-.15458.33451-.41134.33451h-.46286a.34087.34087,0,0,1-.33448-.33451ZM96.247,368.2762a4.69048,4.69048,0,0,0,4.653-4.6788,4.61491,4.61491,0,0,0-4.67837-4.52469h-4.5762v9.20349Z"/><path class="cls-1" d="M104.42572,365.91082a.3405.3405,0,0,1,.33449-.334h.30827a.30615.30615,0,0,1,.30828.283l.10306,1.05411a3.945,3.945,0,0,1,3.21383-1.59427,4.24738,4.24738,0,0,1,1.59381.30871c.23143.07685.3598.25675.283.46286l-.20612.51395c-.07685.1799-.23143.20566-.41134.12836a3.27674,3.27674,0,0,0-1.33615-.30826,3.61446,3.61446,0,0,0-3.06015,1.77371v7.32672a.29826.29826,0,0,1-.33359.33451h-.51439a.29967.29967,0,0,1-.28472-.31394l.00172-.02057Z"/><path class="cls-1" d="M117.07584,365.31957a5.40382,5.40382,0,1,1-5.16234,5.635q-.00573-.13083-.00511-.26184A5.28007,5.28007,0,0,1,117.07584,365.31957Zm0,9.74319a4.34062,4.34062,0,1,0-4.053-4.61029q-.00771.11994-.00878.24021a4.17349,4.17349,0,0,0,3.97082,4.36676Q117.03032,375.06159,117.07584,375.06276Z"/><path class="cls-1" d="M129.70151,365.31957a5.18985,5.18985,0,0,1,3.16229,1.02832V358.1985a.32373.32373,0,0,1,.31307-.334q.01024-.00031.02052,0h.46286a.336.336,0,0,1,.30827.334v17.32712a.34008.34008,0,0,1-.33357.33451h-.25764a.33035.33035,0,0,1-.35982-.33451l-.07685-.8995a4.98245,4.98245,0,0,1-3.54832,1.49075c-2.67322,0-4.75521-2.39026-4.75521-5.39886a5.124,5.124,0,0,1,4.84193-5.39133Q129.59018,365.32068,129.70151,365.31957Zm-.23143,9.76941a4.083,4.083,0,0,0,3.39372-1.82523v-5.7587a4.84214,4.84214,0,0,0-3.05923-1.07986,4.04367,4.04367,0,0,0-4.04419,4.04315q0,.12487.00769.24963c0,2.39118,1.5423,4.371,3.702,4.371Z"/><path class="cls-1" d="M137.72481,365.91082a.3397.3397,0,0,1,.33359-.334h.46287a.3405.3405,0,0,1,.33449.334v5.52771c0,2.39025,1.10564,3.599,3.05923,3.599a4.28211,4.28211,0,0,0,3.39373-1.79992v-7.32672a.31014.31014,0,0,1,.33358-.334h.46286a.34049.34049,0,0,1,.33451.334v9.61483a.34088.34088,0,0,1-.33451.33451h-.30827c-.20611,0-.283-.1546-.30827-.30826l-.103-1.00256a4.686,4.686,0,0,1-3.54742,1.56759c-2.87934,0-4.11335-1.77371-4.11335-4.67837Z"/><path class="cls-1" d="M154.97644,365.31957a4.97037,4.97037,0,0,1,3.80507,1.61957.30839.30839,0,0,1-.05153.46286l-.25674.2572c-.18082.1799-.386.1026-.54062-.05155a4.28593,4.28593,0,1,0-2.98149,7.42978,4.15413,4.15413,0,0,0,3.21293-1.517c.1799-.20523.33449-.20523.48908-.05154l.28206.25766c.12927.12836.1799.25674.07774.41132a5.125,5.125,0,0,1-4.0365,1.97894,5.39865,5.39865,0,0,1,0-10.7973h0Z"/><path class="cls-1" d="M162.58928,366.57933h-1.20869c-.25675,0-.30828-.12838-.30828-.334V365.834c0-.1799.12837-.2572.30828-.2572h1.20869v-2.80206a.32383.32383,0,0,1,.31281-.33448q.01038-.00036.02078,0l.43754-.02575a.34088.34088,0,0,1,.33449.3345v2.82782h3.57273a.32392.32392,0,0,1,.33447.313c.00023.007.00024.014,0,.021v.33451a.31044.31044,0,0,1-.33448.334H163.6949v6.556c0,1.2078.12837,1.87677,1.33617,1.87677a5.49645,5.49645,0,0,0,2.33963-.6943c.23143-.12836.33449-.02622.41133.10306l.17992.30828a.29565.29565,0,0,1-.07685.43665,5.11927,5.11927,0,0,1-2.98239.95105c-2.13351,0-2.31341-1.25931-2.31341-2.90466Z"/><path class="cls-1" d="M170.30251,359.68972a.87457.87457,0,1,1,1.74839-.051q.00073.0255,0,.051a.87461.87461,0,0,1-1.74839,0Zm.30827,6.2211a.3405.3405,0,0,1,.33449-.334h.46286a.34048.34048,0,0,1,.3345.334v9.61483a.299.299,0,0,1-.3345.33451h-.51439a.29967.29967,0,0,1-.28471-.31394l.0017-.02057Z"/><path class="cls-1" d="M180.047,365.31957a5.40382,5.40382,0,1,1-5.16234,5.635q-.00572-.13083-.00511-.26184A5.28007,5.28007,0,0,1,180.047,365.31957Zm0,9.74319a4.34062,4.34062,0,1,0-4.053-4.61029q-.00772.11994-.00878.24021a4.17349,4.17349,0,0,0,3.97082,4.36676Q180.00152,375.06159,180.047,375.06276Z"/><path class="cls-1" d="M188.35327,365.91082a.34653.34653,0,0,1,.35846-.33408l.00134.00006h.25765a.28764.28764,0,0,1,.30827.2572l.10306,1.1052a5.49291,5.49291,0,0,1,3.80417-1.61957c2.88023,0,4.13956,1.82522,4.13956,4.705v5.501a.34089.34089,0,0,1-.33451.33451h-.46286a.34009.34009,0,0,1-.33358-.33451v-5.501c0-2.36539-1.10564-3.5994-3.05924-3.5994a5.27273,5.27273,0,0,0-3.6767,1.77371v7.32672a.299.299,0,0,1-.3345.33451h-.48817a.29967.29967,0,0,1-.28472-.31394l.00171-.02057Z"/><path class="cls-1" d="M207.432,358.1985a.34049.34049,0,0,1,.33448-.334H218.076a.33969.33969,0,0,1,.33358.334v.43711a.33968.33968,0,0,1-.33358.334h-9.41007v7.09574h8.14984a.34052.34052,0,0,1,.33451.334v.4371a.34049.34049,0,0,1-.33451.334h-8.14984v7.61014H218.076a.33929.33929,0,0,1,.33358.33359v.41134a.34007.34007,0,0,1-.33358.3345H207.76643a.34087.34087,0,0,1-.33448-.3345Z"/><path class="cls-1" d="M224.55791,370.58962l-3.57364-4.65305c-.15459-.1799-.05153-.3598.15369-.3598h.669a.48573.48573,0,0,1,.38512.23141l3.0086,3.985h.02532l3.03393-3.985a.48571.48571,0,0,1,.38512-.23141h.669c.20521,0,.30827.1799.15368.3598l-3.54742,4.62775,3.72733,4.936c.15458.1799.05152.35981-.15369.35981h-.669a.48454.48454,0,0,1-.38511-.23142l-3.21384-4.29324h-.02532l-3.21383,4.29324a.48608.48608,0,0,1-.386.23142h-.66808c-.20611,0-.30827-.17991-.15459-.35981Z"/><path class="cls-1" d="M236.07707,369.22725a8.451,8.451,0,0,1,2.59638.46286c0-2.26233-.23143-3.39374-2.26279-3.39374a7.55283,7.55283,0,0,0-3.08455.69431.26888.26888,0,0,1-.386-.20566l-.12839-.30826c-.07684-.23141.02622-.3345.15459-.38556a7.43549,7.43549,0,0,1,3.52211-.77157c3.13608,0,3.26447,1.87677,3.26447,4.4989v5.70715a.3401.3401,0,0,1-.33359.33451h-.30918c-.1799,0-.25674-.10306-.30827-.283l-.10306-.92572a5.3691,5.3691,0,0,1-3.57272,1.46545,3.23876,3.23876,0,0,1-3.37079-3.10107q-.00663-.15894.00237-.318C231.75762,370.718,233.37764,369.22725,236.07707,369.22725Zm-.82266,5.887a4.67909,4.67909,0,0,0,3.419-1.59382v-2.82782a6.67589,6.67589,0,0,0-2.59638-.5397c-1.95451,0-3.26536,1.00256-3.26536,2.51953a2.32105,2.32105,0,0,0,2.44273,2.44187Z"/><path class="cls-1" d="M243.55974,365.91082a.3405.3405,0,0,1,.33449-.334h.30827a.28011.28011,0,0,1,.283.2572l.12837,1.1052a4.48559,4.48559,0,0,1,3.54832-1.61957,3.56769,3.56769,0,0,1,3.36753,1.87677,5.20692,5.20692,0,0,1,3.85568-1.87677c2.80249,0,4.0112,1.82522,4.0112,4.705v5.501a.34087.34087,0,0,1-.33451.33451h-.5144a.30009.30009,0,0,1-.28363-.31565l.00162-.01886v-5.501c0-2.36539-1.02878-3.5994-2.9571-3.5994a4.40541,4.40541,0,0,0-3.39372,1.74792,6.73721,6.73721,0,0,1,.23143,1.85148v5.501a.34009.34009,0,0,1-.33359.33451h-.48907a.3042.3042,0,0,1-.30974-.29853.30026.30026,0,0,1,.00147-.036v-5.501c0-2.36539-1.0541-3.5994-2.98241-3.5994a4.14767,4.14767,0,0,0-3.34221,1.77371v7.32672a.29828.29828,0,0,1-.33357.33451h-.51441a.29967.29967,0,0,1-.28471-.31394l.00171-.02057Z"/><path class="cls-1" d="M264.28467,383.23882a.34011.34011,0,0,1-.3345.33359h-.43668a.3401.3401,0,0,1-.3345-.33359v-17.328a.34532.34532,0,0,1,.3562-.33414l.0036.00012h.283a.271.271,0,0,1,.30591.23087l.00238.02633.07773.71961a5.20124,5.20124,0,0,1,3.36752-1.234,5.10523,5.10523,0,0,1,4.96808,5.23877q-.00216.07987-.00675.15964a5.16427,5.16427,0,0,1-4.92422,5.39364q-.13418.00609-.26853.00522a4.69369,4.69369,0,0,1-3.05923-1.05411Zm2.93088-8.20136a4.134,4.134,0,0,0,4.19513-4.072q.002-.13646-.005-.27279a4.01084,4.01084,0,0,0-3.68969-4.30811q-.10859-.00842-.21753-.01089a4.10508,4.10508,0,0,0-3.18851,1.43966v6.01541a4.01529,4.01529,0,0,0,2.90552,1.20868Z"/><path class="cls-1" d="M275.70166,358.1985a.3405.3405,0,0,1,.3345-.334h.46286a.33967.33967,0,0,1,.33359.334v17.32712a.29831.29831,0,0,1-.33359.33451h-.5144a.29967.29967,0,0,1-.2847-.31394l.00171-.02057Z"/><path class="cls-1" d="M285.06021,365.31957a4.52449,4.52449,0,0,1,4.65479,4.39035q.00462.15733-.00174.31463c0,.41132,0,1.00257-.386,1.00257H281.1268a4.06041,4.06041,0,0,0,4.01029,4.0618,5.49109,5.49109,0,0,0,3.03393-.951c.23142-.1546.33359-.1799.46286,0l.25675.3598c.07684.10306.05154.25674-.10306.41132a6.21543,6.21543,0,0,1-3.72733,1.20779c-3.137,0-5.06439-2.41647-5.06439-5.42419C279.99582,367.76183,281.92322,365.31957,285.06021,365.31957Zm3.5221,4.78186a3.46,3.46,0,0,0-3.5221-3.75354,3.82563,3.82563,0,0,0-3.9079,3.74154l-.00024.012Z"/><path class="cls-1" d="M299.09979,358.1985a.3405.3405,0,0,1,.33451-.334h.56591a.33674.33674,0,0,1,.30826.334v16.58219h8.20139c.30829,0,.33359.15369.33359.33359v.46286a.29889.29889,0,0,1-.31238.28473l-.02121-.00174H299.4343a.34087.34087,0,0,1-.33451-.33451Z"/><path class="cls-1" d="M310.59458,359.68972a.87457.87457,0,1,1,1.74841-.05042q.00074.02519,0,.05042a.87461.87461,0,0,1-1.74841,0Zm.30828,6.2211a.34046.34046,0,0,1,.33451-.334h.46286a.33967.33967,0,0,1,.33358.334v9.61483a.2983.2983,0,0,1-.33358.33451h-.51441a.29966.29966,0,0,1-.2847-.31394l.00171-.02057Z"/><path class="cls-1" d="M315.94281,358.1985a.3405.3405,0,0,1,.3345-.334h.43665a.34049.34049,0,0,1,.3345.334v8.14939a5.31242,5.31242,0,0,1,3.18763-1.02832,5.09712,5.09712,0,0,1,5.04629,5.14743q-.00109.11293-.00723.22568c0,3.00772-2.082,5.42419-4.72989,5.42419a4.94432,4.94432,0,0,1-3.57364-1.51605l-.07776.92483a.32951.32951,0,0,1-.3598.33451h-.25675a.34087.34087,0,0,1-.3345-.33451Zm4.49936,16.89048c2.15973,0,3.72733-1.97983,3.72733-4.371a4.064,4.064,0,0,0-3.82877-4.28634q-.11641-.00655-.233-.00644a4.80938,4.80938,0,0,0-3.033,1.07986v5.75867A4.06241,4.06241,0,0,0,320.44217,375.089Z"/><path class="cls-1" d="M328.43924,365.91082a.34048.34048,0,0,1,.3345-.334h.30829a.30611.30611,0,0,1,.30826.283l.10306,1.05411a3.945,3.945,0,0,1,3.21384-1.59427,4.24738,4.24738,0,0,1,1.59381.30871c.23141.07685.3598.25675.283.46286l-.20612.51395c-.07684.1799-.23141.20566-.41132.12836a3.27681,3.27681,0,0,0-1.33615-.30826,3.61447,3.61447,0,0,0-3.06015,1.77371v7.32672a.29827.29827,0,0,1-.33358.33451h-.51441a.29968.29968,0,0,1-.2847-.31394l.00171-.02057Z"/><path class="cls-1" d="M340.26758,369.22725a8.451,8.451,0,0,1,2.59637.46286c0-2.26233-.23144-3.39374-2.26278-3.39374a7.553,7.553,0,0,0-3.08457.69431.26886.26886,0,0,1-.386-.20566l-.12836-.30826c-.07684-.23141.02621-.3345.1546-.38556a7.43547,7.43547,0,0,1,3.5221-.77157c3.13607,0,3.26446,1.87677,3.26446,4.4989v5.70715a.3401.3401,0,0,1-.33359.33451h-.30917c-.1799,0-.25674-.10306-.30826-.283l-.10306-.92572a5.36929,5.36929,0,0,1-3.57272,1.46545,3.23877,3.23877,0,0,1-3.37079-3.10107q-.00658-.15894.00238-.318C335.94812,370.718,337.56815,369.22725,340.26758,369.22725Zm-.82266,5.887a4.679,4.679,0,0,0,3.419-1.59382v-2.82782a6.67569,6.67569,0,0,0-2.59637-.5397c-1.95361,0-3.26535,1.00256-3.26535,2.51953a2.321,2.321,0,0,0,2.44272,2.44187Z"/><path class="cls-1" d="M347.74933,365.91082a.34048.34048,0,0,1,.3345-.334h.30829a.30611.30611,0,0,1,.30826.283l.10306,1.05411a3.945,3.945,0,0,1,3.21383-1.59427,4.2474,4.2474,0,0,1,1.59382.30871c.23141.07685.3598.25675.283.46286l-.20611.51395c-.07684.1799-.23142.20566-.41132.12836a3.27681,3.27681,0,0,0-1.33615-.30826,3.61447,3.61447,0,0,0-3.06015,1.77371v7.32672a.29826.29826,0,0,1-.33359.33451h-.5144a.29967.29967,0,0,1-.2847-.31394l.00171-.02057Z"/><path class="cls-1" d="M354.74384,365.98806c-.10306-.20566-.07776-.41132.15368-.41132h.56592a.38149.38149,0,0,1,.3345.23141l4.39539,8.68955h.05154l4.01029-8.68955a.38151.38151,0,0,1,.3345-.23141h.56592c.23141,0,.25674.20566.15369.41132l-8.07209,17.37908a.3712.3712,0,0,1-.3345.20521h-.59125c-.2052,0-.283-.12836-.1799-.35981l3.47058-7.45553Z"/><path class="cls-1" d="M204.00257,211.91489q-46.44105,0-92.88208-.02867c-3.92936-.00656-7.82187.451-11.74288.508A78.58172,78.58172,0,1,1,109.1505,56.04462c.96185.13714,1.8309.38722,2.6058-.78721,13.59636-20.60628,32.47714-33.78423,56.55839-39.00682,32.76-7.10479,63.01568-1.15367,89.90772,19.20128,16.04953,12.1481,25.3922,28.826,30.21395,48.1519,1.35435,5.42833.8674,6.25123,8.58871,6.30719,24.15649.175,44.26955,9.0287,58.62844,28.91573a52.80211,52.80211,0,0,1,9.87071,36.42655c-1.70693,18.67978-10.707,33.44747-26.4483,43.67411a78.441,78.441,0,0,1-43.0028,13.03986C265.383,212.17108,234.69384,212.43912,204.00257,211.91489Zm-66.15431-10.34525a1.49956,1.49956,0,0,0,1.50508.6025q18.95421.25522,37.90872.49055c28.72233.30931,57.44-.4791,86.16157-.39367,10.74473.032,21.49106-.08632,32.234.06014a61.81073,61.81073,0,0,0,41.09258-14.11444c14.64884-11.9509,20.86294-27.4626,17.501-46.22091-2.70565-15.0962-11.78107-25.97016-24.461-33.9922-9.43657-5.97012-19.99712-8.27489-31.02782-8.7669a122.75482,122.75482,0,0,0-15.3894.47892c-2.90106.23486-3.94947-.62878-4.29586-3.51881a18.22023,18.22023,0,0,1-.12493-2.02228,55.05381,55.05381,0,0,0-2.79121-16.30679c-5.0138-15.77117-15.09206-27.86122-28.26172-37.32264-25.4251-18.266-53.59989-21.447-83.19174-13.2885a74.737,74.737,0,0,0-42.38591,29.87222c-.91147,1.30216-.83515,1.67519.72861,2.26965,31.72783,12.06137,50.0793,34.84747,53.11111,68.74679,2.189,24.47513-6.35048,45.48339-24.08577,62.62485A81.10245,81.10245,0,0,1,137.84826,201.56964Zm-39.959-.01968A67.7242,67.7242,0,0,0,98.172,66.1019C61.13893,66.004,30.3468,96.25983,30.221,132.97675,30.09087,170.97438,60.141,201.4264,97.88924,201.55Z"/><path class="cls-1" d="M289.67117,175.69767c.00421-3.23521.40307-6.48515-.25741-9.704-.85638-4.17369-2.80272-5.19467-6.63568-3.4009-6.16743,2.88625-12.32026,5.80383-18.49165,8.68158a6.05677,6.05677,0,0,1-6.98742-.90248,3.39312,3.39312,0,0,1-.1488-5.45636,19.98026,19.98026,0,0,1,4.84654-3.28208c4.73712-2.44667,9.49807-4.84788,14.21613-7.33062,3.88808-2.046,4.09265-4.72486.66791-7.49182-2.4655-1.992-5.45579-2.917-8.301-4.13687-2.29023-.98187-4.613-1.88983-6.88509-2.91116a10.23234,10.23234,0,0,1-4.30139-3.59142c-1.10686-1.60945-1.65842-3.241-.519-5.07487,1.10281-1.77489,2.82147-2.2,4.72683-2.12893a9.73566,9.73566,0,0,1,3.80971,1.27284q8.47755,4.08311,16.97182,8.13142a11.30091,11.30091,0,0,0,2.07365.797c2.35237.59178,3.76079-.17946,4.54631-2.49585a15.64943,15.64943,0,0,0,.78216-4.98515c.01419-4.18558-.05206-8.37139-.07694-12.55716a11.00835,11.00835,0,0,1,.48189-3.59977,4.99983,4.99983,0,0,1,9.756.20513c.987,3.97565.81675,8.04558.78563,12.0991-.01659,2.16107-.10183,4.3291.032,6.4823.27422,4.41342,2.2427,5.72858,6.468,4.402a52.75788,52.75788,0,0,0,9.82865-4.734c2.99613-1.67826,5.88907-3.57281,9.21635-4.58751,3.2122-.97959,5.96773-.1457,7.31586,2.20692a3.70125,3.70125,0,0,1-.95175,5.22043,29.57535,29.57535,0,0,1-4.16816,2.46881c-5.03448,2.5921-10.09886,5.126-15.14242,7.7006a3.932,3.932,0,0,0-2.53011,2.93393c-.27756,1.98225.7095,3.19184,2.36275,4.03518q8.6568,4.416,17.30566,8.84762a14.28658,14.28658,0,0,1,2.06928,1.25313,3.82752,3.82752,0,0,1,1.55209,4.273,4.10259,4.10259,0,0,1-3.34926,3.384,10.208,10.208,0,0,1-6.32756-.725c-4.04531-1.88064-7.81786-4.25857-11.7553-6.33149-2.43257-1.28066-4.85674-2.63942-7.76283-2.67005a3.58184,3.58184,0,0,0-3.67542,2.584,13.44013,13.44013,0,0,0-.54461,4.60246c-.13711,4.72451.29745,9.46256-.31395,14.1743a10.53533,10.53533,0,0,1-.58682,2.54786,4.60455,4.60455,0,0,1-4.2004,3.28853,5.03407,5.03407,0,0,1-4.94344-2.89169c-.94281-1.73545-.89958-3.6498-.94935-5.53583C289.636,179.07685,289.67117,177.3868,289.67117,175.69767Z"/><path class="cls-1" d="M189.51977,191.7035c-.469-.03632-.9461-.038-1.41078-.115-3.206-.53068-4.00172-1.93718-2.769-4.9625,3.053-7.493,6.16366-14.96282,9.18322-22.46927q19.03836-47.32833,38.01707-94.68061c1.18235-2.95173,2.64563-5.44268,6.03725-6.22217,3.87592-.89079,5.95716,1.00986,5.23667,4.9101-.79236,4.289-2.737,8.17911-4.39073,12.151-13.56111,32.57033-26.55672,65.36879-39.6921,98.111-1.255,3.12831-2.66409,6.1945-3.97768,9.29967A6.22074,6.22074,0,0,1,189.51977,191.7035Z"/><path class="cls-1" d="M114.07605,123.23328c.165-13.63529,11.43482-21.94121,24.5929-19.859,8.1586,1.29106,14.22074,5.58424,16.73731,13.70351,3.41619,11.02184-4.44737,22.7533-16.31469,24.62865-8.26179,1.30558-15.38534-.87535-20.96113-7.31038A16.27766,16.27766,0,0,1,114.07605,123.23328Z"/><path class="cls-1" d="M80.53146,124.57556c-.12084,5.25157-3.25135,10.75188-9.45757,14.395-9.36364,5.49657-21.62805,3.52652-28.13093-4.43329-9.29887-11.38223-3.12249-27.813,11.639-30.89147a24.26446,24.26446,0,0,1,12.78494.56855C75.5286,106.92517,80.557,113.99433,80.53146,124.57556Z"/><path class="cls-1" d="M99.50817,162.47414c.31421-6.38437,3.55587-11.79889,9.46916-15.58063a21.62231,21.62231,0,0,1,30.32452,7.27131c4.43093,7.541,3.28348,15.89357-2.95411,22.02684-10.60334,10.426-25.2418,6.80111-32.08489-.85287A18.41377,18.41377,0,0,1,99.50817,162.47414Z"/><path class="cls-1" d="M73.458,182.70351a22.65232,22.65232,0,0,1-15.42673-6.87821c-6.3171-6.38837-6.58635-17.06511-.48575-24.648,5.67916-7.05909,13.1876-9.12215,21.80677-6.82967,8.59826,2.28691,14.39965,7.50189,15.93077,16.62574a16.0937,16.0937,0,0,1-2.08878,10.53532A22.32062,22.32062,0,0,1,73.458,182.70351Z"/><path class="cls-1" d="M76.34141,97.83582c.07851-10.31738,7.29652-18.20079,17.559-19.45183,6.79505-.82835,12.8911.45292,18.09642,5.0738,9.404,8.34813,8.52968,22.82069-2.077,29.55615-10.1451,6.44234-23.11961,5.40678-30.54815-5.27456A16.4996,16.4996,0,0,1,76.34141,97.83582Z"/><path class="cls-1" d="M97.36131,141.77907c-4.83827-.01909-7.63227-2.14143-8.43479-6.4071-.86486-4.597.78567-7.62,4.96716-9.09767,4.45959-1.57591,9.47687.01281,11.36328,3.64213C107.72709,134.66876,104.95033,142.25073,97.36131,141.77907Z"/></svg>