<?xml version="1.0" encoding="utf-8"?>
<!-- Generator: Adobe Illustrator 26.2.1, SVG Export Plug-In . SVG Version: 6.00 Build 0)  -->
<svg version="1.1" id="a" xmlns="http://www.w3.org/2000/svg" xmlns:xlink="http://www.w3.org/1999/xlink" x="0px" y="0px"
	 viewBox="0 0 3780.8 546.7" style="enable-background:new 0 0 3780.8 546.7;" xml:space="preserve">
<g id="b" transform="matrix(1.33333 0 0 -1.33333 0 816)">
	<path d="M1105.8,564.9c-26.8,30.8-65.2,47.1-110.9,47.1c-22.6,0-43.7-4.2-62.8-12.5c-18.5-8-34.7-19.6-48.3-34.5
		c-27-29.7-41.8-71.4-41.8-117.5c0-44.7,13.9-85.2,39.1-113.9c26.7-30.4,64.4-46.5,108.8-46.5c45.8,0,84.4,15.2,111.8,44
		c27.6,29,42.3,70.5,42.5,120.1v1.3C1144.2,496.6,1130.5,536.5,1105.8,564.9z M919,448.9c0,30.2,6.8,56.1,19.7,74.9
		c13.3,19.4,32.3,29.7,54.9,29.7c22.4,0,41.3-10.5,54.6-30.5c12.3-18.5,19-44.3,19-72.7c0-30.3-6.7-56.2-19.4-74.9
		c-13.1-19.4-31.9-29.6-54.2-29.6c-22.4,0-41.3,9.9-54.5,28.6C925.9,392.8,919,418.6,919,448.9L919,448.9z"/>
	<path id="e" d="M1260.2,390.6c0-5.5,0.5-10.2,1.4-14.8c4.6-19,20.8-33.3,41.1-33.3c30.5,0,48.5,25.4,48.5,63.8
		c0,36.1-16.2,63.3-47.6,63.3c-19.9,0-37.4-14.8-42.1-35.6c-0.9-3.7-1.4-8.3-1.4-12.5L1260.2,390.6L1260.2,390.6z M1189.9,443.8
		c0,29.6-0.9,54.6-1.9,75.8h61l3.2-31.4h0.9c16.6,23.6,42.5,36.5,75.4,36.5c49.5,0,93.9-43,93.9-115.1
		c0-82.3-52.2-121.1-102.6-121.1c-27.3,0-48.5,11.1-58.7,25.9h-0.9V202h-70.3V443.8L1189.9,443.8z M1607.3,431.6
		c0,17.2-7.5,46.1-40,46.1c-29.8,0-41.9-27.5-43.8-46.1H1607.3z M1523.9,383.2c1.9-29.3,31.2-43.3,64.3-43.3
		c24.2,0,43.8,3.3,62.9,9.8l9.3-48c-23.3-9.8-51.7-14.4-82.4-14.4c-77.3,0-121.5,44.7-121.5,115.9c0,57.7,35.8,121.5,115,121.5
		c73.6,0,101.5-57.3,101.5-113.6c0-12.1-1.4-22.8-2.3-27.9H1523.9z M1714.5,447.5c0,28.2-0.9,51.8-1.9,72.1h61l3.2-31.4h1.4
		c9.2,14.8,31.9,36.5,69.8,36.5c46.2,0,80.9-31,80.9-97.6V293.5h-70.3v125.3c0,29.1-10.2,49-35.6,49c-19.4,0-31-13.4-36.1-26.3
		c-1.9-4.6-2.3-11.1-2.3-17.6V293.5h-70.3L1714.5,447.5L1714.5,447.5z"/>
	<path id="f" d="M2057.3,292.2l-99.8,313.6h77.2l37.9-133.8c10.6-37.4,20.3-72.6,27.7-111.4h1.4c7.9,37.4,17.6,74.4,28.2,110
		l40.5,134.7l75.1,0.9l-105.8-314.1L2057.3,292.2L2057.3,292.2z M2350.4,345.9c6.1-1.4,16.3-1.4,24.7-1.4
		c64.8-0.5,107.2,35,107.2,110c0,65.3-38.2,99.8-99.7,99.8c-15.4,0-26.1-1.4-32.2-2.8V345.9L2350.4,345.9z M2279.5,601.8
		c26.1,4.2,60.1,7,95.6,7c60.1,0,99.3-11.2,129.1-33.6c32.6-24.2,53.1-62.9,53.1-118.4c0-60.1-21.9-101.6-51.7-127.3
		c-33.1-27.5-83.9-40.6-145.4-40.6c-36.8,0-63.4,2.3-80.6,4.7L2279.5,601.8L2279.5,601.8z M2673.2,342.9c7-0.9,15.4-0.9,27.5-0.9
		c32.1,0,60.5,12.6,60.5,45.6c0,31.2-28.4,43.7-63.8,43.7h-24.2V342.9L2673.2,342.9z M2673.2,482.1h23.3c37.7,0,57.2,15.4,57.2,38.6
		c0,23.7-18.2,36.3-50.3,36.3c-15.8,0-24.7-0.9-30.2-1.9V482.1z M2602.9,602.2c18.6,3.3,55.8,6.5,91.7,6.5
		c43.3,0,69.8-4.2,93.1-17.7c21.9-11.6,37.2-33,37.2-61.9c0-27.5-16.3-53.1-51.7-66.6v-0.9c35.8-9.3,62.4-36.8,62.4-76.8
		c0-28.9-13-51.2-32.6-67c-22.8-18.2-61-28.4-123.3-28.4c-34.9,0-61,2.3-76.8,4.7L2602.9,602.2L2602.9,602.2z"/>
</g>
<path d="M924.9,266.2c-12.4,102.4-94.5,183.9-198,196.8c-33.2,4.8-71.6,3.3-114.8-9.9c0,0-72-22.2-130.1-87.4
	c0,0-24.8-29.1-44.4-55.9c-1.2-1.6-2.4-3.3-3.6-4.9c-0.1,0-24.3-32-27.6-36.5c-20.6-28.2-48.6-66.8-81.8-95.5
	c-25-25.6-60.4-41.6-99.6-41.6c-14.9,0-29.6,2.4-43.8,7c-25.4,7.2-53.2,22.6-72.1,54.8c-13.5,20.6-21.4,45-21.4,71.2
	c0,73.4,61.4,132,137.1,132.9c47,0.5,119.2-11.5,175.6-89.7c0.6-0.9,1.2-1.7,1.7-2.5c0,0,0.2-0.2,0.1-0.2c0-0.1-0.4,1.3-1.2,3.2
	c-6.5,18.2-36.6,114.7-124.2,148.3c0,0-21.1,8.2-52.9,9.6c-43.2,2-106.2-8.4-162.7-68.5c0,0-67.2-63.8-61-162.1
	C3.3,111.5,104.9,13.4,227.8,15.2c26.7-0.9,56.3,2.4,88.6,12.2c0,0,65.2,17.2,130.2,87.1c0,0,21,24.6,39.6,49.5
	c2.8,3.8,5.6,7.6,8.4,11.4c3.1,3.7,6.2,7.5,9.2,11.3c22.9,30.5,96.2,133.3,164.5,156c14.1,5.1,29.2,7.9,45.1,7.9
	c72.5,0,131.3-58.7,131.3-131.2c0-65.5-48.1-126.2-111-135.9c-7.7-1.3-134-22.1-213.2,87.7c-0.6,0.8-1.2,1.7-1.7,2.5
	c0,0-0.1,0.2-0.1,0.1c0,0.1,0.5-1.2,1.2-3.2C529.9,139.7,559,53.8,651.8,24c0,0,23.6-7.9,58.6-7.6c42.9,0.3,102.7,12.7,157.1,66.5
	C867.3,82.9,940.4,157.8,924.9,266.2"/>
</svg>
