<?xml version="1.0" encoding="UTF-8" standalone="no"?>
<!-- Generator: Adobe Illustrator 26.2.1, SVG Export Plug-In . SVG Version: 6.00 Build 0)  -->

<svg
   version="1.1"
   id="a"
   x="0px"
   y="0px"
   viewBox="0 0 927.26171 451.06719"
   xml:space="preserve"
   sodipodi:docname="openvdb-icon-black.svg"
   width="927.26172"
   height="451.0672"
   inkscape:version="1.2.2 (b0a84865, 2022-12-01)"
   xmlns:inkscape="http://www.inkscape.org/namespaces/inkscape"
   xmlns:sodipodi="http://sodipodi.sourceforge.net/DTD/sodipodi-0.dtd"
   xmlns="http://www.w3.org/2000/svg"
   xmlns:svg="http://www.w3.org/2000/svg"><defs
   id="defs838" /><sodipodi:namedview
   id="namedview836"
   pagecolor="#ffffff"
   bordercolor="#666666"
   borderopacity="1.0"
   inkscape:showpageshadow="2"
   inkscape:pageopacity="0.0"
   inkscape:pagecheckerboard="0"
   inkscape:deskcolor="#d1d1d1"
   showgrid="false"
   inkscape:zoom="0.31977359"
   inkscape:cx="1918.5449"
   inkscape:cy="256.43143"
   inkscape:window-width="1278"
   inkscape:window-height="480"
   inkscape:window-x="26"
   inkscape:window-y="165"
   inkscape:window-maximized="0"
   inkscape:current-layer="a" />

<path
   d="m 925.10407,251.14193 c -12.4,102.4 -94.5,183.9 -198,196.8 -33.2,4.8 -71.6,3.3 -114.8,-9.9 0,0 -72,-22.2 -130.1,-87.4 0,0 -24.8,-29.1 -44.4,-55.9 -1.2,-1.6 -2.4,-3.3 -3.6,-4.9 -0.1,0 -24.3,-32 -27.6,-36.5 -20.6,-28.2 -48.6,-66.8 -81.8,-95.5 -25,-25.6 -60.4,-41.6 -99.6,-41.6 -14.9,0 -29.6,2.4 -43.8,7 -25.4,7.2 -53.2,22.6 -72.1,54.8 -13.499998,20.6 -21.399998,45 -21.399998,71.2 0,73.4 61.399998,132 137.099998,132.9 47,0.5 119.2,-11.5 175.6,-89.7 0.6,-0.9 1.2,-1.7 1.7,-2.5 0,0 0.2,-0.2 0.1,-0.2 0,-0.1 -0.4,1.3 -1.2,3.2 -6.5,18.2 -36.6,114.7 -124.2,148.3 0,0 -21.1,8.2 -52.9,9.6 -43.2,2 -106.2,-8.4 -162.699998,-68.5 0,0 -67.2000004,-63.8 -61.00000044,-162.1 C 3.5040716,96.441932 105.10407,-1.6580684 228.00407,0.1419316 c 26.7,-0.9 56.3,2.4 88.6,12.2000004 0,0 65.2,17.2 130.2,87.1 0,0 21,24.599998 39.6,49.499998 2.8,3.8 5.6,7.6 8.4,11.4 3.1,3.7 6.2,7.5 9.2,11.3 22.9,30.5 96.2,133.3 164.5,156 14.1,5.1 29.2,7.9 45.1,7.9 72.5,0 131.3,-58.7 131.3,-131.2 0,-65.5 -48.1,-126.199998 -111,-135.899998 -7.7,-1.3 -134,-22.1 -213.2,87.699998 -0.6,0.8 -1.2,1.7 -1.7,2.5 0,0 -0.1,0.2 -0.1,0.1 0,0.1 0.5,-1.2 1.2,-3.2 10,-30.9 39.1,-116.799998 131.9,-146.5999984 0,0 23.6,-7.9 58.6,-7.6 42.9,0.3 102.7,12.7000004 157.1,66.5000004 -0.2,0 72.9,74.899998 57.4,183.299998"
   id="path833" />
</svg>
