<?xml version="1.0" encoding="UTF-8" standalone="no"?>
<svg
   id="AW"
   viewBox="0 0 206.97064 39.893111"
   version="1.1"
   sodipodi:docname="openreviewinitiative-horizontal-black.svg"
   width="206.97064"
   height="39.893112"
   inkscape:version="1.2.2 (b0a84865, 2022-12-01)"
   xmlns:inkscape="http://www.inkscape.org/namespaces/inkscape"
   xmlns:sodipodi="http://sodipodi.sourceforge.net/DTD/sodipodi-0.dtd"
   xmlns="http://www.w3.org/2000/svg"
   xmlns:svg="http://www.w3.org/2000/svg">
  <sodipodi:namedview
     id="namedview649"
     pagecolor="#ffffff"
     bordercolor="#666666"
     borderopacity="1.0"
     inkscape:showpageshadow="2"
     inkscape:pageopacity="0.0"
     inkscape:pagecheckerboard="0"
     inkscape:deskcolor="#d1d1d1"
     showgrid="false"
     inkscape:zoom="2.6919078"
     inkscape:cx="96.214292"
     inkscape:cy="36.776892"
     inkscape:window-width="1391"
     inkscape:window-height="480"
     inkscape:window-x="1687"
     inkscape:window-y="490"
     inkscape:window-maximized="0"
     inkscape:current-layer="AW" />
  <defs
     id="defs586">
    <style
       id="style584">
      .cls-1 {
        fill-rule: evenodd;
      }

      .cls-1, .cls-2 {
        fill: none;
        stroke: #000;
        stroke-linecap: round;
        stroke-linejoin: round;
        stroke-width: 1.5px;
      }
    </style>
  </defs>
  <g
     id="g628"
     transform="matrix(1.4140058,0,0,1.4140058,62.79562,-73.718607)">
    <g
       id="g896">
      <path
         d="m 9.4482422,62.708984 c -0.7402344,0 -1.4277344,-0.123047 -2.0625,-0.370117 C 6.7509766,62.092773 6.2001953,61.745117 5.734375,61.297852 5.2685547,60.850586 4.9072266,60.327148 4.6513672,59.728516 4.3955078,59.129883 4.2675781,58.479492 4.2675781,57.775391 c 0,-0.712891 0.1279297,-1.368164 0.3837891,-1.966797 0.2558594,-0.597656 0.6171875,-1.119141 1.0830078,-1.561524 0.4658203,-0.443359 1.0146484,-0.788086 1.6445312,-1.035156 0.6308594,-0.24707 1.3203125,-0.370117 2.0693359,-0.370117 0.7402349,0 1.4257809,0.121094 2.0556639,0.363281 0.63086,0.242188 1.176758,0.584961 1.637696,1.027344 0.461914,0.443359 0.820312,0.966797 1.076171,1.569336 0.25586,0.603515 0.38379,1.260742 0.38379,1.973633 0,0.71289 -0.12793,1.368164 -0.38379,1.966797 -0.255859,0.598632 -0.614257,1.12207 -1.076171,1.569335 -0.460938,0.447266 -1.006836,0.792969 -1.637696,1.03418 -0.629883,0.242188 -1.315429,0.363281 -2.0556638,0.363281 z m 0,-1.5625 c 0.484375,0 0.9296878,-0.08203 1.3369138,-0.246093 0.40625,-0.16504 0.759766,-0.397461 1.061524,-0.699219 0.301758,-0.301758 0.537109,-0.657227 0.706054,-1.06836 0.168946,-0.411132 0.25293,-0.864257 0.25293,-1.357421 0,-0.493165 -0.08203,-0.945313 -0.246094,-1.356446 -0.165039,-0.411133 -0.40039,-0.767578 -0.706054,-1.069336 -0.305665,-0.301757 -0.66211,-0.534179 -1.06836,-0.698242 -0.407226,-0.165039 -0.8525389,-0.24707 -1.3369139,-0.24707 -0.484375,0 -0.9335938,0.08203 -1.3496094,0.24707 -0.4160156,0.164063 -0.7744141,0.399414 -1.0761719,0.705078 -0.3007812,0.306641 -0.5390625,0.663086 -0.7119141,1.069336 -0.1738281,0.40625 -0.2607422,0.856445 -0.2607422,1.34961 0,0.484375 0.086914,0.93164 0.2607422,1.34375 0.1728516,0.411132 0.4111328,0.769531 0.7119141,1.075195 0.3017578,0.30664 0.6601562,0.541015 1.0761719,0.706055 0.4160156,0.164062 0.8652344,0.246093 1.3496095,0.246093 z"
         id="path588" />
      <path
         d="m 15.807617,62.572266 v -9.59375 h 3.947266 c 0.849609,0 1.578125,0.135742 2.185547,0.404296 0.607422,0.269532 1.076172,0.660157 1.405273,1.171875 0.329102,0.511719 0.493164,1.124024 0.493164,1.836915 0,0.703125 -0.164062,1.308593 -0.493164,1.815429 -0.329102,0.507813 -0.797852,0.900391 -1.405273,1.178711 -0.607422,0.279297 -1.335938,0.417969 -2.185547,0.417969 h -2.946289 l 0.78125,-0.822266 v 3.590821 z m 1.782227,-3.398438 -0.78125,-0.87793 h 2.864258 c 0.785156,0 1.376953,-0.166015 1.774414,-0.5 0.397461,-0.333007 0.596679,-0.801757 0.596679,-1.404297 0,-0.603515 -0.199218,-1.071289 -0.596679,-1.405273 -0.397461,-0.333008 -0.989258,-0.5 -1.774414,-0.5 h -2.864258 l 0.78125,-0.876953 z"
         id="path590" />
      <path
         d="m 26.716797,61.064453 h 5.413086 v 1.507813 H 24.93457 v -9.59375 h 7.00293 v 1.507812 h -5.220703 z m -0.137695,-4.097656 h 4.769531 v 1.466797 h -4.769531 z"
         id="path592" />
      <path
         d="m 33.431641,62.572266 v -9.59375 h 1.466796 l 6.016602,7.401367 h -0.726562 v -7.401367 h 1.753906 v 9.59375 h -1.466797 l -6.001953,-7.400391 h 0.726562 v 7.400391 z"
         id="path594" />
      <path
         d="m 46.944336,62.572266 v -9.59375 h 3.947265 c 0.84961,0 1.578125,0.135742 2.185547,0.404296 0.607422,0.269532 1.076172,0.660157 1.405274,1.171875 0.329101,0.511719 0.493164,1.124024 0.493164,1.836915 0,0.703125 -0.164063,1.30664 -0.493164,1.808593 -0.329102,0.50293 -0.797852,0.890625 -1.405274,1.165039 -0.607421,0.274415 -1.335937,0.411133 -2.185547,0.411133 h -2.946289 l 0.78125,-0.794922 v 3.590821 z m 1.782226,-3.398438 -0.78125,-0.863281 h 2.864258 c 0.785156,0 1.376953,-0.168945 1.774414,-0.507813 0.397461,-0.33789 0.59668,-0.808593 0.59668,-1.411132 0,-0.603516 -0.199219,-1.07129 -0.59668,-1.405274 -0.397461,-0.333008 -0.989257,-0.5 -1.774414,-0.5 h -2.864258 l 0.78125,-0.876953 z m 4.495118,3.398438 -2.425782,-3.481446 h 1.904297 l 2.439453,3.481446 z"
         id="path596" />
      <path
         d="m 58.05957,61.064453 h 5.413086 v 1.507813 h -7.195312 v -9.59375 h 7.002929 v 1.507812 H 58.05957 Z m -0.137695,-4.097656 h 4.769531 v 1.466797 h -4.769531 z"
         id="path598" />
      <path
         d="m 68.15918,62.572266 -4.19336,-9.59375 h 1.932617 l 3.741211,8.675781 h -1.124023 l 3.80957,-8.675781 h 1.768555 l -4.180664,9.59375 z"
         id="path600" />
      <path
         d="m 75.107422,62.572266 v -9.59375 h 1.782227 v 9.59375 z"
         id="path602" />
      <path
         d="m 80.576172,61.064453 h 5.413086 v 1.507813 h -7.195313 v -9.59375 h 7.00293 v 1.507812 h -5.220703 z m -0.137695,-4.097656 h 4.769531 v 1.466797 h -4.769531 z"
         id="path604" />
      <path
         d="m 89.415039,62.572266 -3.179687,-9.59375 h 1.849609 l 2.836914,8.675781 h -0.917969 l 2.946289,-8.675781 h 1.644532 l 2.865234,8.675781 h -0.891602 l 2.905274,-8.675781 h 1.700197 l -3.179689,9.59375 H 96.102539 L 93.485352,54.74707 h 0.493164 l -2.645508,7.825196 z"
         id="path606" />
    </g>
    <g
       id="g884"
       transform="matrix(1.0301389,0,0,1.0301389,-1.9488832,-3.1526503)">
      <path
         d="M 21.749023,77.84375 V 68.25 h 1.013672 v 9.59375 z"
         id="path608" />
      <path
         d="M 25.202148,77.84375 V 68.25 h 0.835938 l 6.61914,8.333008 H 32.21875 V 68.25 h 1.000976 v 9.59375 h -0.835937 l -6.606445,-8.332031 h 0.438476 v 8.332031 z"
         id="path610" />
      <path
         d="M 35.65918,77.84375 V 68.25 h 1.013672 v 9.59375 z"
         id="path612" />
      <path
         d="M 40.975586,77.84375 V 69.12793 H 37.604492 V 68.25 h 7.756836 v 0.87793 h -3.371094 v 8.71582 z"
         id="path614" />
      <path
         d="M 46.293945,77.84375 V 68.25 h 1.013672 v 9.59375 z"
         id="path616" />
      <path
         d="M 48.211914,77.84375 52.597656,68.25 h 1 l 4.385743,9.59375 h -1.069336 l -4.028321,-9.003906 h 0.411133 l -4.029297,9.003906 z m 1.726563,-2.5625 0.301757,-0.822266 h 5.578125 l 0.301758,0.822266 z"
         id="path618" />
      <path
         d="M 60.271484,77.84375 V 69.12793 H 56.900391 V 68.25 h 7.756836 v 0.87793 h -3.371094 v 8.71582 z"
         id="path620" />
      <path
         d="M 65.589844,77.84375 V 68.25 h 1.013672 v 9.59375 z"
         id="path622" />
      <path
         d="M 71.661133,77.84375 67.412109,68.25 h 1.09668 l 3.97461,9.032227 H 71.879883 L 75.881836,68.25 h 1.027344 l -4.248047,9.59375 z"
         id="path624" />
      <path
         d="m 78.62207,76.966797 h 5.770508 v 0.876953 h -6.78418 V 68.25 h 6.578125 v 0.87793 H 78.62207 Z m -0.109375,-4.426758 h 5.071289 v 0.863281 h -5.071289 z"
         id="path626" />
    </g>
  </g>
  <g
     id="g646"
     transform="translate(-29.422775,-7.1492974)">
    <g
       id="g634">
      <polyline
         class="cls-2"
         points="67.7264416 42.6997127 74.7901295 39.9572242 89.0181695 25.7291841 84.814821 21.5258356 70.5941466 35.74651 67.7264416 42.6997127"
         id="polyline630" />
      <line
         class="cls-2"
         x1="71.47522"
         y1="35.940971"
         x2="74.798965"
         y2="39.264709"
         id="line632" />
    </g>
    <g
       id="g644">
      <path
         class="cls-1"
         d="m 42.299392,17.167009 v 9.520892 l 11.901112,-4.760446 z"
         id="path636" />
      <path
         class="cls-1"
         d="M 52.978104,35.114928 H 34.756407 c -2.4736,0 -4.478849,-2.005249 -4.478849,-4.478849 V 13.235324 c 0,-2.4736 2.005249,-4.4788494 4.478849,-4.4788494 h 24.610879 c 2.4736,0 4.478849,2.0052494 4.478849,4.4788494 v 17.400755 c 0,2.4736 -2.005249,4.478849 -4.478849,4.478849 h -0.971941"
         id="path638" />
      <line
         class="cls-2"
         x1="30.172775"
         y1="43.021164"
         x2="63.894928"
         y2="43.021164"
         id="line640" />
      <line
         class="cls-2"
         x1="42.261471"
         y1="39.26189"
         x2="42.261471"
         y2="46.292408"
         id="line642" />
    </g>
  </g>
</svg>
