<?xml version="1.0" encoding="utf-8"?>
<!-- Generator: Adobe Illustrator 24.2.0, SVG Export Plug-In . SVG Version: 6.00 Build 0)  -->
<svg version="1.1" id="Layer_1" xmlns="http://www.w3.org/2000/svg" xmlns:xlink="http://www.w3.org/1999/xlink" x="0px" y="0px"
	 viewBox="0 0 1000 265" style="enable-background:new 0 0 1000 265;" xml:space="preserve">
<style type="text/css">
	.st0{fill:#FFFFFF;}
	.st1{fill:none;}
	.st2{fill:#B4B4B4;}
	.st3{fill:#676767;}
	.st4{fill:#E6E6E5;}
	.st5{fill:#541431;}
	.st6{fill:#C92F3B;}
	.st7{fill:#891720;}
	.st8{fill:#DD8799;}
	.st9{fill:#010101;}
</style>
<g>
	<g>
		<path class="st0" d="M395.5,179.3c-7.9,0-15.1-1.4-21.7-4.2c-6.6-2.8-12.3-6.6-17-11.4c-4.7-4.9-8.4-10.6-11.1-17.2
			c-2.7-6.6-4-13.8-4-21.4c0-7.7,1.3-14.8,4-21.4c2.7-6.6,6.4-12.3,11.1-17.2c4.7-4.9,10.4-8.7,17-11.4c6.6-2.8,13.8-4.2,21.7-4.2
			s15.1,1.4,21.7,4.2c6.6,2.8,12.3,6.6,17,11.4c4.7,4.9,8.4,10.6,11.1,17.2c2.7,6.6,4,13.8,4,21.4c0,7.7-1.3,14.8-4,21.4
			c-2.7,6.6-6.4,12.3-11.1,17.2c-4.7,4.9-10.4,8.7-17,11.4C410.6,177.9,403.4,179.3,395.5,179.3z M395.5,166.2
			c5.9,0,11.3-1.1,16-3.3c4.8-2.2,8.8-5.1,12.2-8.8c3.4-3.7,6-8,7.9-13c1.8-5,2.8-10.3,2.8-16c0-5.6-0.9-11-2.8-16
			c-1.8-5-4.5-9.4-7.9-13c-3.4-3.7-7.5-6.6-12.2-8.8c-4.8-2.2-10.1-3.3-16-3.3c-5.9,0-11.3,1.1-16,3.3c-4.8,2.2-8.8,5.1-12.2,8.8
			c-3.4,3.7-6,8-7.9,13c-1.8,5-2.8,10.3-2.8,16c0,5.6,0.9,11,2.8,16c1.8,5,4.5,9.4,7.9,13c3.4,3.7,7.5,6.6,12.2,8.8
			C384.2,165.1,389.6,166.2,395.5,166.2z"/>
		<path class="st0" d="M463.1,107.6h13.1v9.9h0.3c2.5-3.7,6-6.6,10.4-8.6c4.4-2,9-3.1,13.6-3.1c5.3,0,10.2,0.9,14.5,2.8
			c4.3,1.8,8,4.4,11.1,7.7c3.1,3.3,5.4,7.2,7.1,11.6c1.7,4.4,2.5,9.2,2.5,14.2c0,5.2-0.8,9.9-2.5,14.4c-1.7,4.4-4,8.3-7.1,11.5
			c-3.1,3.3-6.8,5.8-11.1,7.7c-4.3,1.8-9.2,2.8-14.5,2.8c-5,0-9.6-1-14-3.1c-4.4-2.1-7.7-4.9-10.1-8.5h-0.3v51h-13.1V107.6z
			 M499,118.1c-3.5,0-6.7,0.6-9.5,1.8c-2.8,1.2-5.2,2.9-7.1,5c-1.9,2.1-3.5,4.6-4.5,7.6c-1.1,3-1.6,6.2-1.6,9.7
			c0,3.5,0.5,6.7,1.6,9.7c1.1,3,2.6,5.5,4.5,7.6c1.9,2.1,4.3,3.7,7.1,5c2.8,1.2,6,1.8,9.5,1.8c3.5,0,6.7-0.6,9.5-1.8
			c2.8-1.2,5.2-2.9,7.1-5c1.9-2.1,3.4-4.6,4.5-7.6c1.1-3,1.6-6.2,1.6-9.7c0-3.5-0.5-6.7-1.6-9.7c-1.1-3-2.6-5.5-4.5-7.6
			c-1.9-2.1-4.3-3.7-7.1-5C505.7,118.7,502.5,118.1,499,118.1z"/>
		<path class="st0" d="M562.1,147c0,3,0.7,5.8,2,8.2c1.3,2.5,3,4.6,5.2,6.3c2.1,1.7,4.6,3.1,7.4,4.1c2.8,1,5.7,1.5,8.7,1.5
			c4.1,0,7.6-0.9,10.6-2.8c3-1.9,5.8-4.4,8.3-7.5l9.9,7.6c-7.3,9.4-17.5,14.1-30.6,14.1c-5.4,0-10.4-0.9-14.8-2.8
			c-4.4-1.8-8.2-4.4-11.2-7.7c-3.1-3.3-5.4-7.1-7.1-11.5c-1.7-4.4-2.5-9.2-2.5-14.4c0-5.2,0.9-9.9,2.7-14.4
			c1.8-4.4,4.3-8.3,7.4-11.5c3.2-3.3,6.9-5.8,11.3-7.7c4.4-1.8,9.1-2.8,14.3-2.8c6.1,0,11.3,1.1,15.5,3.2c4.2,2.1,7.7,4.9,10.4,8.4
			c2.7,3.5,4.7,7.3,5.9,11.7c1.2,4.3,1.8,8.7,1.8,13.2v4.7H562.1z M603.5,136.5c-0.1-2.9-0.6-5.6-1.4-8c-0.8-2.4-2.1-4.5-3.7-6.3
			c-1.7-1.8-3.7-3.2-6.2-4.2c-2.5-1-5.4-1.5-8.7-1.5c-3.2,0-6.1,0.6-8.8,1.8c-2.7,1.2-4.9,2.8-6.8,4.7c-1.8,1.9-3.3,4.1-4.3,6.5
			c-1,2.4-1.5,4.7-1.5,7.1H603.5z"/>
		<path class="st0" d="M630.3,107.6h13.1v10.6h0.3c1.7-3.7,4.5-6.7,8.6-9c4.1-2.3,8.8-3.4,14.1-3.4c3.3,0,6.5,0.5,9.5,1.5
			c3.1,1,5.7,2.6,8,4.7c2.3,2.1,4.1,4.9,5.5,8.2c1.4,3.4,2,7.3,2,11.9v44.5h-13.1v-40.8c0-3.2-0.4-6-1.3-8.2c-0.9-2.3-2-4.1-3.5-5.5
			c-1.5-1.4-3.1-2.4-5-3.1c-1.9-0.6-3.9-0.9-5.9-0.9c-2.7,0-5.2,0.4-7.6,1.3c-2.3,0.9-4.4,2.3-6.1,4.2c-1.7,1.9-3.1,4.3-4.1,7.2
			c-1,2.9-1.5,6.4-1.5,10.4v35.6h-13.1V107.6z"/>
		<path class="st0" d="M715.8,73.5h70.1v21h-47.4v19.2h44.8v21h-44.8v21h50v21h-72.7V73.5z"/>
		<path class="st0" d="M832.4,122.8l-34.1-49.3h28.6l22,36.2L870,73.5h27.6l-33.4,48.8l37.3,54.4h-28.6l-25.2-41.5l-24.5,41.5h-27
			L832.4,122.8z"/>
		<path class="st0" d="M912,73.5h39.9c5.2,0,10.2,0.5,14.9,1.5c4.7,1,8.8,2.7,12.4,5.1c3.5,2.4,6.4,5.6,8.5,9.6
			c2.1,4,3.1,9.1,3.1,15.1c0,7.3-1.9,13.5-5.7,18.6c-3.8,5.1-9.3,8.3-16.6,9.7l26.2,43.6h-27.3L946,135.4h-11.2v41.3H912V73.5z
			 M934.7,116.2h13.4c2,0,4.2-0.1,6.5-0.2c2.3-0.1,4.3-0.6,6.2-1.3c1.8-0.7,3.4-1.9,4.6-3.4c1.2-1.6,1.8-3.7,1.8-6.6
			c0-2.6-0.5-4.7-1.6-6.3c-1.1-1.6-2.4-2.7-4.1-3.6c-1.7-0.8-3.5-1.4-5.7-1.7c-2.1-0.3-4.2-0.4-6.3-0.4h-14.9V116.2z"/>
	</g>
	<g>
		<path class="st0" d="M294.7,165.4l-5.5-6.9l-34.8-43.4l-1.9,0.3l-6.8,1.2l-90.1,15.9l-62.2,11l-3,0.5l-1.9-2.4l-3.8-4.8
			c-8.7-0.9-17.7-5.1-22.5-11.1c-1.3-1.6-2.1-3.2-2.6-4.7c0,0,0,0,0-0.1c-0.1-0.4-0.2-0.9-0.3-1.3c0-0.1,0-0.2,0-0.2
			c0-0.1,0-0.2,0-0.3c0-0.1,0-0.2,0-0.3c0-0.1,0-0.2,0-0.3c0-0.2,0-0.4,0-0.6c0-0.1,0-0.1,0-0.2c0-0.2,0-0.3,0-0.5c0,0,0-0.1,0-0.1
			c0-0.4,0.1-0.7,0.2-1.1c0-0.1,0-0.1,0-0.2c0,0,0,0,0,0c0.1-0.2,0.1-0.5,0.2-0.7c0.2-0.6,0.5-1.2,0.8-1.7c0.6-0.9,1.4-1.8,2.5-2.6
			l0,0c0.2-0.2,0.4-0.3,0.7-0.5l-0.2-0.3l-0.5-0.6l-0.3-0.3l-5.3-6.6h0l-6-7.4l-4.3-5.4l-1.2-1.5l-31.7,5.6l-8.7,1.5l5.5,6.9
			l27.7,34.5l6.1,7.6l-30.6,5.4l-8.7,1.5l5.5,6.9L57.1,216l0,0l5.6,6.9l1.9,2.4l0,0L88.4,255l1.9,2.4l3-0.5l192.7-34l8.7-1.5
			l-5.5-6.9l-33.8-42.1l30.6-5.4L294.7,165.4z M92.4,251.7l-25.7-32c0.5-0.1,1.1-0.2,1.6-0.3h0c1.1-0.2,2.3-0.4,3.5-0.6
			c23.7-4.4,53.2-12.3,72.3-26l106-18.7l35,43.6L92.4,251.7z M285.1,161.7l-39.3,6.9L153.1,185l-60.6,10.7l-2.3-2.9l-22.7-28.3
			l-0.7-0.9c0.5-0.1,1.1-0.2,1.6-0.3h0c1.1-0.2,2.3-0.4,3.5-0.6c11.6-2.2,24.6-5.2,37.1-9.3c3.3-1.1,6.6-2.3,9.8-3.5
			c1.6-0.6,3.2-1.3,4.8-1.9c4.6-2,9-4.1,13.1-6.5l115.9-20.4L285.1,161.7z M82,192.4c-2.5-0.4-4.9-1.1-7.3-2
			c-0.9-0.4-1.9-0.8-2.7-1.2c-0.9-0.4-1.8-0.9-2.6-1.4c-0.8-0.5-1.6-1-2.4-1.6c-1.9-1.4-3.6-2.9-5-4.6c-4.3-5.4-4.1-10.8-0.1-14.3
			L82,192.4z M58.7,163.3l-0.2,0.1c-6.3,5.5-6.5,14.1-0.6,21.5c5,6.2,13.7,10.9,23.2,12.6l5.9,1l0.8,0.9l2.2,2.8l3.5-0.6l36.3-6.4
			c-18.1,9.3-41.2,15-58.9,18.3c-1.2,0.2-2.3,0.4-3.4,0.6c-0.5,0.1-1.1,0.2-1.6,0.3L63,215l-48.2-60l32.6-5.7L58.7,163.3z"/>
		<path class="st0" d="M55.2,91.9l7.8,9.7l2.9-0.5c0.5-0.1,1.1-0.2,1.6-0.3c1.1-0.2,2.3-0.4,3.4-0.6c24.3-4.5,56.9-13.2,74.9-28.8
			c0.1-0.1,0.2-0.2,0.3-0.3c0.2-0.1,0.3-0.3,0.5-0.4c0.2-0.2,0.4-0.4,0.6-0.6c0.9-0.9,1.8-1.8,2.6-2.6c0.4-0.4,0.8-0.8,1.1-1.3
			c0.5-0.6,1-1.1,1.6-1.8c11.5-12.5,28.5-20.8,50.6-24.7l0.1,0l0.1,0l0.1,0l0.1,0c8.7-1.5,18-2.3,27.6-2.4l-20.3-25.3l-3.4-4.3
			L103.3,26L14.8,41.6l36.1,44.9L55.2,91.9z M56.9,56.7c1.7-4.4,6.2-7.6,12.5-8.7c11.7-2.1,26.3,3.1,33.2,11.8
			c3.5,4.4,4.6,9.1,3,13.2c-1.7,4.4-6.2,7.6-12.5,8.7c-1.7,0.3-3.5,0.5-5.3,0.5c-10.5,0-22-4.9-27.9-12.3
			C56.5,65.5,55.4,60.8,56.9,56.7z"/>
		<path class="st0" d="M233.8,42.4c-0.3,0-0.6,0-0.9,0c-8,0-17.9,0.5-28.4,2.3c-0.1,0-0.1,0-0.2,0c-0.1,0-0.1,0-0.2,0
			c-17.1,3-35.2,9.6-47.6,23.1c-0.5,0.5-1,1.1-1.5,1.7c-0.4,0.5-0.8,1-1.3,1.4c-0.9,1-1.9,2-2.9,2.9c-0.2,0.2-0.5,0.4-0.7,0.6
			c-0.3,0.3-0.6,0.5-0.9,0.8c-1.7,1.5-3.6,3-5.6,4.4c-1.3,0.9-2.7,1.8-4.1,2.7c-5.6,3.5-12,6.6-18.6,9.3
			c-15.8,6.4-33.7,10.8-49.1,13.7c-1.2,0.2-2.3,0.4-3.5,0.6h0c-0.5,0.1-1.1,0.2-1.6,0.3l0.5,0.6l1.2,1.5l6.4,8l17.7,22l62.2-11
			l90.1-15.9l6.8-1.2l33.6-5.9l-49.7-61.9C234.9,42.4,234.3,42.4,233.8,42.4z"/>
		<path class="st0" d="M64.1,66.6c5.7,7.1,18.6,11.6,28.3,9.9c4.4-0.8,7.5-2.7,8.5-5.4c0.9-2.3,0.1-5.2-2.2-8.1
			c-4.9-6.1-15.1-10.3-24-10.3c-1.5,0-2.9,0.1-4.3,0.4c-4.4,0.8-7.5,2.7-8.5,5.4C61,60.9,61.8,63.8,64.1,66.6z"/>
	</g>
</g>
</svg>
