<?xml version="1.0" encoding="utf-8"?>
<!-- Generator: Adobe Illustrator 22.0.1, SVG Export Plug-In . SVG Version: 6.00 Build 0)  -->
<svg version="1.1" id="Layer_1" xmlns="http://www.w3.org/2000/svg" xmlns:xlink="http://www.w3.org/1999/xlink" x="0px" y="0px"
	 viewBox="0 0 460.1 136.9" style="enable-background:new 0 0 460.1 136.9;" xml:space="preserve">
<g>
	<path d="M54,0L0,136.5h3.3l18.3-45.2h68.1l18.5,45.2h3.3L57.3,0H54z M22.9,88.4L55.6,4l32.9,84.4H22.9z"/>
	<path d="M120.7,38.7c-0.6-7.5,1.1-14.5,5.9-20.5c8-10.5,22.4-15.1,35-15.3c12.1-0.2,25.3,3.4,33.5,12.2c3.8,4.2,6.1,9,7.3,14.5
		l0.2,1.5l2.9-0.6l-0.2-1.5c-6.5-34.6-61.6-37.9-81.1-12.6c-5,6.5-7.1,14.3-6.3,22.4c3.4,49.9,79,13.6,87.6,53.4
		c5.5,26.6-19.7,41.7-43,41.7c-18.2,0-40.6-10.1-42.7-30.2l-0.2-1.3l-3.1,0.4l0.2,1.3c2.3,21.6,26,32.7,45.5,32.7
		c25.4,0,52.4-16.8,46.3-45.1C199.3,48.9,124.2,85.6,120.7,38.7z"/>
	<polygon points="329.3,131.5 296.8,39.4 292.6,39.4 260.1,131.5 216.6,0 213.5,0 258.7,136.5 261.4,136.5 294.7,42 328.2,136.5 
		330.9,136.5 376.1,0 373,0 	"/>
	<path d="M386.4,136.7h2.9V69.8h62.6v-3.1h-62.6V2.9h70.8V0h-73.7C386.4,45.6,386.4,91.1,386.4,136.7z"/>
</g>
</svg>
