<svg xmlns="http://www.w3.org/2000/svg" role="img" viewBox="-5.79 -5.79 299.58 301.08"><g transform="translate(-33.34 -37.48)"><path d="M222.55 87.1c-26.62 0-50 9.57-68.1 26.62l-40.18-27.24a64.65 64.65 0 0 1-6.74 7.28 173.21 173.21 0 0 1-13.78 10.95c-.9 1.25-3.12 2.45-4.24 3.45-1.52 1.34-2.84 2.87-4.29 4.26-.68 1-1.36 2.06-2 3.09a34.39 34.39 0 0 1 3.31 3.08l.76-.59 43.94 29.81c-4.29 11.67-7.48 24.44-7.48 38.29 0 13.85 2.1 26.62 7.48 38.29l-31.75 27a34.47 34.47 0 0 1-5.13 5.93c.33 1.46.62 2.94 1.07 4.37.19.32.39.64.6 1a13.3 13.3 0 0 1 2.28 3.56c.44.48.88 1 1.34 1.43 1.3 1.31 2.67 2.5 4 3.69.85.59 1.69 1.19 2.55 1.76a37.65 37.65 0 0 1 8.93 8.2 32.44 32.44 0 0 1 6.54 5l32.77-28c18.05 15.95 41.48 26.62 68.1 26.62 54.24 0 98.91-44.67 98.91-98.92S276.79 87.1 222.55 87.1z"/><circle cx="82.34" cy="86.48" r="49"/><path fill="#fff" d="M298.38 187.46a78.55 78.55 0 0 1-5.7 30.28A70.32 70.32 0 0 1 253 257a80.91 80.91 0 0 1-30.17 5.59 80 80 0 0 1-30.06-5.59A70.34 70.34 0 0 1 169 241.43a68.87 68.87 0 0 1-15.64-23.69 78.13 78.13 0 0 1-5.59-30.28 81.38 81.38 0 0 1 5.56-30.46A70 70 0 0 1 169 133.37a73.1 73.1 0 0 1 23.8-15.2 82.16 82.16 0 0 1 30.07-5.48 80.87 80.87 0 0 1 30.13 5.48 70.68 70.68 0 0 1 23.92 15.2A68.29 68.29 0 0 1 292.68 157a81.82 81.82 0 0 1 5.7 30.46zm-21.57 0a62.46 62.46 0 0 0-3.8-22 56.16 56.16 0 0 0-10.84-18.21 50.88 50.88 0 0 0-17-12.41 58.11 58.11 0 0 0-44.7 0 49.31 49.31 0 0 0-16.88 12.41 56.07 56.07 0 0 0-10.73 18.21 62.94 62.94 0 0 0-3.8 22 64.35 64.35 0 0 0 3.8 22.35A55.19 55.19 0 0 0 183.72 228a50 50 0 0 0 16.88 12.19 57.56 57.56 0 0 0 44.48 0A49.8 49.8 0 0 0 262.17 228 53.93 53.93 0 0 0 273 209.81a63.91 63.91 0 0 0 3.81-22.35z"/><circle cx="87.58" cy="278.21" r="49"/></g></svg>