<?xml version="1.0" encoding="UTF-8"?><svg id="a" xmlns="http://www.w3.org/2000/svg" viewBox="0 0 1920.69 69.13"><defs><style>.b{fill:#1ecad3;}.c{fill:#36b0c9;}</style></defs><g><polygon class="b" points="162.21 0 158.98 0 134.5 69.13 137.73 69.13 162.21 0"/><polygon class="c" points="179.53 46.68 182.44 46.68 181.81 36.03 190.16 41.56 191.5 38.96 182.21 34.48 191.58 30.01 190.16 27.41 181.81 32.94 182.44 22.45 179.53 22.45 180.16 32.94 171.82 27.41 170.4 30.01 179.77 34.48 170.4 38.96 171.82 41.56 180.16 36.03 179.53 46.68"/><g><path class="b" d="M227.47,47.41h26.37l5.75,14.8h3.31L241.17,6.26h-.94l-21.65,55.95h3.23l5.67-14.8Zm11.65-30.17c.71-1.87,1.5-4.72,1.57-4.96,.08,.24,.79,3.09,1.57,5.04l10.47,27.16h-24.09l10.47-27.24Z"/><path class="b" d="M295.09,62.87c9.29,0,17.16-3.98,21.89-11.06l-2.44-1.79c-4.25,6.26-11.18,9.84-19.44,9.84-13.78,0-24.09-10.82-24.09-25.29s10.31-25.29,24.09-25.29c8.5,0,14.88,3.58,18.82,9.35l2.44-1.87c-4.49-6.75-11.89-10.49-21.26-10.49-15.12,0-27.4,11.47-27.4,28.3s12.28,28.3,27.4,28.3Z"/><path class="b" d="M332.33,47.41h26.37l5.75,14.8h3.31l-21.73-55.95h-.94l-21.65,55.95h3.23l5.67-14.8Zm11.65-30.17c.71-1.87,1.5-4.72,1.57-4.96,.08,.24,.79,3.09,1.57,5.04l10.47,27.16h-24.09l10.47-27.24Z"/><path class="b" d="M420.02,34.56c0-17-10.79-27.65-29.29-27.65h-11.41V62.21h11.41c18.58,0,29.29-10.65,29.29-27.65Zm-37.47,24.64V9.92h7.79c17.71,0,26.29,10.17,26.29,24.64s-8.58,24.64-26.29,24.64h-7.79Z"/><polygon class="b" points="464.97 59.29 435.85 59.29 435.85 35.87 460.96 35.87 460.96 32.94 435.85 32.94 435.85 9.84 463.87 9.84 463.87 6.91 432.62 6.91 432.62 62.21 464.97 62.21 464.97 59.29"/><path class="b" d="M480.8,18.3c0-1.95-.16-4.8-.16-4.8,0,0,1.57,2.77,2.91,4.55l18.58,25.54h.87l18.82-25.54c1.42-1.87,2.91-4.55,2.91-4.55,0,0-.16,2.85-.16,4.8V62.21h3.07V6.26h-.79l-24.17,32.86-24.17-32.86h-.79V62.21h3.07V18.3Z"/><path class="b" d="M557.63,62.21h3.31v-20.25l18.66-35.05h-3.39l-15.43,28.95c-.71,1.3-1.42,3.17-1.42,3.33-.08-.33-.63-2.11-1.26-3.33l-15.51-28.95h-3.62l18.66,34.97v20.33Z"/></g><g><path class="b" d="M654.49,48.71c0-7.64-4.17-12.36-12.83-16.43l-4.96-2.36c-6.61-3.17-9.29-5.86-9.29-11.39s3.7-9.35,10-9.35c5.9,0,8.97,3.09,11.18,6.75l2.52-1.71c-2.52-4.15-6.53-7.97-13.7-7.97s-13.15,4.72-13.15,12.36c0,6.99,3.7,10.65,11.18,14.23l4.96,2.36c7.48,3.58,10.94,7.08,10.94,13.5,0,6.99-5.75,11.22-12.75,11.22-8.58,0-12.6-4.64-15.11-9.52l-2.76,1.38c2.6,5.53,7.79,11.06,17.95,11.06,9.21,0,15.82-5.53,15.82-14.15Z"/><path class="b" d="M690.39,62.87c15.12,0,27.4-11.47,27.4-28.3s-12.28-28.3-27.4-28.3-27.4,11.47-27.4,28.3,12.28,28.3,27.4,28.3Zm0-53.59c13.78,0,24.09,10.82,24.09,25.29s-10.31,25.29-24.09,25.29-24.09-10.82-24.09-25.29,10.31-25.29,24.09-25.29Z"/><polygon class="b" points="733.61 37.17 758.96 37.17 758.96 34.16 733.61 34.16 733.61 9.84 761.55 9.84 761.55 6.91 730.38 6.91 730.38 62.21 733.61 62.21 733.61 37.17"/><polygon class="b" points="786.43 62.21 789.66 62.21 789.66 9.84 806.66 9.84 806.66 6.91 769.42 6.91 769.42 9.84 786.43 9.84 786.43 62.21"/><path class="b" d="M865.54,51.4c-.47,1.46-.94,3.74-.94,3.98-.08-.33-.47-2.52-.94-3.98l-15.35-45.14h-.94l-15.35,45.14c-.55,1.46-1.02,3.74-1.02,3.98-.08-.33-.47-2.52-.87-3.98l-13.07-44.49h-3.46l16.77,55.95h.87l15.67-45.87c.47-1.55,.87-3.66,.94-3.98,.08,.49,.39,2.52,.87,3.98l15.59,45.87h.87l16.77-55.95h-3.31l-13.07,44.49Z"/><path class="b" d="M893.1,47.41h26.37l5.75,14.8h3.31l-21.73-55.95h-.94l-21.65,55.95h3.23l5.67-14.8Zm11.65-30.17c.71-1.87,1.5-4.72,1.57-4.96,.08,.24,.79,3.09,1.57,5.04l10.47,27.16h-24.09l10.47-27.24Z"/><path class="b" d="M973,23.18c0-10.74-7.32-16.27-18.58-16.27h-14.33V62.21h3.23v-22.85h11.1c1.26,0,2.44,0,3.62-.16l12.99,23.02h3.86l-13.46-23.67c7.24-2.03,11.57-7.32,11.57-15.37Zm-18.89,13.26h-10.79V9.84h10.79c10.23,0,15.59,4.55,15.59,13.34s-5.35,13.26-15.59,13.26Z"/><polygon class="b" points="1019.52 59.29 990.4 59.29 990.4 35.86 1015.51 35.86 1015.51 32.94 990.4 32.94 990.4 9.84 1018.42 9.84 1018.42 6.91 987.17 6.91 987.17 62.21 1019.52 62.21 1019.52 59.29"/></g><g><polygon class="b" points="1065.43 62.21 1068.65 62.21 1068.65 37.17 1094 37.17 1094 34.16 1068.65 34.16 1068.65 9.84 1096.6 9.84 1096.6 6.91 1065.43 6.91 1065.43 62.21"/><path class="b" d="M1131.79,6.26c-15.12,0-27.4,11.47-27.4,28.3s12.28,28.3,27.4,28.3,27.4-11.47,27.4-28.3-12.28-28.3-27.4-28.3Zm0,53.59c-13.78,0-24.09-10.82-24.09-25.29s10.31-25.29,24.09-25.29,24.09,10.82,24.09,25.29-10.31,25.29-24.09,25.29Z"/><path class="b" d="M1204.14,43.59c0,10.65-6.14,16.35-14.88,16.35s-14.8-5.69-14.8-16.35V6.91h-3.23V43.84c0,12.44,7.72,19.03,18.03,19.03s18.11-6.59,18.11-19.03V6.91h-3.23V43.59Z"/><path class="b" d="M1260.42,51.64c0,1.63,.24,4.15,.24,4.15,0,0-1.42-2.28-2.44-3.66l-34.25-45.87h-.94V62.21h2.99V17.48c0-1.63-.24-4.15-.24-4.15,0,0,1.42,2.28,2.44,3.66l34.24,45.87h.94V6.91h-2.99V51.64Z"/><path class="b" d="M1291.04,6.91h-11.41V62.21h11.41c18.58,0,29.29-10.65,29.29-27.65s-10.79-27.65-29.29-27.65Zm-.39,52.29h-7.79V9.92h7.79c17.71,0,26.29,10.17,26.29,24.64s-8.58,24.64-26.29,24.64Z"/><path class="b" d="M1346.78,6.26l-21.65,55.95h3.23l5.67-14.8h26.37l5.75,14.8h3.31l-21.73-55.95h-.94Zm12.52,38.22h-24.09l10.47-27.24c.71-1.87,1.5-4.72,1.57-4.96,.08,.24,.79,3.09,1.57,5.04l10.47,27.16Z"/><polygon class="b" points="1370 9.84 1387.01 9.84 1387.01 62.21 1390.23 62.21 1390.23 9.84 1407.24 9.84 1407.24 6.91 1370 6.91 1370 9.84"/><rect class="b" x="1418.26" y="6.91" width="3.23" height="55.3"/><path class="b" d="M1461.79,6.26c-15.12,0-27.4,11.47-27.4,28.3s12.28,28.3,27.4,28.3,27.4-11.47,27.4-28.3-12.28-28.3-27.4-28.3Zm0,53.59c-13.78,0-24.09-10.82-24.09-25.29s10.31-25.29,24.09-25.29,24.09,10.82,24.09,25.29-10.31,25.29-24.09,25.29Z"/><path class="b" d="M1539.17,6.91V51.64c0,1.63,.24,4.15,.24,4.15,0,0-1.42-2.28-2.44-3.66l-34.25-45.87h-.94V62.21h2.99V17.48c0-1.63-.24-4.15-.24-4.15,0,0,1.42,2.28,2.44,3.66l34.25,45.87h.94V6.91h-2.99Z"/></g></g><g><path d="M21.65,5.94L0,61.89H3.23l5.67-14.8h26.37l5.75,14.8h3.31L22.59,5.94h-.94Zm12.52,38.22H10.08l10.47-27.24c.71-1.87,1.5-4.72,1.57-4.96,.08,.24,.79,3.09,1.57,5.04l10.47,27.16Z"/><path d="M93.74,6.59V51.32c0,1.63,.24,4.15,.24,4.15,0,0-1.42-2.28-2.44-3.66L57.3,5.94h-.94V61.89h2.99V17.16c0-1.63-.24-4.15-.24-4.15,0,0,1.42,2.28,2.44,3.66l34.25,45.87h.94V6.59h-2.99Z"/></g><g><path d="M1585.79,63.45V6.75h19.64c10.54,0,16.58,7.4,16.58,16.07s-6.21,16.07-16.58,16.07h-16.92v24.57h-2.72Zm19.55-54.15h-16.83v27.03h16.83c8.33,0,13.69-5.7,13.69-13.52s-5.36-13.52-13.69-13.52Z"/><path d="M1741.34,55.03c2.63,3.74,6.29,6.89,12.07,6.89,8.42,0,13.6-5.87,13.6-14.2V6.75h2.72V47.72c0,11.31-7.57,16.75-16.32,16.75-6.21,0-10.71-2.3-14.37-7.4l2.3-2.04Z"/><path d="M1667.3,23.02c0-10.74-7.32-16.27-18.58-16.27h-14.33V62.05h3.23v-22.85h11.1c1.26,0,2.44,0,3.62-.16l12.99,23.02h3.86l-13.46-23.67c7.24-2.03,11.57-7.32,11.57-15.37Zm-18.89,13.26h-10.79V9.68h10.79c10.23,0,15.59,4.55,15.59,13.34s-5.35,13.26-15.59,13.26Z"/><path d="M1706.69,6.75c-15.12,0-27.4,11.47-27.4,28.3s12.28,28.3,27.4,28.3,27.4-11.47,27.4-28.3-12.28-28.3-27.4-28.3Zm0,53.59c-13.78,0-24.09-10.82-24.09-25.29s10.31-25.29,24.09-25.29,24.09,10.82,24.09,25.29-10.31,25.29-24.09,25.29Z"/><polygon points="1900.46 62.05 1903.68 62.05 1903.68 9.68 1920.69 9.68 1920.69 6.75 1883.45 6.75 1883.45 9.68 1900.46 9.68 1900.46 62.05"/><polygon points="1814.47 59.13 1785.34 59.13 1785.34 35.7 1810.45 35.7 1810.45 32.78 1785.34 32.78 1785.34 9.68 1813.36 9.68 1813.36 6.75 1782.11 6.75 1782.11 62.05 1814.47 62.05 1814.47 59.13"/><path d="M1851.44,63.35c9.29,0,17.16-3.98,21.89-11.06l-2.44-1.79c-4.25,6.26-11.18,9.84-19.44,9.84-13.78,0-24.09-10.82-24.09-25.29s10.31-25.29,24.09-25.29c8.5,0,14.88,3.58,18.82,9.35l2.44-1.87c-4.49-6.75-11.89-10.49-21.26-10.49-15.12,0-27.4,11.47-27.4,28.3s12.28,28.3,27.4,28.3Z"/></g></svg>