<?xml version="1.0" encoding="UTF-8"?><svg xmlns="http://www.w3.org/2000/svg" width="966.1103" height="1024" viewBox="0 0 966.1103 1024"><g id="uuid-81faa699-658e-4eb8-9658-89ad26b448d1"><path id="uuid-5b8130bf-d8b1-4d40-b728-665e0c1298d4" d="m157.1101.0283l736.7696,159.9717h72.2307v864H138.1103c-28.7188,0-52-23.2812-52-52v-219.0909L157.0376.1958l.0725-.1674Z" fill="#3d3d3d"/><polygon points="0 814.7868 155.9817 720.7978 155.9817 .8823 0 94.8712 0 814.7868" fill="#fff"/><path d="m155.9817,14.5326v692.9246L11.4265,794.5606V101.3267L155.9817,14.5326Z"/><path d="m894.1221,720.7978H155.9817V.4335l.227-.4335h685.9195c28.7156,0,51.9939,23.3068,51.9939,52.0576v668.7402Z" fill="#fff"/><path d="m842.1275,12.3093c22.3693,0,40.568,18.198,40.568,40.5667v656.4954H167.4082V12.3093h674.7193"/><g><rect x="421.2117" y="35.1689" width="207.6804" height="583.4256" fill="#36a4cb"/><path d="m842.7468,35.1689h-198.143v583.4256h198.143c9.4404,0,17.094-7.1243,17.094-15.9118V51.0814c0-8.7882-7.6536-15.9125-17.094-15.9125Z" fill="#36a4cb"/><path d="m405.5,35.1689h-198.1424c-9.4411,0-17.0947,7.1243-17.0947,15.9125v551.6014c0,8.7875,7.6536,15.9118,17.0947,15.9118h198.1424V35.1689Z" fill="#36a4cb"/></g><rect x="217.1153" y="334.4963" width="85.835" height="85.835" rx="16.1883" ry="16.1883"/><rect x="464.4639" y="234.3977" width="85.835" height="85.835" rx="16.1883" ry="16.1883"/><rect x="709.3047" y="299.9625" width="85.835" height="85.835" rx="16.1883" ry="16.1883"/><path d="m125.6246,55.6307l-91.2738,54.8028c-5.3603,3.2184-8.6396,9.0125-8.6396,15.2648v546.4559c0,6.7772,7.3998,10.9577,13.2046,7.4599l91.286-55.0054c5.3467-3.2217,8.6157-9.0081,8.6157-15.2503V63.0976c0-6.7711-7.3878-10.9524-13.1928-7.467Z" fill="#52c7e8"/><path d="m125.6246,650.2932l-91.2738,54.8028c-5.3603,3.2184-8.6396,9.0125-8.6396,15.2648v27.304c0,6.7772,7.3998,10.9577,13.2046,7.4599l91.286-55.0054c5.3467-3.2217,8.6157-9.0081,8.6157-15.2503v-27.1087c0-6.7711-7.3878-10.9524-13.1928-7.467Z" fill="#52ad72"/><path d="m55.3009,554.9138l39.3088-23.686c7.3003-4.3989,11.7638-12.2997,11.7638-20.8229v-50.8019c0-9.3174-10.1733-15.0648-18.1539-10.256l-39.3088,23.686c-7.3003,4.3989-11.7638,12.2997-11.7638,20.8229v50.8019c0,9.3174,10.1733,15.0648,18.1539,10.256Z"/><path d="m752.2223,460.2182c-64.6991,0-117.3354-52.6364-117.3354-117.3354s52.6364-117.341,117.3354-117.341,117.3354,52.6419,117.3354,117.341-52.6364,117.3354-117.3354,117.3354Zm0-203.3982c-47.4586,0-86.0683,38.6041-86.0683,86.0627s38.6097,86.0572,86.0683,86.0572,86.0683-38.6041,86.0683-86.0572-38.6097-86.0627-86.0683-86.0627Z" fill="#e41a52"/><path d="m656.351,641.4662h191.7294c6.4907,0,11.7604,5.2697,11.7604,11.7604v21.5241c0,6.4907-5.2697,11.7604-11.7604,11.7604h-191.7162c-6.4907,0-11.7604-5.2697-11.7604-11.7604v-21.5372c0-6.4835,5.2638-11.7473,11.7473-11.7473Z" fill="#e41a52"/><path d="m432.7509,641.4662h184.5891c6.3758,0,11.5521,5.1763,11.5521,11.5521v21.9407c0,6.3758-5.1763,11.5521-11.5521,11.5521h-184.5762c-6.3758,0-11.5521-5.1763-11.5521-11.5521v-21.9535c0-6.3687,5.1705-11.5392,11.5392-11.5392Z" fill="#008c4a"/><path d="m202.0102,641.4662h191.7294c6.4907,0,11.7604,5.2697,11.7604,11.7604v21.5241c0,6.4907-5.2697,11.7604-11.7604,11.7604h-191.7162c-6.4907,0-11.7604-5.2697-11.7604-11.7604v-21.5372c0-6.4835,5.2638-11.7473,11.7473-11.7473Z" fill="#008c4a"/></g><g id="uuid-3290ac92-0607-4863-aae2-445afe049af5"><g><path d="m452.7825,849.2461v34.7754c0,36.5049-22.4648,61.5615-65.4492,61.5615-42.1211,0-65.2334-25.0566-65.2334-61.5615v-34.7754c0-36.7207,22.8965-61.7773,65.2334-61.7773,42.9844,0,65.4492,25.0566,65.4492,61.7773Zm-92.8818-.2168v34.7773c0,22.8955,9.2881,34.7764,27.4326,34.7764s27.4326-11.8809,27.4326-34.7764v-34.7773c0-22.6797-9.2881-34.5605-27.4326-34.5605s-27.4326,11.8809-27.4326,34.5605Z" fill="#fff"/><path d="m598.6033,919.4463v22.6807c-3.8887,2.1602-9.2881,3.2402-15.1201,3.2402-13.1768,0-23.5449-3.8887-31.7529-20.9521l-18.1445-36.7207h-16.6318v54.4326h-37.8013v-151.2021h57.2417c32.832,0,54.8643,15.7686,54.8643,41.04v13.6084c0,14.9043-9.2881,26.5684-23.9756,33.9131l16.8477,31.752c2.8086,5.6162,6.4805,8.208,12.7441,8.208h1.7285Zm-81.6494-56.5928h16.416c12.0967,0,20.0889-6.2637,20.0889-17.9277v-10.8008c0-11.4473-8.209-17.2803-20.0889-17.2803h-16.416v46.0088Z" fill="#fff"/><path d="m603.9773,790.9248h39.0967l31.3203,121.6094,28.5117-121.6094h38.2334l-42.1211,151.2021h-50.3291l-44.7119-151.2021Z" fill="#fff"/></g></g></svg>