<?xml version="1.0" encoding="utf-8"?>
<!-- Generator: Adobe Illustrator 22.0.1, SVG Export Plug-In . SVG Version: 6.00 Build 0)  -->
<svg version="1.1" id="Layer_1" xmlns="http://www.w3.org/2000/svg" xmlns:xlink="http://www.w3.org/1999/xlink" x="0px" y="0px"
	 viewBox="0 0 728.6 295.7" style="enable-background:new 0 0 728.6 295.7;" xml:space="preserve">
<style type="text/css">
	.st0{fill:#FFFFFF;}
</style>
<path class="st0" d="M54.6,0.2L0.5,136.9h3.3l18.3-45.2h68.2l18.5,45.2h3.3L57.9,0.2H54.6z M23.4,88.7L56.2,4.2l32.9,84.5H23.4z"/>
<g>
	<polygon class="st0" points="486.6,0.3 484.8,0.3 471.7,37.5 473.4,37.5 	"/>
	<polygon class="st0" points="495.9,15.2 497.5,15.2 497.1,9.4 501.6,12.4 502.3,11 497.3,8.6 502.4,6.2 501.6,4.8 497.1,7.8 
		497.5,2.1 495.9,2.1 496.2,7.8 491.7,4.8 491,6.2 496,8.6 491,11 491.7,12.4 496.2,9.4 	"/>
	<path class="st0" d="M521.7,23.9h14.2l3.1,8h1.8L529.1,1.8h-0.5l-11.7,30.1h1.7L521.7,23.9z M528,7.7c0.4-1,0.8-2.5,0.8-2.7
		c0,0.1,0.4,1.7,0.8,2.7l5.6,14.6h-13L528,7.7z"/>
	<path class="st0" d="M558.1,32.3c5,0,9.2-2.1,11.8-6l-1.3-1c-2.3,3.4-6,5.3-10.5,5.3c-7.4,0-13-5.8-13-13.6s5.6-13.6,13-13.6
		c4.6,0,8,1.9,10.1,5l1.3-1c-2.4-3.6-6.4-5.7-11.4-5.7C550,1.8,543.4,8,543.4,17S550,32.3,558.1,32.3z"/>
	<path class="st0" d="M578.2,23.9h14.2l3.1,8h1.8L585.6,1.8h-0.5l-11.7,30.1h1.7L578.2,23.9z M584.5,7.7c0.4-1,0.8-2.5,0.8-2.7
		c0,0.1,0.4,1.7,0.8,2.7l5.6,14.6h-13L584.5,7.7z"/>
	<path class="st0" d="M625.4,17c0-9.2-5.8-14.9-15.8-14.9h-6.1v29.8h6.1C619.7,31.9,625.4,26.2,625.4,17z M605.2,30.3V3.7h4.2
		c9.5,0,14.2,5.5,14.2,13.3s-4.6,13.3-14.2,13.3H605.2z"/>
	<polygon class="st0" points="649.6,30.3 634,30.3 634,17.7 647.5,17.7 647.5,16.1 634,16.1 634,3.7 649,3.7 649,2.1 632.2,2.1 
		632.2,31.9 649.6,31.9 	"/>
	<path class="st0" d="M658.2,8.3c0-1.1-0.1-2.6-0.1-2.6s0.8,1.5,1.6,2.5l10,13.8h0.5l10.1-13.8c0.8-1,1.6-2.5,1.6-2.5
		s-0.1,1.5-0.1,2.6v23.7h1.7V1.8H683l-13,17.7l-13-17.7h-0.4v30.1h1.7V8.3z"/>
	<path class="st0" d="M699.5,31.9h1.8V21l10-18.9h-1.8l-8.3,15.6c-0.4,0.7-0.8,1.7-0.8,1.8c0-0.2-0.3-1.1-0.7-1.8l-8.4-15.6h-2
		l10,18.8V31.9z"/>
</g>
<path class="st0" d="M121.4,38.9c-0.6-7.5,1.1-14.6,5.9-20.5c8-10.5,22.4-15.1,35.1-15.3c12.1-0.2,25.3,3.4,33.5,12.3
	c3.8,4.2,6.1,9,7.3,14.6l0.2,1.5l2.9-0.6l-0.2-1.5c-6.5-34.7-61.7-37.9-81.2-12.6c-5,6.5-7.1,14.4-6.3,22.4
	c3.4,50,79.1,13.6,87.7,53.4c5.6,26.6-19.7,41.8-43.1,41.8c-18.2,0-40.6-10.2-42.7-30.3l-0.2-1.3l-3.1,0.4l0.2,1.3
	c2.3,21.6,26.1,32.8,45.6,32.8c25.5,0,52.5-16.9,46.4-45.2C200.1,49.1,124.9,85.9,121.4,38.9z"/>
<polygon class="st0" points="330.3,131.8 297.8,39.7 293.5,39.7 261,131.8 217.4,0.2 214.3,0.2 259.6,136.9 262.4,136.9 295.7,42.2 
	329.2,136.9 331.9,136.9 377.2,0.2 374.1,0.2 "/>
<path class="st0" d="M387.5,137.1h2.9v-67h62.7V67h-62.7V3.1h70.9V0.2h-73.8C387.5,45.8,387.5,91.4,387.5,137.1z"/>
<g>
	<path class="st0" d="M489.8,77.2c0-4.1-2.2-6.7-6.9-8.8l-2.7-1.3c-3.6-1.7-5-3.2-5-6.1c0-3,2-5,5.4-5c3.2,0,4.8,1.7,6,3.6l1.4-0.9
		c-1.4-2.2-3.5-4.3-7.4-4.3c-3.9,0-7.1,2.5-7.1,6.7c0,3.8,2,5.7,6,7.7l2.7,1.3c4,1.9,5.9,3.8,5.9,7.3c0,3.8-3.1,6-6.9,6
		c-4.6,0-6.8-2.5-8.1-5.1l-1.5,0.7c1.4,3,4.2,6,9.7,6C486.3,84.8,489.8,81.8,489.8,77.2z"/>
	<path class="st0" d="M509.2,84.8c8.1,0,14.8-6.2,14.8-15.2s-6.6-15.2-14.8-15.2c-8.1,0-14.8,6.2-14.8,15.2S501,84.8,509.2,84.8z
		 M509.2,56c7.4,0,13,5.8,13,13.6s-5.6,13.6-13,13.6c-7.4,0-13-5.8-13-13.6S501.8,56,509.2,56z"/>
	<polygon class="st0" points="532.5,71 546.1,71 546.1,69.4 532.5,69.4 532.5,56.3 547.5,56.3 547.5,54.7 530.7,54.7 530.7,84.5 
		532.5,84.5 	"/>
	<polygon class="st0" points="560.9,84.5 562.6,84.5 562.6,56.3 571.8,56.3 571.8,54.7 551.7,54.7 551.7,56.3 560.9,56.3 	"/>
	<path class="st0" d="M603.5,78.6c-0.3,0.8-0.5,2-0.5,2.1c0-0.2-0.3-1.4-0.5-2.1l-8.3-24.3h-0.5l-8.3,24.3c-0.3,0.8-0.6,2-0.6,2.1
		c0-0.2-0.3-1.4-0.5-2.1l-7-24h-1.9l9,30.1h0.5l8.4-24.7c0.3-0.8,0.5-2,0.5-2.1c0,0.3,0.2,1.4,0.5,2.1l8.4,24.7h0.5l9-30.1h-1.8
		L603.5,78.6z"/>
	<path class="st0" d="M618.3,76.5h14.2l3.1,8h1.8l-11.7-30.1h-0.5l-11.7,30.1h1.7L618.3,76.5z M624.6,60.2c0.4-1,0.8-2.5,0.8-2.7
		c0,0.1,0.4,1.7,0.8,2.7l5.6,14.6h-13L624.6,60.2z"/>
	<path class="st0" d="M661.4,63.4c0-5.8-3.9-8.8-10-8.8h-7.7v29.8h1.7V72.2h6c0.7,0,1.3,0,2-0.1l7,12.4h2.1l-7.3-12.7
		C659.1,70.6,661.4,67.8,661.4,63.4z M651.2,70.6h-5.8V56.3h5.8c5.5,0,8.4,2.5,8.4,7.2C659.6,68.1,656.7,70.6,651.2,70.6z"/>
	<polygon class="st0" points="686.4,82.9 670.8,82.9 670.8,70.3 684.3,70.3 684.3,68.7 670.8,68.7 670.8,56.3 685.8,56.3 
		685.8,54.7 669,54.7 669,84.5 686.4,84.5 	"/>
</g>
<g>
	<polygon class="st0" points="471.7,137 473.4,137 473.4,123.5 487,123.5 487,121.9 473.4,121.9 473.4,108.8 488.4,108.8 
		488.4,107.2 471.7,107.2 	"/>
	<path class="st0" d="M507.4,106.9c-8.1,0-14.8,6.2-14.8,15.2c0,9.1,6.6,15.2,14.8,15.2c8.1,0,14.8-6.2,14.8-15.2
		C522.1,113.1,515.5,106.9,507.4,106.9z M507.4,135.8c-7.4,0-13-5.8-13-13.6c0-7.8,5.6-13.6,13-13.6c7.4,0,13,5.8,13,13.6
		C520.4,129.9,514.8,135.8,507.4,135.8z"/>
	<path class="st0" d="M546.4,127c0,5.7-3.3,8.8-8,8.8c-4.7,0-8-3.1-8-8.8v-19.8h-1.7v19.9c0,6.7,4.2,10.2,9.7,10.2
		c5.5,0,9.8-3.5,9.8-10.2v-19.9h-1.7V127z"/>
	<path class="st0" d="M576.7,131.3c0,0.9,0.1,2.2,0.1,2.2s-0.8-1.2-1.3-2L557,106.9h-0.5V137h1.6v-24.1c0-0.9-0.1-2.2-0.1-2.2
		s0.8,1.2,1.3,2l18.4,24.7h0.5v-30.1h-1.6V131.3z"/>
	<path class="st0" d="M593.2,107.2H587V137h6.1c10,0,15.8-5.7,15.8-14.9S603.1,107.2,593.2,107.2z M593,135.4h-4.2v-26.5h4.2
		c9.5,0,14.2,5.5,14.2,13.3C607.1,129.9,602.5,135.4,593,135.4z"/>
	<path class="st0" d="M623.2,106.9L611.5,137h1.7l3.1-8h14.2l3.1,8h1.8l-11.7-30.1H623.2z M629.9,127.5h-13l5.6-14.7
		c0.4-1,0.8-2.5,0.8-2.7c0,0.1,0.4,1.7,0.8,2.7L629.9,127.5z"/>
	<polygon class="st0" points="635.7,108.8 644.8,108.8 644.8,137 646.6,137 646.6,108.8 655.7,108.8 655.7,107.2 635.7,107.2 	"/>
	<rect x="661.7" y="107.2" class="st0" width="1.7" height="29.8"/>
	<path class="st0" d="M685.1,106.9c-8.1,0-14.8,6.2-14.8,15.2c0,9.1,6.6,15.2,14.8,15.2c8.1,0,14.8-6.2,14.8-15.2
		C699.9,113.1,693.3,106.9,685.1,106.9z M685.1,135.8c-7.4,0-13-5.8-13-13.6c0-7.8,5.6-13.6,13-13.6s13,5.8,13,13.6
		C698.1,129.9,692.5,135.8,685.1,135.8z"/>
	<path class="st0" d="M726.8,107.2v24.1c0,0.9,0.1,2.2,0.1,2.2s-0.8-1.2-1.3-2l-18.4-24.7h-0.5V137h1.6v-24.1c0-0.9-0.1-2.2-0.1-2.2
		s0.8,1.2,1.3,2l18.4,24.7h0.5v-30.1H726.8z"/>
</g>
<g>
	<path class="st0" d="M611.9,233.3c-1.7-1.2-3.7-1.8-6.2-1.8h-11.6v15.8h11.8c2.9,0,5-0.6,6.4-1.8c1.4-1.2,2.1-3.3,2.1-6.2
		C614.4,236.5,613.6,234.5,611.9,233.3z"/>
	<path class="st0" d="M613.2,216.3c0-4.9-2.7-7.4-8-7.4h-11.2v15.3h11.5C610.6,224.2,613.2,221.6,613.2,216.3z"/>
	<path class="st0" d="M169.4,208.1c-4.9,0-8.2,1.6-10.1,4.8c-1.8,3.2-2.7,8.4-2.7,15.4c0,7.1,0.9,12.1,2.7,15.2
		c1.8,3.1,5.2,4.6,10.1,4.6c5,0,8.4-1.5,10.1-4.5c1.7-3,2.6-8.1,2.6-15.2s-0.9-12.3-2.7-15.5C177.6,209.7,174.2,208.1,169.4,208.1z"
		/>
	<polygon class="st0" points="279.9,208.7 273.3,235.8 290.3,235.8 283.8,208.7 	"/>
	<polygon class="st0" points="34.2,208.7 27.6,235.8 44.7,235.8 38.1,208.7 	"/>
	<path class="st0" d="M0.9,166.8v128.7h727.9V166.8H0.9z M49.3,254.9l-2.9-11.5H25.9L23,254.9h-8.7l13.2-53.5h17.3L58,254.9H49.3z
		 M93.4,251.6c-3.2,2.8-7.6,4.2-13.1,4.2c-4.4,0-9.3-0.5-14.7-1.6l-2.8-0.5l0.9-6.9c7,0.9,12.4,1.4,16.1,1.4c6.5,0,9.7-2.9,9.7-8.6
		c0-2.2-0.7-3.9-2.2-5c-1.5-1.1-4.7-2.2-9.8-3.5c-5.1-1.3-8.9-3-11.4-5.3c-2.5-2.2-3.7-5.8-3.7-10.6c0-4.8,1.6-8.5,4.7-11
		c3.1-2.5,7.5-3.7,13.1-3.7c4,0,8.7,0.5,14.2,1.4l2.7,0.5l-0.7,7c-7.3-0.8-12.4-1.2-15.5-1.2c-6.6,0-9.9,2.3-9.9,6.9
		c0,2.4,0.8,4.1,2.3,5.1c1.6,1,5,2.3,10.3,3.7c5.3,1.5,9.1,3.3,11.3,5.3c2.2,2.1,3.3,5.3,3.3,9.7C98.2,244.6,96.6,248.8,93.4,251.6z
		 M135.8,251.6c-3.2,2.8-7.6,4.2-13.1,4.2c-4.4,0-9.3-0.5-14.7-1.6l-2.8-0.5l0.9-6.9c7,0.9,12.4,1.4,16.1,1.4c6.5,0,9.7-2.9,9.7-8.6
		c0-2.2-0.7-3.9-2.2-5c-1.5-1.1-4.7-2.2-9.8-3.5c-5.1-1.3-8.9-3-11.4-5.3c-2.5-2.2-3.7-5.8-3.7-10.6c0-4.8,1.6-8.5,4.7-11
		c3.1-2.5,7.5-3.7,13.1-3.7c4,0,8.7,0.5,14.2,1.4l2.7,0.5l-0.7,7c-7.3-0.8-12.4-1.2-15.5-1.2c-6.6,0-9.9,2.3-9.9,6.9
		c0,2.4,0.8,4.1,2.3,5.1c1.6,1,5,2.3,10.3,3.7c5.3,1.5,9.1,3.3,11.3,5.3c2.2,2.1,3.3,5.3,3.3,9.7C140.6,244.6,139,248.8,135.8,251.6
		z M186.3,249.2c-3.2,4.4-8.8,6.6-16.9,6.6c-8.1,0-13.7-2.2-16.9-6.6c-3.2-4.4-4.8-11.3-4.8-20.7c0-9.4,1.6-16.4,4.9-21
		c3.3-4.6,8.9-6.9,16.9-6.9c8,0,13.6,2.3,16.9,6.8c3.2,4.6,4.8,11.6,4.8,21C191.1,237.9,189.5,244.8,186.3,249.2z M210.4,243.8
		c1.6,2.8,4.8,4.2,9.4,4.2c4.7,0,9.4-0.4,14.2-1.2l0.2,7.2c-5.4,1.1-10.4,1.7-15.2,1.7c-7.8,0-13.1-2.2-15.9-6.5
		c-2.8-4.3-4.2-11.4-4.2-21.3c0-9.9,1.4-16.9,4.2-21.1c2.8-4.2,8.1-6.3,15.8-6.3c4.6,0,9.7,0.7,15.3,2l-0.3,7
		c-4.7-0.8-9.4-1.2-14.1-1.2c-4.7,0-7.9,1.4-9.5,4.2c-1.7,2.8-2.5,8-2.5,15.7C208,235.8,208.8,241,210.4,243.8z M252.3,254.9h-8.7
		v-53.5h8.7V254.9z M295,254.9l-2.9-11.5h-20.5l-2.9,11.5H260l13.2-53.5h17.3l13.3,53.5H295z M342,209.1H327v45.7h-8.7v-45.7H303
		v-7.7h39V209.1z M382.9,209h-25.1v15.1h20.4v7.5h-20.4v15.6h25.1v7.6h-33.7v-53.5h33.7V209z M463.6,254.9h-8.7V211h-1.2l-12.6,41.7
		H432L419.4,211h-1.2v43.9h-8.7v-53.5h15.1l11.9,41.8l11.9-41.8h15.1V254.9z M509.6,209h-25.1v15.1h20.4v7.5h-20.4v15.6h25.1v7.6
		h-33.7v-53.5h33.7V209z M573.2,254.9h-8.7V211h-1.2l-12.6,41.7h-9.1L528.9,211h-1.2v43.9h-8.7v-53.5h15.1l11.9,41.8l11.9-41.8h15.1
		V254.9z M606.3,254.9h-20.9v-53.5h20.3c5.5,0,9.5,1.1,12.3,3.3c2.7,2.2,4.1,5.7,4.1,10.6c0,3.2-0.5,5.7-1.5,7.5
		c-1,1.8-2.6,3.3-4.8,4.5c5.1,2,7.6,6.1,7.6,12.4C623.3,249.8,617.7,254.9,606.3,254.9z M666.9,209h-25.1v15.1h20.4v7.5h-20.4v15.6
		h25.1v7.6h-33.7v-53.5h33.7V209z M705.3,254.9l-7.7-19H685v19h-8.7v-53.5h20.3c12.1,0,18.1,5.7,18.1,17c0,7.6-2.9,12.8-8.7,15.5
		l8.8,21H705.3z"/>
	<path class="st0" d="M696.6,208.9H685v19.4h11.8c3.1,0,5.4-0.9,6.9-2.7c1.5-1.8,2.2-4.2,2.2-7.1
		C705.9,212.1,702.8,208.9,696.6,208.9z"/>
</g>
</svg>
