<?xml version="1.0" encoding="utf-8"?>
<!-- Generator: Adobe Illustrator 21.0.2, SVG Export Plug-In . SVG Version: 6.00 Build 0)  -->
<svg version="1.1" id="Layer_1" xmlns="http://www.w3.org/2000/svg" xmlns:xlink="http://www.w3.org/1999/xlink" x="0px" y="0px"
	 viewBox="0 0 792 612" style="enable-background:new 0 0 792 612;" xml:space="preserve">
<style type="text/css">
	.st0{fill:#CC1E68;}
	.st1{fill:#231F20;}
	.st2{fill:#FFFFFF;}
</style>
<rect x="265" y="-1" class="st0" width="283" height="612.7"/>
<g>
	<g>
		<g>
			<path class="st1" d="M154.9,370.5l11.2-3.7l0-0.1c-0.5-1.4-1.2-2.8-2-4.1l-0.1-0.1l-10,6.5C154.3,369.4,154.6,369.9,154.9,370.5z
				"/>
			<path class="st1" d="M167.1,371.9l0-0.1l-11.6,1.5c0,0.3,0,0.6,0,0.9c0,0.3,0,0.7-0.1,1l11.6,1.5l0-0.1c0.1-0.8,0.1-1.5,0.1-2.3
				C167.3,373.4,167.2,372.7,167.1,371.9z"/>
			<path class="st1" d="M153.9,379.5l9.9,6.6l0.1-0.1c0.8-1.3,1.5-2.7,2-4.1l0-0.1l-11.1-3.8C154.6,378.5,154.3,379,153.9,379.5z"/>
		</g>
		<circle class="st1" cx="146.4" cy="374.2" r="5"/>
		<g>
			<path class="st1" d="M155.3,384.5c-2.4,2-5.5,3.3-8.9,3.3c-7.5,0-13.6-6.1-13.6-13.6s6.1-13.6,13.6-13.6c3.4,0,6.6,1.3,9,3.4
				l5.9-5.5c-3.9-3.7-9.1-6-14.9-6c-12,0-21.6,9.7-21.6,21.6s9.7,21.6,21.6,21.6c5.7,0,10.9-2.2,14.8-5.8L155.3,384.5z"/>
		</g>
	</g>
	<path class="st1" d="M100.8,352.2c-12,0-21.6,9.7-21.6,21.6c0,12,9.7,21.6,21.6,21.6s21.6-9.7,21.6-21.6
		C122.5,361.9,112.8,352.2,100.8,352.2z M100.8,387.4c-7.5,0-13.6-6.1-13.6-13.6c0-7.5,6.1-13.6,13.6-13.6c7.5,0,13.6,6.1,13.6,13.6
		C114.4,381.3,108.3,387.4,100.8,387.4z"/>
	<path class="st1" d="M203.4,352.2c-12,0-21.6,9.7-21.6,21.6c0,12,9.7,21.6,21.6,21.6c12,0,21.6-9.7,21.6-21.6
		C225.1,361.9,215.4,352.2,203.4,352.2z M203.4,387.4c-7.5,0-13.6-6.1-13.6-13.6c0-7.5,6.1-13.6,13.6-13.6c7.5,0,13.6,6.1,13.6,13.6
		C217,381.3,210.9,387.4,203.4,387.4z"/>
	<rect x="170.9" y="356" class="st1" width="8" height="35.6"/>
</g>
<g>
	<g>
		<path class="st1" d="M166.5,137.2l22.3-7.4l-0.1-0.3c-1-2.9-2.4-5.6-4-8.2l-0.2-0.2l-19.9,12.9C165.3,134.9,166,136,166.5,137.2z"
			/>
		<path class="st1" d="M191,140l0-0.3l-23.1,2.9c0.1,0.6,0.1,1.3,0.1,1.9c0,0.7,0,1.3-0.1,1.9l23.1,2.9l0-0.3
			c0.2-1.5,0.2-3.1,0.2-4.6C191.3,143,191.2,141.5,191,140z"/>
		<path class="st1" d="M164.5,155.2l19.8,13.1l0.2-0.2c1.6-2.6,3-5.3,4.1-8.2l0.1-0.3l-22.2-7.7
			C165.9,153.1,165.2,154.2,164.5,155.2z"/>
	</g>
	<circle class="st1" cx="149.6" cy="144.5" r="10"/>
	<g>
		<path class="st1" d="M167.3,165.2c-4.8,4.1-10.9,6.6-17.7,6.6c-15,0-27.2-12.2-27.2-27.2s12.2-27.2,27.2-27.2
			c6.9,0,13.1,2.6,17.9,6.8l11.9-10.9c-7.8-7.4-18.2-11.9-29.8-11.9c-23.9,0-43.3,19.4-43.3,43.3s19.4,43.3,43.3,43.3
			c11.4,0,21.8-4.4,29.6-11.7L167.3,165.2z"/>
	</g>
</g>
<g>
	<g>
		<path class="st1" d="M160.9,502.2l11.1-3.7l0-0.1c-0.5-1.4-1.2-2.8-2-4.1l-0.1-0.1l-10,6.5C160.4,501.1,160.7,501.6,160.9,502.2z"
			/>
		<path class="st1" d="M173.2,503.6l0-0.1l-11.5,1.5c0,0.3,0,0.6,0,0.9c0,0.3,0,0.7-0.1,1l11.5,1.5l0-0.1c0.1-0.8,0.1-1.5,0.1-2.3
			C173.3,505.1,173.3,504.3,173.2,503.6z"/>
		<path class="st1" d="M160,511.2l9.9,6.5l0.1-0.1c0.8-1.3,1.5-2.7,2-4.1l0-0.1l-11.1-3.8C160.6,510.2,160.3,510.7,160,511.2z"/>
	</g>
	<circle class="st1" cx="152.5" cy="505.9" r="5"/>
	<g>
		<path class="st1" d="M161.4,516.2c-2.4,2-5.5,3.3-8.8,3.3c-7.5,0-13.6-6.1-13.6-13.6c0-7.5,6.1-13.6,13.6-13.6
			c3.4,0,6.6,1.3,9,3.4l5.9-5.5c-3.9-3.7-9.1-5.9-14.9-5.9c-11.9,0-21.6,9.7-21.6,21.6s9.7,21.6,21.6,21.6c5.7,0,10.9-2.2,14.8-5.8
			L161.4,516.2z"/>
	</g>
</g>
<g>
	<g>
		<path class="st2" d="M418.9,502.2l11.1-3.7l0-0.1c-0.5-1.4-1.2-2.8-2-4.1l-0.1-0.1l-10,6.5C418.3,501.1,418.6,501.6,418.9,502.2z"
			/>
		<path class="st2" d="M431.2,503.6l0-0.1l-11.5,1.5c0,0.3,0,0.6,0,0.9c0,0.3,0,0.7-0.1,1l11.5,1.5l0-0.1c0.1-0.8,0.1-1.5,0.1-2.3
			C431.3,505.1,431.2,504.3,431.2,503.6z"/>
		<path class="st2" d="M417.9,511.2l9.9,6.5l0.1-0.1c0.8-1.3,1.5-2.7,2-4.1l0-0.1l-11.1-3.8C418.6,510.2,418.3,510.7,417.9,511.2z"
			/>
	</g>
	<circle class="st2" cx="410.5" cy="505.9" r="5"/>
	<g>
		<path class="st2" d="M419.3,516.2c-2.4,2-5.5,3.3-8.8,3.3c-7.5,0-13.6-6.1-13.6-13.6c0-7.5,6.1-13.6,13.6-13.6
			c3.4,0,6.6,1.3,9,3.4l5.9-5.5c-3.9-3.7-9.1-5.9-14.9-5.9c-11.9,0-21.6,9.7-21.6,21.6s9.7,21.6,21.6,21.6c5.7,0,10.9-2.2,14.8-5.8
			L419.3,516.2z"/>
	</g>
</g>
<g>
	<path class="st1" d="M72.9,225.8c-1.4,0-2.7-0.3-3.8-0.8s-2.1-1.2-2.9-2.1s-1.4-1.9-1.9-3c-0.4-1.1-0.7-2.3-0.7-3.5
		c0-1.2,0.2-2.4,0.7-3.5s1.1-2.1,1.9-3s1.8-1.6,2.9-2.1s2.4-0.8,3.7-0.8c1.4,0,2.6,0.3,3.8,0.8c1.1,0.5,2.1,1.3,2.9,2.2
		c0.8,0.9,1.4,1.9,1.9,3.1c0.4,1.1,0.7,2.3,0.7,3.4c0,1.2-0.2,2.4-0.7,3.5c-0.5,1.1-1.1,2.1-1.9,3s-1.8,1.6-2.9,2.1
		S74.2,225.8,72.9,225.8z M68,216.4c0,0.7,0.1,1.4,0.3,2.1c0.2,0.7,0.5,1.3,0.9,1.8c0.4,0.5,0.9,0.9,1.5,1.3
		c0.6,0.3,1.3,0.5,2.1,0.5c0.8,0,1.5-0.2,2.1-0.5c0.6-0.3,1.1-0.8,1.5-1.3c0.4-0.5,0.7-1.1,0.9-1.8c0.2-0.7,0.3-1.4,0.3-2.1
		c0-0.7-0.1-1.4-0.3-2.1c-0.2-0.7-0.5-1.3-0.9-1.8c-0.4-0.5-0.9-0.9-1.5-1.2c-0.6-0.3-1.3-0.4-2.1-0.4c-0.8,0-1.5,0.2-2.1,0.5
		c-0.6,0.3-1.1,0.7-1.5,1.3c-0.4,0.5-0.7,1.1-0.9,1.8C68.1,215,68,215.7,68,216.4z"/>
	<path class="st1" d="M93.5,225.9c-1,0-1.9-0.2-2.7-0.7c-0.8-0.4-1.4-1-1.8-1.8v7.8h-4.2v-19.2h3.6v2.2c0.5-0.8,1.1-1.4,1.9-1.8
		c0.8-0.4,1.7-0.6,2.7-0.6c0.9,0,1.8,0.2,2.6,0.5c0.8,0.4,1.5,0.9,2,1.5c0.6,0.6,1,1.4,1.3,2.2c0.3,0.8,0.5,1.8,0.5,2.7
		c0,1.3-0.3,2.5-0.8,3.6c-0.5,1.1-1.2,1.9-2.1,2.5C95.7,225.6,94.7,225.9,93.5,225.9z M92.1,222.4c0.5,0,0.9-0.1,1.2-0.3
		s0.7-0.5,1-0.8c0.3-0.3,0.5-0.7,0.6-1.1c0.1-0.4,0.2-0.9,0.2-1.4c0-0.5-0.1-0.9-0.2-1.3c-0.2-0.4-0.4-0.8-0.7-1.1
		c-0.3-0.3-0.6-0.6-1-0.7c-0.4-0.2-0.8-0.3-1.3-0.3c-0.3,0-0.6,0-0.9,0.1s-0.6,0.2-0.8,0.4c-0.3,0.2-0.5,0.3-0.7,0.6
		c-0.2,0.2-0.4,0.5-0.5,0.8v2.8c0.2,0.5,0.4,0.9,0.8,1.2c0.3,0.4,0.7,0.6,1.1,0.8S91.7,222.4,92.1,222.4z"/>
	<path class="st1" d="M108.8,225.9c-1.2,0-2.2-0.2-3.1-0.6c-0.9-0.4-1.7-0.9-2.3-1.5c-0.6-0.6-1.1-1.4-1.5-2.2
		c-0.3-0.8-0.5-1.7-0.5-2.6c0-1.3,0.3-2.5,0.9-3.6c0.6-1.1,1.4-1.9,2.5-2.6c1.1-0.7,2.4-1,4-1c1.6,0,2.9,0.3,4,1
		c1.1,0.7,1.9,1.5,2.5,2.6c0.6,1.1,0.9,2.2,0.9,3.4c0,0.2,0,0.5,0,0.7c0,0.2,0,0.4-0.1,0.6h-10.2c0.1,0.6,0.2,1.1,0.5,1.5
		c0.3,0.4,0.7,0.7,1.1,0.9c0.5,0.2,0.9,0.3,1.4,0.3c0.6,0,1.2-0.1,1.8-0.4c0.5-0.3,0.9-0.7,1.1-1.2l3.6,1c-0.3,0.7-0.8,1.3-1.5,1.9
		c-0.6,0.6-1.4,1-2.3,1.3C110.8,225.8,109.9,225.9,108.8,225.9z M105.8,217.6h6c-0.1-0.5-0.2-1-0.5-1.4c-0.3-0.4-0.6-0.7-1-0.9
		c-0.4-0.2-0.9-0.3-1.4-0.3c-0.5,0-1,0.1-1.5,0.3c-0.4,0.2-0.8,0.5-1,0.9C106,216.6,105.8,217,105.8,217.6z"/>
	<path class="st1" d="M132,225.7h-4.2v-7.6c0-0.9-0.2-1.5-0.5-1.9c-0.3-0.4-0.8-0.6-1.3-0.6c-0.4,0-0.8,0.1-1.2,0.3
		c-0.4,0.2-0.8,0.5-1.1,0.8c-0.3,0.4-0.6,0.8-0.7,1.2v7.8h-4.2v-13.6h3.8v2.3c0.3-0.5,0.8-1,1.3-1.4c0.5-0.4,1.1-0.7,1.8-0.9
		c0.7-0.2,1.4-0.3,2.2-0.3c0.9,0,1.6,0.2,2.2,0.5c0.6,0.3,1,0.7,1.3,1.3c0.3,0.5,0.5,1.1,0.6,1.7c0.1,0.6,0.1,1.2,0.1,1.7V225.7z"/>
	<path class="st1" d="M134.5,216.2c0-1.1,0.2-2.2,0.6-3.3c0.4-1.1,1-2.1,1.8-3c0.8-0.9,1.8-1.6,2.9-2.1c1.2-0.5,2.5-0.8,3.9-0.8
		c1.7,0,3.3,0.4,4.5,1.1s2.2,1.7,2.9,2.9l-3.3,2.3c-0.3-0.7-0.7-1.2-1.1-1.5c-0.5-0.4-1-0.6-1.5-0.8c-0.5-0.1-1.1-0.2-1.6-0.2
		c-0.8,0-1.5,0.2-2.1,0.5c-0.6,0.3-1.1,0.8-1.5,1.3c-0.4,0.5-0.7,1.1-0.9,1.8c-0.2,0.7-0.3,1.3-0.3,2c0,0.7,0.1,1.4,0.3,2.1
		c0.2,0.7,0.6,1.3,1,1.8c0.4,0.5,0.9,0.9,1.6,1.2c0.6,0.3,1.3,0.5,2,0.5c0.5,0,1.1-0.1,1.6-0.3c0.5-0.2,1-0.4,1.5-0.8
		c0.5-0.4,0.8-0.9,1.1-1.5l3.5,2.1c-0.4,0.9-1,1.7-1.8,2.3s-1.8,1.1-2.8,1.5c-1.1,0.3-2.1,0.5-3.1,0.5c-1.3,0-2.6-0.3-3.7-0.8
		c-1.1-0.5-2.1-1.3-2.9-2.2c-0.8-0.9-1.4-1.9-1.9-3.1C134.8,218.5,134.5,217.4,134.5,216.2z"/>
	<path class="st1" d="M160.4,225.9c-1.2,0-2.2-0.2-3.1-0.6c-0.9-0.4-1.7-0.9-2.3-1.5c-0.6-0.7-1.1-1.4-1.4-2.2s-0.5-1.7-0.5-2.7
		c0-0.9,0.2-1.8,0.5-2.7s0.8-1.6,1.4-2.2c0.6-0.7,1.4-1.2,2.3-1.5c0.9-0.4,2-0.6,3.1-0.6s2.2,0.2,3.1,0.6c0.9,0.4,1.7,0.9,2.3,1.5
		c0.6,0.7,1.1,1.4,1.4,2.2c0.3,0.8,0.5,1.7,0.5,2.7c0,0.9-0.2,1.8-0.5,2.7c-0.3,0.8-0.8,1.6-1.4,2.2c-0.6,0.7-1.4,1.2-2.3,1.5
		C162.6,225.7,161.6,225.9,160.4,225.9z M157.3,218.9c0,0.7,0.1,1.3,0.4,1.8c0.3,0.5,0.6,0.9,1.1,1.2c0.5,0.3,1,0.4,1.6,0.4
		c0.6,0,1.1-0.1,1.6-0.4c0.5-0.3,0.8-0.7,1.1-1.2c0.3-0.5,0.4-1.1,0.4-1.8c0-0.7-0.1-1.3-0.4-1.8c-0.3-0.5-0.6-0.9-1.1-1.2
		c-0.5-0.3-1-0.4-1.6-0.4c-0.6,0-1.1,0.1-1.6,0.4s-0.8,0.7-1.1,1.2C157.5,217.6,157.3,218.2,157.3,218.9z"/>
	<path class="st1" d="M170.4,206.5h4.2v14.2c0,0.6,0.1,1,0.3,1.2c0.2,0.2,0.5,0.4,0.9,0.4c0.3,0,0.5,0,0.8-0.1
		c0.3-0.1,0.5-0.2,0.7-0.3l0.6,3.1c-0.5,0.2-1.1,0.4-1.8,0.6s-1.3,0.2-1.9,0.2c-1.2,0-2.1-0.3-2.8-1c-0.7-0.6-1-1.5-1-2.7V206.5z"/>
	<path class="st1" d="M186.5,225.9c-1.2,0-2.2-0.2-3.1-0.6c-0.9-0.4-1.7-0.9-2.3-1.5c-0.6-0.7-1.1-1.4-1.4-2.2s-0.5-1.7-0.5-2.7
		c0-0.9,0.2-1.8,0.5-2.7s0.8-1.6,1.4-2.2c0.6-0.7,1.4-1.2,2.3-1.5c0.9-0.4,2-0.6,3.1-0.6s2.2,0.2,3.1,0.6c0.9,0.4,1.7,0.9,2.3,1.5
		c0.6,0.7,1.1,1.4,1.4,2.2c0.3,0.8,0.5,1.7,0.5,2.7c0,0.9-0.2,1.8-0.5,2.7c-0.3,0.8-0.8,1.6-1.4,2.2c-0.6,0.7-1.4,1.2-2.3,1.5
		C188.7,225.7,187.6,225.9,186.5,225.9z M183.4,218.9c0,0.7,0.1,1.3,0.4,1.8c0.3,0.5,0.6,0.9,1.1,1.2c0.5,0.3,1,0.4,1.6,0.4
		c0.6,0,1.1-0.1,1.6-0.4c0.5-0.3,0.8-0.7,1.1-1.2c0.3-0.5,0.4-1.1,0.4-1.8c0-0.7-0.1-1.3-0.4-1.8c-0.3-0.5-0.6-0.9-1.1-1.2
		c-0.5-0.3-1-0.4-1.6-0.4c-0.6,0-1.1,0.1-1.6,0.4s-0.8,0.7-1.1,1.2C183.5,217.6,183.4,218.2,183.4,218.9z"/>
	<path class="st1" d="M205.3,215.5c-1,0-1.9,0.2-2.8,0.5c-0.8,0.3-1.4,0.8-1.8,1.4v8.3h-4.2v-13.6h3.9v2.6c0.5-0.9,1.1-1.7,1.8-2.2
		c0.8-0.5,1.5-0.8,2.4-0.8c0.2,0,0.3,0,0.4,0c0.1,0,0.2,0,0.2,0V215.5z"/>
	<path class="st1" d="M208,225.7v-18.6h4.3v18.6H208z"/>
	<path class="st1" d="M224.7,225.8c-1.4,0-2.7-0.3-3.8-0.8s-2.1-1.2-2.9-2.1s-1.4-1.9-1.9-3c-0.4-1.1-0.7-2.3-0.7-3.5
		c0-1.2,0.2-2.4,0.7-3.5s1.1-2.1,1.9-3s1.8-1.6,2.9-2.1s2.4-0.8,3.7-0.8c1.4,0,2.6,0.3,3.8,0.8c1.1,0.5,2.1,1.3,2.9,2.2
		c0.8,0.9,1.4,1.9,1.9,3.1c0.4,1.1,0.7,2.3,0.7,3.4c0,1.2-0.2,2.4-0.7,3.5c-0.5,1.1-1.1,2.1-1.9,3s-1.8,1.6-2.9,2.1
		S226,225.8,224.7,225.8z M219.8,216.4c0,0.7,0.1,1.4,0.3,2.1c0.2,0.7,0.5,1.3,0.9,1.8c0.4,0.5,0.9,0.9,1.5,1.3
		c0.6,0.3,1.3,0.5,2.1,0.5c0.8,0,1.5-0.2,2.1-0.5c0.6-0.3,1.1-0.8,1.5-1.3c0.4-0.5,0.7-1.1,0.9-1.8c0.2-0.7,0.3-1.4,0.3-2.1
		c0-0.7-0.1-1.4-0.3-2.1c-0.2-0.7-0.5-1.3-0.9-1.8c-0.4-0.5-0.9-0.9-1.5-1.2c-0.6-0.3-1.3-0.4-2.1-0.4c-0.8,0-1.5,0.2-2.1,0.5
		c-0.6,0.3-1.1,0.7-1.5,1.3c-0.4,0.5-0.7,1.1-0.9,1.8C219.9,215,219.8,215.7,219.8,216.4z"/>
</g>
<g>
	<g>
		<g>
			<path class="st2" d="M412.9,370.5l11.2-3.7l0-0.1c-0.5-1.4-1.2-2.8-2-4.1l-0.1-0.1l-10,6.5C412.3,369.4,412.6,369.9,412.9,370.5z
				"/>
			<path class="st2" d="M425.1,371.9l0-0.1l-11.6,1.5c0,0.3,0,0.6,0,0.9c0,0.3,0,0.7-0.1,1l11.6,1.5l0-0.1c0.1-0.8,0.1-1.5,0.1-2.3
				C425.3,373.4,425.2,372.7,425.1,371.9z"/>
			<path class="st2" d="M411.9,379.5l9.9,6.6l0.1-0.1c0.8-1.3,1.5-2.7,2-4.1l0-0.1l-11.1-3.8C412.6,378.5,412.3,379,411.9,379.5z"/>
		</g>
		<circle class="st2" cx="404.4" cy="374.2" r="5"/>
		<g>
			<path class="st2" d="M413.3,384.5c-2.4,2-5.5,3.3-8.9,3.3c-7.5,0-13.6-6.1-13.6-13.6s6.1-13.6,13.6-13.6c3.4,0,6.6,1.3,9,3.4
				l5.9-5.5c-3.9-3.7-9.1-6-14.9-6c-12,0-21.6,9.7-21.6,21.6s9.7,21.6,21.6,21.6c5.7,0,10.9-2.2,14.8-5.8L413.3,384.5z"/>
		</g>
	</g>
	<path class="st2" d="M358.8,352.2c-12,0-21.6,9.7-21.6,21.6c0,12,9.7,21.6,21.6,21.6s21.6-9.7,21.6-21.6
		C380.5,361.9,370.8,352.2,358.8,352.2z M358.8,387.4c-7.5,0-13.6-6.1-13.6-13.6c0-7.5,6.1-13.6,13.6-13.6c7.5,0,13.6,6.1,13.6,13.6
		C372.4,381.3,366.3,387.4,358.8,387.4z"/>
	<path class="st2" d="M461.4,352.2c-12,0-21.6,9.7-21.6,21.6c0,12,9.7,21.6,21.6,21.6c12,0,21.6-9.7,21.6-21.6
		C483.1,361.9,473.4,352.2,461.4,352.2z M461.4,387.4c-7.5,0-13.6-6.1-13.6-13.6c0-7.5,6.1-13.6,13.6-13.6c7.5,0,13.6,6.1,13.6,13.6
		C475,381.3,468.9,387.4,461.4,387.4z"/>
	<rect x="428.9" y="356" class="st2" width="8" height="35.6"/>
</g>
<g>
	<g>
		<path class="st2" d="M424.5,137.2l22.3-7.4l-0.1-0.3c-1-2.9-2.4-5.6-4-8.2l-0.2-0.2l-19.9,12.9C423.3,134.9,424,136,424.5,137.2z"
			/>
		<path class="st2" d="M449,140l0-0.3l-23.1,2.9c0.1,0.6,0.1,1.3,0.1,1.9c0,0.7,0,1.3-0.1,1.9l23.1,2.9l0-0.3
			c0.2-1.5,0.2-3.1,0.2-4.6C449.3,143,449.2,141.5,449,140z"/>
		<path class="st2" d="M422.5,155.2l19.8,13.1l0.2-0.2c1.6-2.6,3-5.3,4.1-8.2l0.1-0.3l-22.2-7.7
			C423.9,153.1,423.2,154.2,422.5,155.2z"/>
	</g>
	<circle class="st2" cx="407.6" cy="144.5" r="10"/>
	<g>
		<path class="st2" d="M425.3,165.2c-4.8,4.1-10.9,6.6-17.7,6.6c-15,0-27.2-12.2-27.2-27.2s12.2-27.2,27.2-27.2
			c6.9,0,13.1,2.6,17.9,6.8l11.9-10.9c-7.8-7.4-18.2-11.9-29.8-11.9c-23.9,0-43.3,19.4-43.3,43.3s19.4,43.3,43.3,43.3
			c11.4,0,21.8-4.4,29.6-11.7L425.3,165.2z"/>
	</g>
</g>
<g>
	<path class="st2" d="M330.9,225.8c-1.4,0-2.7-0.3-3.8-0.8c-1.1-0.5-2.1-1.2-2.9-2.1c-0.8-0.9-1.4-1.9-1.9-3s-0.7-2.3-0.7-3.5
		c0-1.2,0.2-2.4,0.7-3.5s1.1-2.1,1.9-3c0.8-0.9,1.8-1.6,2.9-2.1c1.1-0.5,2.4-0.8,3.7-0.8c1.4,0,2.6,0.3,3.8,0.8
		c1.1,0.5,2.1,1.3,2.9,2.2c0.8,0.9,1.4,1.9,1.9,3.1c0.4,1.1,0.7,2.3,0.7,3.4c0,1.2-0.2,2.4-0.7,3.5c-0.5,1.1-1.1,2.1-1.9,3
		c-0.8,0.9-1.8,1.6-2.9,2.1C333.4,225.5,332.2,225.8,330.9,225.8z M326,216.4c0,0.7,0.1,1.4,0.3,2.1c0.2,0.7,0.5,1.3,0.9,1.8
		c0.4,0.5,0.9,0.9,1.5,1.3c0.6,0.3,1.3,0.5,2.1,0.5c0.8,0,1.5-0.2,2.1-0.5c0.6-0.3,1.1-0.8,1.5-1.3c0.4-0.5,0.7-1.1,0.9-1.8
		c0.2-0.7,0.3-1.4,0.3-2.1c0-0.7-0.1-1.4-0.3-2.1c-0.2-0.7-0.5-1.3-0.9-1.8c-0.4-0.5-0.9-0.9-1.5-1.2s-1.3-0.4-2.1-0.4
		c-0.8,0-1.5,0.2-2.1,0.5c-0.6,0.3-1.1,0.7-1.5,1.3c-0.4,0.5-0.7,1.1-0.9,1.8C326.1,215,326,215.7,326,216.4z"/>
	<path class="st2" d="M351.5,225.9c-1,0-1.9-0.2-2.7-0.7c-0.8-0.4-1.4-1-1.8-1.8v7.8h-4.2v-19.2h3.6v2.2c0.5-0.8,1.1-1.4,1.9-1.8
		s1.7-0.6,2.7-0.6c0.9,0,1.8,0.2,2.6,0.5c0.8,0.4,1.5,0.9,2,1.5c0.6,0.6,1,1.4,1.3,2.2c0.3,0.8,0.5,1.8,0.5,2.7
		c0,1.3-0.3,2.5-0.8,3.6c-0.5,1.1-1.2,1.9-2.1,2.5S352.7,225.9,351.5,225.9z M350.1,222.4c0.5,0,0.9-0.1,1.2-0.3
		c0.4-0.2,0.7-0.5,1-0.8c0.3-0.3,0.5-0.7,0.6-1.1c0.1-0.4,0.2-0.9,0.2-1.4c0-0.5-0.1-0.9-0.2-1.3c-0.2-0.4-0.4-0.8-0.7-1.1
		s-0.6-0.6-1-0.7s-0.8-0.3-1.3-0.3c-0.3,0-0.6,0-0.9,0.1s-0.6,0.2-0.8,0.4c-0.3,0.2-0.5,0.3-0.7,0.6c-0.2,0.2-0.4,0.5-0.5,0.8v2.8
		c0.2,0.5,0.4,0.9,0.8,1.2c0.3,0.4,0.7,0.6,1.1,0.8C349.2,222.3,349.7,222.4,350.1,222.4z"/>
	<path class="st2" d="M366.8,225.9c-1.2,0-2.2-0.2-3.1-0.6s-1.7-0.9-2.3-1.5s-1.1-1.4-1.5-2.2s-0.5-1.7-0.5-2.6
		c0-1.3,0.3-2.5,0.9-3.6c0.6-1.1,1.4-1.9,2.5-2.6s2.4-1,4-1s2.9,0.3,4,1s1.9,1.5,2.5,2.6c0.6,1.1,0.9,2.2,0.9,3.4c0,0.2,0,0.5,0,0.7
		c0,0.2,0,0.4-0.1,0.6h-10.2c0.1,0.6,0.2,1.1,0.5,1.5c0.3,0.4,0.7,0.7,1.1,0.9c0.5,0.2,0.9,0.3,1.4,0.3c0.6,0,1.2-0.1,1.8-0.4
		s0.9-0.7,1.1-1.2l3.6,1c-0.3,0.7-0.8,1.3-1.5,1.9c-0.6,0.6-1.4,1-2.3,1.3C368.8,225.8,367.9,225.9,366.8,225.9z M363.8,217.6h6
		c-0.1-0.5-0.2-1-0.5-1.4c-0.3-0.4-0.6-0.7-1-0.9c-0.4-0.2-0.9-0.3-1.4-0.3c-0.5,0-1,0.1-1.5,0.3c-0.4,0.2-0.8,0.5-1,0.9
		C364,216.6,363.8,217,363.8,217.6z"/>
	<path class="st2" d="M390,225.7h-4.2v-7.6c0-0.9-0.2-1.5-0.5-1.9c-0.3-0.4-0.8-0.6-1.3-0.6c-0.4,0-0.8,0.1-1.2,0.3
		c-0.4,0.2-0.8,0.5-1.1,0.8c-0.3,0.4-0.6,0.8-0.7,1.2v7.8h-4.2v-13.6h3.8v2.3c0.3-0.5,0.8-1,1.3-1.4c0.5-0.4,1.1-0.7,1.8-0.9
		c0.7-0.2,1.4-0.3,2.2-0.3c0.9,0,1.6,0.2,2.2,0.5c0.5,0.3,1,0.7,1.3,1.3c0.3,0.5,0.5,1.1,0.6,1.7c0.1,0.6,0.1,1.2,0.1,1.7V225.7z"/>
	<path class="st2" d="M392.5,216.2c0-1.1,0.2-2.2,0.6-3.3c0.4-1.1,1-2.1,1.8-3c0.8-0.9,1.8-1.6,2.9-2.1c1.2-0.5,2.5-0.8,3.9-0.8
		c1.7,0,3.3,0.4,4.5,1.1c1.3,0.8,2.2,1.7,2.9,2.9l-3.3,2.3c-0.3-0.7-0.7-1.2-1.1-1.5c-0.5-0.4-1-0.6-1.5-0.8s-1.1-0.2-1.6-0.2
		c-0.8,0-1.5,0.2-2.1,0.5c-0.6,0.3-1.1,0.8-1.5,1.3c-0.4,0.5-0.7,1.1-0.9,1.8c-0.2,0.7-0.3,1.3-0.3,2c0,0.7,0.1,1.4,0.3,2.1
		c0.2,0.7,0.6,1.3,1,1.8s0.9,0.9,1.6,1.2c0.6,0.3,1.3,0.5,2,0.5c0.5,0,1.1-0.1,1.6-0.3c0.5-0.2,1-0.4,1.5-0.8
		c0.5-0.4,0.8-0.9,1.1-1.5l3.5,2.1c-0.4,0.9-1,1.7-1.8,2.3c-0.8,0.6-1.8,1.1-2.8,1.5c-1.1,0.3-2.1,0.5-3.1,0.5
		c-1.3,0-2.6-0.3-3.7-0.8c-1.1-0.5-2.1-1.3-2.9-2.2c-0.8-0.9-1.4-1.9-1.9-3.1C392.8,218.5,392.5,217.4,392.5,216.2z"/>
	<path class="st2" d="M418.4,225.9c-1.2,0-2.2-0.2-3.1-0.6c-0.9-0.4-1.7-0.9-2.3-1.5s-1.1-1.4-1.4-2.2s-0.5-1.7-0.5-2.7
		c0-0.9,0.2-1.8,0.5-2.7s0.8-1.6,1.4-2.2s1.4-1.2,2.3-1.5c0.9-0.4,2-0.6,3.1-0.6s2.2,0.2,3.1,0.6c0.9,0.4,1.7,0.9,2.3,1.5
		c0.6,0.7,1.1,1.4,1.4,2.2c0.3,0.8,0.5,1.7,0.5,2.7c0,0.9-0.2,1.8-0.5,2.7c-0.3,0.8-0.8,1.6-1.4,2.2c-0.6,0.7-1.4,1.2-2.3,1.5
		C420.6,225.7,419.6,225.9,418.4,225.9z M415.3,218.9c0,0.7,0.1,1.3,0.4,1.8c0.3,0.5,0.6,0.9,1.1,1.2c0.5,0.3,1,0.4,1.6,0.4
		c0.6,0,1.1-0.1,1.6-0.4c0.5-0.3,0.8-0.7,1.1-1.2c0.3-0.5,0.4-1.1,0.4-1.8c0-0.7-0.1-1.3-0.4-1.8c-0.3-0.5-0.6-0.9-1.1-1.2
		c-0.5-0.3-1-0.4-1.6-0.4c-0.6,0-1.1,0.1-1.6,0.4s-0.8,0.7-1.1,1.2C415.5,217.6,415.3,218.2,415.3,218.9z"/>
	<path class="st2" d="M428.4,206.5h4.2v14.2c0,0.6,0.1,1,0.3,1.2c0.2,0.2,0.5,0.4,0.9,0.4c0.3,0,0.5,0,0.8-0.1
		c0.3-0.1,0.5-0.2,0.7-0.3l0.6,3.1c-0.5,0.2-1.1,0.4-1.8,0.6c-0.7,0.1-1.3,0.2-1.9,0.2c-1.2,0-2.1-0.3-2.8-1c-0.7-0.6-1-1.5-1-2.7
		V206.5z"/>
	<path class="st2" d="M444.5,225.9c-1.2,0-2.2-0.2-3.1-0.6c-0.9-0.4-1.7-0.9-2.3-1.5s-1.1-1.4-1.4-2.2s-0.5-1.7-0.5-2.7
		c0-0.9,0.2-1.8,0.5-2.7s0.8-1.6,1.4-2.2s1.4-1.2,2.3-1.5c0.9-0.4,2-0.6,3.1-0.6s2.2,0.2,3.1,0.6c0.9,0.4,1.7,0.9,2.3,1.5
		c0.6,0.7,1.1,1.4,1.4,2.2c0.3,0.8,0.5,1.7,0.5,2.7c0,0.9-0.2,1.8-0.5,2.7c-0.3,0.8-0.8,1.6-1.4,2.2c-0.6,0.7-1.4,1.2-2.3,1.5
		C446.7,225.7,445.6,225.9,444.5,225.9z M441.4,218.9c0,0.7,0.1,1.3,0.4,1.8c0.3,0.5,0.6,0.9,1.1,1.2c0.5,0.3,1,0.4,1.6,0.4
		c0.6,0,1.1-0.1,1.6-0.4c0.5-0.3,0.8-0.7,1.1-1.2c0.3-0.5,0.4-1.1,0.4-1.8c0-0.7-0.1-1.3-0.4-1.8c-0.3-0.5-0.6-0.9-1.1-1.2
		c-0.5-0.3-1-0.4-1.6-0.4c-0.6,0-1.1,0.1-1.6,0.4s-0.8,0.7-1.1,1.2C441.5,217.6,441.4,218.2,441.4,218.9z"/>
	<path class="st2" d="M463.3,215.5c-1,0-1.9,0.2-2.8,0.5c-0.8,0.3-1.4,0.8-1.8,1.4v8.3h-4.2v-13.6h3.9v2.6c0.5-0.9,1.1-1.7,1.8-2.2
		c0.8-0.5,1.5-0.8,2.4-0.8c0.2,0,0.3,0,0.4,0c0.1,0,0.2,0,0.2,0V215.5z"/>
	<path class="st2" d="M466,225.7v-18.6h4.3v18.6H466z"/>
	<path class="st2" d="M482.7,225.8c-1.4,0-2.7-0.3-3.8-0.8c-1.1-0.5-2.1-1.2-2.9-2.1c-0.8-0.9-1.4-1.9-1.9-3s-0.7-2.3-0.7-3.5
		c0-1.2,0.2-2.4,0.7-3.5s1.1-2.1,1.9-3c0.8-0.9,1.8-1.6,2.9-2.1c1.1-0.5,2.4-0.8,3.7-0.8c1.4,0,2.6,0.3,3.8,0.8
		c1.1,0.5,2.1,1.3,2.9,2.2c0.8,0.9,1.4,1.9,1.9,3.1c0.4,1.1,0.7,2.3,0.7,3.4c0,1.2-0.2,2.4-0.7,3.5c-0.5,1.1-1.1,2.1-1.9,3
		c-0.8,0.9-1.8,1.6-2.9,2.1C485.3,225.5,484,225.8,482.7,225.8z M477.8,216.4c0,0.7,0.1,1.4,0.3,2.1c0.2,0.7,0.5,1.3,0.9,1.8
		c0.4,0.5,0.9,0.9,1.5,1.3c0.6,0.3,1.3,0.5,2.1,0.5c0.8,0,1.5-0.2,2.1-0.5c0.6-0.3,1.1-0.8,1.5-1.3c0.4-0.5,0.7-1.1,0.9-1.8
		c0.2-0.7,0.3-1.4,0.3-2.1c0-0.7-0.1-1.4-0.3-2.1c-0.2-0.7-0.5-1.3-0.9-1.8c-0.4-0.5-0.9-0.9-1.5-1.2s-1.3-0.4-2.1-0.4
		c-0.8,0-1.5,0.2-2.1,0.5c-0.6,0.3-1.1,0.7-1.5,1.3c-0.4,0.5-0.7,1.1-0.9,1.8C477.9,215,477.8,215.7,477.8,216.4z"/>
</g>
<g>
	<g>
		<path class="st0" d="M679.9,502.2l11.1-3.7l0-0.1c-0.5-1.4-1.2-2.8-2-4.1l-0.1-0.1l-10,6.5C679.3,501.1,679.6,501.6,679.9,502.2z"
			/>
		<path class="st0" d="M692.2,503.6l0-0.1l-11.5,1.5c0,0.3,0,0.6,0,0.9c0,0.3,0,0.7-0.1,1l11.5,1.5l0-0.1c0.1-0.8,0.1-1.5,0.1-2.3
			C692.3,505.1,692.2,504.3,692.2,503.6z"/>
		<path class="st0" d="M678.9,511.2l9.9,6.5l0.1-0.1c0.8-1.3,1.5-2.7,2-4.1l0-0.1l-11.1-3.8C679.6,510.2,679.3,510.7,678.9,511.2z"
			/>
	</g>
	<circle class="st0" cx="671.5" cy="505.9" r="5"/>
	<g>
		<path class="st0" d="M680.3,516.2c-2.4,2-5.5,3.3-8.8,3.3c-7.5,0-13.6-6.1-13.6-13.6c0-7.5,6.1-13.6,13.6-13.6
			c3.4,0,6.6,1.3,9,3.4l5.9-5.5c-3.9-3.7-9.1-5.9-14.9-5.9c-11.9,0-21.6,9.7-21.6,21.6s9.7,21.6,21.6,21.6c5.7,0,10.9-2.2,14.8-5.8
			L680.3,516.2z"/>
	</g>
</g>
<g>
	<g>
		<g>
			<path class="st0" d="M673.9,370.5l11.2-3.7l0-0.1c-0.5-1.4-1.2-2.8-2-4.1l-0.1-0.1l-10,6.5C673.3,369.4,673.6,369.9,673.9,370.5z
				"/>
			<path class="st0" d="M686.1,371.9l0-0.1l-11.6,1.5c0,0.3,0,0.6,0,0.9c0,0.3,0,0.7-0.1,1l11.6,1.5l0-0.1c0.1-0.8,0.1-1.5,0.1-2.3
				C686.3,373.4,686.2,372.7,686.1,371.9z"/>
			<path class="st0" d="M672.9,379.5l9.9,6.6l0.1-0.1c0.8-1.3,1.5-2.7,2-4.1l0-0.1l-11.1-3.8C673.6,378.5,673.3,379,672.9,379.5z"/>
		</g>
		<circle class="st0" cx="665.4" cy="374.2" r="5"/>
		<g>
			<path class="st0" d="M674.3,384.5c-2.4,2-5.5,3.3-8.9,3.3c-7.5,0-13.6-6.1-13.6-13.6s6.1-13.6,13.6-13.6c3.4,0,6.6,1.3,9,3.4
				l5.9-5.5c-3.9-3.7-9.1-6-14.9-6c-12,0-21.6,9.7-21.6,21.6s9.7,21.6,21.6,21.6c5.7,0,10.9-2.2,14.8-5.8L674.3,384.5z"/>
		</g>
	</g>
	<path class="st0" d="M619.8,352.2c-12,0-21.6,9.7-21.6,21.6c0,12,9.7,21.6,21.6,21.6s21.6-9.7,21.6-21.6
		C641.5,361.9,631.8,352.2,619.8,352.2z M619.8,387.4c-7.5,0-13.6-6.1-13.6-13.6c0-7.5,6.1-13.6,13.6-13.6c7.5,0,13.6,6.1,13.6,13.6
		C633.4,381.3,627.3,387.4,619.8,387.4z"/>
	<path class="st0" d="M722.4,352.2c-12,0-21.6,9.7-21.6,21.6c0,12,9.7,21.6,21.6,21.6c12,0,21.6-9.7,21.6-21.6
		C744.1,361.9,734.4,352.2,722.4,352.2z M722.4,387.4c-7.5,0-13.6-6.1-13.6-13.6c0-7.5,6.1-13.6,13.6-13.6c7.5,0,13.6,6.1,13.6,13.6
		C736,381.3,729.9,387.4,722.4,387.4z"/>
	<rect x="689.9" y="356" class="st0" width="8" height="35.6"/>
</g>
<g>
	<g>
		<path class="st0" d="M685.5,137.2l22.3-7.4l-0.1-0.3c-1-2.9-2.4-5.6-4-8.2l-0.2-0.2l-19.9,12.9C684.3,134.9,685,136,685.5,137.2z"
			/>
		<path class="st0" d="M710,140l0-0.3l-23.1,2.9c0.1,0.6,0.1,1.3,0.1,1.9c0,0.7,0,1.3-0.1,1.9l23.1,2.9l0-0.3
			c0.2-1.5,0.2-3.1,0.2-4.6C710.3,143,710.2,141.5,710,140z"/>
		<path class="st0" d="M683.5,155.2l19.8,13.1l0.2-0.2c1.6-2.6,3-5.3,4.1-8.2l0.1-0.3l-22.2-7.7
			C684.9,153.1,684.2,154.2,683.5,155.2z"/>
	</g>
	<circle class="st0" cx="668.6" cy="144.5" r="10"/>
	<g>
		<path class="st0" d="M686.3,165.2c-4.8,4.1-10.9,6.6-17.7,6.6c-15,0-27.2-12.2-27.2-27.2s12.2-27.2,27.2-27.2
			c6.9,0,13.1,2.6,17.9,6.8l11.9-10.9c-7.8-7.4-18.2-11.9-29.8-11.9c-23.9,0-43.3,19.4-43.3,43.3s19.4,43.3,43.3,43.3
			c11.4,0,21.8-4.4,29.6-11.7L686.3,165.2z"/>
	</g>
</g>
<g>
	<path class="st0" d="M591.9,225.8c-1.4,0-2.7-0.3-3.8-0.8c-1.1-0.5-2.1-1.2-2.9-2.1c-0.8-0.9-1.4-1.9-1.9-3s-0.7-2.3-0.7-3.5
		c0-1.2,0.2-2.4,0.7-3.5s1.1-2.1,1.9-3c0.8-0.9,1.8-1.6,2.9-2.1c1.1-0.5,2.4-0.8,3.7-0.8c1.4,0,2.6,0.3,3.8,0.8
		c1.1,0.5,2.1,1.3,2.9,2.2c0.8,0.9,1.4,1.9,1.9,3.1c0.4,1.1,0.7,2.3,0.7,3.4c0,1.2-0.2,2.4-0.7,3.5c-0.5,1.1-1.1,2.1-1.9,3
		c-0.8,0.9-1.8,1.6-2.9,2.1C594.4,225.5,593.2,225.8,591.9,225.8z M587,216.4c0,0.7,0.1,1.4,0.3,2.1c0.2,0.7,0.5,1.3,0.9,1.8
		c0.4,0.5,0.9,0.9,1.5,1.3c0.6,0.3,1.3,0.5,2.1,0.5c0.8,0,1.5-0.2,2.1-0.5c0.6-0.3,1.1-0.8,1.5-1.3c0.4-0.5,0.7-1.1,0.9-1.8
		c0.2-0.7,0.3-1.4,0.3-2.1c0-0.7-0.1-1.4-0.3-2.1c-0.2-0.7-0.5-1.3-0.9-1.8c-0.4-0.5-0.9-0.9-1.5-1.2s-1.3-0.4-2.1-0.4
		c-0.8,0-1.5,0.2-2.1,0.5c-0.6,0.3-1.1,0.7-1.5,1.3c-0.4,0.5-0.7,1.1-0.9,1.8C587.1,215,587,215.7,587,216.4z"/>
	<path class="st0" d="M612.5,225.9c-1,0-1.9-0.2-2.7-0.7c-0.8-0.4-1.4-1-1.8-1.8v7.8h-4.2v-19.2h3.6v2.2c0.5-0.8,1.1-1.4,1.9-1.8
		s1.7-0.6,2.7-0.6c0.9,0,1.8,0.2,2.6,0.5c0.8,0.4,1.5,0.9,2,1.5c0.6,0.6,1,1.4,1.3,2.2c0.3,0.8,0.5,1.8,0.5,2.7
		c0,1.3-0.3,2.5-0.8,3.6c-0.5,1.1-1.2,1.9-2.1,2.5S613.7,225.9,612.5,225.9z M611.1,222.4c0.5,0,0.9-0.1,1.2-0.3
		c0.4-0.2,0.7-0.5,1-0.8c0.3-0.3,0.5-0.7,0.6-1.1c0.1-0.4,0.2-0.9,0.2-1.4c0-0.5-0.1-0.9-0.2-1.3c-0.2-0.4-0.4-0.8-0.7-1.1
		s-0.6-0.6-1-0.7s-0.8-0.3-1.3-0.3c-0.3,0-0.6,0-0.9,0.1s-0.6,0.2-0.8,0.4c-0.3,0.2-0.5,0.3-0.7,0.6c-0.2,0.2-0.4,0.5-0.5,0.8v2.8
		c0.2,0.5,0.4,0.9,0.8,1.2c0.3,0.4,0.7,0.6,1.1,0.8C610.2,222.3,610.7,222.4,611.1,222.4z"/>
	<path class="st0" d="M627.8,225.9c-1.2,0-2.2-0.2-3.1-0.6s-1.7-0.9-2.3-1.5s-1.1-1.4-1.5-2.2s-0.5-1.7-0.5-2.6
		c0-1.3,0.3-2.5,0.9-3.6c0.6-1.1,1.4-1.9,2.5-2.6s2.4-1,4-1s2.9,0.3,4,1s1.9,1.5,2.5,2.6c0.6,1.1,0.9,2.2,0.9,3.4c0,0.2,0,0.5,0,0.7
		c0,0.2,0,0.4-0.1,0.6h-10.2c0.1,0.6,0.2,1.1,0.5,1.5c0.3,0.4,0.7,0.7,1.1,0.9c0.5,0.2,0.9,0.3,1.4,0.3c0.6,0,1.2-0.1,1.8-0.4
		s0.9-0.7,1.1-1.2l3.6,1c-0.3,0.7-0.8,1.3-1.5,1.9c-0.6,0.6-1.4,1-2.3,1.3C629.8,225.8,628.9,225.9,627.8,225.9z M624.8,217.6h6
		c-0.1-0.5-0.2-1-0.5-1.4c-0.3-0.4-0.6-0.7-1-0.9c-0.4-0.2-0.9-0.3-1.4-0.3c-0.5,0-1,0.1-1.5,0.3c-0.4,0.2-0.8,0.5-1,0.9
		C625,216.6,624.8,217,624.8,217.6z"/>
	<path class="st0" d="M651,225.7h-4.2v-7.6c0-0.9-0.2-1.5-0.5-1.9c-0.3-0.4-0.8-0.6-1.3-0.6c-0.4,0-0.8,0.1-1.2,0.3
		c-0.4,0.2-0.8,0.5-1.1,0.8c-0.3,0.4-0.6,0.8-0.7,1.2v7.8h-4.2v-13.6h3.8v2.3c0.3-0.5,0.8-1,1.3-1.4c0.5-0.4,1.1-0.7,1.8-0.9
		c0.7-0.2,1.4-0.3,2.2-0.3c0.9,0,1.6,0.2,2.2,0.5c0.5,0.3,1,0.7,1.3,1.3c0.3,0.5,0.5,1.1,0.6,1.7c0.1,0.6,0.1,1.2,0.1,1.7V225.7z"/>
	<path class="st0" d="M653.5,216.2c0-1.1,0.2-2.2,0.6-3.3c0.4-1.1,1-2.1,1.8-3c0.8-0.9,1.8-1.6,2.9-2.1c1.2-0.5,2.5-0.8,3.9-0.8
		c1.7,0,3.3,0.4,4.5,1.1c1.3,0.8,2.2,1.7,2.9,2.9l-3.3,2.3c-0.3-0.7-0.7-1.2-1.1-1.5c-0.5-0.4-1-0.6-1.5-0.8s-1.1-0.2-1.6-0.2
		c-0.8,0-1.5,0.2-2.1,0.5c-0.6,0.3-1.1,0.8-1.5,1.3c-0.4,0.5-0.7,1.1-0.9,1.8c-0.2,0.7-0.3,1.3-0.3,2c0,0.7,0.1,1.4,0.3,2.1
		c0.2,0.7,0.6,1.3,1,1.8s0.9,0.9,1.6,1.2c0.6,0.3,1.3,0.5,2,0.5c0.5,0,1.1-0.1,1.6-0.3c0.5-0.2,1-0.4,1.5-0.8
		c0.5-0.4,0.8-0.9,1.1-1.5l3.5,2.1c-0.4,0.9-1,1.7-1.8,2.3c-0.8,0.6-1.8,1.1-2.8,1.5c-1.1,0.3-2.1,0.5-3.1,0.5
		c-1.3,0-2.6-0.3-3.7-0.8c-1.1-0.5-2.1-1.3-2.9-2.2c-0.8-0.9-1.4-1.9-1.9-3.1C653.8,218.5,653.5,217.4,653.5,216.2z"/>
	<path class="st0" d="M679.4,225.9c-1.2,0-2.2-0.2-3.1-0.6c-0.9-0.4-1.7-0.9-2.3-1.5s-1.1-1.4-1.4-2.2s-0.5-1.7-0.5-2.7
		c0-0.9,0.2-1.8,0.5-2.7s0.8-1.6,1.4-2.2s1.4-1.2,2.3-1.5c0.9-0.4,2-0.6,3.1-0.6s2.2,0.2,3.1,0.6c0.9,0.4,1.7,0.9,2.3,1.5
		c0.6,0.7,1.1,1.4,1.4,2.2c0.3,0.8,0.5,1.7,0.5,2.7c0,0.9-0.2,1.8-0.5,2.7c-0.3,0.8-0.8,1.6-1.4,2.2c-0.6,0.7-1.4,1.2-2.3,1.5
		C681.6,225.7,680.6,225.9,679.4,225.9z M676.3,218.9c0,0.7,0.1,1.3,0.4,1.8c0.3,0.5,0.6,0.9,1.1,1.2c0.5,0.3,1,0.4,1.6,0.4
		c0.6,0,1.1-0.1,1.6-0.4c0.5-0.3,0.8-0.7,1.1-1.2c0.3-0.5,0.4-1.1,0.4-1.8c0-0.7-0.1-1.3-0.4-1.8c-0.3-0.5-0.6-0.9-1.1-1.2
		c-0.5-0.3-1-0.4-1.6-0.4c-0.6,0-1.1,0.1-1.6,0.4s-0.8,0.7-1.1,1.2C676.5,217.6,676.3,218.2,676.3,218.9z"/>
	<path class="st0" d="M689.4,206.5h4.2v14.2c0,0.6,0.1,1,0.3,1.2c0.2,0.2,0.5,0.4,0.9,0.4c0.3,0,0.5,0,0.8-0.1
		c0.3-0.1,0.5-0.2,0.7-0.3l0.6,3.1c-0.5,0.2-1.1,0.4-1.8,0.6c-0.7,0.1-1.3,0.2-1.9,0.2c-1.2,0-2.1-0.3-2.8-1c-0.7-0.6-1-1.5-1-2.7
		V206.5z"/>
	<path class="st0" d="M705.5,225.9c-1.2,0-2.2-0.2-3.1-0.6c-0.9-0.4-1.7-0.9-2.3-1.5s-1.1-1.4-1.4-2.2s-0.5-1.7-0.5-2.7
		c0-0.9,0.2-1.8,0.5-2.7s0.8-1.6,1.4-2.2s1.4-1.2,2.3-1.5c0.9-0.4,2-0.6,3.1-0.6s2.2,0.2,3.1,0.6c0.9,0.4,1.7,0.9,2.3,1.5
		c0.6,0.7,1.1,1.4,1.4,2.2c0.3,0.8,0.5,1.7,0.5,2.7c0,0.9-0.2,1.8-0.5,2.7c-0.3,0.8-0.8,1.6-1.4,2.2c-0.6,0.7-1.4,1.2-2.3,1.5
		C707.7,225.7,706.6,225.9,705.5,225.9z M702.4,218.9c0,0.7,0.1,1.3,0.4,1.8c0.3,0.5,0.6,0.9,1.1,1.2c0.5,0.3,1,0.4,1.6,0.4
		c0.6,0,1.1-0.1,1.6-0.4c0.5-0.3,0.8-0.7,1.1-1.2c0.3-0.5,0.4-1.1,0.4-1.8c0-0.7-0.1-1.3-0.4-1.8c-0.3-0.5-0.6-0.9-1.1-1.2
		c-0.5-0.3-1-0.4-1.6-0.4c-0.6,0-1.1,0.1-1.6,0.4s-0.8,0.7-1.1,1.2C702.5,217.6,702.4,218.2,702.4,218.9z"/>
	<path class="st0" d="M724.3,215.5c-1,0-1.9,0.2-2.8,0.5c-0.8,0.3-1.4,0.8-1.8,1.4v8.3h-4.2v-13.6h3.9v2.6c0.5-0.9,1.1-1.7,1.8-2.2
		c0.8-0.5,1.5-0.8,2.4-0.8c0.2,0,0.3,0,0.4,0c0.1,0,0.2,0,0.2,0V215.5z"/>
	<path class="st0" d="M727,225.7v-18.6h4.3v18.6H727z"/>
	<path class="st0" d="M743.7,225.8c-1.4,0-2.7-0.3-3.8-0.8c-1.1-0.5-2.1-1.2-2.9-2.1c-0.8-0.9-1.4-1.9-1.9-3s-0.7-2.3-0.7-3.5
		c0-1.2,0.2-2.4,0.7-3.5s1.1-2.1,1.9-3c0.8-0.9,1.8-1.6,2.9-2.1c1.1-0.5,2.4-0.8,3.7-0.8c1.4,0,2.6,0.3,3.8,0.8
		c1.1,0.5,2.1,1.3,2.9,2.2c0.8,0.9,1.4,1.9,1.9,3.1c0.4,1.1,0.7,2.3,0.7,3.4c0,1.2-0.2,2.4-0.7,3.5c-0.5,1.1-1.1,2.1-1.9,3
		c-0.8,0.9-1.8,1.6-2.9,2.1C746.3,225.5,745,225.8,743.7,225.8z M738.8,216.4c0,0.7,0.1,1.4,0.3,2.1c0.2,0.7,0.5,1.3,0.9,1.8
		c0.4,0.5,0.9,0.9,1.5,1.3c0.6,0.3,1.3,0.5,2.1,0.5c0.8,0,1.5-0.2,2.1-0.5c0.6-0.3,1.1-0.8,1.5-1.3c0.4-0.5,0.7-1.1,0.9-1.8
		c0.2-0.7,0.3-1.4,0.3-2.1c0-0.7-0.1-1.4-0.3-2.1c-0.2-0.7-0.5-1.3-0.9-1.8c-0.4-0.5-0.9-0.9-1.5-1.2s-1.3-0.4-2.1-0.4
		c-0.8,0-1.5,0.2-2.1,0.5c-0.6,0.3-1.1,0.7-1.5,1.3c-0.4,0.5-0.7,1.1-0.9,1.8C738.9,215,738.8,215.7,738.8,216.4z"/>
</g>
</svg>
