<?xml version="1.0" encoding="utf-8"?>
<svg width="275.88452px" height="70.30298px" viewBox="0 0 275.88452 70.30298" version="1.1" xmlns:xlink="http://www.w3.org/1999/xlink" xmlns="http://www.w3.org/2000/svg">
  <g id="Group-5-Copy-3">
    <g id="Icon-Copy">
      <path d="M0 0L7.81146 0L7.81146 7.81145L11.7172 7.81145L11.7172 0L70.303 0L70.303 70.303L0 70.303L0 11.7172L7.8113 11.7172L7.8113 7.81145L0 7.81145L0 0L0 0ZM62.4916 7.8125L7.81152 7.8125L7.81152 62.4926L62.4916 62.4926L62.4916 7.8125L62.4916 7.8125Z" id="Outline" fill="#333B42" fill-rule="evenodd" stroke="none" />
      <path d="M11.7173 37.7556L20.8306 37.7556L20.8306 46.869L11.7173 46.869L11.7173 37.7556Z" id="Pixel-6" fill="#333B42" fill-rule="evenodd" stroke="none" />
      <path d="M24.7363 24.7372L33.8497 24.7372L33.8497 33.8505L24.7363 33.8505L24.7363 24.7372Z" id="Pixel-5" fill="#333B42" fill-rule="evenodd" stroke="none" />
      <path d="M11.7173 24.7372L20.8306 24.7372L20.8306 33.8505L11.7173 33.8505L11.7173 24.7372Z" id="Pixel-4" fill="#333B42" fill-rule="evenodd" stroke="none" />
      <path d="M37.7554 11.7163L46.8687 11.7163L46.8687 20.8297L37.7554 20.8297L37.7554 11.7163Z" id="Pixel-3" fill="#333B42" fill-rule="evenodd" stroke="none" />
      <path d="M24.7363 11.7163L33.8497 11.7163L33.8497 20.8297L24.7363 20.8297L24.7363 11.7163Z" id="Pixel-2" fill="#333B42" fill-rule="evenodd" stroke="none" />
      <path d="M11.7173 11.7163L20.8306 11.7163L20.8306 20.8297L11.7173 20.8297L11.7173 11.7163Z" id="Pixel-1" fill="#333B42" fill-rule="evenodd" stroke="none" />
    </g>
    <path d="M148.979 60.8169C154.539 54.793 157.319 46.1741 157.319 34.9604C157.319 23.7157 154.562 15.0968 149.048 9.10381C143.534 3.11077 135.572 0.114258 125.161 0.114258C114.75 0.114264 106.757 3.08761 101.181 9.0343C95.6051 14.981 92.8171 23.5921 92.8171 34.8677C92.8171 46.1432 95.5974 54.793 101.158 60.8169C106.719 66.8408 114.689 69.8528 125.068 69.8528C135.448 69.8528 143.418 66.8408 148.979 60.8169L148.979 60.8169ZM267.544 60.8169C273.104 54.793 275.884 46.1741 275.884 34.9604C275.884 23.7157 273.127 15.0968 267.613 9.10381C262.099 3.11077 254.137 0.114258 243.726 0.114258C233.315 0.114264 225.322 3.08761 219.746 9.0343C214.17 14.981 211.382 23.5921 211.382 34.8677C211.382 46.1432 214.162 54.793 219.723 60.8169C225.283 66.8408 233.254 69.8528 243.633 69.8528C254.013 69.8528 261.983 66.8408 267.544 60.8169L267.544 60.8169ZM164.76 1.18005L164.76 68.926L179.125 68.926L179.125 1.18005L164.76 1.18005L164.76 1.18005ZM189.577 1.18005L189.577 68.926L203.942 68.926L203.942 1.18005L189.577 1.18005L189.577 1.18005ZM112.186 52.0591C109.313 48.2285 107.877 42.5289 107.877 34.9604C107.877 27.3919 109.329 21.6846 112.233 17.8385C115.137 13.9925 119.446 12.0695 125.161 12.0695C136.56 12.0695 142.26 19.6998 142.26 34.9604C142.26 50.1901 136.529 57.805 125.068 57.805C119.353 57.805 115.059 55.8897 112.186 52.0591L112.186 52.0591ZM230.751 52.0591C227.878 48.2285 226.442 42.5289 226.442 34.9604C226.442 27.3919 227.894 21.6846 230.798 17.8385C233.702 13.9925 238.011 12.0695 243.726 12.0695C255.125 12.0695 260.825 19.6998 260.825 34.9604C260.825 50.1901 255.094 57.805 243.633 57.805C237.918 57.805 233.624 55.8897 230.751 52.0591L230.751 52.0591Z" id="Vector" fill="#333B42" fill-rule="evenodd" stroke="none" />
  </g>
</svg>