<?xml version="1.0" encoding="UTF-8" standalone="no"?>
<svg
   id="Layer_1"
   data-name="Layer 1"
   viewBox="0 0 813.83374 148.06055"
   version="1.1"
   sodipodi:docname="openassetio-horizontal-white.svg"
   inkscape:version="1.2.2 (b0a84865, 2022-12-01)"
   width="813.83374"
   height="148.06055"
   inkscape:export-filename="openassetio-horizontal-black.png"
   inkscape:export-xdpi="1200"
   inkscape:export-ydpi="1200"
   xmlns:inkscape="http://www.inkscape.org/namespaces/inkscape"
   xmlns:sodipodi="http://sodipodi.sourceforge.net/DTD/sodipodi-0.dtd"
   xmlns="http://www.w3.org/2000/svg"
   xmlns:svg="http://www.w3.org/2000/svg">
  <sodipodi:namedview
     id="namedview414"
     pagecolor="#ffffff"
     bordercolor="#666666"
     borderopacity="1.0"
     inkscape:pageshadow="2"
     inkscape:pageopacity="0.0"
     inkscape:pagecheckerboard="0"
     showgrid="false"
     inkscape:zoom="1.438"
     inkscape:cx="461.75243"
     inkscape:cy="20.514604"
     inkscape:window-width="1719"
     inkscape:window-height="969"
     inkscape:window-x="1532"
     inkscape:window-y="43"
     inkscape:window-maximized="0"
     inkscape:current-layer="Layer_1"
     inkscape:showpageshadow="2"
     inkscape:deskcolor="#d1d1d1" />
  <defs
     id="defs383">
    <style
       id="style381">.cls-1{fill:#fff;}</style>
  </defs>
  <path
     id="logo"
     d="M 25.04102,2.0979599e-8 C 11.21178,-5.5997902e-4 5.2002023e-4,11.20983 2.023495e-8,25.03907 -5.4997977e-4,38.86907 11.21102,50.08064 25.04102,50.08008 c 4.01612,-0.0203 7.96843,-1.00641 11.52344,-2.875 l 13.51562,9.17383 C 47.65589,62.6241 46.36229,69.25082 46.25977,75.94922 46.06322,82.6643 47.33988,89.34093 50,95.50977 l -8.08984,6.89258 C 37.73412,99.52443 32.7826,97.98244 27.71094,97.98047 13.8817,97.97991 2.67044,109.1903 2.66993,123.01954 c -5.6e-4,13.83 11.21101,25.04157 25.04101,25.04101 13.82924,-5.2e-4 25.03962,-11.21177 25.03906,-25.04101 -10e-4,-0.7571 -0.0374,-1.51373 -0.10742,-2.26758 l 9.26758,-7.90235 c 9.53706,8.65851 21.92973,13.50002 34.81055,13.59961 27.97275,0.0777 50.69039,-22.57696 50.69039,-50.5498 0,-27.97285 -22.71764,-50.62751 -50.69039,-50.54981 h -0.0312 C 83.77242,25.20629 71.30387,30.08181 61.91021,38.94922 L 49.41412,30.4961 c 0.42162,-1.78905 0.64497,-3.61909 0.66601,-5.45703 C 50.07962,11.21059 38.86955,5.2002098e-4 25.04107,2.097957e-8 Z M 96.83985,38.43946 c 5.27133,-0.0557 10.50488,0.89489 15.41992,2.80078 4.55779,1.73533 8.71546,4.37865 12.2207,7.76953 3.48977,3.39548 6.23132,7.48287 8.04883,12 1.96212,4.97584 2.95008,10.28228 2.91016,15.63086 0.0595,5.30087 -0.92951,10.56122 -2.91016,15.47852 -3.70859,9.17714 -11.04357,16.41458 -20.26953,20 -4.90977,1.93085 -10.14428,2.90217 -15.41992,2.86132 -5.25955,0.0453 -10.47828,-0.92628 -15.36914,-2.86132 -4.55136,-1.78704 -8.68943,-4.4855 -12.16016,-7.92969 -3.47526,-3.43989 -6.1993,-7.56319 -8,-12.10938 -1.96581,-4.92049 -2.93443,-10.18251 -2.84961,-15.48047 -0.0552,-5.33097 0.91214,-10.6231 2.84961,-15.58984 1.82326,-4.5022 4.54538,-8.58537 8,-12 3.50418,-3.36283 7.63613,-6.00288 12.16016,-7.76953 4.90281,-1.88654 10.11602,-2.83657 15.36914,-2.80078 z m 60.55078,0.28125 -0.0312,78.47851 h 11 V 82.72071 h 12.45117 c 3.82674,0.0287 7.64329,-0.39811 11.36914,-1.27149 3.24932,-0.73416 6.33241,-2.07034 9.08985,-3.93945 2.54249,-1.75246 4.60532,-4.1141 6,-6.86914 1.51482,-3.14344 2.25549,-6.60371 2.16015,-10.0918 0.0916,-3.39577 -0.5924,-6.76772 -2,-9.85937 -1.29443,-2.68653 -3.23605,-5.00936 -5.65039,-6.75977 -2.67068,-1.87987 -5.68382,-3.21823 -8.86914,-3.93945 -3.79515,-0.88604 -7.68311,-1.31228 -11.58008,-1.26953 z m 65.91992,0 v 78.47851 h 52 v -9.75976 h -41 V 81.2793 h 37 v -9.41992 h -37 v -23.5 h 39.32031 v -9.63867 z m 66.59961,0 v 78.47851 h 11 V 53.12891 h 0.24023 l 41.45899,64.07031 h 13.88086 V 38.72071 h -11 v 62.78906 h -0.2207 L 304.21094,38.72071 Z M 94.51172,47.55079 c -3.12373,0.24713 -6.18883,0.98605 -9.08203,2.18945 -3.29295,1.4733 -6.23197,3.63511 -8.61914,6.33984 -2.40313,2.72614 -4.2633,5.88631 -5.48047,9.31055 -1.3362,3.59964 -2.01367,7.41038 -2,11.25 -0.018,3.89531 0.65928,7.76257 2,11.41992 1.22715,3.43224 3.10897,6.59359 5.54102,9.3086 2.4022,2.66065 5.33937,4.78382 8.61914,6.23046 7.27175,3.04072 15.45872,3.04072 22.73047,0 3.32336,-1.43158 6.30309,-3.55567 8.74023,-6.23046 2.44373,-2.70606 4.32641,-5.86999 5.53906,-9.3086 1.31366,-3.66227 1.96381,-7.52942 1.91993,-11.41992 h 0.0195 c 0.0331,-3.83594 -0.62389,-7.64656 -1.93946,-11.25 -1.2381,-3.42722 -3.11799,-6.5871 -5.53906,-9.31055 -2.42221,-2.69324 -5.37889,-4.85239 -8.68164,-6.33984 -4.35112,-1.80955 -9.06977,-2.55995 -13.76758,-2.18945 z m 73.84766,0.46875 H 180.25 c 2.41718,-0.0167 4.83084,0.18725 7.21094,0.60937 2.01569,0.33326 3.94972,1.04643 5.69922,2.10156 1.55479,0.96527 2.84911,2.29715 3.76953,3.87891 0.98389,1.81724 1.46401,3.8645 1.39063,5.92969 0.071,2.08029 -0.38658,4.14462 -1.33008,6 -0.88374,1.62302 -2.18514,2.98039 -3.76953,3.93164 -1.79983,1.06516 -3.76816,1.8155 -5.82032,2.21875 -2.42503,0.4976 -4.89561,0.73915 -7.37109,0.7207 h -11.63867 z m 312.62109,-8.42969 c -3.56844,-7.8e-4 -7.12288,0.44607 -10.58008,1.33008 -3.35738,0.83412 -6.53795,2.26365 -9.39062,4.2207 -2.77255,1.91504 -5.07393,4.4348 -6.73047,7.36914 -1.76404,3.30823 -2.62626,7.02249 -2.5,10.76953 -0.0845,2.98869 0.47851,5.96029 1.65039,8.71094 1.04006,2.29865 2.52959,4.36593 4.38086,6.08008 1.83231,1.68918 3.92154,3.07629 6.18945,4.10937 2.30853,1.06826 4.67937,1.99638 7.09961,2.7793 2.5,0.79 4.67969,1.5114 6.67969,2.1914 1.71211,0.56904 3.35825,1.32008 4.91016,2.24024 1.17029,0.70258 2.1899,1.62991 3,2.72852 0.7392,1.06309 1.11466,2.33678 1.07031,3.63085 0.0382,1.33047 -0.2537,2.64969 -0.84961,3.83985 -0.53972,1.03319 -1.33098,1.91379 -2.30078,2.56054 -1.02295,0.66918 -2.1625,1.14024 -3.35938,1.38868 -1.29623,0.29046 -2.62085,0.43524 -3.94922,0.43164 -3.14011,-0.0416 -6.22518,-0.83028 -9,-2.30078 -2.81361,-1.36474 -5.30539,-3.3113 -7.31054,-5.71094 l -12,12.16992 c 3.53107,3.61379 7.84037,6.37398 12.59961,8.07031 5.02155,1.87771 10.34004,2.83635 15.70117,2.83008 3.64562,0.007 7.27419,-0.49762 10.7793,-1.5 3.36017,-0.92503 6.51292,-2.48285 9.28906,-4.58984 2.72831,-2.0852 4.9392,-4.77129 6.46094,-7.84961 1.68473,-3.51256 2.5108,-7.37514 2.41015,-11.26953 0.11723,-3.29577 -0.6603,-6.56176 -2.25,-9.45117 -1.44676,-2.4711 -3.37085,-4.62956 -5.66015,-6.34961 -2.31281,-1.73207 -4.86653,-3.11651 -7.58008,-4.10938 -2.76,-1.03 -5.43,-1.98008 -8,-2.83008 -1.78,-0.56666 -3.38078,-1.12015 -4.80078,-1.66015 -1.28538,-0.46221 -2.52134,-1.05173 -3.68946,-1.75977 -0.94268,-0.55926 -1.74608,-1.32526 -2.34961,-2.24023 -0.56052,-0.97067 -0.83792,-2.07895 -0.80078,-3.19922 -0.0613,-1.30481 0.28851,-2.59594 1,-3.69141 0.66299,-0.95017 1.518,-1.75063 2.50977,-2.34961 1.0338,-0.6164 2.1739,-1.03375 3.36133,-1.23047 1.21873,-0.20948 2.45285,-0.31662 3.68945,-0.32031 2.53749,0.0455 5.03368,0.65039 7.31055,1.77148 2.39542,1.07168 4.50008,2.70023 6.13867,4.75 L 505.75,48.87891 c -3.3833,-3.085 -7.36108,-5.44641 -11.68945,-6.93945 -4.19432,-1.5227 -8.61803,-2.31734 -13.08008,-2.34961 z m 63.10938,0 c -3.56844,-7.8e-4 -7.12288,0.44607 -10.58008,1.33008 -3.3567,0.83434 -6.53659,2.26386 -9.38867,4.2207 -2.77255,1.91504 -5.07393,4.4348 -6.73047,7.36914 -1.75049,3.31194 -2.59919,7.026 -2.46094,10.76953 -0.0845,2.98869 0.47851,5.96029 1.65039,8.71094 1.04006,2.29865 2.52959,4.36593 4.38086,6.08008 1.83231,1.68918 3.92154,3.07629 6.18945,4.10937 2.31115,1.06996 4.68534,1.99811 7.10938,2.7793 2.49,0.79 4.66992,1.5114 6.66992,2.1914 1.71211,0.56904 3.35825,1.32008 4.91016,2.24024 1.16749,0.70634 2.18642,1.63306 3,2.72852 0.73185,1.06613 1.10348,2.33841 1.06054,3.63085 0.0382,1.33047 -0.2537,2.64969 -0.84961,3.83985 -0.53972,1.03319 -1.33098,1.91379 -2.30078,2.56054 -1.02295,0.66918 -2.1625,1.14024 -3.35937,1.38868 -1.31279,0.29425 -2.65466,0.43905 -4,0.43164 -3.14011,-0.0416 -6.22518,-0.83028 -9,-2.30078 -2.81361,-1.36474 -5.3054,-3.3113 -7.31055,-5.71094 l -12,12.16992 c 3.53107,3.61379 7.84037,6.37398 12.59961,8.07031 5.02155,1.87771 10.34004,2.83635 15.70117,2.83008 3.64562,0.007 7.27419,-0.49762 10.7793,-1.5 3.36017,-0.92503 6.51292,-2.48285 9.28906,-4.58984 2.72831,-2.0852 4.9392,-4.77129 6.46094,-7.84961 1.69481,-3.5174 2.52768,-7.38783 2.42969,-11.29102 0.11687,-3.29511 -0.66064,-6.56039 -2.25,-9.44922 -1.44677,-2.4711 -3.37086,-4.62956 -5.66016,-6.34961 -2.31281,-1.73206 -4.86653,-3.11651 -7.58008,-4.10937 -2.76,-1.03 -5.43,-1.98008 -8,-2.83008 -1.78,-0.56667 -3.37882,-1.12016 -4.79883,-1.66016 -1.28518,-0.46415 -2.5216,-1.05357 -3.6914,-1.75976 -0.94269,-0.55926 -1.74608,-1.32526 -2.34961,-2.24024 -0.56019,-0.97144 -0.83693,-2.08043 -0.79883,-3.20117 -0.0608,-1.30415 0.28891,-2.59453 1,-3.68945 0.66507,-0.94311 1.51994,-1.73677 2.50977,-2.33008 1.03401,-0.61448 2.17309,-1.0317 3.35937,-1.23047 1.21873,-0.20948 2.45286,-0.31662 3.68946,-0.32031 2.53749,0.0455 5.03368,0.6504 7.31054,1.77148 2.39613,1.07141 4.50149,2.69998 6.14063,4.75 l 11.68945,-12.28124 c -3.3991,-3.08742 -7.39464,-5.4458 -11.74023,-6.92969 -4.19432,-1.5227 -8.61803,-2.31734 -13.08008,-2.34961 z m 229.62109,0.0371 c -5.46252,-2.7e-4 -10.88109,0.97603 -16,2.88281 -4.70785,1.80139 -9.00869,4.52453 -12.65039,8.00977 -3.61786,3.5403 -6.45529,7.79811 -8.33008,12.5 -3.98438,10.38081 -3.98438,21.86919 0,32.25 3.80176,9.55734 11.41034,17.10081 21,20.82031 10.30639,3.92069 21.69361,3.92069 32,0 4.74902,-1.85191 9.07266,-4.64862 12.70899,-8.2207 3.6081,-3.59913 6.4608,-7.88283 8.39062,-12.59961 2.05306,-5.10903 3.07272,-10.57445 3,-16.08008 0.0682,-5.54125 -0.9648,-11.04087 -3.03906,-16.17969 -1.91067,-4.69766 -4.76666,-8.95239 -8.39063,-12.5 -3.6519,-3.4889 -7.96694,-6.20929 -12.68945,-8 -5.11891,-1.90678 -10.53748,-2.88308 -16,-2.88281 z M 398.75,41.50977 367.04102,117.09961 h 19.86914 l 5.53906,-14.83984 h 29.26172 l 5.86914,14.83984 h 20.33008 L 416.48047,41.50977 Z m 181.64063,0 v 75.58984 h 52.75976 V 101.50977 H 598.00977 V 85.83008 h 31.40039 V 71.19922 H 598.00977 V 56.89063 h 33.21094 V 41.50977 Z m 57.51953,0 v 15.58008 h 21.40039 v 60 h 18.25977 v -60 l 21.33984,0.0098 V 41.50977 Z m 70.73047,0 v 75.58984 h 10.58008 V 41.50977 Z m 62.71875,7.45703 c 4.87628,-0.39073 9.77492,0.39914 14.28125,2.30274 3.42526,1.53869 6.49088,3.7767 9,6.57031 2.51865,2.82309 4.47374,6.10212 5.75976,9.66015 1.35427,3.74714 2.03148,7.70523 2,11.68946 0.026,4.0385 -0.66093,8.0499 -2.02929,11.84961 -1.27031,3.56588 -3.22785,6.84791 -5.76172,9.66015 -2.53574,2.77153 -5.63054,4.97365 -9.08008,6.46094 -3.74159,1.60489 -7.77873,2.4054 -11.84961,2.34961 -4.01839,0.0586 -8.00321,-0.73903 -11.68945,-2.33984 -3.41874,-1.5007 -6.48473,-3.70172 -9,-6.46094 -2.53541,-2.8125 -4.49547,-6.09432 -5.76953,-9.66016 -1.35952,-3.80459 -2.03658,-7.81934 -2,-11.85937 -0.0315,-3.98423 0.64573,-7.94232 2,-11.68946 1.28317,-3.55038 3.2232,-6.82749 5.71875,-9.66015 2.49438,-2.80988 5.56374,-5.05062 9,-6.57031 2.9968,-1.26585 6.1771,-2.04329 9.41992,-2.30274 z m -364.06836,12.71289 9.38867,25.94922 h -19 z"
     inkscape:label="logo"
     sodipodi:nodetypes="cccccccccssccccsccccccccccccccccccccccccccccccccccccccccccccccccccccccccccccccccccccccccccccccccccccccccccccccccccccccccccccccccccccccccccccccccccccccccccccccccccccccccccccccccccccccccccccccccccccccccccccccccccccccccccccccccccccccccccccccccccccccscccccccccsccccccccc"
     style="fill:#ffffff" />
</svg>
