<?xml version="1.0" encoding="UTF-8"?>
<svg id="Logos" xmlns="http://www.w3.org/2000/svg" xmlns:xlink="http://www.w3.org/1999/xlink" viewBox="0 0 613.19 152.05">
  <defs>
    <style>
      .cls-1 {
        fill: none;
      }

      .cls-2 {
        fill: #444;
      }

      .cls-3 {
        fill: url(#linear-gradient-5);
      }

      .cls-4 {
        fill: url(#linear-gradient-6);
      }

      .cls-5 {
        fill: url(#linear-gradient-4);
      }

      .cls-6 {
        fill: url(#linear-gradient-3);
      }

      .cls-7 {
        fill: url(#linear-gradient-2);
      }

      .cls-8 {
        fill: url(#linear-gradient);
      }

      .cls-9 {
        clip-path: url(#clippath-1);
      }

      .cls-10 {
        clip-path: url(#clippath);
      }
    </style>
    <linearGradient id="linear-gradient" x1="0" y1="76.02" x2="85.43" y2="76.02" gradientUnits="userSpaceOnUse">
      <stop offset=".1" stop-color="#000"/>
      <stop offset=".76" stop-color="#444" stop-opacity="0"/>
    </linearGradient>
    <clipPath id="clippath">
      <path class="cls-8" d="M48.3,6.28C33.44,12.06,15.76,24.77,6.23,46.34c0,0-15.79,31.28,2.91,67.48,0,0,12.82,31.25,54.08,37.4l-25.03-25.02,23.88-23.93c-22.89-13.77-19.16-35.21-8.03-46.19,5.07-5,13.36-8.1,17.34-8.1,6.52,0,9.24,0,14.06,0V.98s-19.63-1.53-37.13,5.29Z"/>
    </clipPath>
    <linearGradient id="linear-gradient-2" x1=".43" y1="118.13" x2="63.21" y2="118.13" xlink:href="#linear-gradient"/>
    <linearGradient id="linear-gradient-3" x1="87.08" y1="30.61" x2="22.46" y2="59.65" xlink:href="#linear-gradient"/>
    <clipPath id="clippath-1">
      <polygon class="cls-1" points="73.78 102.27 85.34 102.27 85.32 151.21 74.93 151.21 49.9 126.2 73.78 102.27"/>
    </clipPath>
    <linearGradient id="linear-gradient-4" x1="49.9" y1="138.71" x2="85.33" y2="138.71" xlink:href="#linear-gradient"/>
    <linearGradient id="linear-gradient-5" x1="116.39" y1="24.41" x2="94.48" y2="24.41" gradientUnits="userSpaceOnUse">
      <stop offset=".1" stop-color="#383838"/>
      <stop offset=".26" stop-color="#393939" stop-opacity=".9"/>
      <stop offset=".47" stop-color="#3c3c3c" stop-opacity=".62"/>
      <stop offset=".7" stop-color="#424242" stop-opacity=".15"/>
      <stop offset=".76" stop-color="#444" stop-opacity="0"/>
    </linearGradient>
    <linearGradient id="linear-gradient-6" x1="116.39" y1="103.66" x2="94.48" y2="103.66" xlink:href="#linear-gradient-5"/>
  </defs>
  <g>
    <path class="cls-8" d="M48.3,6.28C33.44,12.06,15.76,24.77,6.23,46.34c0,0-15.79,31.28,2.91,67.48,0,0,12.82,31.25,54.08,37.4l-25.03-25.02,23.88-23.93c-22.89-13.77-19.16-35.21-8.03-46.19,5.07-5,13.36-8.1,17.34-8.1,6.52,0,9.24,0,14.06,0V.98s-19.63-1.53-37.13,5.29Z"/>
    <g class="cls-10">
      <path class="cls-2" d="M48.3,6.28C33.44,12.06,15.76,24.77,6.23,46.34c0,0-15.79,31.28,2.91,67.48,0,0,12.82,31.25,54.08,37.4l-25.03-25.02,23.88-23.93c-22.89-13.77-19.16-35.21-8.03-46.19,5.07-5,13.36-8.1,17.34-8.1,6.52,0,9.24,0,14.06,0V.98s-19.63-1.53-37.13,5.29Z"/>
      <path class="cls-7" d="M.43,85.04s5.69,32.63,37.76,41.15l25.02,25.02c-.06,0-52.83-3.46-62.25-62.08-.21-1.33-.37-2.7-.54-4.1Z"/>
      <path class="cls-6" d="M85.43,26.95h-21.29s-31.04,0-43.2,30.51l26.29,8.91s1.97-5.88,7.58-11.01c2.76-2.53,7.87-5.49,13.42-6.82,2.23-.54,3.3-.56,4.97-.56h12.25v-21.02Z"/>
    </g>
  </g>
  <g class="cls-9">
    <polygon class="cls-2" points="73.78 102.27 85.34 102.27 85.32 151.21 74.93 151.21 49.9 126.2 73.78 102.27"/>
    <polygon class="cls-5" points="49.9 126.2 85.33 126.2 85.33 151.21 74.93 151.21 49.9 126.2"/>
  </g>
  <g>
    <rect class="cls-2" x="93.63" y=".89" width="48.95" height="47.03"/>
    <rect class="cls-2" x="93.63" y="56.12" width="48.95" height="95.08"/>
  </g>
  <g>
    <rect class="cls-3" x="93.63" y=".89" width="24.47" height="47.03"/>
    <rect class="cls-4" x="93.63" y="56.12" width="24.47" height="95.08"/>
  </g>
  <g>
    <path d="M210.3,54.29l.05.16c.07,3.75-1.22,6.89-3.89,9.42-2.66,2.53-6.18,3.8-10.56,3.8s-8.07-1.6-10.87-4.8c-2.8-3.2-4.2-7.26-4.2-12.17v-7.1c0-4.92,1.4-8.98,4.2-12.19,2.8-3.21,6.42-4.81,10.87-4.81s7.98,1.2,10.61,3.6c2.63,2.4,3.91,5.59,3.83,9.55l-.05.16h-5.1c0-2.8-.81-5.01-2.43-6.63-1.62-1.63-3.91-2.44-6.86-2.44s-5.34,1.21-7.1,3.64c-1.76,2.43-2.65,5.44-2.65,9.04v7.15c0,3.63.88,6.67,2.65,9.09,1.76,2.43,4.13,3.64,7.1,3.64s5.24-.81,6.86-2.43,2.43-3.85,2.43-6.7h5.1Z"/>
    <path d="M246.77,50.7c0,4.88-1.49,8.93-4.47,12.15-2.98,3.22-6.85,4.83-11.6,4.83s-8.32-1.61-11.19-4.83c-2.87-3.22-4.31-7.27-4.31-12.15v-7.1c0-4.86,1.44-8.91,4.31-12.15,2.87-3.24,6.6-4.85,11.19-4.85s8.62,1.61,11.6,4.84c2.98,3.23,4.47,7.28,4.47,12.16v7.1ZM241.45,43.54c0-3.66-.97-6.65-2.92-8.99-1.94-2.34-4.55-3.51-7.83-3.51-3.1,0-5.57,1.17-7.41,3.51-1.85,2.34-2.77,5.34-2.77,8.99v7.16c0,3.69.92,6.71,2.77,9.05,1.84,2.34,4.32,3.51,7.41,3.51,3.29,0,5.91-1.17,7.84-3.5,1.94-2.33,2.9-5.35,2.9-9.06v-7.16Z"/>
    <path d="M283.23,67.09h-5.32l-18.93-30.87-.16.05v30.82h-5.32V27.17h5.32l18.93,30.82.16-.05v-30.76h5.32v39.92Z"/>
    <path d="M318.94,31.42h-12.64v35.67h-5.32V31.42h-12.61v-4.25h30.57v4.25Z"/>
    <path d="M329.55,67.09h-5.35V27.17h5.35v39.92Z"/>
    <path d="M367.57,67.09h-5.32l-18.93-30.87-.16.05v30.82h-5.32V27.17h5.32l18.93,30.82.16-.05v-30.76h5.32v39.92Z"/>
    <path d="M404.86,27.17v27.06c0,4.35-1.39,7.68-4.17,9.98-2.78,2.3-6.41,3.45-10.9,3.45s-7.83-1.16-10.52-3.47c-2.69-2.31-4.04-5.63-4.04-9.97v-27.06h5.32v27.04c0,3.01.85,5.3,2.54,6.86,1.69,1.56,3.92,2.34,6.7,2.34,2.92,0,5.27-.78,7.06-2.34,1.79-1.56,2.69-3.85,2.69-6.86v-27.04h5.32Z"/>
    <path d="M442.49,50.7c0,4.88-1.49,8.93-4.47,12.15-2.98,3.22-6.85,4.83-11.6,4.83s-8.32-1.61-11.19-4.83c-2.87-3.22-4.31-7.27-4.31-12.15v-7.1c0-4.86,1.44-8.91,4.31-12.15,2.87-3.24,6.6-4.85,11.19-4.85s8.62,1.61,11.6,4.84c2.98,3.23,4.47,7.28,4.47,12.16v7.1ZM437.17,43.54c0-3.66-.97-6.65-2.92-8.99-1.94-2.34-4.55-3.51-7.83-3.51-3.1,0-5.57,1.17-7.41,3.51-1.85,2.34-2.77,5.34-2.77,8.99v7.16c0,3.69.92,6.71,2.77,9.05,1.84,2.34,4.32,3.51,7.41,3.51,3.29,0,5.91-1.17,7.84-3.5,1.94-2.33,2.9-5.35,2.9-9.06v-7.16Z"/>
    <path d="M478.25,27.17v27.06c0,4.35-1.39,7.68-4.17,9.98-2.78,2.3-6.41,3.45-10.9,3.45s-7.83-1.16-10.52-3.47c-2.69-2.31-4.04-5.63-4.04-9.97v-27.06h5.32v27.04c0,3.01.85,5.3,2.54,6.86,1.69,1.56,3.92,2.34,6.7,2.34,2.92,0,5.27-.78,7.06-2.34,1.79-1.56,2.69-3.85,2.69-6.86v-27.04h5.32Z"/>
    <path d="M507.29,57.04c0-1.82-.68-3.34-2.03-4.56-1.35-1.23-3.75-2.26-7.18-3.09-4.16-1.01-7.4-2.49-9.74-4.45-2.33-1.96-3.5-4.42-3.5-7.39,0-3.11,1.26-5.72,3.77-7.8,2.51-2.09,5.76-3.13,9.76-3.13,4.3,0,7.73,1.2,10.27,3.59,2.55,2.39,3.78,5.17,3.69,8.33l-.05.16h-5.08c0-2.34-.76-4.23-2.28-5.67s-3.7-2.17-6.55-2.17c-2.65,0-4.68.61-6.09,1.82-1.41,1.22-2.12,2.8-2.12,4.76,0,1.74.76,3.18,2.29,4.35,1.53,1.16,4.01,2.18,7.45,3.06,4.14,1.04,7.29,2.58,9.45,4.61s3.24,4.54,3.24,7.54c0,3.22-1.3,5.8-3.89,7.76-2.59,1.96-5.98,2.93-10.15,2.93-3.92,0-7.39-1.08-10.41-3.25-3.02-2.17-4.48-5.06-4.39-8.68l.05-.16h5.08c0,2.56.93,4.51,2.78,5.84,1.85,1.33,4.15,2,6.89,2s4.81-.57,6.37-1.72c1.57-1.15,2.35-2.7,2.35-4.66Z"/>
    <path d="M188.13,127.66h-5.35v-39.92h5.35v39.92Z"/>
    <path d="M226.14,127.66h-5.32l-18.93-30.87-.16.05v30.82h-5.32v-39.92h5.32l18.93,30.82.16-.05v-30.76h5.32v39.92Z"/>
    <path d="M261.85,91.99h-12.64v35.67h-5.32v-35.67h-12.61v-4.25h30.57v4.25Z"/>
    <path d="M290.33,109.16h-18.01v14.26h20.77v4.25h-26.08v-39.92h25.79v4.25h-20.47v12.91h18.01v4.25Z"/>
    <path d="M326.3,122.37c-.94,1.46-2.56,2.81-4.87,4.03-2.31,1.22-5.31,1.84-8.98,1.84-4.7,0-8.58-1.53-11.65-4.58-3.07-3.05-4.6-7-4.6-11.84v-8.23c0-4.84,1.43-8.79,4.29-11.84,2.86-3.05,6.55-4.58,11.07-4.58s8.04,1.12,10.61,3.37c2.57,2.25,3.89,5.15,3.94,8.69l-.05.16h-5.08c-.16-2.32-1.03-4.23-2.61-5.73-1.58-1.5-3.85-2.25-6.82-2.25s-5.43,1.14-7.26,3.42c-1.84,2.28-2.75,5.18-2.75,8.68v8.27c0,3.54,1.03,6.46,3.08,8.75s4.66,3.44,7.83,3.44c2.23,0,4.06-.3,5.48-.9,1.42-.6,2.44-1.29,3.05-2.05v-9.05h-8.61v-4.25h13.93v14.64Z"/>
    <path d="M339.2,110.36v17.3h-5.32v-39.89h14.23c4.3,0,7.59.97,9.86,2.91,2.27,1.94,3.4,4.75,3.4,8.44,0,2.05-.53,3.83-1.58,5.35-1.05,1.52-2.59,2.72-4.6,3.62,2.16.71,3.71,1.87,4.66,3.47.95,1.6,1.42,3.58,1.42,5.94v3.76c0,1.24.13,2.36.4,3.34.27.99.74,1.79,1.4,2.41v.66h-5.48c-.7-.62-1.15-1.54-1.35-2.74-.2-1.21-.3-2.45-.3-3.73v-3.65c0-2.16-.62-3.89-1.86-5.21-1.24-1.32-2.91-1.97-5-1.97h-9.88ZM339.2,106.11h8.37c3.01,0,5.17-.58,6.49-1.74,1.32-1.16,1.98-2.92,1.98-5.29,0-2.24-.64-3.98-1.93-5.21-1.29-1.23-3.29-1.85-6.01-1.85h-8.91v14.09Z"/>
    <path d="M392.6,117.38h-16.47l-3.73,10.28h-5.43l15.2-39.92h4.56l14.96,39.92h-5.43l-3.67-10.28ZM377.78,112.86h13.23l-6.48-18.18h-.16l-6.59,18.18Z"/>
    <path d="M428.64,91.99h-12.64v35.67h-5.32v-35.67h-12.61v-4.25h30.57v4.25Z"/>
    <path d="M439.25,127.66h-5.35v-39.92h5.35v39.92Z"/>
    <path d="M477.72,111.27c0,4.88-1.49,8.93-4.47,12.15-2.98,3.22-6.85,4.83-11.6,4.83s-8.32-1.61-11.19-4.83c-2.87-3.22-4.31-7.26-4.31-12.15v-7.1c0-4.86,1.44-8.91,4.31-12.15,2.87-3.24,6.6-4.85,11.19-4.85s8.62,1.61,11.6,4.84c2.98,3.23,4.47,7.28,4.47,12.16v7.1ZM472.4,104.11c0-3.66-.97-6.65-2.92-8.99-1.94-2.34-4.55-3.51-7.83-3.51-3.1,0-5.57,1.17-7.41,3.51-1.85,2.34-2.77,5.34-2.77,8.99v7.16c0,3.69.92,6.71,2.77,9.05,1.84,2.34,4.32,3.51,7.41,3.51,3.29,0,5.91-1.17,7.84-3.5s2.9-5.35,2.9-9.06v-7.16Z"/>
    <path d="M514.19,127.66h-5.32l-18.93-30.87-.16.05v30.82h-5.32v-39.92h5.32l18.93,30.82.16-.05v-30.76h5.32v39.92Z"/>
    <path d="M545.54,113.84l.73,4.99.16.03,1.05-5.02,7.21-26.1h4.7l7.26,26.1,1.08,5.13h.16l.78-5.13,5.86-26.1h5.32l-9.48,39.92h-4.75l-7.75-27.69-.7-3.59h-.16l-.68,3.59-7.88,27.69h-4.75l-9.45-39.92h5.29l6,26.1Z"/>
    <path d="M613.19,122.37c-.94,1.46-2.56,2.81-4.87,4.03-2.31,1.22-5.31,1.84-8.98,1.84-4.7,0-8.58-1.53-11.65-4.58-3.07-3.05-4.6-7-4.6-11.84v-8.23c0-4.84,1.43-8.79,4.29-11.84,2.86-3.05,6.55-4.58,11.07-4.58s8.04,1.12,10.61,3.37c2.57,2.25,3.89,5.15,3.94,8.69l-.05.16h-5.08c-.16-2.32-1.03-4.23-2.61-5.73-1.58-1.5-3.85-2.25-6.82-2.25s-5.43,1.14-7.26,3.42-2.75,5.18-2.75,8.68v8.27c0,3.54,1.03,6.46,3.08,8.75,2.05,2.29,4.66,3.44,7.83,3.44,2.23,0,4.06-.3,5.48-.9,1.42-.6,2.44-1.29,3.05-2.05v-9.05h-8.61v-4.25h13.93v14.64Z"/>
  </g>
</svg>