<?xml version="1.0" encoding="UTF-8" standalone="no"?>
<!-- Generator: Adobe Illustrator 22.0.1, SVG Export Plug-In . SVG Version: 6.00 Build 0)  -->

<svg
   version="1.1"
   id="Layer_1"
   x="0px"
   y="0px"
   viewBox="0 0 257 136.9"
   style="enable-background:new 0 0 257 136.9;"
   xml:space="preserve"
   sodipodi:docname="aswf-text-gold.svg"
   inkscape:version="1.3 (0e150ed, 2023-07-21)"
   xmlns:inkscape="http://www.inkscape.org/namespaces/inkscape"
   xmlns:sodipodi="http://sodipodi.sourceforge.net/DTD/sodipodi-0.dtd"
   xmlns="http://www.w3.org/2000/svg"
   xmlns:svg="http://www.w3.org/2000/svg"><defs
   id="defs19" /><sodipodi:namedview
   id="namedview19"
   pagecolor="#ffffff"
   bordercolor="#666666"
   borderopacity="1.0"
   inkscape:showpageshadow="2"
   inkscape:pageopacity="0.0"
   inkscape:pagecheckerboard="0"
   inkscape:deskcolor="#d1d1d1"
   inkscape:zoom="1.932638"
   inkscape:cx="128.32202"
   inkscape:cy="68.559142"
   inkscape:window-width="1008"
   inkscape:window-height="480"
   inkscape:window-x="0"
   inkscape:window-y="25"
   inkscape:window-maximized="0"
   inkscape:current-layer="Layer_1" />&#10;<style
   type="text/css"
   id="style1">&#10;	.st0{fill:#BA9D5C;}&#10;</style>&#10;<polygon
   class="st0"
   points="14.9,0 13.2,0 0,37.2 1.7,37.2 "
   id="polygon1" />&#10;<polygon
   class="st0"
   points="24.2,14.9 25.8,14.9 25.4,9.1 29.9,12.1 30.7,10.7 25.7,8.3 30.7,5.9 29.9,4.5 25.4,7.5 25.8,1.8   24.2,1.8 24.6,7.5 20.1,4.5 19.3,5.9 24.3,8.3 19.3,10.7 20.1,12.1 24.6,9.1 "
   id="polygon2" />&#10;<path
   class="st0"
   d="M50,23.6h14.2l3.1,8h1.8L57.4,1.5h-0.5L45.2,31.6H47L50,23.6z M56.3,7.4c0.4-1,0.8-2.5,0.8-2.7  c0,0.1,0.4,1.7,0.8,2.7L63.6,22h-13L56.3,7.4z"
   id="path2" />&#10;<path
   class="st0"
   d="M86.4,31.9c5,0,9.2-2.1,11.8-5.9l-1.3-1c-2.3,3.4-6,5.3-10.5,5.3c-7.4,0-13-5.8-13-13.6S79,3.1,86.4,3.1  c4.6,0,8,1.9,10.1,5l1.3-1c-2.4-3.6-6.4-5.6-11.4-5.6c-8.1,0-14.7,6.2-14.7,15.2S78.2,31.9,86.4,31.9z"
   id="path3" />&#10;<path
   class="st0"
   d="M106.4,23.6h14.2l3.1,8h1.8L113.8,1.5h-0.5l-11.6,30.1h1.7L106.4,23.6z M112.7,7.4c0.4-1,0.8-2.5,0.8-2.7  c0,0.1,0.4,1.7,0.8,2.7L120,22h-13L112.7,7.4z"
   id="path4" />&#10;<path
   class="st0"
   d="M153.6,16.7c0-9.1-5.8-14.9-15.7-14.9h-6.1v29.7h6.1C147.8,31.6,153.6,25.8,153.6,16.7z M133.4,30V3.5h4.2  c9.5,0,14.1,5.5,14.1,13.3S147.1,30,137.6,30H133.4z"
   id="path5" />&#10;<polygon
   class="st0"
   points="177.7,30 162.1,30 162.1,17.4 175.6,17.4 175.6,15.8 162.1,15.8 162.1,3.4 177.1,3.4 177.1,1.8   160.3,1.8 160.3,31.6 177.7,31.6 "
   id="polygon5" />&#10;<path
   class="st0"
   d="M186.2,8c0-1-0.1-2.6-0.1-2.6s0.8,1.5,1.6,2.4l10,13.7h0.5l10.1-13.7c0.8-1,1.6-2.4,1.6-2.4s-0.1,1.5-0.1,2.6  v23.6h1.7V1.5H211l-13,17.7L185,1.5h-0.4v30.1h1.7V8z"
   id="path6" />&#10;<path
   class="st0"
   d="M227.6,31.6h1.8V20.7l10-18.9h-1.8l-8.3,15.6c-0.4,0.7-0.8,1.7-0.8,1.8c0-0.2-0.3-1.1-0.7-1.8l-8.3-15.6h-1.9  l10,18.8V31.6z"
   id="path7" />&#10;<path
   class="st0"
   d="M18.5,76.8c0-4.1-2.2-6.6-6.9-8.8l-2.7-1.3c-3.6-1.7-5-3.1-5-6.1c0-3,2-5,5.4-5c3.2,0,4.8,1.7,6,3.6l1.4-0.9  C15.3,56,13.2,54,9.3,54c-3.9,0-7.1,2.5-7.1,6.6c0,3.8,2,5.7,6,7.7l2.7,1.3c4,1.9,5.9,3.8,5.9,7.3c0,3.8-3.1,6-6.9,6  c-4.6,0-6.8-2.5-8.1-5.1l-1.5,0.7c1.4,3,4.2,5.9,9.7,5.9C14.9,84.4,18.5,81.4,18.5,76.8z"
   id="path8" />&#10;<path
   class="st0"
   d="M37.8,84.4c8.1,0,14.7-6.2,14.7-15.2S45.9,54,37.8,54c-8.1,0-14.7,6.2-14.7,15.2S29.7,84.4,37.8,84.4z   M37.8,55.6c7.4,0,13,5.8,13,13.6s-5.5,13.6-13,13.6c-7.4,0-13-5.8-13-13.6S30.4,55.6,37.8,55.6z"
   id="path9" />&#10;<polygon
   class="st0"
   points="61.1,70.6 74.7,70.6 74.7,69 61.1,69 61.1,55.9 76.1,55.9 76.1,54.3 59.3,54.3 59.3,84.1 61.1,84.1 "
   id="polygon9" />&#10;<polygon
   class="st0"
   points="89.5,84.1 91.2,84.1 91.2,55.9 100.3,55.9 100.3,54.3 80.3,54.3 80.3,55.9 89.5,55.9 "
   id="polygon10" />&#10;<path
   class="st0"
   d="M132,78.2c-0.3,0.8-0.5,2-0.5,2.1c0-0.2-0.3-1.4-0.5-2.1L122.7,54h-0.5L114,78.2c-0.3,0.8-0.6,2-0.6,2.1  c0-0.2-0.3-1.4-0.5-2.1l-7-23.9h-1.9l9,30.1h0.5l8.4-24.7c0.3-0.8,0.5-2,0.5-2.1c0,0.3,0.2,1.4,0.5,2.1l8.4,24.7h0.5l9-30.1H139  L132,78.2z"
   id="path10" />&#10;<path
   class="st0"
   d="M146.8,76.1H161l3.1,8h1.8L154.2,54h-0.5L142,84.1h1.7L146.8,76.1z M153.1,59.9c0.4-1,0.8-2.5,0.8-2.7  c0,0.1,0.4,1.7,0.8,2.7l5.6,14.6h-13L153.1,59.9z"
   id="path11"
   style="fill:#ba9d5c;opacity:0.92191436" />&#10;<path
   class="st0"
   d="M189.8,63.1c0-5.8-3.9-8.7-10-8.7h-7.7v29.7h1.7V71.8h6c0.7,0,1.3,0,1.9-0.1l7,12.4h2.1l-7.2-12.7  C187.5,70.2,189.8,67.4,189.8,63.1z M179.6,70.2h-5.8V55.9h5.8c5.5,0,8.4,2.4,8.4,7.2C188,67.7,185.1,70.2,179.6,70.2z"
   id="path12" />&#10;<polygon
   class="st0"
   points="214.8,82.5 199.2,82.5 199.2,69.9 212.7,69.9 212.7,68.3 199.2,68.3 199.2,55.9 214.2,55.9 214.2,54.3   197.4,54.3 197.4,84.1 214.8,84.1 "
   id="polygon12" />&#10;<polygon
   class="st0"
   points="0.1,136.5 1.9,136.5 1.9,123.1 15.5,123.1 15.5,121.5 1.9,121.5 1.9,108.4 16.9,108.4 16.9,106.8   0.1,106.8 "
   id="polygon13" />&#10;<path
   class="st0"
   d="M35.8,106.5c-8.1,0-14.7,6.2-14.7,15.2c0,9.1,6.6,15.2,14.7,15.2s14.7-6.2,14.7-15.2  C50.6,112.6,44,106.5,35.8,106.5z M35.8,135.3c-7.4,0-13-5.8-13-13.6c0-7.8,5.5-13.6,13-13.6s13,5.8,13,13.6  C48.8,129.5,43.2,135.3,35.8,135.3z"
   id="path13" />&#10;<path
   class="st0"
   d="M74.7,126.5c0,5.7-3.3,8.8-8,8.8c-4.7,0-8-3.1-8-8.8v-19.7H57v19.9c0,6.7,4.1,10.2,9.7,10.2  c5.5,0,9.7-3.5,9.7-10.2v-19.9h-1.7V126.5z"
   id="path14" />&#10;<path
   class="st0"
   d="M105,130.9c0,0.9,0.1,2.2,0.1,2.2s-0.8-1.2-1.3-2l-18.4-24.7h-0.5v30.1h1.6v-24.1c0-0.9-0.1-2.2-0.1-2.2  s0.8,1.2,1.3,2l18.4,24.7h0.5v-30.1H105V130.9z"
   id="path15" />&#10;<path
   class="st0"
   d="M121.5,106.8h-6.1v29.7h6.1c10,0,15.7-5.7,15.7-14.9S131.4,106.8,121.5,106.8z M121.3,134.9h-4.2v-26.5h4.2  c9.5,0,14.1,5.5,14.1,13.3C135.4,129.5,130.8,134.9,121.3,134.9z"
   id="path16" />&#10;<path
   class="st0"
   d="M151.4,106.5l-11.6,30.1h1.7l3-8h14.2l3.1,8h1.8L152,106.5H151.4z M158.2,127h-13l5.6-14.7  c0.4-1,0.8-2.5,0.8-2.7c0,0.1,0.4,1.7,0.8,2.7L158.2,127z"
   id="path17" />&#10;<polygon
   class="st0"
   points="163.9,108.4 173.1,108.4 173.1,136.5 174.8,136.5 174.8,108.4 184,108.4 184,106.8 163.9,106.8 "
   id="polygon17" />&#10;<rect
   x="189.9"
   y="106.8"
   class="st0"
   width="1.7"
   height="29.7"
   id="rect17" />&#10;<path
   class="st0"
   d="M213.3,106.5c-8.1,0-14.7,6.2-14.7,15.2c0,9.1,6.6,15.2,14.7,15.2c8.1,0,14.7-6.2,14.7-15.2  C228,112.6,221.4,106.5,213.3,106.5z M213.3,135.3c-7.4,0-13-5.8-13-13.6c0-7.8,5.5-13.6,13-13.6c7.4,0,13,5.8,13,13.6  C226.3,129.5,220.7,135.3,213.3,135.3z"
   id="path18" />&#10;<path
   class="st0"
   d="M254.9,106.8v24.1c0,0.9,0.1,2.2,0.1,2.2s-0.8-1.2-1.3-2l-18.4-24.7h-0.5v30.1h1.6v-24.1c0-0.9-0.1-2.2-0.1-2.2  s0.8,1.2,1.3,2l18.4,24.7h0.5v-30.1H254.9z"
   id="path19" />&#10;</svg>
