<?xml version="1.0" encoding="utf-8"?>
<!-- Generator: Adobe Illustrator 24.2.0, SVG Export Plug-In . SVG Version: 6.00 Build 0)  -->
<svg version="1.1" id="Layer_1" xmlns="http://www.w3.org/2000/svg" xmlns:xlink="http://www.w3.org/1999/xlink" x="0px" y="0px"
	 viewBox="0 0 1000 265" style="enable-background:new 0 0 1000 265;" xml:space="preserve">
<style type="text/css">
	.st0{fill:#FFFFFF;}
	.st1{fill:none;}
	.st2{fill:#B4B4B4;}
	.st3{fill:#676767;}
	.st4{fill:#E6E6E5;}
	.st5{fill:#541431;}
	.st6{fill:#C92F3B;}
	.st7{fill:#891720;}
	.st8{fill:#DD8799;}
	.st9{fill:#010101;}
</style>
<g>
	<g>
		<path class="st5" d="M390.4,181.6c-7.9,0-15.1-1.4-21.7-4.2c-6.6-2.8-12.3-6.6-17-11.4c-4.7-4.9-8.4-10.6-11.1-17.2
			c-2.7-6.6-4-13.8-4-21.4c0-7.7,1.3-14.8,4-21.4c2.7-6.6,6.4-12.3,11.1-17.2c4.7-4.9,10.4-8.7,17-11.4c6.6-2.8,13.8-4.2,21.7-4.2
			c7.9,0,15.1,1.4,21.7,4.2c6.6,2.8,12.3,6.6,17,11.4c4.7,4.9,8.4,10.6,11.1,17.2c2.7,6.6,4,13.8,4,21.4c0,7.7-1.3,14.8-4,21.4
			c-2.7,6.6-6.4,12.3-11.1,17.2c-4.7,4.9-10.4,8.7-17,11.4C405.5,180.2,398.2,181.6,390.4,181.6z M390.4,168.4
			c5.9,0,11.3-1.1,16-3.3c4.8-2.2,8.8-5.1,12.2-8.8c3.4-3.7,6-8,7.9-13c1.8-5,2.8-10.3,2.8-16c0-5.6-0.9-11-2.8-16
			c-1.8-5-4.5-9.4-7.9-13c-3.4-3.7-7.5-6.6-12.2-8.8c-4.8-2.2-10.1-3.3-16-3.3c-5.9,0-11.3,1.1-16,3.3c-4.8,2.2-8.8,5.1-12.2,8.8
			c-3.4,3.7-6,8-7.9,13c-1.8,5-2.8,10.3-2.8,16c0,5.6,0.9,11,2.8,16c1.8,5,4.5,9.4,7.9,13c3.4,3.7,7.5,6.6,12.2,8.8
			C379.1,167.3,384.4,168.4,390.4,168.4z"/>
		<path class="st5" d="M458,109.8h13.1v9.9h0.3c2.5-3.7,6-6.6,10.4-8.6c4.4-2,9-3.1,13.6-3.1c5.3,0,10.2,0.9,14.5,2.8
			c4.3,1.8,8,4.4,11.1,7.7c3.1,3.3,5.4,7.2,7.1,11.6c1.7,4.4,2.5,9.2,2.5,14.2c0,5.2-0.8,9.9-2.5,14.4c-1.7,4.4-4,8.3-7.1,11.5
			c-3.1,3.3-6.8,5.8-11.1,7.7c-4.3,1.8-9.2,2.8-14.5,2.8c-5,0-9.6-1-14-3.1c-4.4-2.1-7.7-4.9-10.1-8.5h-0.3v51H458V109.8z
			 M493.9,120.3c-3.5,0-6.7,0.6-9.5,1.8c-2.8,1.2-5.2,2.9-7.1,5c-1.9,2.1-3.5,4.6-4.5,7.6c-1.1,3-1.6,6.2-1.6,9.7
			c0,3.5,0.5,6.7,1.6,9.7c1.1,3,2.6,5.5,4.5,7.6c1.9,2.1,4.3,3.7,7.1,5c2.8,1.2,6,1.8,9.5,1.8s6.7-0.6,9.5-1.8
			c2.8-1.2,5.2-2.9,7.1-5c1.9-2.1,3.4-4.6,4.5-7.6c1.1-3,1.6-6.2,1.6-9.7c0-3.5-0.5-6.7-1.6-9.7c-1.1-3-2.6-5.5-4.5-7.6
			c-1.9-2.1-4.3-3.7-7.1-5C500.5,120.9,497.4,120.3,493.9,120.3z"/>
		<path class="st5" d="M557,149.2c0,3,0.7,5.8,2,8.2c1.3,2.5,3,4.6,5.2,6.3c2.1,1.7,4.6,3.1,7.4,4.1c2.8,1,5.7,1.5,8.7,1.5
			c4.1,0,7.6-0.9,10.6-2.8c3-1.9,5.8-4.4,8.3-7.5l9.9,7.6c-7.3,9.4-17.5,14.1-30.6,14.1c-5.4,0-10.4-0.9-14.8-2.8
			c-4.4-1.8-8.2-4.4-11.2-7.7c-3.1-3.3-5.4-7.1-7.1-11.5c-1.7-4.4-2.5-9.2-2.5-14.4c0-5.2,0.9-9.9,2.7-14.4
			c1.8-4.4,4.3-8.3,7.4-11.5c3.2-3.3,6.9-5.8,11.3-7.7c4.4-1.8,9.1-2.8,14.3-2.8c6.1,0,11.3,1.1,15.5,3.2c4.2,2.1,7.7,4.9,10.4,8.4
			c2.7,3.5,4.7,7.3,5.9,11.7c1.2,4.3,1.8,8.7,1.8,13.2v4.7H557z M598.4,138.7c-0.1-2.9-0.6-5.6-1.4-8c-0.8-2.4-2.1-4.5-3.7-6.3
			c-1.7-1.8-3.7-3.2-6.2-4.2c-2.5-1-5.4-1.5-8.7-1.5c-3.2,0-6.1,0.6-8.8,1.8c-2.7,1.2-4.9,2.8-6.8,4.7c-1.8,1.9-3.3,4.1-4.3,6.5
			c-1,2.4-1.5,4.7-1.5,7.1H598.4z"/>
		<path class="st5" d="M625.2,109.8h13.1v10.6h0.3c1.7-3.7,4.5-6.7,8.6-9c4.1-2.3,8.8-3.4,14.1-3.4c3.3,0,6.5,0.5,9.5,1.5
			c3.1,1,5.7,2.6,8,4.7c2.3,2.1,4.1,4.9,5.5,8.2c1.4,3.4,2,7.3,2,11.9v44.5h-13.1v-40.8c0-3.2-0.4-6-1.3-8.2c-0.9-2.3-2-4.1-3.5-5.5
			c-1.5-1.4-3.1-2.4-5-3.1c-1.9-0.6-3.9-0.9-5.9-0.9c-2.7,0-5.2,0.4-7.6,1.3s-4.4,2.3-6.1,4.2c-1.7,1.9-3.1,4.3-4.1,7.2
			c-1,2.9-1.5,6.4-1.5,10.4v35.6h-13.1V109.8z"/>
		<path class="st6" d="M710.6,75.7h70.1v21h-47.4V116h44.8v21h-44.8v21h50v21h-72.7V75.7z"/>
		<path class="st6" d="M827.3,125l-34.1-49.3h28.6l22,36.2l21.1-36.2h27.6L859,124.6l37.3,54.4h-28.6l-25.2-41.5l-24.5,41.5h-27
			L827.3,125z"/>
		<path class="st6" d="M906.9,75.7h39.9c5.2,0,10.2,0.5,14.9,1.5c4.7,1,8.8,2.7,12.4,5.1c3.5,2.4,6.4,5.6,8.5,9.6
			c2.1,4,3.1,9.1,3.1,15.1c0,7.3-1.9,13.5-5.7,18.6c-3.8,5.1-9.3,8.3-16.6,9.7l26.2,43.6h-27.3l-21.6-41.3h-11.2v41.3h-22.7V75.7z
			 M929.6,118.4H943c2,0,4.2-0.1,6.5-0.2c2.3-0.1,4.3-0.6,6.2-1.3c1.8-0.7,3.4-1.9,4.6-3.4c1.2-1.6,1.8-3.7,1.8-6.6
			c0-2.6-0.5-4.7-1.6-6.3c-1.1-1.6-2.4-2.7-4.1-3.6c-1.7-0.8-3.5-1.4-5.7-1.7c-2.1-0.3-4.2-0.4-6.3-0.4h-14.9V118.4z"/>
	</g>
	<g>
		<path class="st1" d="M145.4,77.5c-0.3,0.3-0.6,0.5-0.9,0.8h0C144.8,78,145.1,77.7,145.4,77.5z"/>
		<path class="st1" d="M199.3,47.8c-17,3-35.2,9.6-47.6,23.1C164.1,57.4,182.3,50.8,199.3,47.8z"/>
		<path class="st5" d="M139.4,195.5c-19.1,13.7-48.5,21.5-72.1,25.9c-1.2,0.2-2.3,0.4-3.5,0.6l0,0c-0.5,0.1-1.1,0.2-1.6,0.3l25.7,32
			l192.3-33.9l-35-43.6L139.4,195.5z"/>
		<polygon class="st7" points="62.2,166.5 49.6,150.9 49.6,150.9 62.9,167.3 62.9,167.3 		"/>
		<path class="st7" d="M141.9,137.7C123,152.6,92,161,67.3,165.6C92,161,123,152.6,141.9,137.7z"/>
		<path class="st7" d="M63.8,222.1c1.1-0.2,2.3-0.4,3.5-0.6c23.7-4.4,53.1-12.3,72.1-25.9l-50.5,8.9l-3.5,0.6l-2.2-2.8l-5.7-7.1
			c-7.9-1.4-15.6-5.4-20-10.7c-4.3-5.4-4-10.8-0.1-14.2L42.8,152l-32.5,5.7l51.8,64.6C62.7,222.2,63.2,222.2,63.8,222.1L63.8,222.1z
			"/>
		<polygon class="st5" points="62.9,167.3 85.5,195.6 62.9,167.3 		"/>
		<path class="st5" d="M57.5,184.4c4.3,5.4,12.1,9.3,20,10.7l-20-24.9C53.4,173.7,53.2,179,57.5,184.4z"/>
		<path class="st7" d="M141.9,137.7C123,152.6,92,161,67.3,165.6c-1.2,0.2-2.3,0.4-3.5,0.6l0,0c-0.5,0.1-1.1,0.2-1.6,0.3l0.7,0.9
			l22.7,28.2l2.3,2.9l60.5-10.7l92.5-16.3l39.3-6.9l-36-44.8L141.9,137.7z"/>
		<path class="st6" d="M144.5,78.3c-18.6,16.2-51.4,25.2-77.3,30C93.2,103.4,126,94.4,144.5,78.3L144.5,78.3z"/>
		<polygon class="st6" points="62.9,110.1 63.8,111.2 63.8,111.2 		"/>
		<polygon class="st6" points="87.8,141.1 133.8,133 87.8,141.1 		"/>
		<path class="st6" d="M63.8,166.2L63.8,166.2c1.1-0.2,2.3-0.4,3.5-0.6c24.8-4.6,55.8-13,74.7-27.8l-53.1,9.4l-3.5,0.6l-2.2-2.8
			l-4.4-5.4c-8.3-1.1-16.7-5.3-21.3-10.9c-4.6-5.7-4-11.4,0.6-14.8l-0.6-0.8L43.9,96l-33.5,5.9L38,136.4l11.6,14.5l12.5,15.6
			C62.7,166.4,63.2,166.3,63.8,166.2z"/>
		<path class="st7" d="M57.5,128.5c4.6,5.7,13,9.8,21.3,10.9l-20.7-25.7C53.5,117.2,52.9,122.9,57.5,128.5z"/>
		<polygon class="st7" points="63.8,111.2 70.2,119.2 63.8,111.2 		"/>
		<path class="st6" d="M199.7,47.7c-0.1,0-0.1,0-0.2,0c-0.1,0-0.1,0-0.2,0c-17,3-35.2,9.6-47.6,23.1c-0.5,0.5-1,1.1-1.5,1.7
			c-0.4,0.5-0.8,1-1.3,1.4c-0.9,1-1.9,2-2.9,2.9c-0.2,0.2-0.5,0.4-0.7,0.6c-0.3,0.3-0.6,0.5-0.9,0.8c-18.6,16.2-51.4,25.2-77.3,30
			c-1.2,0.2-2.3,0.4-3.5,0.6l0,0c-0.5,0.1-1.1,0.2-1.6,0.3l0.7,0.9l0.9,1.1l6.4,8l17.6,22l45.9-8.1l16.2-2.9l89.9-15.9l6.8-1.2
			l33.5-5.9l-49.6-61.8c-0.5,0-1.1,0-1.6,0C220.8,45.3,210.5,45.8,199.7,47.7z"/>
		<path class="st8" d="M50.6,94.8l11.5,14.3c0.5-0.1,1.1-0.2,1.6-0.3l0,0c1.1-0.2,2.3-0.4,3.5-0.6c25.9-4.8,58.7-13.8,77.3-30
			c0.3-0.3,0.6-0.5,0.9-0.8c0.2-0.2,0.5-0.4,0.7-0.6c1-0.9,2-1.9,2.9-2.9c0.4-0.5,0.9-0.9,1.3-1.4c0.5-0.6,1-1.1,1.5-1.7
			c12.4-13.5,30.5-20.1,47.6-23.1c0.1,0,0.1,0,0.2,0c0.1,0,0.1,0,0.2,0c10.8-1.9,21.2-2.4,29.3-2.3c0.5,0,1.1,0,1.6,0L206.1,15
			l-3.4-4.3L98.7,29L10.3,44.6l36,44.8L50.6,94.8z M65.3,53.6c10.6-1.9,24.4,3,30.7,10.9c6.3,7.9,2.8,15.8-7.8,17.6
			s-24.4-3-30.7-10.9C51.2,63.4,54.7,55.5,65.3,53.6z"/>
		
			<ellipse transform="matrix(0.294 -0.9558 0.9558 0.294 -10.6593 121.2195)" class="st6" cx="76.7" cy="67.8" rx="13.6" ry="23.1"/>
	</g>
</g>
</svg>
