<svg id="Layer_1" data-name="Layer 1" xmlns="http://www.w3.org/2000/svg" viewBox="0 0 700 195"><path d="M317.62936,24.28093a3.05394,3.05394,0,0,1,2.92377-3.08674h39.63965c31.35385,0,57.0217,25.50535,57.0217,56.69672a57.09494,57.09494,0,0,1-57.0217,57.02169H320.55313a3.05394,3.05394,0,0,1-2.92377-3.08675Zm40.93854,86.5882c18.357,0,31.67883-14.45829,31.67883-32.97822,0-18.35745-13.32186-32.81573-31.67883-32.81573H342.97223v65.794Z"/><path d="M437.03281,24.28093a3.08471,3.08471,0,0,1,3.0827-3.08674h39.15567c19.98181,0,36.38995,16.24563,36.38995,35.90247a36.54044,36.54044,0,0,1-36.22744,36.55242h-17.058v38.17679a3.19466,3.19466,0,0,1-3.08624,3.08674H440.12a3.0847,3.0847,0,0,1-3.08722-3.08221v-.00453Zm40.77606,45.64965a12.75739,12.75739,0,0,0,12.83441-12.6799q.00047-.077,0-.154c0-6.82292-5.84851-12.02148-12.83441-12.02148h-15.4332v24.8554Z"/><path d="M532.23279,24.28093a3.08471,3.08471,0,0,1,3.0827-3.08674h67.2608a3.08451,3.08451,0,0,1,3.08625,3.08278V41.98844a3.08484,3.08484,0,0,1-3.08295,3.08674h-45.004v20.1443h37.03986a3.19554,3.19554,0,0,1,3.08722,3.08674v17.7075a3.085,3.085,0,0,1-3.08325,3.08674H557.57562v21.93115h45.00067a3.08486,3.08486,0,0,1,3.08625,3.08342v17.71082a3.08452,3.08452,0,0,1-3.08228,3.08675H535.32a3.08475,3.08475,0,0,1-3.08722-3.08222V24.28093Z"/><path d="M627.43268,24.28093a3.08471,3.08471,0,0,1,3.0827-3.08674h19.33643a3.19471,3.19471,0,0,1,3.08624,3.08674v86.75068h38.66473a3.08419,3.08419,0,0,1,3.08625,3.08214v17.7121a3.08387,3.08387,0,0,1-3.081,3.08675H630.52a3.08476,3.08476,0,0,1-3.08722-3.08222v-.00453Z"/><path d="M316.58749,154.07951a.36642.36642,0,0,1,.33579-.36387h5.93713a9.8015,9.8015,0,1,1,.11283,19.60267q-.05644.00033-.11283,0h-5.9371a.36691.36691,0,0,1-.33579-.36436Zm6.04889,18.03446a8.59763,8.59763,0,0,0,.16758-17.19444q-.08378-.00083-.16758,0h-4.73275V172.114Z"/><path d="M335.74655,155.70389a.95243.95243,0,0,1,1.904-.05751q.00087.02874,0,.05751a.95245.95245,0,0,1-1.904,0Zm.33631,6.77664a.37045.37045,0,0,1,.36386-.36388h.50421a.37046.37046,0,0,1,.36386.36388V172.954a.32553.32553,0,0,1-.36386.36437h-.56034a.3261.3261,0,0,1-.30966-.34172l.00193-.02265Z"/><path d="M342.27206,169.36945a4.87214,4.87214,0,0,1-.86807-2.79969,4.58838,4.58838,0,0,1,4.90067-4.73326h4.59292a.35285.35285,0,0,1,.36389.34145q.00033.01146,0,.02292v.30774a.32916.32916,0,0,1-.2521.33628l-2.0163.13985a3.81064,3.81064,0,0,1,1.73664,3.585,4.51562,4.51562,0,0,1-4.37912,4.64811q-.135.004-.26993,0a4.2481,4.2481,0,0,1-3.05228-1.00839,2.30572,2.30572,0,0,0-1.4284,2.01679c0,1.31663,1.12017,1.62388,2.21228,1.62388h4.06066c2.40873,0,4.14438,1.0921,4.14438,3.58454,0,2.38116-2.296,4.56535-5.71261,4.56535-3.80857,0-5.46051-2.24033-5.46051-4.14487a3.48661,3.48661,0,0,1,1.76419-2.9405,2.79749,2.79749,0,0,1-2.18421-2.54856A3.54728,3.54728,0,0,1,342.27206,169.36945Zm4.005,11.48233c2.52,0,4.45261-1.485,4.45261-3.38857,0-1.28807-.78437-2.46486-2.85679-2.46486h-3.52838a3.03875,3.03875,0,0,0-2.2684,2.717c0,1.54011,1.48453,3.13643,4.201,3.13643Zm3.27631-14.31058a3.32892,3.32892,0,0,0-3.44471-3.58453,3.43327,3.43327,0,0,0-3.55755,3.30435q-.00518.14005.0011.28018a3.35513,3.35513,0,0,0,3.55645,3.58453,3.39072,3.39072,0,0,0,3.44977-3.33063q.00225-.127-.005-.2539Z"/><path d="M354.17587,155.70389a.95267.95267,0,0,1,1.90454-.05518q.00078.02759,0,.05518a.95271.95271,0,0,1-1.90454,0Zm.33679,6.77664a.37.37,0,0,1,.36338-.36388h.50418a.37091.37091,0,0,1,.36438.36388V172.954a.32569.32569,0,0,1-.36438.36437h-.55933a.32642.32642,0,0,1-.31009-.342l.00186-.02239Z"/><path d="M360.47934,163.20876h-1.31662c-.27969,0-.33582-.13984-.33582-.36388v-.44806c0-.196.13984-.28017.33582-.28017h1.31662v-3.05227a.35276.35276,0,0,1,.34076-.36434q.01131-.00039.02261,0l.47663-.02807a.37133.37133,0,0,1,.36435.36436v3.08034h3.89178a.35286.35286,0,0,1,.36435.341q.00036.01146,0,.02291v.36437a.33816.33816,0,0,1-.36435.36388h-3.89178v7.14149c0,1.31564.13983,2.04437,1.45547,2.04437a5.98767,5.98767,0,0,0,2.54855-.7563c.25211-.13985.36438-.02856.44806.11226l.196.33582a.32189.32189,0,0,1-.08371.47564,5.5767,5.5767,0,0,1-3.24872,1.036c-2.324,0-2.52-1.37178-2.52-3.164Z"/><path d="M373.02621,166.09312a9.20627,9.20627,0,0,1,2.82825.5042c0-2.46437-.2521-3.69679-2.46487-3.69679a8.22748,8.22748,0,0,0-3.36.7563.29288.29288,0,0,1-.4205-.224l-.13983-.33581c-.08371-.25211.02856-.36437.16839-.42a8.09941,8.09941,0,0,1,3.83664-.84049c3.41614,0,3.556,2.04436,3.556,4.90067V172.954a.37043.37043,0,0,1-.36337.36437h-.33679c-.196,0-.27966-.11226-.33579-.30823l-.11227-1.00839a5.84865,5.84865,0,0,1-3.89178,1.5963,3.528,3.528,0,0,1-3.67182-3.37808q-.00719-.17311.0026-.3463C368.321,167.717,370.08569,166.09312,373.02621,166.09312Zm-.89611,6.41277a5.09682,5.09682,0,0,0,3.72436-1.73613v-3.08034a7.27173,7.27173,0,0,0-2.82825-.5879c-2.12905,0-3.557,1.0921-3.557,2.74453a2.52829,2.52829,0,0,0,2.66086,2.65986Z"/><path d="M381.17709,154.07951a.3709.3709,0,0,1,.36435-.36387h.50421a.37.37,0,0,1,.36338.36387V172.954a.325.325,0,0,1-.36338.36437h-.56033a.32643.32643,0,0,1-.31009-.342l.00186-.02236Z"/><path d="M393.58508,154.07951a.37089.37089,0,0,1,.36435-.36387h6.02085a6.31481,6.31481,0,1,1,.04425,12.62954l-.01569,0H394.9017V172.954c0,.196-.16839.36437-.44806.36437h-.50421a.37131.37131,0,0,1-.36435-.36437Zm6.32907,10.97765a5.10933,5.10933,0,0,0,5.06858-5.09663,5.027,5.027,0,0,0-5.09613-4.92873h-4.98487v10.02537Z"/><path d="M408.8233,162.48053a.37089.37089,0,0,1,.36435-.36388h.33579a.33351.33351,0,0,1,.33581.30823l.11228,1.14822a4.29727,4.29727,0,0,1,3.50082-1.73661,4.62681,4.62681,0,0,1,1.73615.33629c.25207.0837.39193.27966.30822.50419l-.22451.55985c-.08371.196-.25211.224-.44806.13983a3.569,3.569,0,0,0-1.45548-.3358,3.93725,3.93725,0,0,0-3.33343,1.9321v7.981a.325.325,0,0,1-.36338.36436h-.56033a.32642.32642,0,0,1-.31009-.342l.00186-.02238Z"/><path d="M422.60309,161.8365a5.88639,5.88639,0,1,1-5.62335,6.13819q-.00622-.14256-.00556-.28525A5.75159,5.75159,0,0,1,422.60309,161.8365Zm0,10.61327a4.72824,4.72824,0,1,0-4.415-5.022q-.00837.1307-.00955.26167a4.54616,4.54616,0,0,0,4.32541,4.75672Q422.5535,172.44849,422.60309,172.44977Z"/><path d="M436.35629,161.8365a5.6535,5.6535,0,0,1,3.4447,1.12017v-8.87714a.35262.35262,0,0,1,.341-.36386c.00747-.00025.01495-.00025.0224,0h.50418a.36607.36607,0,0,1,.33581.36388V172.954a.37043.37043,0,0,1-.36337.36437h-.28067a.35991.35991,0,0,1-.39194-.36437l-.08371-.97984a5.42731,5.42731,0,0,1-3.8652,1.62389c-2.91193,0-5.17984-2.60372-5.17984-5.881a5.58156,5.58156,0,0,1,5.27423-5.8728Q436.235,161.83773,436.35629,161.8365Zm-.2521,10.64183a4.44756,4.44756,0,0,0,3.6968-1.98823v-6.27294a5.2744,5.2744,0,0,0-3.33242-1.1763,4.40478,4.40478,0,0,0-4.40537,4.40418q0,.13607.00836.272C432.07159,170.3217,433.75159,172.47833,436.10419,172.47833Z"/><path d="M445.096,162.48053a.37.37,0,0,1,.36337-.36388h.50421a.3709.3709,0,0,1,.36438.36388v6.02133c0,2.60372,1.20435,3.92034,3.33243,3.92034a4.66454,4.66454,0,0,0,3.69681-1.96067v-7.981a.33782.33782,0,0,1,.36337-.36388h.50421a.37089.37089,0,0,1,.36435.36388V172.954a.3713.3713,0,0,1-.36435.36437H453.889c-.22452,0-.30823-.1684-.33579-.3358l-.11227-1.0921a5.10448,5.10448,0,0,1-3.8642,1.70758c-3.13647,0-4.48068-1.93212-4.48068-5.09615Z"/><path d="M463.88828,161.8365a5.4143,5.4143,0,0,1,4.14486,1.76421.336.336,0,0,1-.05615.50419l-.27966.28017c-.197.196-.42051.11177-.5889-.05614a4.66867,4.66867,0,1,0-3.24774,8.09328,4.5251,4.5251,0,0,0,3.49984-1.65243c.196-.22355.36435-.22355.53275-.05614l.30725.28065c.14084.13985.196.27968.08469.44808a5.58256,5.58256,0,0,1-4.397,2.15565,5.88076,5.88076,0,1,1-.01886-11.7615q.00943,0,.01886,0Z"/><path d="M472.181,163.20876h-1.31662c-.27969,0-.33582-.13984-.33582-.36388v-.44806c0-.196.13984-.28017.33582-.28017H472.181v-3.05227a.35276.35276,0,0,1,.34076-.36434q.01131-.00039.02261,0l.47663-.02807a.3713.3713,0,0,1,.36435.36436v3.08034h3.89178a.35286.35286,0,0,1,.36435.341q.00036.01146,0,.02291v.36437a.33816.33816,0,0,1-.36435.36388h-3.89178v7.14149c0,1.31564.13983,2.04437,1.45547,2.04437a5.98767,5.98767,0,0,0,2.54855-.7563c.25211-.13985.36438-.02856.44806.11226l.196.33582a.32189.32189,0,0,1-.08371.47564,5.5767,5.5767,0,0,1-3.24872,1.036c-2.324,0-2.52-1.37178-2.52-3.164Z"/><path d="M480.583,155.70389a.95267.95267,0,1,1,1.90454-.05518q.00078.02759,0,.05518a.95271.95271,0,0,1-1.90454,0Zm.33578,6.77664a.3709.3709,0,0,1,.36435-.36388h.50421a.3709.3709,0,0,1,.36438.36388V172.954a.32569.32569,0,0,1-.36438.36437H481.227a.32643.32643,0,0,1-.31009-.342l.00186-.02236Z"/><path d="M491.19769,161.8365a5.88639,5.88639,0,1,1-5.62335,6.13819q-.00622-.14256-.00555-.28525A5.75159,5.75159,0,0,1,491.19769,161.8365Zm0,10.61327a4.72824,4.72824,0,1,0-4.415-5.022q-.00837.1307-.00955.26167a4.54619,4.54619,0,0,0,4.32541,4.75673Q491.1481,172.44849,491.19769,172.44977Z"/><path d="M500.2457,162.48053a.37744.37744,0,0,1,.39047-.36394l.00146.00006h.28064a.31337.31337,0,0,1,.33582.28017l.11227,1.20387a5.9834,5.9834,0,0,1,4.14389-1.7642c3.13746,0,4.50922,1.98823,4.50922,5.12518V172.954a.3713.3713,0,0,1-.36435.36437h-.50421a.37043.37043,0,0,1-.36337-.36437v-5.99227c0-2.57663-1.20435-3.92084-3.33243-3.92084a5.74355,5.74355,0,0,0-4.005,1.9321v7.981a.32569.32569,0,0,1-.36438.36436H500.554a.32641.32641,0,0,1-.31009-.342l.00186-.02238Z"/><path d="M521.02814,154.07951a.37087.37087,0,0,1,.36438-.36387h11.23022a.37.37,0,0,1,.36341.36387v.47614a.37.37,0,0,1-.36341.36388H522.37231v7.7294H531.25a.37088.37088,0,0,1,.36438.36387v.47614a.37089.37089,0,0,1-.36438.36387h-8.87762v8.28974h10.25036a.36964.36964,0,0,1,.36341.36337v.44807a.37048.37048,0,0,1-.36341.36437H521.39252a.3713.3713,0,0,1-.36438-.36437Z"/><path d="M539.68347,167.57716l-3.89276-5.06857c-.1684-.196-.05615-.39194.16742-.39194h.72876a.52913.52913,0,0,1,.41949.25211l3.27729,4.34083h.02758l3.30488-4.34083a.5291.5291,0,0,1,.41949-.25211h.72876c.22351,0,.33582.196.16742.39194l-3.8642,5.041,4.06018,5.3768c.1684.196.05616.39194-.16742.39194h-.72869a.52789.52789,0,0,1-.4195-.25211l-3.50085-4.67663h-.02759l-3.50086,4.67663a.52936.52936,0,0,1-.42047.25211h-.72772c-.22455,0-.33582-.196-.1684-.39194Z"/><path d="M552.23132,166.09312a9.20643,9.20643,0,0,1,2.82825.5042c0-2.46437-.25207-3.69679-2.46484-3.69679a8.22727,8.22727,0,0,0-3.36.7563.29292.29292,0,0,1-.42047-.224l-.13983-.33581c-.08368-.25211.02856-.36437.16839-.42a8.09937,8.09937,0,0,1,3.83661-.84049c3.41614,0,3.556,2.04436,3.556,4.90067V172.954a.37047.37047,0,0,1-.3634.36437h-.33679c-.196,0-.27966-.11226-.33582-.30823l-.11224-1.00839a5.84865,5.84865,0,0,1-3.89179,1.5963,3.528,3.528,0,0,1-3.67175-3.37812q-.00723-.1731.00257-.34626C547.52612,167.717,549.29083,166.09312,552.23132,166.09312Zm-.89611,6.41277a5.09682,5.09682,0,0,0,3.72436-1.73613v-3.08034a7.2715,7.2715,0,0,0-2.82825-.5879c-2.129,0-3.557,1.0921-3.557,2.74453a2.5283,2.5283,0,0,0,2.66089,2.65986Z"/><path d="M560.3822,162.48053a.37089.37089,0,0,1,.36438-.36388h.33582a.30515.30515,0,0,1,.30822.28017l.13984,1.20387a4.88613,4.88613,0,0,1,3.86517-1.7642,3.8863,3.8863,0,0,1,3.66821,2.04435,5.67194,5.67194,0,0,1,4.2-2.04435c3.05274,0,4.36939,1.98823,4.36939,5.12518V172.954a.3713.3713,0,0,1-.36438.36437h-.5603a.32691.32691,0,0,1-.309-.3438l.00177-.02057v-5.99227c0-2.57663-1.12067-3.92084-3.22113-3.92084a4.7989,4.7989,0,0,0-3.69678,1.904,7.3416,7.3416,0,0,1,.25207,2.01678V172.954a.37047.37047,0,0,1-.3634.36437h-.53278a.33132.33132,0,0,1-.3374-.32518.33739.33739,0,0,1,.00159-.03919v-5.99227c0-2.57663-1.14826-3.92084-3.24872-3.92084a4.518,4.518,0,0,0-3.64069,1.9321v7.981a.325.325,0,0,1-.3634.36436h-.5603a.32648.32648,0,0,1-.31012-.342l.00189-.02235Z"/><path d="M582.95789,181.356a.37044.37044,0,0,1-.36438.36338h-.47565a.37043.37043,0,0,1-.36438-.36338V162.48053a.37622.37622,0,0,1,.388-.364l.00391.00015h.30822a.29527.29527,0,0,1,.33326.2515l.00256.02867.08472.78387a5.66564,5.66564,0,0,1,3.66821-1.34419c3.10889,0,5.40436,2.60469,5.40436,5.8805a5.62545,5.62545,0,0,1-5.364,5.8753q-.14612.00665-.29248.00569a5.11285,5.11285,0,0,1-3.33246-1.14824Zm3.19262-8.93377a4.50311,4.50311,0,0,0,4.56977-4.43551q.00219-.14868-.00538-.29727c0-2.6042-1.70758-4.70469-4.25616-4.70469a4.47178,4.47178,0,0,0-3.47327,1.56823v6.55262a4.37393,4.37393,0,0,0,3.165,1.31659Z"/><path d="M595.39447,154.07951a.37087.37087,0,0,1,.36438-.36387h.50421a.37.37,0,0,1,.3634.36387V172.954a.325.325,0,0,1-.3634.36437h-.5603a.32646.32646,0,0,1-.31012-.342l.00189-.02239Z"/><path d="M605.58868,161.8365a4.92853,4.92853,0,0,1,5.07044,4.78244q.005.17136-.00189.34275c0,.44807,0,1.0921-.42047,1.0921H601.304a4.423,4.423,0,0,0,4.3684,4.42454,5.98126,5.98126,0,0,0,3.30487-1.036c.25208-.1684.36341-.196.50422,0l.27966.39193c.08368.11226.05615.27967-.11224.44806a6.77058,6.77058,0,0,1-4.06018,1.31565c-3.41712,0-5.51667-2.63227-5.51667-5.90859C600.07208,164.49683,602.17157,161.8365,605.58868,161.8365Zm3.83661,5.20889a3.76893,3.76893,0,0,0-3.83661-4.08874,4.16731,4.16731,0,0,0-4.25689,4.0757l-.00025.013Z"/><path d="M620.88208,154.07951a.37087.37087,0,0,1,.36438-.36387h.61646a.3668.3668,0,0,1,.33581.36387v18.063h8.93378c.33581,0,.3634.1674.3634.36337v.5042a.32554.32554,0,0,1-.34027.31012l-.02313-.0019h-9.886a.3713.3713,0,0,1-.36438-.36436Z"/><path d="M633.40332,155.70389a.95267.95267,0,1,1,1.90454-.05518q.00082.02759,0,.05518a.95271.95271,0,0,1-1.90454,0Zm.33582,6.77664a.37088.37088,0,0,1,.36438-.36388h.50421a.37.37,0,0,1,.3634.36388V172.954a.325.325,0,0,1-.3634.36437h-.56031a.32647.32647,0,0,1-.31012-.342l.0019-.02239Z"/><path d="M639.22919,154.07951a.37087.37087,0,0,1,.36438-.36387h.47564a.37087.37087,0,0,1,.36438.36387v8.87714a5.78665,5.78665,0,0,1,3.47229-1.12016,5.55229,5.55229,0,0,1,5.49695,5.60708q-.00118.123-.00787.24585c0,3.27631-2.26788,5.90859-5.15228,5.90859a5.38594,5.38594,0,0,1-3.89277-1.65145l-.08471,1.00742a.359.359,0,0,1-.39191.36436h-.27966a.3713.3713,0,0,1-.36438-.36436Zm4.90118,18.39881c2.3526,0,4.06018-2.15663,4.06018-4.76134a4.427,4.427,0,0,0-4.17084-4.66913q-.12671-.00714-.25372-.007a5.239,5.239,0,0,0-3.30389,1.1763v6.27294a4.42524,4.42524,0,0,0,3.66821,1.98826Z"/><path d="M652.84155,162.48053a.37089.37089,0,0,1,.36438-.36388h.33582a.33349.33349,0,0,1,.33581.30823l.11225,1.14822a4.29731,4.29731,0,0,1,3.50085-1.73661,4.6263,4.6263,0,0,1,1.73615.33629c.25207.0837.392.27966.30822.50419l-.22454.55985c-.08374.196-.25208.224-.44806.13983a3.56893,3.56893,0,0,0-1.45551-.3358,3.93719,3.93719,0,0,0-3.33343,1.9321v7.981a.325.325,0,0,1-.36341.36436h-.5603a.32649.32649,0,0,1-.31012-.342l.00189-.02235Z"/><path d="M665.7262,166.09312a9.20642,9.20642,0,0,1,2.82824.5042c0-2.46437-.25207-3.69679-2.46484-3.69679a8.22727,8.22727,0,0,0-3.36.7563.29295.29295,0,0,1-.42047-.224l-.13983-.33581c-.08368-.25211.02857-.36437.1684-.42a8.09934,8.09934,0,0,1,3.83661-.84049c3.41613,0,3.556,2.04436,3.556,4.90067V172.954a.37048.37048,0,0,1-.36341.36437h-.33679c-.196,0-.27966-.11226-.33581-.30823l-.11225-1.00839a5.84875,5.84875,0,0,1-3.89178,1.5963,3.528,3.528,0,0,1-3.67182-3.37805q-.00723-.17313.00257-.34633C661.021,167.717,662.78571,166.09312,665.7262,166.09312Zm-.89618,6.41279a5.09682,5.09682,0,0,0,3.72436-1.73613v-3.08034a7.27132,7.27132,0,0,0-2.82824-.58791c-2.12806,0-3.557,1.0921-3.557,2.74454a2.52813,2.52813,0,0,0,2.66089,2.65984Z"/><path d="M673.8761,162.48053a.37088.37088,0,0,1,.36438-.36388h.33581a.33351.33351,0,0,1,.33582.30823l.11224,1.14822a4.2974,4.2974,0,0,1,3.50086-1.73661,4.62622,4.62622,0,0,1,1.73614.33629c.25208.0837.392.27966.30823.50419l-.22455.55985c-.08374.196-.25207.224-.44806.13983a3.569,3.569,0,0,0-1.4555-.3358,3.93722,3.93722,0,0,0-3.33344,1.9321v7.981a.325.325,0,0,1-.3634.36436h-.5603a.32646.32646,0,0,1-.31012-.342l.00189-.02238Z"/><path d="M681.49518,162.56473c-.11225-.224-.08472-.44808.16742-.44808h.61645a.41564.41564,0,0,1,.36438.25211l4.78791,9.46554h.05615l4.36841-9.46554a.41563.41563,0,0,1,.36438-.25211h.61645c.25208,0,.27966.224.16742.44808l-8.793,18.93107a.40437.40437,0,0,1-.36438.22355h-.644c-.22351,0-.30823-.13984-.196-.39194l3.78052-8.12134Z"/><path d="M245.87105,148.90749c-.11009,2.332.221,5.03227-.29812,7.70373-.52332,2.6933-2.04329,4.162-4.23958,4.0719-2.24475-.09206-3.90356-1.84459-4.23251-4.46411-.46817-3.72849.13351-7.45754-.004-11.18874a18.29319,18.29319,0,0,0-.51453-4.21319c-.74165-2.69968-2.31041-3.58042-4.88008-2.443-3.82574,1.69339-7.56158,3.5893-11.343,5.3836-1.62007.76872-3.23842,1.54731-4.89432,2.23262a4.89537,4.89537,0,0,1-4.90568-.53855c-2.02729-1.419-2.15621-3.47848-.244-5.06016a33.38179,33.38179,0,0,1,6.15213-3.67269c3.12284-1.6109,6.29906-3.12141,9.38843-4.79313,3.21552-1.74,3.36893-3.91513.54646-6.2774a18.5308,18.5308,0,0,0-5.1103-2.75921c-2.14786-.86866-4.31252-1.698-6.44042-2.613a10.48171,10.48171,0,0,1-4.05836-2.74022c-1.18671-1.41965-2.15079-2.98445-1.03284-4.877.90134-1.52586,3.2311-2.1471,5.23142-1.42888a30.4235,30.4235,0,0,1,2.84765,1.31684c4.37838,2.10623,8.717,4.30013,13.14307,6.30058,3.48907,1.57694,5.2124.63766,5.81583-3.17957.609-3.85284.2978-7.75788.14729-11.63707a13.244,13.244,0,0,1,.34386-3.99242,4.19919,4.19919,0,0,1,4.25041-3.30132,4.308,4.308,0,0,1,3.91447,3.71216c.792,4.30431.33553,8.654.39763,12.98256.08679,6.05094,1.81053,7.23319,7.43207,4.93121a77.3302,77.3302,0,0,0,8.12581-4.29176A26.31984,26.31984,0,0,1,267.922,111.11a4.54189,4.54189,0,0,1,5.553,2.61627c.67047,1.7947-.07153,3.291-2.54007,4.58242-4.63723,2.426-9.32043,4.76461-13.99554,7.1176-1.38736.69827-2.69968,1.49377-2.74387,3.22979-.04761,1.87135,1.366,2.67323,2.81262,3.40479,4.80326,2.429,9.61371,4.84477,14.38645,7.33262,1.64538.8577,2.74212,2.21613,2.17657,4.205-.56595,1.99033-2.07815,2.78376-4.10217,2.79116a8.07614,8.07614,0,0,1-3.49762-.64421c-1.4219-.66132-2.82819-1.36214-4.20682-2.10938a95.045,95.045,0,0,0-8.6896-4.66644c-4.91173-2.03676-7.15569-.57971-7.20156,4.64871C245.85892,145.26349,245.87105,146.90889,245.87105,148.90749Z"/><path d="M164.70423,179.88275q-38.44083,0-76.88164-.02373c-3.25247-.00543-6.47443.37331-9.72.4205A65.04474,65.04474,0,1,1,86.192,50.86365c.79616.11351,1.51549.32051,2.15691-.6516C99.603,33.15554,115.2313,22.2477,135.16416,17.92478c27.11659-5.88087,52.16021-.95493,74.41967,15.89355,13.28474,10.05539,21.018,23.86024,25.00911,39.857,1.121,4.49321.718,5.17436,7.10916,5.22067,19.99514.14489,36.64341,7.47336,48.52875,23.93453a43.70612,43.70612,0,0,1,8.17032,30.15149c-1.41288,15.46189-8.86252,27.68561-21.89216,36.15054a64.92822,64.92822,0,0,1-35.59487,10.79353C215.51088,180.09481,190.10843,180.31667,164.70423,179.88275Zm-54.75816-8.56312a1.2412,1.2412,0,0,0,1.2458.49871q15.689.21126,31.37833.406c23.77444.256,47.545-.39657,71.31886-.32585,8.89376.02645,17.78887-.07146,26.68114.04978a51.16287,51.16287,0,0,0,34.01372-11.683c12.12534-9.89216,17.269-22.73172,14.48615-38.25861-2.23955-12.49563-9.75159-21.49638-20.24721-28.13649-7.811-4.94167-16.55229-6.84941-25.68278-7.25667a101.6086,101.6086,0,0,0-12.73832.39643c-2.40131.1944-3.26912-.52047-3.55584-2.91264a15.0815,15.0815,0,0,1-.1034-1.67391,45.57,45.57,0,0,0-2.31038-13.49768C220.282,55.8714,211.93993,45.86406,201.039,38.03252c-21.04522-15.11941-44.36645-17.75244-68.86062-10.99934A61.86244,61.86244,0,0,0,97.09408,51.75943c-.75445,1.07785-.69128,1.38661.6031,1.87867,26.2622,9.9836,41.45233,28.84443,43.96186,56.904,1.81188,20.2589-5.2565,37.64814-19.9366,51.83671A67.13181,67.13181,0,0,1,109.94607,171.31963Zm-33.07544-.01628a56.05762,56.05762,0,0,0,.234-112.11495C46.45116,59.10733,20.96347,84.15114,20.85936,114.543A56.12133,56.12133,0,0,0,76.87063,171.30335Z"/><path d="M235.615,149.90453c.00349-2.67789.33363-5.368-.21306-8.03232-.70886-3.4547-2.31991-4.2998-5.49258-2.815-5.105,2.38906-10.1979,4.804-15.30617,7.186a5.01338,5.01338,0,0,1-5.78372-.747,2.80861,2.80861,0,0,1-.12317-4.51642,16.53852,16.53852,0,0,1,4.01164-2.71668c3.92108-2.02519,7.86188-4.01276,11.76718-6.0678,3.21829-1.69353,3.38762-3.91093.55285-6.20123-2.04078-1.64882-4.51594-2.41453-6.871-3.42423-1.8957-.81273-3.81832-1.56428-5.699-2.40967a8.46965,8.46965,0,0,1-3.56041-2.97274c-.91618-1.3322-1.37273-2.6827-.42957-4.20065a3.9966,3.9966,0,0,1,3.91255-1.76218,8.05867,8.05867,0,0,1,3.15343,1.05357q7.01715,3.37974,14.04815,6.73065a9.35454,9.35454,0,0,0,1.71643.65971c1.94713.48983,3.11293-.14855,3.76314-2.0659a12.95418,12.95418,0,0,0,.64742-4.12638c.01174-3.46455-.0431-6.92928-.0637-10.394a9.11243,9.11243,0,0,1,.39888-2.97966,4.13853,4.13853,0,0,1,8.07534.1698c.817,3.29078.67605,6.6596.65029,10.01483-.01373,1.78879-.08429,3.58335.02645,5.36562.227,3.65314,1.85636,4.74174,5.35376,3.64367a43.66857,43.66857,0,0,0,8.1355-3.91847,39.54733,39.54733,0,0,1,7.62869-3.79723c2.65884-.81084,4.93969-.1206,6.05559,1.82674a3.06365,3.06365,0,0,1-.7878,4.32112,24.47888,24.47888,0,0,1-3.45013,2.04352c-4.1672,2.14557-8.35916,4.243-12.53389,6.374a3.25462,3.25462,0,0,0-2.09426,2.42851,3.03914,3.03914,0,0,0,1.95573,3.34006q7.16553,3.65529,14.32448,7.32347a11.82606,11.82606,0,0,1,1.71282,1.03726,3.16818,3.16818,0,0,1,1.28471,3.5369,3.39585,3.39585,0,0,1-2.77229,2.801,8.4495,8.4495,0,0,1-5.23754-.60011c-3.34845-1.55668-6.47111-3.525-9.73026-5.24079-2.01352-1.06005-4.02009-2.18474-6.42556-2.21009a2.96482,2.96482,0,0,0-3.04227,2.13887,11.12493,11.12493,0,0,0-.45079,3.80961c-.11349,3.91063.24621,7.83249-.25987,11.73255a8.72038,8.72038,0,0,1-.48573,2.10895,3.81134,3.81134,0,0,1-3.47681,2.722,4.16687,4.16687,0,0,1-4.09185-2.39356,9.75134,9.75134,0,0,1-.78581-4.58219C235.58593,152.70159,235.615,151.30268,235.615,149.90453Z"/><path d="M152.71633,163.1531c-.38819-.03007-.78313-.03149-1.16775-.09516-2.65376-.43926-3.31237-1.60347-2.292-4.10763,2.52709-6.20224,5.10187-12.38523,7.60126-18.59858q15.7587-39.17526,31.468-78.37034c.97868-2.44324,2.18988-4.50509,4.99724-5.1503,3.20823-.73734,4.93095.8359,4.33457,4.06426-.65586,3.55018-2.26549,6.77012-3.63436,10.05775-11.225,26.95957-21.98189,54.108-32.85449,81.20979-1.03881,2.58941-2.20516,5.12739-3.29246,7.69765A5.1491,5.1491,0,0,1,152.71633,163.1531Z"/><path d="M90.269,106.478c.13656-11.28639,9.465-18.16148,20.35638-16.43795,6.75315,1.06866,11.771,4.62226,13.854,11.34286,2.8277,9.12315-3.68123,18.83368-13.50422,20.386-6.83856,1.08067-12.735-.72456-17.35023-6.05105A13.47357,13.47357,0,0,1,90.269,106.478Z"/><path d="M62.503,107.589c-.1,4.3469-2.69125,8.8997-7.82835,11.91525-7.7506,4.5497-17.90227,2.919-23.28492-3.66958-7.697-9.42146-2.5846-23.0218,9.634-25.56992a20.08456,20.08456,0,0,1,10.58253.47061C58.362,92.9792,62.52414,98.83059,62.503,107.589Z"/><path d="M78.21067,138.959c.26009-5.28455,2.94332-9.76633,7.838-12.89661a17.89751,17.89751,0,0,1,25.10063,6.01871,14.33391,14.33391,0,0,1-2.44521,18.23236c-8.77674,8.63-20.8935,5.62951-26.55775-.706A15.24167,15.24167,0,0,1,78.21067,138.959Z"/><path d="M56.648,155.7035a18.75014,18.75014,0,0,1-12.76923-5.69332c-5.22887-5.28788-5.45174-14.12538-.40208-20.402,4.70084-5.84305,10.91583-7.55071,18.05021-5.65314C68.644,125.848,73.446,130.1646,74.71337,137.71672a13.32131,13.32131,0,0,1-1.729,8.72044A18.47553,18.47553,0,0,1,56.648,155.7035Z"/><path d="M59.03476,85.45564A16.012,16.012,0,0,1,73.56894,69.3547c5.6245-.68565,10.6704.3749,14.979,4.19975,7.784,6.91,7.06031,18.88947-1.71919,24.46464-8.39744,5.33253-19.13688,4.47536-25.28573-4.36593A13.65736,13.65736,0,0,1,59.03476,85.45564Z"/><path d="M76.43364,121.829c-4.00479-.01581-6.31748-1.77254-6.98176-5.30337-.71587-3.8051.65033-6.30738,4.11149-7.53046,3.69136-1.30443,7.84432.0106,9.40577,3.01472C85.01375,115.94351,82.71534,122.21936,76.43364,121.829Z"/></svg>