<?xml version="1.0" encoding="utf-8"?>
<!-- Generator: Adobe Illustrator 24.2.0, SVG Export Plug-In . SVG Version: 6.00 Build 0)  -->
<svg version="1.1" id="Layer_1" xmlns="http://www.w3.org/2000/svg" xmlns:xlink="http://www.w3.org/1999/xlink" x="0px" y="0px"
	 viewBox="0 0 1000 265" style="enable-background:new 0 0 1000 265;" xml:space="preserve">
<style type="text/css">
	.st0{fill:#FFFFFF;}
	.st1{fill:none;}
	.st2{fill:#B4B4B4;}
	.st3{fill:#676767;}
	.st4{fill:#E6E6E5;}
	.st5{fill:#541431;}
	.st6{fill:#C92F3B;}
	.st7{fill:#891720;}
	.st8{fill:#DD8799;}
	.st9{fill:#010101;}
</style>
<g>
	<g>
		<path d="M390.4,181.7c-7.9,0-15.1-1.4-21.7-4.2c-6.6-2.8-12.3-6.6-17-11.4c-4.7-4.9-8.4-10.6-11.1-17.2c-2.7-6.6-4-13.8-4-21.4
			c0-7.7,1.3-14.8,4-21.4c2.7-6.6,6.4-12.3,11.1-17.2c4.7-4.9,10.4-8.7,17-11.4c6.6-2.8,13.8-4.2,21.7-4.2c7.9,0,15.1,1.4,21.7,4.2
			c6.6,2.8,12.3,6.6,17,11.4c4.7,4.9,8.4,10.6,11.1,17.2c2.7,6.6,4,13.8,4,21.4c0,7.7-1.3,14.8-4,21.4c-2.7,6.6-6.4,12.3-11.1,17.2
			c-4.7,4.9-10.4,8.7-17,11.4C405.5,180.3,398.2,181.7,390.4,181.7z M390.4,168.5c5.9,0,11.3-1.1,16-3.3c4.8-2.2,8.8-5.1,12.2-8.8
			c3.4-3.7,6-8,7.9-13c1.8-5,2.8-10.3,2.8-16c0-5.6-0.9-11-2.8-16c-1.8-5-4.5-9.4-7.9-13c-3.4-3.7-7.5-6.6-12.2-8.8
			c-4.8-2.2-10.1-3.3-16-3.3c-5.9,0-11.3,1.1-16,3.3c-4.8,2.2-8.8,5.1-12.2,8.8c-3.4,3.7-6,8-7.9,13c-1.8,5-2.8,10.3-2.8,16
			c0,5.6,0.9,11,2.8,16c1.8,5,4.5,9.4,7.9,13c3.4,3.7,7.5,6.6,12.2,8.8C379.1,167.4,384.4,168.5,390.4,168.5z"/>
		<path d="M458,109.9h13.1v9.9h0.3c2.5-3.7,6-6.6,10.4-8.6c4.4-2,9-3.1,13.6-3.1c5.3,0,10.2,0.9,14.5,2.8c4.3,1.8,8,4.4,11.1,7.7
			c3.1,3.3,5.4,7.2,7.1,11.6c1.7,4.4,2.5,9.2,2.5,14.2c0,5.2-0.8,9.9-2.5,14.4c-1.7,4.4-4,8.3-7.1,11.5c-3.1,3.3-6.8,5.8-11.1,7.7
			c-4.3,1.8-9.2,2.8-14.5,2.8c-5,0-9.6-1-14-3.1c-4.4-2.1-7.7-4.9-10.1-8.5h-0.3v51H458V109.9z M493.9,120.4c-3.5,0-6.7,0.6-9.5,1.8
			c-2.8,1.2-5.2,2.9-7.1,5c-1.9,2.1-3.5,4.6-4.5,7.6c-1.1,3-1.6,6.2-1.6,9.7c0,3.5,0.5,6.7,1.6,9.7c1.1,3,2.6,5.5,4.5,7.6
			c1.9,2.1,4.3,3.7,7.1,5c2.8,1.2,6,1.8,9.5,1.8s6.7-0.6,9.5-1.8c2.8-1.2,5.2-2.9,7.1-5c1.9-2.1,3.4-4.6,4.5-7.6
			c1.1-3,1.6-6.2,1.6-9.7c0-3.5-0.5-6.7-1.6-9.7c-1.1-3-2.6-5.5-4.5-7.6c-1.9-2.1-4.3-3.7-7.1-5C500.5,121,497.4,120.4,493.9,120.4z
			"/>
		<path d="M557,149.3c0,3,0.7,5.8,2,8.2c1.3,2.5,3,4.6,5.2,6.3c2.1,1.7,4.6,3.1,7.4,4.1c2.8,1,5.7,1.5,8.7,1.5
			c4.1,0,7.6-0.9,10.6-2.8c3-1.9,5.8-4.4,8.3-7.5l9.9,7.6c-7.3,9.4-17.5,14.1-30.6,14.1c-5.4,0-10.4-0.9-14.8-2.8
			c-4.4-1.8-8.2-4.4-11.2-7.7c-3.1-3.3-5.4-7.1-7.1-11.5c-1.7-4.4-2.5-9.2-2.5-14.4c0-5.2,0.9-9.9,2.7-14.4
			c1.8-4.4,4.3-8.3,7.4-11.5c3.2-3.3,6.9-5.8,11.3-7.7c4.4-1.8,9.1-2.8,14.3-2.8c6.1,0,11.3,1.1,15.5,3.2c4.2,2.1,7.7,4.9,10.4,8.4
			c2.7,3.5,4.7,7.3,5.9,11.7c1.2,4.3,1.8,8.7,1.8,13.2v4.7H557z M598.4,138.8c-0.1-2.9-0.6-5.6-1.4-8c-0.8-2.4-2.1-4.5-3.7-6.3
			c-1.7-1.8-3.7-3.2-6.2-4.2c-2.5-1-5.4-1.5-8.7-1.5c-3.2,0-6.1,0.6-8.8,1.8c-2.7,1.2-4.9,2.8-6.8,4.7c-1.8,1.9-3.3,4.1-4.3,6.5
			c-1,2.4-1.5,4.7-1.5,7.1H598.4z"/>
		<path d="M625.2,109.9h13.1v10.6h0.3c1.7-3.7,4.5-6.7,8.6-9c4.1-2.3,8.8-3.4,14.1-3.4c3.3,0,6.5,0.5,9.5,1.5c3.1,1,5.7,2.6,8,4.7
			c2.3,2.1,4.1,4.9,5.5,8.2c1.4,3.4,2,7.3,2,11.9V179h-13.1v-40.8c0-3.2-0.4-6-1.3-8.2c-0.9-2.3-2-4.1-3.5-5.5
			c-1.5-1.4-3.1-2.4-5-3.1c-1.9-0.6-3.9-0.9-5.9-0.9c-2.7,0-5.2,0.4-7.6,1.3s-4.4,2.3-6.1,4.2c-1.7,1.9-3.1,4.3-4.1,7.2
			c-1,2.9-1.5,6.4-1.5,10.4V179h-13.1V109.9z"/>
		<path d="M710.6,75.8h70.1v21h-47.4v19.2h44.8v21h-44.8v21h50v21h-72.7V75.8z"/>
		<path d="M827.3,125.1l-34.1-49.3h28.6l22,36.2l21.1-36.2h27.6L859,124.7l37.3,54.4h-28.6l-25.2-41.5L818.1,179h-27L827.3,125.1z"
			/>
		<path d="M906.9,75.8h39.9c5.2,0,10.2,0.5,14.9,1.5c4.7,1,8.8,2.7,12.4,5.1c3.5,2.4,6.4,5.6,8.5,9.6c2.1,4,3.1,9.1,3.1,15.1
			c0,7.3-1.9,13.5-5.7,18.6c-3.8,5.1-9.3,8.3-16.6,9.7l26.2,43.6h-27.3l-21.6-41.3h-11.2V179h-22.7V75.8z M929.6,118.5H943
			c2,0,4.2-0.1,6.5-0.2c2.3-0.1,4.3-0.6,6.2-1.3c1.8-0.7,3.4-1.9,4.6-3.4c1.2-1.6,1.8-3.7,1.8-6.6c0-2.6-0.5-4.7-1.6-6.3
			c-1.1-1.6-2.4-2.7-4.1-3.6c-1.7-0.8-3.5-1.4-5.7-1.7c-2.1-0.3-4.2-0.4-6.3-0.4h-14.9V118.5z"/>
	</g>
	<g>
		<path d="M66.2,216.2c17.7-3.3,40.7-9,58.8-18.3l-36.2,6.4l-3.5,0.6l-2.2-2.8l-0.7-0.9l-5.9-1c-9.5-1.7-18.1-6.4-23.1-12.6
			c-5.9-7.3-5.7-16,0.6-21.4l0.2-0.1l-11.3-14l-32.5,5.7l48,59.8l2.9-0.5c0.5-0.1,1.1-0.2,1.6-0.3C63.9,216.6,65.1,216.4,66.2,216.2
			z"/>
		<path d="M58.3,185.3c1.5,1.6,3.3,3.1,5.3,4.4c4,2.6,8.9,4.5,13.8,5.3l-20-24.9c-0.7,0.7-1.4,1.4-1.8,2.1c-0.5,0.8-0.8,1.6-1,2.5
			c-0.1,0.6-0.2,1.2-0.2,1.8c0,2.4,1,5.1,3.1,7.8C57.7,184.7,58,185,58.3,185.3z"/>
		<path d="M141.8,137.7l-53,9.3l-3.5,0.6l-2.2-2.8l-4.4-5.4L58,113.8l-0.6-0.8L43.8,96.1L10.3,102L38,136.4l11.6,14.5l6.3,7.8
			l6.3,7.8l0.7,0.9l22.6,28.2l2.3,2.9l60.5-10.7h0l92.4-16.3l39.2-6.9l-35.9-44.8L141.8,137.7z M53.6,147.6L42,133.1l-22.1-27.5
			l21.8-3.8l9.5,11.8c-1.1,1.7-1.8,3.5-2,5.5c-0.6,4.3,0.9,8.7,4.2,12.7c4.9,6.1,13.4,10.7,22.5,12.5l3.1,3.9l2.2,2.8l1.9,2.4l3-0.5
			l3.5-0.6l20.8-3.7c-14.8,5.6-30.9,9.4-44.2,11.9c-0.7,0.1-1.3,0.2-2,0.4L53.6,147.6z"/>
		<path d="M83.2,85.2c1.8,0,3.6-0.1,5.3-0.4c6.2-1.1,10.8-4.3,12.4-8.6c1.6-4.1,0.5-8.8-3-13.2C91,54.2,76.4,49.1,64.8,51.1
			c-6.2,1.1-10.8,4.3-12.4,8.6c-1.6,4.1-0.5,8.8,3,13.2C61.3,80.3,72.7,85.2,83.2,85.2z M57.2,61.6c1-2.6,4.1-4.6,8.4-5.3
			c1.4-0.2,2.8-0.4,4.3-0.4c8.9,0,19.1,4.2,23.9,10.3c2.3,2.9,3.1,5.7,2.2,8.1c-1,2.6-4.1,4.6-8.4,5.3c-9.6,1.7-22.5-2.8-28.2-9.9
			C57.1,66.8,56.3,63.9,57.2,61.6z"/>
		<path d="M50.6,94.9l11.5,14.3l0.5,0.6l1.2,1.5l6.4,8l17.6,21.9l62-10.9l56.6-10l33.2-5.9l6.8-1.2l33.5-5.9l-49.6-61.7l-24.4-30.4
			l-3.4-4.3L98.6,29.2L10.3,44.7l35.9,44.8L50.6,94.9z M227.7,50.7l42.5,52.9l-24.8,4.4l-6.8,1.2l-89.8,15.8l-8.8,1.6l-50.1,8.8
			l-15.7-19.5l-2.6-3.2c14.3-2.8,27.3-6.3,38.6-10.3c16-5.7,28.6-12.5,37.5-20.2l0.3-0.2c0.2-0.2,0.5-0.4,0.7-0.6
			c0.3-0.2,0.5-0.5,0.7-0.7c1.1-1,2.2-2.1,3.2-3.2c0.5-0.5,0.9-1,1.4-1.6c0.4-0.5,0.8-0.9,1.3-1.5c9.8-10.7,24.8-17.9,44.6-21.4
			l0.2,0l0.1,0l0.1,0C208.9,51.5,218.1,50.7,227.7,50.7C227.7,50.7,227.7,50.7,227.7,50.7z M99.5,34.3l100.8-17.8l1.5,1.9l21.8,27.2
			c-7.1,0.2-15.5,0.8-24.2,2.3c-0.1,0-0.1,0-0.2,0c-0.1,0-0.1,0-0.2,0c-17,3-35.1,9.6-47.5,23.1c-0.5,0.5-1,1.1-1.5,1.7
			c-0.4,0.5-0.8,1-1.3,1.4c-0.9,1-1.9,2-2.9,2.9c-0.2,0.2-0.5,0.4-0.7,0.6c-0.3,0.3-0.6,0.5-0.9,0.8c-2.3,2-4.9,3.9-7.6,5.7
			c-0.7,0.5-1.4,0.9-2.1,1.3c-2.1,1.3-4.3,2.6-6.6,3.8c-12.2,6.4-26.6,11.1-40.6,14.7c-1.7,0.4-3.5,0.9-5.2,1.3
			c-4.9,1.2-9.8,2.2-14.4,3v0l-0.1-0.2l-1.2-1.5l-0.5-0.6L54.7,91.6l-4.3-5.4L19.9,48.3L99.5,34.3z"/>
		<path d="M139.2,195.4c-19,13.6-48.4,21.5-72,25.9c-1.2,0.2-2.3,0.4-3.5,0.6h0c-0.5,0.1-1.1,0.2-1.6,0.3l25.6,31.9l192.1-33.9
			l-34.9-43.5L139.2,195.4z"/>
	</g>
</g>
</svg>
