<svg id="Layer_1" data-name="Layer 1" xmlns="http://www.w3.org/2000/svg" viewBox="0 0 305 176"><defs><style>.cls-1{fill:#fff;}</style></defs><path class="cls-1" d="M161.98192,172.2736q-39.36186,0-78.7237-.0243c-3.3304-.00556-6.62955.38226-9.95287.43058A66.6032,66.6032,0,1,1,81.58852,40.16324c.81524.11623,1.55181.32819,2.20859-.66721,11.52381-17.46519,27.52652-28.63437,47.937-33.06086C159.50038.41339,185.144,5.45736,207.93683,22.70952c13.603,10.29632,21.52156,24.43192,25.60831,40.81192,1.1479,4.60086.73518,5.29833,7.2795,5.34576,20.47422.14836,37.52137,7.65242,49.69148,24.508a44.75324,44.75324,0,0,1,8.36608,30.87392c-1.44673,15.83234-9.07486,28.34894-22.41668,37.01669a66.484,66.484,0,0,1-36.44772,11.05214C214.00589,172.49074,187.9948,172.71791,161.98192,172.2736Zm-56.07015-8.76829a1.271,1.271,0,0,0,1.27565.51066q16.065.21631,32.13015.41578c24.34407.26216,48.68418-.40607,73.02763-.33366,9.10687.02709,18.21509-.07317,27.32042.051a52.38865,52.38865,0,0,0,34.82868-11.96292c12.41586-10.12918,17.68272-23.27638,14.83324-39.17528-2.29322-12.795-9.98524-22.01143-20.73233-28.81064-7.99812-5.06007-16.94888-7.01352-26.29813-7.43053a104.04388,104.04388,0,0,0-13.04354.40592c-2.45884.19906-3.34743-.53293-3.641-2.98242a15.44242,15.44242,0,0,1-.10589-1.714,46.66151,46.66151,0,0,0-2.36574-13.82108c-4.24952-13.36711-12.79151-23.61423-23.95367-31.63341C177.63777,11.543,153.75777,8.84689,128.67672,15.7618A63.34457,63.34457,0,0,0,92.75186,41.08048c-.77253,1.10367-.70785,1.41983.61754,1.92368,26.89144,10.22281,42.44552,29.53554,45.01518,58.26745,1.85529,20.7443-5.38245,38.55018-20.41428,53.0787A68.74009,68.74009,0,0,1,105.91177,163.50531Zm-33.86791-.01667a57.40074,57.40074,0,0,0,.23965-114.80119c-31.388-.083-57.48633,25.56083-57.59293,56.68085A57.466,57.466,0,0,0,72.04386,163.48864Z"/><path class="cls-1" d="M234.59173,141.57711c.00357-2.74206.34162-5.4966-.21817-8.22477-.72585-3.53747-2.3755-4.40282-5.62418-2.88249-5.22731,2.4463-10.44223,4.91914-15.6729,7.35822a5.13352,5.13352,0,0,1-5.9223-.76491,2.8759,2.8759,0,0,1-.12612-4.62463,16.93461,16.93461,0,0,1,4.10776-2.78178c4.015-2.07371,8.05025-4.1089,12.04912-6.21318,3.2954-1.7341,3.46879-4.00464.56609-6.34981-2.08967-1.68832-4.62414-2.47238-7.03564-3.50627-1.94112-.8322-3.90981-1.60176-5.83557-2.46741a8.67259,8.67259,0,0,1-3.64571-3.044c-.93814-1.36412-1.40563-2.747-.43987-4.30129a4.09236,4.09236,0,0,1,4.0063-1.80441,8.25189,8.25189,0,0,1,3.229,1.07881q7.18528,3.46071,14.38474,6.89192a9.57791,9.57791,0,0,0,1.75755.67551c1.99379.50157,3.18752-.1521,3.85331-2.1154a13.2645,13.2645,0,0,0,.66293-4.22524c.012-3.54756-.04413-7.09531-.06522-10.643a9.33055,9.33055,0,0,1,.40843-3.051,4.23769,4.23769,0,0,1,8.26882.17387c.83656,3.36962.69225,6.81916.66587,10.25478-.01406,1.83165-.08631,3.6692.02709,5.49418.23242,3.74067,1.90083,4.85535,5.482,3.731a44.71608,44.71608,0,0,0,8.33043-4.01235,40.49482,40.49482,0,0,1,7.81147-3.88822c2.72255-.83027,5.058-.12349,6.20068,1.87051a3.13706,3.13706,0,0,1-.80668,4.42466,25.06666,25.06666,0,0,1-3.53279,2.09248c-4.267,2.197-8.55945,4.34466-12.8342,6.52677a3.33257,3.33257,0,0,0-2.14443,2.4867,3.11194,3.11194,0,0,0,2.00258,3.42008q7.33721,3.74287,14.66769,7.49894a12.1104,12.1104,0,0,1,1.75386,1.06211,3.24412,3.24412,0,0,1,1.3155,3.62165,3.47722,3.47722,0,0,1-2.83872,2.86815,8.652,8.652,0,0,1-5.363-.61449c-3.42866-1.594-6.62615-3.60943-9.96339-5.36636-2.06176-1.08544-4.1164-2.23708-6.5795-2.263a3.03585,3.03585,0,0,0-3.11517,2.19011,11.39131,11.39131,0,0,0-.46159,3.9009c-.11621,4.00432.25211,8.02014-.2661,12.01365a8.92922,8.92922,0,0,1-.49737,2.15948,3.90265,3.90265,0,0,1-3.56011,2.78725,4.2667,4.2667,0,0,1-4.18989-2.45091,9.985,9.985,0,0,1-.80464-4.692C234.56193,144.44119,234.59173,143.00876,234.59173,141.57711Z"/><path class="cls-1" d="M149.7068,155.14311c-.3975-.03078-.80189-.03224-1.19574-.09743-2.71733-.4498-3.39172-1.64189-2.34695-4.20605,2.58764-6.35085,5.22411-12.682,7.78339-19.0442q16.13626-40.11389,32.222-80.24808c1.00213-2.50178,2.24235-4.613,5.117-5.2737,3.28509-.755,5.04908.85593,4.43842,4.16164-.67157,3.63525-2.31978,6.93233-3.72144,10.29874-11.49393,27.60551-22.50857,55.40438-33.64168,83.15555-1.0637,2.65145-2.258,5.25024-3.37134,7.88208A5.27248,5.27248,0,0,1,149.7068,155.14311Z"/><path class="cls-1" d="M85.76325,97.11007c.13983-11.55681,9.69177-18.59663,20.84411-16.83181,6.915,1.09427,12.053,4.733,14.186,11.61463,2.89545,9.34174-3.76944,19.28493-13.82777,20.87441-7.00241,1.10657-13.0401-.74192-17.76595-6.196A13.79637,13.79637,0,0,1,85.76325,97.11007Z"/><path class="cls-1" d="M57.332,98.24774c-.10241,4.45106-2.75573,9.11293-8.01591,12.20074-7.93631,4.65871-18.3312,2.989-23.84283-3.7575-7.88141-9.6472-2.64652-23.5734,9.86478-26.18257a20.56563,20.56563,0,0,1,10.83609.48189C53.09174,83.28787,57.35362,89.27945,57.332,98.24774Z"/><path class="cls-1" d="M73.416,130.36929c.26631-5.41117,3.01383-10.00033,8.02574-13.20561a18.32634,18.32634,0,0,1,25.702,6.16291A14.67736,14.67736,0,0,1,104.64,141.9958c-8.987,8.83673-21.3941,5.76439-27.19406-.72287A15.60683,15.60683,0,0,1,73.416,130.36929Z"/><path class="cls-1" d="M51.33672,147.515a19.19936,19.19936,0,0,1-13.07517-5.82974c-5.35416-5.41457-5.58236-14.46382-.41171-20.89082,4.81347-5.98305,11.17737-7.73163,18.48268-5.7886,7.2876,1.9383,12.20466,6.35834,13.50239,14.09141a13.64048,13.64048,0,0,1-1.77038,8.92938A18.91823,18.91823,0,0,1,51.33672,147.515Z"/><path class="cls-1" d="M53.78065,75.584A16.39562,16.39562,0,0,1,68.66306,59.09733c5.75926-.70208,10.92606.38388,15.33791,4.30038,7.9705,7.0756,7.22947,19.34205-1.76038,25.05079C73.642,93.90881,62.6452,93.0311,56.349,83.978A13.98451,13.98451,0,0,1,53.78065,75.584Z"/><path class="cls-1" d="M71.5964,112.82885c-4.10075-.01618-6.46885-1.815-7.149-5.43043-.733-3.89627.66591-6.4585,4.21-7.71089,3.7798-1.33568,8.03227.01086,9.63113,3.087C80.38209,106.8024,78.0286,113.22862,71.5964,112.82885Z"/></svg>